<svg width="262" height="311" viewBox="0 0 262 311" fill="none" xmlns="http://www.w3.org/2000/svg">
<rect x="0.458984" y="89" width="261" height="222" fill="#154063"/>
<path d="M42.7102 229.234C42.9302 228.834 43.2153 228.578 43.5657 228.464C43.8264 228.382 44.2298 228.333 44.7757 228.317C44.792 228.895 44.8816 229.454 45.0446 229.991L47.8801 239.06V231.177C47.8882 230.541 47.7701 230.118 47.5256 229.906C47.3138 229.727 46.8738 229.641 46.2056 229.649V228.317H46.5112C47.2201 228.317 47.7212 228.366 48.0145 228.464C48.373 228.578 48.6623 228.834 48.8823 229.234C49.1023 228.834 49.3874 228.578 49.7378 228.464C50.0393 228.366 50.5404 228.317 51.2411 228.317H51.5344V229.649C51.51 229.649 51.4733 229.649 51.4244 229.649C50.8704 229.649 50.4874 229.735 50.2756 229.906C50.1045 230.044 49.9945 230.244 49.9456 230.505C49.9293 230.594 49.9211 230.818 49.9211 231.177V235.222C50.133 235.239 50.3122 235.296 50.4589 235.394C50.7278 235.581 50.8622 235.833 50.8622 236.151C50.8622 236.502 50.7115 236.771 50.41 236.958C50.2796 237.039 50.1167 237.084 49.9211 237.092V242.14C49.9211 243.053 49.9782 244.006 50.0922 245C49.7337 245 49.4567 244.959 49.2611 244.878C48.9434 244.731 48.6378 244.466 48.3445 244.083C47.9534 244.694 47.3708 245 46.5968 245V244.866L46.609 244.377L46.6212 243.766C46.6212 243.326 46.5845 242.987 46.5112 242.751L43.749 234.379V242.14C43.749 242.588 43.7979 242.918 43.8957 243.13C44.0016 243.358 44.1727 243.505 44.409 243.57C44.6372 243.635 44.959 243.668 45.3746 243.668V245H45.069C44.3683 245 43.8672 244.951 43.5657 244.853C43.2153 244.739 42.9302 244.483 42.7102 244.083C42.4902 244.483 42.2009 244.739 41.8424 244.853C41.5409 244.951 41.0398 245 40.3391 245H40.0335V243.668C40.7017 243.676 41.1417 243.586 41.3535 243.399C41.598 243.195 41.7161 242.776 41.708 242.14V237.092C41.488 237.076 41.3046 237.015 41.158 236.909C40.8972 236.722 40.7669 236.469 40.7669 236.151C40.7669 235.801 40.9217 235.536 41.2313 235.357C41.3617 235.284 41.5205 235.239 41.708 235.222V231.177C41.7161 230.541 41.598 230.118 41.3535 229.906C41.1417 229.727 40.7017 229.641 40.0335 229.649V228.317H40.3391C41.0398 228.317 41.5409 228.366 41.8424 228.464C42.2009 228.578 42.4902 228.834 42.7102 229.234ZM63.0945 229.087C63.396 228.81 63.7545 228.496 64.17 228.146L64.83 228.647C64.3574 229.177 64.1211 229.739 64.1211 230.334C64.1211 230.57 64.166 230.892 64.2556 231.299C64.3371 231.641 64.3778 231.894 64.3778 232.057C64.3778 232.375 64.2556 232.68 64.0111 232.974C63.6771 233.373 63.2493 233.572 62.7278 233.572C62.2308 233.572 61.8397 233.377 61.5545 232.986C61.3508 232.709 61.249 232.403 61.249 232.069C61.249 231.499 61.5056 230.875 62.019 230.199C61.579 229.832 61.1023 229.649 60.589 229.649C59.9209 229.649 59.4931 229.865 59.3057 230.297C59.2079 230.525 59.159 230.843 59.159 231.25V235.308H62.3123L61.6279 236.127L62.0923 237.007H59.159V242.14C59.1509 242.776 59.269 243.195 59.5135 243.399C59.7253 243.586 60.1653 243.676 60.8334 243.668H61.3223V245H60.149C59.4483 245 58.9472 244.951 58.6457 244.853C58.2872 244.739 57.9979 244.483 57.7779 244.083C57.5579 244.483 57.2687 244.739 56.9102 244.853C56.6087 244.951 56.1076 245 55.4069 245H54.7224V243.668C55.3906 243.676 55.8306 243.586 56.0424 243.399C56.2868 243.195 56.405 242.776 56.3968 242.14V237.092C56.1768 237.076 55.9935 237.015 55.8469 236.909C55.5861 236.722 55.4557 236.469 55.4557 236.151C55.4557 235.801 55.6106 235.536 55.9202 235.357C56.0506 235.284 56.2094 235.239 56.3968 235.222V231.177C56.405 230.541 56.2868 230.118 56.0424 229.906C55.8306 229.727 55.3906 229.641 54.7224 229.649V228.317H55.4069C56.1076 228.317 56.6087 228.366 56.9102 228.464C57.2687 228.578 57.5579 228.834 57.7779 229.234C58.1772 228.508 59.0001 228.146 60.2468 228.146C61.3549 228.146 62.3041 228.46 63.0945 229.087ZM69.6558 230.199C70.1691 230.884 70.4257 231.507 70.4257 232.069C70.4257 232.477 70.2832 232.831 69.998 233.132C69.7128 233.426 69.3584 233.572 68.9347 233.572C68.4213 233.572 67.9976 233.373 67.6636 232.974C67.4191 232.68 67.2969 232.371 67.2969 232.045C67.2969 231.89 67.3336 231.641 67.4069 231.299C67.4965 230.892 67.5413 230.57 67.5413 230.334C67.5413 229.739 67.3051 229.177 66.8325 228.647L67.5047 228.146C67.8958 228.48 68.238 228.781 68.5313 229.05C69.3054 228.447 70.0754 228.146 70.8413 228.146C71.5746 228.146 72.3039 228.451 73.029 229.063C73.7542 228.451 74.4834 228.146 75.2168 228.146C75.9745 228.146 76.7445 228.447 77.5267 229.05C77.8201 228.781 78.1623 228.48 78.5534 228.146L79.2256 228.647C78.753 229.177 78.5167 229.743 78.5167 230.346C78.5167 230.574 78.5615 230.892 78.6511 231.299C78.7245 231.641 78.7611 231.894 78.7611 232.057C78.7611 232.375 78.6389 232.68 78.3945 232.974C78.0523 233.373 77.6245 233.572 77.1112 233.572C76.6141 233.572 76.223 233.377 75.9379 232.986C75.7342 232.709 75.6323 232.403 75.6323 232.069C75.6323 231.499 75.889 230.875 76.4023 230.199C76.1497 229.784 75.8197 229.576 75.4123 229.576C74.9723 229.576 74.679 229.792 74.5323 230.224C74.4509 230.476 74.4101 230.904 74.4101 231.507V235.222C74.622 235.239 74.8012 235.296 74.9479 235.394C75.2168 235.581 75.3512 235.833 75.3512 236.151C75.3512 236.502 75.2005 236.771 74.899 236.958C74.7686 237.039 74.6057 237.084 74.4101 237.092V242.14C74.402 242.776 74.5201 243.195 74.7646 243.399C74.9764 243.586 75.4164 243.676 76.0845 243.668V245H75.4001C74.6994 245 74.1942 244.951 73.8846 244.853C73.5342 244.739 73.249 244.483 73.029 244.083C72.809 244.483 72.5198 244.739 72.1613 244.853C71.8598 244.951 71.3587 245 70.658 245H69.9735V243.668C70.6417 243.676 71.0817 243.586 71.2935 243.399C71.5379 243.195 71.6561 242.776 71.6479 242.14V237.092C71.4279 237.076 71.2446 237.015 71.098 236.909C70.8372 236.722 70.7068 236.469 70.7068 236.151C70.7068 235.801 70.8617 235.536 71.1713 235.357C71.3017 235.284 71.4605 235.239 71.6479 235.222V231.507C71.6479 230.912 71.6072 230.484 71.5257 230.224C71.3791 229.792 71.0857 229.576 70.6457 229.576C70.2383 229.576 69.9083 229.784 69.6558 230.199ZM96.3814 234.966H99.9991L99.4369 236.31L99.9991 237.337H96.3814V240.967L95.0369 240.392L94.0103 240.967V237.337H90.3804L90.9426 236.005L90.3804 234.966H94.0103V231.336L95.3425 231.91L96.3814 231.336V234.966ZM122.056 235.406L119.709 242.666L118.78 241.663L117.79 242.666L115.554 235.54V242.14C115.554 242.588 115.603 242.918 115.7 243.13C115.806 243.358 115.977 243.505 116.214 243.57C116.442 243.635 116.764 243.668 117.179 243.668V245H116.874C116.173 245 115.672 244.951 115.37 244.853C115.02 244.739 114.735 244.483 114.515 244.083C114.295 244.483 114.006 244.739 113.647 244.853C113.346 244.951 112.845 245 112.144 245H111.838V243.668C112.506 243.676 112.946 243.586 113.158 243.399C113.403 243.195 113.521 242.776 113.513 242.14V237.092C113.293 237.076 113.109 237.015 112.963 236.909C112.702 236.722 112.572 236.469 112.572 236.151C112.572 235.801 112.726 235.536 113.036 235.357C113.166 235.284 113.325 235.239 113.513 235.222V231.177C113.521 230.541 113.403 230.118 113.158 229.906C112.946 229.727 112.506 229.641 111.838 229.649V228.317H112.144C112.845 228.317 113.346 228.366 113.647 228.464C114.006 228.578 114.295 228.834 114.515 229.234C114.735 228.834 115.02 228.578 115.37 228.464C115.672 228.366 116.173 228.317 116.874 228.317H117.167V229.649C116.654 229.649 116.397 229.739 116.397 229.918C116.397 229.983 116.417 230.077 116.458 230.199L119.074 238.901L121.799 230.48C121.848 230.325 121.873 230.207 121.873 230.126C121.873 229.808 121.38 229.649 120.394 229.649V228.317H121.066C121.767 228.317 122.268 228.366 122.569 228.464C122.928 228.578 123.217 228.834 123.437 229.234C123.657 228.834 123.946 228.578 124.305 228.464C124.606 228.366 125.107 228.317 125.808 228.317H126.492V229.649C125.824 229.641 125.384 229.727 125.172 229.906C124.928 230.118 124.81 230.541 124.818 231.177V235.222C125.03 235.239 125.209 235.296 125.356 235.394C125.625 235.581 125.759 235.833 125.759 236.151C125.759 236.502 125.608 236.771 125.307 236.958C125.177 237.039 125.014 237.084 124.818 237.092V242.14C124.81 242.776 124.928 243.195 125.172 243.399C125.384 243.586 125.824 243.676 126.492 243.668V245H125.808C125.107 245 124.606 244.951 124.305 244.853C123.946 244.739 123.657 244.483 123.437 244.083C123.217 244.483 122.928 244.739 122.569 244.853C122.268 244.951 121.767 245 121.066 245H120.381V243.668C121.05 243.676 121.49 243.586 121.701 243.399C121.946 243.195 122.064 242.776 122.056 242.14V235.406ZM138.224 229.099C138.533 228.822 138.9 228.504 139.324 228.146L139.984 228.647C139.511 229.177 139.275 229.739 139.275 230.334C139.275 230.578 139.32 230.9 139.409 231.299C139.491 231.641 139.531 231.894 139.531 232.057C139.531 232.375 139.409 232.68 139.165 232.974C138.831 233.373 138.403 233.572 137.881 233.572C137.393 233.572 137.001 233.377 136.708 232.986C136.504 232.709 136.403 232.403 136.403 232.069C136.403 231.515 136.651 230.904 137.148 230.236C136.692 229.845 136.207 229.649 135.694 229.649C135.017 229.649 134.59 229.865 134.41 230.297C134.313 230.525 134.264 230.843 134.264 231.25V235.308H137.417L136.733 236.127L137.197 237.007H134.264V241.773C134.264 242.474 134.325 242.934 134.447 243.154C134.626 243.497 134.932 243.668 135.364 243.668C135.926 243.668 136.447 243.37 136.928 242.776C136.545 242.238 136.354 241.733 136.354 241.26C136.354 240.796 136.5 240.4 136.794 240.075C137.079 239.749 137.445 239.586 137.894 239.586C138.423 239.586 138.867 239.806 139.226 240.246C139.487 240.572 139.617 240.91 139.617 241.26C139.617 241.407 139.564 241.659 139.458 242.018C139.336 242.442 139.275 242.772 139.275 243.008C139.275 243.586 139.511 244.14 139.984 244.67L139.324 245.171C138.867 244.788 138.435 244.409 138.028 244.034C137.751 244.263 137.519 244.442 137.331 244.572C136.745 244.971 136.052 245.171 135.254 245.171C134.137 245.171 133.347 244.809 132.883 244.083C132.663 244.483 132.373 244.739 132.015 244.853C131.713 244.951 131.212 245 130.512 245H129.827V243.668C130.495 243.676 130.935 243.586 131.147 243.399C131.392 243.195 131.51 242.776 131.502 242.14V237.092C131.282 237.076 131.098 237.015 130.952 236.909C130.691 236.722 130.56 236.469 130.56 236.151C130.56 235.801 130.715 235.536 131.025 235.357C131.155 235.284 131.314 235.239 131.502 235.222V231.177C131.51 230.541 131.392 230.118 131.147 229.906C130.935 229.727 130.495 229.641 129.827 229.649V228.317H130.512C131.212 228.317 131.713 228.366 132.015 228.464C132.373 228.578 132.663 228.834 132.883 229.234C133.282 228.508 134.109 228.146 135.364 228.146C136.464 228.146 137.417 228.464 138.224 229.099ZM145.054 230.199C145.567 230.884 145.824 231.507 145.824 232.069C145.824 232.477 145.681 232.831 145.396 233.132C145.111 233.426 144.756 233.572 144.333 233.572C143.819 233.572 143.396 233.373 143.062 232.974C142.817 232.68 142.695 232.371 142.695 232.045C142.695 231.89 142.732 231.641 142.805 231.299C142.895 230.892 142.939 230.57 142.939 230.334C142.939 229.739 142.703 229.177 142.23 228.647L142.903 228.146C143.294 228.48 143.636 228.781 143.929 229.05C144.703 228.447 145.473 228.146 146.239 228.146C146.973 228.146 147.702 228.451 148.427 229.063C149.152 228.451 149.881 228.146 150.615 228.146C151.373 228.146 152.143 228.447 152.925 229.05C153.218 228.781 153.56 228.48 153.951 228.146L154.624 228.647C154.151 229.177 153.915 229.743 153.915 230.346C153.915 230.574 153.96 230.892 154.049 231.299C154.122 231.641 154.159 231.894 154.159 232.057C154.159 232.375 154.037 232.68 153.792 232.974C153.45 233.373 153.023 233.572 152.509 233.572C152.012 233.572 151.621 233.377 151.336 232.986C151.132 232.709 151.03 232.403 151.03 232.069C151.03 231.499 151.287 230.875 151.8 230.199C151.548 229.784 151.218 229.576 150.81 229.576C150.37 229.576 150.077 229.792 149.93 230.224C149.849 230.476 149.808 230.904 149.808 231.507V235.222C150.02 235.239 150.199 235.296 150.346 235.394C150.615 235.581 150.749 235.833 150.749 236.151C150.749 236.502 150.598 236.771 150.297 236.958C150.167 237.039 150.004 237.084 149.808 237.092V242.14C149.8 242.776 149.918 243.195 150.163 243.399C150.374 243.586 150.814 243.676 151.483 243.668V245H150.798C150.097 245 149.592 244.951 149.283 244.853C148.932 244.739 148.647 244.483 148.427 244.083C148.207 244.483 147.918 244.739 147.559 244.853C147.258 244.951 146.757 245 146.056 245H145.372V243.668C146.04 243.676 146.48 243.586 146.692 243.399C146.936 243.195 147.054 242.776 147.046 242.14V237.092C146.826 237.076 146.643 237.015 146.496 236.909C146.235 236.722 146.105 236.469 146.105 236.151C146.105 235.801 146.26 235.536 146.569 235.357C146.7 235.284 146.859 235.239 147.046 235.222V231.507C147.046 230.912 147.005 230.484 146.924 230.224C146.777 229.792 146.484 229.576 146.044 229.576C145.636 229.576 145.306 229.784 145.054 230.199ZM158.716 237.056C158.235 236.925 157.995 236.62 157.995 236.139C157.995 235.878 158.085 235.662 158.264 235.491C158.459 235.304 158.671 235.21 158.899 235.21C158.956 235.21 159.038 235.222 159.144 235.247L160.207 230.664C160.256 230.468 160.28 230.305 160.28 230.175C160.28 229.824 159.959 229.649 159.315 229.649H159.058V228.317H159.95C161.246 228.317 162.073 228.623 162.431 229.234C162.823 228.598 163.621 228.293 164.827 228.317H165.487V229.649H165.34C164.908 229.649 164.615 229.702 164.46 229.808C164.265 229.938 164.167 230.13 164.167 230.382C164.167 230.456 164.179 230.566 164.204 230.712L164.986 235.222C165.059 235.214 165.112 235.21 165.145 235.21C165.373 235.21 165.585 235.304 165.78 235.491C165.96 235.662 166.049 235.878 166.049 236.139C166.049 236.628 165.801 236.938 165.304 237.068L166.245 242.58C166.318 243.036 166.444 243.326 166.624 243.448C166.827 243.594 167.117 243.668 167.491 243.668C167.516 243.668 167.557 243.668 167.614 243.668V245H167.284C166.363 245 165.715 244.894 165.34 244.682C165.088 244.527 164.913 244.328 164.815 244.083C164.521 244.719 163.813 245.024 162.688 245H162.114V243.668C162.977 243.668 163.409 243.379 163.409 242.8C163.409 242.645 163.389 242.446 163.348 242.201L162.957 239.659H159.963L159.498 241.92C159.409 242.352 159.364 242.666 159.364 242.861C159.364 243.383 159.73 243.652 160.464 243.668V245H159.792C158.863 245.016 158.325 244.711 158.178 244.083C158.064 244.442 157.856 244.699 157.555 244.853C157.425 244.935 157.009 244.984 156.308 245H155.587V243.668C156.19 243.668 156.634 243.546 156.919 243.301C157.213 243.032 157.441 242.539 157.604 241.822L158.716 237.056ZM162.688 237.985L161.698 231.788L160.366 237.985H162.688ZM172.28 237.068C172.183 237.084 172.109 237.092 172.06 237.092C171.816 237.092 171.604 237.003 171.425 236.823C171.238 236.636 171.144 236.412 171.144 236.151C171.144 235.687 171.392 235.385 171.889 235.247L170.936 230.81C170.83 230.305 170.618 229.963 170.301 229.784C170.138 229.702 169.824 229.657 169.359 229.649V228.317H169.812C170.545 228.317 171.128 228.455 171.559 228.733C171.73 228.847 171.926 229.014 172.146 229.234C172.366 228.973 172.594 228.773 172.83 228.635C173.197 228.423 173.678 228.317 174.273 228.317H174.957V229.649C174.77 229.649 174.627 229.649 174.529 229.649C173.861 229.649 173.527 229.865 173.527 230.297C173.527 230.444 173.556 230.655 173.613 230.932L175.312 239.561L177.059 230.444C177.084 230.297 177.096 230.171 177.096 230.065C177.096 229.796 176.856 229.657 176.375 229.649V228.317H176.754C177.634 228.333 178.171 228.639 178.367 229.234C178.693 228.631 179.28 228.325 180.127 228.317H180.481V229.649C180.441 229.649 180.408 229.649 180.384 229.649C179.927 229.649 179.585 229.735 179.357 229.906C179.113 230.093 178.941 230.423 178.844 230.896L177.939 235.247C178.444 235.377 178.697 235.679 178.697 236.151C178.697 236.412 178.603 236.636 178.416 236.823C178.237 237.003 178.029 237.092 177.793 237.092C177.727 237.092 177.646 237.084 177.548 237.068L176.473 242.177C176.416 242.47 176.387 242.686 176.387 242.824C176.387 243.061 176.46 243.248 176.607 243.387C176.705 243.476 176.917 243.554 177.243 243.619C177.422 243.652 177.564 243.668 177.67 243.668H178V245H177.817C176.676 245 175.914 244.898 175.532 244.694C175.23 244.531 175.026 244.328 174.92 244.083C174.782 244.401 174.529 244.637 174.163 244.792C173.877 244.906 173.584 244.971 173.283 244.988C173.095 244.996 172.802 245 172.403 245H171.853V243.668H172.06C172.5 243.668 172.81 243.619 172.989 243.521C173.283 243.358 173.429 243.081 173.429 242.69C173.429 242.511 173.405 242.311 173.356 242.091L172.28 237.068ZM191.724 229.099C192.033 228.822 192.4 228.504 192.824 228.146L193.484 228.647C193.011 229.177 192.775 229.739 192.775 230.334C192.775 230.578 192.82 230.9 192.909 231.299C192.991 231.641 193.031 231.894 193.031 232.057C193.031 232.375 192.909 232.68 192.665 232.974C192.331 233.373 191.903 233.572 191.382 233.572C190.893 233.572 190.502 233.377 190.208 232.986C190.004 232.709 189.903 232.403 189.903 232.069C189.903 231.515 190.151 230.904 190.648 230.236C190.192 229.845 189.707 229.649 189.194 229.649C188.517 229.649 188.09 229.865 187.91 230.297C187.813 230.525 187.764 230.843 187.764 231.25V235.308H190.917L190.233 236.127L190.697 237.007H187.764V241.773C187.764 242.474 187.825 242.934 187.947 243.154C188.126 243.497 188.432 243.668 188.864 243.668C189.426 243.668 189.947 243.37 190.428 242.776C190.045 242.238 189.854 241.733 189.854 241.26C189.854 240.796 190 240.4 190.294 240.075C190.579 239.749 190.946 239.586 191.394 239.586C191.923 239.586 192.367 239.806 192.726 240.246C192.987 240.572 193.117 240.91 193.117 241.26C193.117 241.407 193.064 241.659 192.958 242.018C192.836 242.442 192.775 242.772 192.775 243.008C192.775 243.586 193.011 244.14 193.484 244.67L192.824 245.171C192.367 244.788 191.936 244.409 191.528 244.034C191.251 244.263 191.019 244.442 190.832 244.572C190.245 244.971 189.552 245.171 188.754 245.171C187.638 245.171 186.847 244.809 186.383 244.083C186.163 244.483 185.873 244.739 185.515 244.853C185.213 244.951 184.712 245 184.012 245H183.327V243.668C183.995 243.676 184.435 243.586 184.647 243.399C184.892 243.195 185.01 242.776 185.002 242.14V237.092C184.782 237.076 184.598 237.015 184.452 236.909C184.191 236.722 184.061 236.469 184.061 236.151C184.061 235.801 184.215 235.536 184.525 235.357C184.655 235.284 184.814 235.239 185.002 235.222V231.177C185.01 230.541 184.892 230.118 184.647 229.906C184.435 229.727 183.995 229.641 183.327 229.649V228.317H184.012C184.712 228.317 185.213 228.366 185.515 228.464C185.873 228.578 186.163 228.834 186.383 229.234C186.782 228.508 187.609 228.146 188.864 228.146C189.964 228.146 190.917 228.464 191.724 229.099ZM198.077 237.092C197.857 237.076 197.674 237.015 197.527 236.909C197.266 236.722 197.136 236.469 197.136 236.151C197.136 235.801 197.291 235.536 197.601 235.357C197.731 235.284 197.89 235.239 198.077 235.222V231.177C198.085 230.541 197.967 230.118 197.723 229.906C197.511 229.727 197.071 229.641 196.403 229.649V228.317H197.087C197.788 228.317 198.289 228.366 198.591 228.464C198.949 228.578 199.238 228.834 199.458 229.234C199.597 229.022 199.768 228.851 199.972 228.72C200.566 228.337 201.353 228.146 202.33 228.146C203.618 228.146 204.583 228.484 205.227 229.16C205.912 229.877 206.254 230.855 206.254 232.094C206.254 233.202 205.977 234.11 205.423 234.819C205.146 235.178 204.746 235.532 204.225 235.882C205.667 236.2 206.376 237.003 206.351 238.29V241.92C206.351 242.637 206.445 243.11 206.633 243.338C206.804 243.558 207.109 243.668 207.549 243.668C207.566 243.668 207.598 243.668 207.647 243.668V245H207.146C206.527 245 206.066 244.939 205.765 244.817C205.455 244.678 205.219 244.434 205.056 244.083C204.73 244.646 204.245 244.951 203.602 245V238.938C203.61 238.164 203.536 237.659 203.382 237.422C203.219 237.145 202.738 237.007 201.939 237.007H200.839V242.14C200.831 242.767 200.949 243.187 201.194 243.399C201.406 243.586 201.846 243.676 202.514 243.668V245H201.817C201.116 245 200.615 244.951 200.314 244.853C199.963 244.739 199.678 244.483 199.458 244.083C199.238 244.483 198.949 244.739 198.591 244.853C198.289 244.951 197.788 245 197.087 245H196.403V243.668C197.071 243.676 197.511 243.586 197.723 243.399C197.967 243.195 198.085 242.776 198.077 242.14V237.092ZM200.839 235.308H201.67C202.428 235.3 202.925 235.121 203.162 234.77C203.406 234.436 203.532 233.866 203.54 233.059V231.715C203.54 230.875 203.369 230.285 203.027 229.942C202.84 229.747 202.534 229.649 202.11 229.649C201.565 229.649 201.202 229.804 201.023 230.114C200.9 230.342 200.839 230.745 200.839 231.324V235.308ZM212.522 243.949C212.155 244.299 211.699 244.707 211.153 245.171L210.481 244.67C210.953 244.132 211.189 243.574 211.189 242.996C211.189 242.767 211.128 242.442 211.006 242.018C210.9 241.651 210.847 241.39 210.847 241.236C210.847 240.869 210.978 240.523 211.238 240.197C211.605 239.732 212.061 239.5 212.607 239.5C213.112 239.5 213.52 239.728 213.829 240.185C214.041 240.502 214.147 240.853 214.147 241.236C214.147 241.692 213.98 242.148 213.646 242.604C214.184 243.305 214.762 243.656 215.382 243.656C215.862 243.656 216.29 243.448 216.665 243.032C217.089 242.568 217.3 241.981 217.3 241.272C217.3 240.653 217.15 240.123 216.848 239.683C216.563 239.26 216.074 238.779 215.382 238.241C215.153 238.478 214.909 238.596 214.648 238.596C214.396 238.596 214.176 238.502 213.988 238.315C213.809 238.135 213.719 237.915 213.719 237.655C213.719 237.459 213.789 237.263 213.927 237.068C213.365 236.612 212.941 236.249 212.656 235.98C211.638 235.011 211.128 233.858 211.128 232.521C211.128 230.957 211.699 229.739 212.839 228.867C213.597 228.28 214.428 227.987 215.333 227.987C216.335 227.987 217.28 228.398 218.168 229.221C218.535 228.879 218.942 228.521 219.39 228.146L220.05 228.647C219.586 229.185 219.354 229.747 219.354 230.334C219.354 230.57 219.399 230.892 219.488 231.299C219.562 231.641 219.598 231.894 219.598 232.057C219.598 232.375 219.476 232.68 219.232 232.974C218.897 233.373 218.47 233.572 217.948 233.572C217.451 233.572 217.06 233.377 216.775 232.986C216.571 232.709 216.469 232.403 216.469 232.069C216.469 231.54 216.689 230.961 217.129 230.334C216.673 229.877 216.188 229.649 215.675 229.649C215.284 229.649 214.942 229.763 214.648 229.991C214.168 230.358 213.927 230.977 213.927 231.849C213.927 232.371 214.013 232.79 214.184 233.108C214.436 233.564 214.986 234.135 215.834 234.819C216.046 234.64 216.266 234.55 216.494 234.55C216.738 234.55 216.954 234.644 217.142 234.831C217.329 235.002 217.423 235.222 217.423 235.491C217.423 235.654 217.374 235.817 217.276 235.98C217.561 236.216 217.753 236.371 217.85 236.445C218.421 236.893 218.82 237.288 219.048 237.63C219.562 238.404 219.818 239.296 219.818 240.307C219.818 241.667 219.394 242.857 218.547 243.876C217.749 244.845 216.726 245.33 215.479 245.33C214.583 245.33 213.793 245.045 213.108 244.474C212.962 244.36 212.766 244.185 212.522 243.949ZM223.752 237.092C223.532 237.084 223.348 237.023 223.202 236.909C222.941 236.722 222.811 236.469 222.811 236.151C222.811 235.801 222.965 235.536 223.275 235.357C223.422 235.275 223.597 235.231 223.801 235.222C223.907 233.805 224.143 232.599 224.509 231.605C224.966 230.358 225.569 229.417 226.318 228.781C226.954 228.244 227.63 227.975 228.347 227.975C229.366 227.975 230.278 228.488 231.085 229.515C232.112 230.827 232.719 232.729 232.906 235.222C233.134 235.231 233.33 235.288 233.493 235.394C233.753 235.581 233.884 235.833 233.884 236.151C233.884 236.502 233.733 236.771 233.432 236.958C233.301 237.039 233.138 237.084 232.943 237.092C232.91 238.893 232.657 240.429 232.185 241.7C231.729 242.955 231.126 243.896 230.376 244.523C229.749 245.061 229.072 245.33 228.347 245.33C227.337 245.33 226.424 244.817 225.609 243.79C224.428 242.283 223.809 240.05 223.752 237.092ZM229.863 235.222V232.411L229.875 231.751C229.875 230.969 229.7 230.399 229.349 230.04C229.089 229.78 228.751 229.649 228.335 229.649C227.928 229.649 227.598 229.78 227.345 230.04C226.995 230.407 226.819 230.977 226.819 231.751L226.832 232.411V235.222C227.044 235.239 227.227 235.296 227.382 235.394C227.642 235.581 227.773 235.833 227.773 236.151C227.773 236.502 227.622 236.771 227.321 236.958C227.19 237.039 227.027 237.084 226.832 237.092V240.906L226.819 241.566C226.819 242.34 226.995 242.91 227.345 243.277C227.606 243.537 227.94 243.668 228.347 243.668C228.763 243.668 229.097 243.537 229.349 243.277C229.7 242.91 229.875 242.34 229.875 241.566L229.863 240.906V237.092C229.643 237.076 229.459 237.015 229.313 236.909C229.052 236.722 228.922 236.469 228.922 236.151C228.922 235.801 229.076 235.536 229.386 235.357C229.516 235.284 229.675 235.239 229.863 235.222Z" fill="white"/>
<path d="M200.54 157.162C191.132 163.648 181.728 170.139 172.391 176.749C162.078 184.046 151.574 191.031 140.42 196.743C137.235 198.374 134.08 200.101 130.799 201.47C127.124 203.009 123.521 203.454 119.704 201.118C109.463 194.851 99.0837 188.855 88.6962 182.878C82.5859 179.36 76.1449 176.529 70.2481 172.562C63.9871 168.352 58.492 163.273 54.9597 155.999C53.361 152.705 52.8379 149.109 52.591 145.541C51.7121 132.871 50.9295 120.173 51.3271 107.462C51.6577 96.8901 51.8836 86.2723 54.1771 75.8971C55.4117 70.3134 58.4041 66.4198 62.9199 63.4058C71.7421 57.5151 80.305 51.1664 89.0101 45.0741C101.105 36.6091 113.225 28.1762 125.366 19.7845C129.518 16.917 133.866 17.2606 138.169 19.3997C147.631 24.104 156.408 30.0543 164.702 36.9023C171.265 42.3212 178.321 47.0026 184.72 52.6734C190.324 57.6433 195.915 62.6271 201.507 67.6062C202.365 68.3712 203.193 69.1819 204.068 69.9194C205.721 71.3074 205.868 73.0251 205.529 75.1917C205.248 76.9965 205.537 78.9295 205.717 80.7892C206.198 85.7043 206.32 90.6376 206.6 95.5618C207.131 104.975 207.751 114.384 207.759 123.815C207.763 131.016 206.596 138.102 205.478 145.175C205.093 147.607 204.905 150.094 203.951 152.384C203.432 153.63 202.695 154.711 201.9 155.756C201.59 156.392 201.151 156.873 200.54 157.162Z" fill="#000202"/>
<path d="M52.5379 112.25C52.0942 107.041 52.6048 100.862 53.0526 94.7425C53.58 87.5418 53.7515 80.2082 56.2291 73.3052C57.5977 69.4941 59.9121 66.7091 63.076 64.6066C82.6709 51.5701 101.851 37.8237 121.229 24.4116C123.706 22.6939 126.154 20.9349 128.871 19.7073C132.374 18.1224 135.559 19.6294 138.614 21.2647C147.038 25.7766 155.011 31.1039 162.536 37.2603C168.563 42.189 174.836 46.7651 180.846 51.7121C185.253 55.34 189.404 59.3343 193.69 63.1408C195.829 65.0417 197.846 67.1992 200.211 68.6696C202.977 70.3827 203.873 72.7601 204.057 76.0077C204.467 83.1123 204.919 90.2168 205.329 97.326C205.655 103.011 205.714 108.718 206.191 114.375C206.505 118.108 206.651 121.828 206.48 125.533C206.204 131.534 205.614 137.516 204.555 143.425C204.174 145.546 203.99 147.713 203.584 149.829C203.136 152.17 202.006 153.933 200.123 155.376C195.331 159.054 190.254 162.233 185.383 165.77C173.848 174.143 162.034 182.013 149.951 189.401C143.305 193.464 136.262 196.634 129.369 200.152C126.012 201.865 122.848 200.633 119.906 199.043C108.112 192.667 96.6618 185.576 85.0397 178.847C79.8334 175.833 74.2587 173.584 69.3286 169.979C63.7331 165.884 58.6524 161.258 55.6307 154.419C54.3751 151.579 54.0487 148.496 53.8478 145.51C53.1322 134.768 52.383 124.013 52.5379 112.25Z" fill="#C1E9EF"/>
<path d="M160.12 76.9284C160.413 76.9468 160.702 76.9742 160.848 77.3178C158.714 78.2248 157.103 79.7272 156.207 82.0908C156.056 82.4939 155.743 82.9291 155.27 82.8832C154.692 82.8283 154.575 82.2236 154.374 81.7518C154.315 81.6144 154.253 81.4632 154.253 81.3167C154.211 75.7833 150.888 71.5783 149.285 66.677C148.682 64.831 147.828 63.0858 147.615 61.478C147.749 62.9117 147.661 64.7211 147.64 66.5304C147.632 67.2175 147.565 67.9092 147.029 68.4039C146.393 68.9948 141.191 69.4254 140.513 68.9261C139.538 68.1978 139.492 67.0068 139.232 65.7884C139.194 68.4818 137.864 69.3567 135.612 69.5903C132.892 69.8697 130.188 69.7506 127.476 69.7598C126.551 69.7598 125.928 69.2284 125.534 68.2985C125.245 67.616 125.024 66.8877 124.45 66.1548C124.413 67.2771 124.865 68.3902 124.115 69.1963C123.337 70.03 122.282 69.7598 121.324 69.8056C120.42 69.8514 119.524 69.856 118.625 70.0346C116.231 70.5064 115.653 69.9338 115.578 67.2084C115.561 66.5213 115.603 65.8342 115.452 64.689C114.105 69.091 111.192 71.8027 108.823 74.9496C103.893 81.4953 102.491 88.9526 103.579 97.2343C104.064 100.913 104.797 104.591 104.583 108.361C104.516 110.981 104.797 113.624 104.177 116.207C103.374 120.449 102.784 124.718 102.332 129.028C101.7 135.052 102.905 140.649 104.864 146.146C105.546 148.056 106.45 149.879 106.806 151.918C107.186 154.098 106.333 155.28 104.328 155.436C104.119 155.454 103.889 155.509 103.704 155.431C98.7367 153.402 93.25 155.12 88.299 152.811C86.0055 151.739 83.4568 151.561 81.0545 150.832C78.9996 150.209 77.1079 151.029 75.2664 152.005C73.3789 153.003 72.8056 152.568 72.9228 150.25C73.0483 147.759 74.0402 145.569 74.9525 143.347C76.8819 138.657 79.8659 134.695 82.3561 130.389C84.8002 126.166 86.5161 121.626 87.2778 116.679C87.395 115.914 87.5749 115.19 88.0855 114.618C88.2404 114.49 88.391 114.361 88.5459 114.233C91.6303 113.77 94.7022 113.248 97.7741 112.708C99.4314 112.415 100.055 113.413 99.6324 115.245C99.444 116.061 99.1469 116.835 98.8204 117.568C100.825 111.929 101.662 106.185 99.9671 100.239C99.3352 98.0176 99.1971 95.7502 99.2808 93.4507C99.3687 91.0001 99.2222 88.5724 98.6614 86.1859C98.381 84.9858 98.3935 83.7582 98.5484 82.5443C98.7074 81.3075 98.5986 80.1211 98.1257 78.8065C97.7448 80.0158 97.092 79.9425 96.5228 79.2279C95.2212 77.6018 93.8694 76.2276 94.7315 73.4746C96.0959 69.1047 98.4772 65.5135 100.875 61.8673C103.152 58.4044 106.303 55.9675 109.317 53.4024C110.731 52.1977 112.443 51.5793 114.268 51.1487C120.47 49.6829 126.3 46.8887 132.327 44.7816C133.122 44.5022 133.892 44.1495 134.704 43.9388C135.101 43.8334 135.57 43.5907 135.792 44.1632C135.976 44.6442 135.641 45.0107 135.336 45.3313C134.507 46.197 133.281 46.678 133.026 48.1575C134.808 48.4782 136.642 48.2217 138.249 49.3852C138.835 49.8112 139.592 49.4035 140.237 49.0553C141.241 48.5194 142.312 48.2034 143.413 47.9972C143.832 47.9194 144.279 47.7361 144.556 48.1896C144.836 48.6477 144.56 49.1012 144.267 49.4081C142.831 50.9197 143.71 51.4602 145.003 52.3122C152.708 57.3738 157.86 64.4554 159.296 74.4183C159.409 75.2657 159.471 76.2368 160.12 76.9284Z" fill="#2AD2ED"/>
<path d="M129.075 171.71C129.091 172.09 129.037 172.493 129.137 172.846C129.619 174.568 129.121 175.036 127.518 174.669C123.781 173.813 120.219 172.342 116.595 171.105C110.911 169.163 105.199 167.487 99.2054 167.18C97.9875 167.116 96.7905 166.598 95.581 166.287C95.0998 165.476 95.556 164.798 95.9201 164.189C97.41 161.683 98.6488 159.049 99.4105 156.177C99.762 154.853 100.444 154.524 101.599 154.895C103.286 155.435 105.144 156.021 106.458 154.317C107.701 152.705 106.58 150.896 105.956 149.407C104.081 144.955 102.771 140.374 102.11 135.505C101.658 132.184 102.185 128.982 102.445 125.744C102.608 123.705 102.809 121.653 103.29 119.656C103.391 119.234 103.349 118.694 103.863 118.547C104.428 118.387 104.855 118.731 105.077 119.207C106.521 122.317 108.605 125.079 109.329 128.588C109.718 130.48 109.547 132.266 108.413 133.769C107.659 134.767 108.044 135.23 108.852 135.679C109.601 136.091 110.388 136.407 111.175 136.71C114.736 138.097 117.314 140.795 118.583 144.547C119.775 148.079 120.981 149.077 124.86 149.128C127.61 149.164 127.568 149.118 126.974 152.004C126.087 156.337 126.526 160.662 127.543 164.876C128.087 167.148 128.271 169.516 129.075 171.71Z" fill="#B4F4FE"/>
<path d="M129.076 171.711C128.608 171.844 128.31 171.762 128.214 171.134C127.36 165.688 125.745 160.383 126.097 154.708C126.21 152.917 127.08 151.318 126.854 149.514C125.255 149.834 123.711 149.793 122.07 149.44C120.2 149.037 119.199 147.956 118.647 146.147C117.119 141.154 113.935 138.021 109.394 136.633C108.578 136.385 108.184 135.593 107.322 135.501C106.648 135.428 106.811 134.576 107.163 134.26C110.574 131.15 108.682 127.898 107.33 124.764C106.405 122.621 105.179 120.628 103.894 118.21C102.3 126.464 101.5 134.246 103.631 142.001C104.409 144.841 105.736 147.503 106.686 150.292C107.167 151.703 108.067 153.261 106.82 154.713C105.51 156.243 103.622 156.174 102.17 155.565C100.404 154.827 99.7637 155.235 99.454 157.067C98.8764 160.498 96.5913 163.068 95.5869 166.283C95.2814 166.416 94.8963 166.75 94.6913 166.645C94.0719 166.334 94.5866 165.935 94.7457 165.578C95.9677 162.852 97.805 160.484 98.5877 157.502C98.822 156.618 99.6758 155.693 99.1568 154.873C98.5542 153.92 97.5623 154.658 96.696 154.804C93.7413 155.308 91.0293 154.003 88.2503 153.242C85.8146 152.578 83.404 151.795 80.9515 151.222C78.4864 150.645 76.398 151.882 74.3305 153.164C73.7823 153.503 73.2047 154.319 72.4933 153.76C71.9283 153.315 72.1878 152.473 72.2213 151.822C72.4849 146.907 74.5775 142.711 76.8124 138.644C79.7168 133.358 83.5756 128.681 85.4045 122.712C86.1327 120.335 86.6767 117.884 87.2208 115.447C87.3547 114.843 87.3965 114.412 88.0787 114.618C87.0241 122.19 84.1908 128.924 80.014 135.016C77.6619 138.451 75.7159 142.125 74.2594 146.119C73.527 148.13 73.2341 150.169 73.4684 152.441C75.9 151.456 78.1307 149.697 80.8677 150.324C82.885 150.792 84.8771 151.405 86.8943 151.868C89.7737 152.532 92.5025 154.236 95.5032 153.879C98.0143 153.581 100.358 153.728 102.693 154.786C103.292 155.056 104.079 154.914 104.765 154.836C106.242 154.676 106.828 153.801 106.401 152.184C105.698 149.527 104.434 147.113 103.601 144.525C101.555 138.167 101.074 131.709 102.195 124.989C102.672 122.131 103.204 119.263 103.635 116.382C103.84 116.24 104.045 116.245 104.25 116.382C105.585 117.706 105.866 119.74 107.109 121.398C107.745 119.767 107.941 118.017 109.009 116.716C110.817 114.513 112.892 112.827 115.588 112.09C117.793 111.485 120.049 110.881 121.489 108.888C117.044 105.846 112.528 103.116 109.364 98.3663C106.502 94.0697 106.02 84.1847 111.017 80.1538C114.106 77.6619 117.345 76.5168 121.192 78.0329C124.138 79.1964 127.155 80.1629 130.198 81.0195C133.793 82.0318 136.819 81.1661 139.242 78.0421C140.719 76.1366 142.456 74.6616 144.683 73.9653C147.742 73.008 150.04 73.9012 151.697 76.8466C153.007 79.1781 153.622 81.6745 153.174 84.4916C152.676 87.6156 151.86 90.6067 150.416 93.3276C149.383 95.2744 149.328 97.015 150.4 98.8977C151.844 101.44 152.45 104.202 152.178 107.202C152.111 107.958 152.258 108.755 151.442 109.145C150.395 108.682 150.236 107.642 150.37 106.671C150.726 104.028 150.073 101.738 148.696 99.6031C148.299 98.9893 148.115 98.2289 147.838 97.3861C147.006 97.6563 146.717 98.5083 145.821 99.0855C147.788 99.8092 149.504 100.409 150.149 102.571C150.529 103.849 150.613 105.141 149.646 105.934C147.822 107.422 148.052 109.245 148.495 111.242C148.759 112.424 149.06 113.574 149.73 114.66C149.885 113.244 150.169 111.879 150.37 110.5C150.462 109.873 150.341 108.87 151.459 109.222C152.22 110.601 151.68 112.053 151.739 113.478C152.337 107.72 152.727 101.939 152.798 96.1401C152.823 94.0697 153.166 92.0405 153.472 90.0113C154.43 83.603 153.409 77.584 150.642 71.8766C149.692 69.9207 148.952 67.8731 148.441 66.0684C148.424 65.7569 148.353 65.7981 148.357 65.8302C148.847 68.464 147.847 69.8016 145.411 69.7924C143.942 69.7878 142.389 70.452 141.067 70.026C139.719 69.5908 138.731 69.8199 137.422 70.0947C134.224 70.7681 130.922 70.823 127.641 70.8139C126.318 70.8093 125.578 70.0947 125.034 68.9175C124.77 69.1923 124.745 69.6138 124.494 69.8749C123.669 70.7269 116.701 71.4506 115.793 70.7314C114.834 69.971 114.688 68.8625 114.855 67.7128C114.077 69.5267 112.846 71.0429 111.595 72.5499C107.427 77.5657 104.334 83.0716 103.974 90.1533C103.773 94.0926 104.305 97.8945 104.731 101.738C104.991 104.083 105.129 106.428 105.07 108.787C104.104 109.703 104.33 108.494 104.083 108.128C104.066 102.452 102.618 96.9418 102.664 91.2297C102.714 85.0688 104.765 79.9064 107.996 75.0876C109.712 72.527 111.959 70.4841 113.537 67.7769C114.349 66.3844 114.479 64.6713 115.575 63.3749C116.534 64.9003 116.086 66.5997 116.082 68.1892C116.082 69.4534 116.521 69.9115 117.53 69.6229C119.371 69.0916 121.238 69.1603 123.1 69.2061C124.017 69.229 124.171 68.7205 124.058 67.9418C123.987 67.4334 123.728 66.9524 123.698 66.444C123.657 65.7202 123.326 64.6575 124.117 64.4056C124.967 64.1353 124.82 65.253 124.996 65.8164C125.766 68.2487 126.862 69.7374 129.658 69.2748C132.157 68.8625 134.756 69.2381 137.296 68.7572C137.928 68.6381 138.267 68.5923 138.321 67.7449C138.397 66.5127 138.681 65.2896 138.907 63.8559C139.795 64.7537 139.979 65.7294 139.966 66.7875C139.945 68.5602 140.895 68.945 142.26 68.7022C142.666 68.6289 143.055 68.4411 143.456 68.3449C144.633 68.0701 146.281 68.9954 146.922 67.7357C147.457 66.6776 147.073 65.056 147.081 63.6864C147.089 62.0924 147.085 60.4983 147.361 58.8127C148.475 67.3967 154.932 73.7913 155.003 83.1861C156.665 80.3645 157.213 76.9244 160.833 77.3138C161.038 77.3596 161.239 77.4054 161.444 77.4512C168.325 79.114 167.546 82.1967 166.856 88.605C166.337 93.433 164.16 97.2899 161.369 100.789C160.39 102.017 160.268 103.19 161.009 104.202C163.215 107.207 162.725 110.839 162.888 114.16C163.265 121.709 166.04 127.966 170.329 133.614C170.848 134.297 171.576 134.782 172.175 135.396C172.828 136.065 172.732 136.926 172.485 137.718C172.309 138.277 171.715 138.543 171.263 138.319C169.4 137.393 167.546 138.186 165.747 138.415C162.486 138.832 158.992 138.355 156.313 140.797C156.765 141.333 157.276 141.942 157.92 142.707C156.958 143.119 155.991 143.348 155.225 143.907C154.074 144.745 152.689 145.276 152.794 147.489C152.852 148.762 152.095 150.233 151.366 151.543C150.58 152.949 149.621 153.261 148.441 152.94C147.261 152.619 146.893 151.442 146.65 150.196C146.457 149.22 147.403 147.952 145.633 147.31C143.904 146.683 143.046 147.471 142.088 148.634C141.017 149.94 140.309 151.584 138.51 152.134C135.823 152.954 133.525 152.042 131.32 150.613C128.641 148.881 128.31 149.042 127.557 152.317C126.327 157.681 127.783 162.779 128.796 167.896C129.072 169.21 129.005 170.442 129.076 171.711Z" fill="#010303"/>
<path d="M160.121 76.9291C158.577 76.723 159.045 75.1656 158.89 74.3136C157.484 66.5037 154.132 60.1274 148.206 55.3453C146.398 53.8886 144.694 52.3312 142.443 51.4471C143.196 50.3295 143.874 49.3263 144.761 48.0071C143.209 48.5293 141.995 48.9736 140.76 49.34C139.551 49.6973 138.597 50.3799 137.061 49.2851C136.098 48.598 133.872 47.9933 132.11 49.6286C131.829 46.3718 134.88 46.1474 135.772 43.8983C130.101 46.0328 124.551 47.9842 119.107 50.2195C116.549 51.2685 113.733 51.1815 111.31 52.6656C107.183 55.1895 103.609 58.5013 100.792 62.5918C98.8965 65.3493 96.8876 68.0885 95.7744 71.4782C94.4184 75.6237 94.477 76.5261 97.5866 79.6363C97.8753 78.8026 97.0467 78.3171 97.1011 77.5933C98.5784 77.8315 99.5912 79.7233 99.2146 81.748C98.9216 83.3283 98.9551 84.817 99.2731 86.4202C99.6038 88.083 99.9595 89.7915 99.8382 91.5642C99.5787 95.357 100.085 99.0581 101.01 102.732C101.91 106.309 101.512 109.896 100.571 113.428C100.269 114.559 100.144 115.759 99.7796 116.863C99.4113 117.976 98.8337 118.998 97.3145 119.048C97.6786 117.555 98.8588 116.758 99.0848 115.292C99.4113 113.208 99.315 112.823 97.4568 113.194C95.6446 113.556 93.8618 114.078 92.0454 114.394C90.8945 114.591 89.6975 114.733 88.5466 114.238C86.9646 114.023 85.4161 113.492 84.1271 112.557C83.0222 111.756 82.4698 112.058 81.7667 112.983C81.3817 113.487 80.9422 113.931 80.3187 114.206C79.5821 114.531 78.925 115.498 78.1089 114.742C77.2551 113.954 77.5021 112.791 77.8662 111.811C78.1675 110.995 78.5483 110.12 79.1217 109.543C80.2098 108.439 79.942 107.473 79.3268 106.259C78.6027 104.825 78.0168 106.103 77.3514 106.204C76.665 106.305 75.9493 106.378 75.2714 106.268C74.3004 106.112 73.9949 105.421 74.5139 104.472C74.8612 103.836 75.2002 103.075 75.7359 102.704C78.5525 100.735 77.9164 97.6885 77.4267 95.0822C76.1168 88.083 79.7746 78.995 85.5626 75.358C87.9314 73.8693 90.317 73.9655 92.7276 74.7625C93.7823 75.1106 94.0919 75.1061 94.4058 73.8418C96.1133 66.9113 100.081 61.6024 104.844 56.9072C106.777 54.9971 108.627 52.9633 111.075 51.7999C114.398 50.215 118.048 49.8806 121.438 48.4468C126.15 46.4543 131.013 44.8877 135.78 43.0463C136.667 42.7027 137.492 42.5745 138.584 42.7256C137.366 44.8739 134.939 45.474 133.692 47.7231C135.023 47.4162 136.299 46.9673 137.333 47.7506C140.451 50.1188 142.874 46.8528 145.665 46.6146C146.243 46.5642 146.812 46.1886 147.704 46.5642C146.544 47.7506 145.498 48.8728 144.401 49.9264C143.606 50.6868 143.652 51.0486 144.636 51.6304C152.437 56.2476 157.493 63.2468 159.594 72.715C159.895 74.0754 159.949 75.5183 160.121 76.9291Z" fill="#000303"/>
<path d="M103.936 116.381L103.789 116.376L103.643 116.381C104.095 113.651 104.036 110.884 104.09 108.127C104.316 108.429 104.538 108.731 104.764 109.034C105.823 111.177 105.413 114.782 103.936 116.381Z" fill="#071B1F"/>
<path d="M122.618 150.714C122.137 153.989 121.777 156.737 121.287 159.458C121.216 159.852 121.446 160.594 120.76 160.764C120.136 159.101 121.057 153.494 122.618 150.714Z" fill="#020404"/>
<path d="M120.482 163.731C121.495 165.618 121.064 167.67 121.16 169.658C121.185 170.199 120.88 170.739 120.578 170.721C120.084 170.693 119.93 170.134 119.888 169.548C119.745 167.569 120.13 165.668 120.482 163.731Z" fill="#010303"/>
<path d="M139.099 101.788C140.861 102.979 142.334 101.316 143.945 101.096C144.74 100.986 145.602 100.666 146.352 100.867C147.661 101.22 149.105 101.664 149.197 103.597C149.294 105.645 147.896 105.947 146.519 106.313C145.314 106.634 144.079 106.982 143.238 108.439C144.611 108.585 145.661 106.863 146.598 107.66C147.54 108.462 146.841 110.147 147.172 111.348C148.13 114.829 149.398 118.118 151.989 120.651C153.311 121.943 154.408 123.541 155.496 125.089C157.974 128.626 156.467 132.199 155.446 135.739C155.287 136.298 154.684 136.83 154.734 137.315C155.073 140.613 153.529 139.55 152.068 138.772C147.783 136.477 143.765 133.829 140.84 129.505C139.756 127.902 138.211 126.89 136.269 128.044C135.667 128.401 134.847 128.529 134.478 128.2C131.595 125.589 128.703 127.1 125.949 128.232C121.144 130.206 116.231 131.69 111.221 132.808C110.577 132.95 109.999 133.605 109.074 133.138C110.07 130.82 109.543 128.511 108.941 126.143C107.296 119.698 110.401 115.603 115.528 113.674C118.19 112.671 120.952 111.993 122.722 109.355C123.484 108.224 124.354 108.695 125.463 109.277C125.191 107.88 124.442 107.894 123.902 107.683C122.429 107.11 120.914 106.652 119.458 106.029C118.135 105.466 117.298 104.417 117.39 102.745C117.487 100.991 118.75 100.336 119.964 99.9235C122.806 98.9524 125.606 99.4013 128.355 100.583C130.954 101.705 133.52 103.057 136.454 102.626C136.839 102.571 137.312 102.786 137.517 102.195C137.956 101.664 138.458 101.412 139.099 101.788Z" fill="#B4F4FE"/>
<path d="M103.936 116.381C104.618 113.99 105.032 111.558 104.768 109.038C104.241 103.821 103.437 98.6175 103.253 93.3864C103.044 87.4133 104.396 81.7837 107.681 76.7908C109.372 74.2211 111.456 72.0407 113.181 69.5122C113.921 68.4266 114.465 67.2631 115.29 65.637C115.29 66.9013 115.315 67.7304 115.286 68.5595C115.227 70.3276 116.173 70.946 117.516 70.52C118.885 70.0848 120.237 70.126 121.609 70.1169C124.443 70.0985 124.443 70.1077 124.719 66.7868C125.292 70.9368 127.971 70.236 130.386 70.1077C132.876 69.9749 135.362 69.7733 137.852 69.6634C139.497 69.5901 138.25 67.5517 139.463 67.2036C139.53 69.274 140.413 70.2268 142.414 69.384C142.728 69.2511 143.096 69.2603 143.443 69.2374C147.901 68.9259 147.9 68.9259 148.093 63.9147C149.842 69.4847 153.098 74.4043 154.09 80.2767C154.814 84.5733 154.479 88.9249 153.642 93.1803C153.312 94.8614 153.454 96.5104 153.412 98.1732C153.349 100.573 153.55 102.987 152.646 105.287C152.471 105.731 152.454 106.446 152.667 106.844C154.233 109.78 152.019 111.869 151.454 114.297C151.454 112.478 151.454 110.665 151.454 108.846L151.412 108.896C152.341 105.374 151.608 102.09 149.884 99.1259C148.595 96.9135 148.813 95.0767 150.018 92.9604C151.755 89.8914 152.688 86.3735 152.864 82.8556C153.011 79.9606 151.918 77.139 149.704 75.151C147.599 73.2592 144.356 74.2852 142.066 75.9022C141.388 76.3832 140.715 76.9832 140.246 77.6932C137.433 81.9257 133.721 82.938 129.31 81.4493C126.129 80.3775 123.011 79.0766 119.801 78.1421C116.755 77.2535 113.905 78.2979 111.586 80.4416C107.221 84.4771 106.489 92.2962 109.644 97.6098C111.272 100.349 113.201 102.635 115.98 103.954C116.227 104.073 116.637 104.11 116.704 104.302C117.772 107.321 120.534 107.261 122.698 108.324C121.061 111.164 118.349 111.933 115.637 112.717C111.875 113.807 107.522 117.32 107.727 123.293C105.831 121.237 105.187 118.598 103.936 116.381Z" fill="#B4F4FE"/>
<path d="M139.099 101.788C138.568 101.925 138.041 102.062 137.509 102.2C137.421 102.085 137.321 101.87 137.241 101.879C132.78 102.401 129.055 99.5018 124.87 98.6911C121.622 98.0635 118.446 99.2224 116.722 102.287C116.211 103.198 115.801 103.015 115.273 102.612C111.657 99.8454 108.824 96.4878 108.607 91.3346C108.447 87.638 108.548 84.0285 111.486 81.3397C114.135 78.9165 117.044 78.1286 120.367 79.2097C123.803 80.3228 127.251 81.3763 130.675 82.5352C133.948 83.6437 136.63 82.5169 139.016 80.0983C140.388 78.7104 141.485 76.9606 143.197 76.0216C147.541 73.6442 151.308 75.6093 151.676 81.1473C152.258 89.9558 148.47 96.2542 141.795 100.716C140.999 101.256 140.008 101.444 139.099 101.788Z" fill="#186C90"/>
<path d="M160.015 102.37C160.015 103.689 160.296 104.719 160.894 105.681C162.158 107.729 162.049 110.207 162.091 112.442C162.267 121.613 165.238 129.34 171.236 135.716C171.571 136.069 172.37 136.353 171.943 137.1C171.6 137.7 170.909 137.48 170.386 137.416C166.875 136.994 163.43 137.952 159.944 138.021C158.885 138.043 157.847 138.982 156.784 139.463C156.345 139.66 155.897 140.325 155.403 139.789C154.847 139.184 155.006 138.479 155.362 137.718C156.512 135.258 157.4 132.712 157.592 129.89C157.785 127.082 156.839 124.737 155.01 123.056C151.796 120.106 150.67 116.977 152.875 112.69C153.495 111.49 153.918 109.973 153.846 108.393C153.792 107.211 154.629 106.309 155.462 105.645C156.893 104.527 158.404 103.524 160.015 102.37Z" fill="#2AD2ED"/>
<path d="M155.262 141.337C150.822 142.376 146.519 141.726 142.514 139.637C139.898 138.277 137.404 136.536 134.625 135.679C130.875 134.525 127.033 134.658 123.112 134.997C118.161 135.423 113.13 135.579 108.158 134.47C113.603 133.664 118.68 131.328 124.007 130.077C125.978 129.615 127.586 128.218 129.565 127.691C130.917 127.329 132.039 127.329 133.068 128.204C134.232 129.193 135.395 129.441 136.709 128.726C137.797 128.135 138.781 128.373 139.484 129.354C143.472 134.873 148.813 138.245 154.63 140.874C154.86 140.979 155.053 141.181 155.262 141.337Z" fill="#186C90"/>
<path d="M153.475 106.616C153.805 103.501 153.588 100.423 153.872 97.4138C154.295 92.9156 154.659 88.3945 155.839 83.9971C156.379 81.9862 157.517 80.4746 158.43 78.7661C158.493 78.647 158.568 78.45 158.652 78.4408C160.665 78.166 162.661 78.3401 164.461 79.3753C166.105 80.3235 166.955 82.0458 166.733 84.0338C166.323 87.6937 166.005 91.3582 164.364 94.7708C162.481 98.6918 159.836 101.66 156.471 103.973C155.408 104.706 154.165 105.205 153.475 106.616Z" fill="#B4F4FE"/>
<path d="M116.273 139.847C119.437 140.736 122.647 140.342 125.736 141.08C127.188 141.428 128.603 140.8 130.038 140.644C135.316 140.081 139.438 142.715 143.222 146.347C142.431 146.87 141.807 147.593 141.301 148.473C139.221 152.091 136.157 152.353 133.596 150.736C130.323 148.67 126.929 148.175 123.304 148.445C121.141 148.606 119.797 147.442 119.257 145.198C118.755 143.109 117.738 141.4 116.273 139.847Z" fill="#B4F4FE"/>
<path d="M155.659 142.477C154.521 143.485 153.868 144.154 153.135 144.68C152.658 145.024 152.081 145.542 151.495 144.745C151.244 144.406 151.173 143.549 150.478 144.145C150.281 144.314 150.101 144.63 150.08 144.891C149.997 145.945 150.984 145.139 151.248 145.652C151.302 145.757 151.42 145.821 151.6 145.991C148.406 147.058 145.527 146.957 142.84 144.561C139.082 141.213 134.813 139.019 129.87 139.848C125.237 140.627 120.797 139.66 116.34 138.785C114.143 138.355 112.397 136.509 110.188 135.812C113.088 135.922 115.938 136.064 118.796 136.106C121.579 136.151 124.304 135.551 127.091 135.547C131.197 135.542 135.127 136.275 138.638 138.538C143.401 141.602 148.423 143.027 153.918 142.482C154.307 142.445 154.713 142.477 155.659 142.477Z" fill="#186C90"/>
<path d="M151.441 108.841C150.436 110.476 150.884 112.432 150.474 114.205C150.315 114.883 150.386 115.625 150.323 116.889C148.076 113.816 147.687 110.724 147.528 107.549C147.507 107.151 147.632 106.926 148.017 106.707C149.448 105.891 150.495 104.714 149.867 102.786C149.214 100.793 147.64 100.106 145.858 99.886C145.514 99.8447 145.163 99.8814 144.594 99.8814C145.941 98.5988 147.155 97.4491 148.264 96.3955C148.239 97.3895 148.783 98.6675 149.419 99.918C150.474 101.984 151.102 104.164 150.892 106.583C150.821 107.375 150.65 108.282 151.399 108.901C151.399 108.896 151.441 108.841 151.441 108.841Z" fill="#B4F4FE"/>
<path d="M152.098 146.714C152.165 148.606 151.584 150.127 150.495 151.427C149.596 152.508 148.068 152.325 147.654 150.997C147.398 150.172 147.474 149.188 147.545 148.29C147.654 146.851 148.717 147.74 149.328 147.525C150.165 147.236 151.027 147.025 152.098 146.714Z" fill="#C1E8EE"/>
<path d="M86.7975 107.498C85.9438 106.285 84.8933 106.83 83.9851 106.798C83.4494 106.779 83.4829 107.091 83.78 107.645C84.2948 108.607 83.508 109.331 82.9179 109.793C82.2859 110.293 82.0223 109.445 81.7126 108.987C81.4656 108.621 81.2396 108.24 80.9718 107.892C78.9838 105.309 79.3312 103.903 82.2106 102.895C82.3236 102.854 82.4366 102.762 82.5496 102.767C83.01 102.79 83.2276 104.324 83.8763 103.041C84.027 102.748 83.9223 102.235 83.4452 102.203C82.6793 102.153 81.6121 101.058 81.2648 101.933C80.7919 103.124 79.7748 103.101 79.1847 103.926C77.6069 96.8576 77.4061 89.6431 79.3857 84.4991C81.1392 79.9505 84.2529 76.4143 88.8273 75.2875C90.5809 74.8569 92.5437 75.4982 94.1801 76.9502C97.976 80.3078 98.7503 85.0488 98.8842 89.808C99.0265 94.8696 99.3822 99.8213 100.546 104.732C100.998 106.633 100.529 108.63 100.253 110.577C100.085 111.749 99.1939 112.157 98.5201 112.175C95.6282 112.262 92.8701 113.559 89.9238 113.201C88.8273 113.068 87.7141 113.087 86.6594 112.697C85.5294 112.276 84.4036 111.832 83.5164 110.893C84.5836 109.729 84.7008 107.549 86.7975 107.498Z" fill="#B4F4FE"/>
<path d="M78.6074 113.908C78.0173 112.135 79.1431 111.1 79.7625 109.918C79.9885 109.483 80.4321 108.361 80.8757 109.011C81.3445 109.699 82.9223 110.445 81.5747 111.856C80.7125 112.745 79.775 113.441 78.6074 113.908Z" fill="#C0E8EE"/>
<path d="M75.0742 105.2C75.6392 103.812 76.6353 103.111 77.4891 102.145C78.0289 102.837 78.7655 103.629 78.2173 104.38C77.5309 105.315 76.4135 105.681 75.0742 105.2Z" fill="#BFE6EC"/>
<path d="M130.493 112.185C130.192 107.962 129.782 107.435 126.187 106.29C124.827 105.855 123.487 105.337 122.136 104.879C121.202 104.563 121.094 103.807 121.161 102.905C121.223 102.062 121.68 101.833 122.383 101.686C127.288 100.651 132.385 106.441 131.088 111.64C131.038 111.819 130.778 111.933 130.493 112.185Z" fill="#000303"/>
<path d="M138.777 111.266C137.848 107.578 140.342 103.208 143.435 102.672C144.377 102.507 145.381 101.784 146.356 102.649C146.766 103.011 147.411 103.282 147.306 103.941C147.206 104.578 146.93 105.32 146.16 105.352C145.528 105.38 145.063 105.842 144.402 105.879C140.953 106.071 139.739 107.216 138.777 111.266Z" fill="#010303"/>
<path d="M138.132 126.267C137.533 122.923 136.998 119.579 137.554 116.157C137.537 119.543 138.563 122.854 138.132 126.267Z" fill="#020404"/>
<path d="M130.972 114.316C132.411 116.858 130.942 119.35 130.783 121.864C130.946 119.336 130.725 116.821 130.972 114.316Z" fill="#030606"/>
<path d="M154.585 128.405C153.907 127.255 154.568 126.696 155.12 125.73C155.723 127.026 155.196 127.626 154.585 128.405Z" fill="#196C91"/>
<path d="M152.501 128.277C152.388 128.731 152.153 129.106 151.693 129.097C151.187 129.088 151.316 128.584 151.308 128.254C151.295 127.814 151.299 127.301 151.936 127.457C152.304 127.549 152.488 127.842 152.501 128.277Z" fill="#1A6D92"/>
<path d="M126.974 116.867C126.823 117.284 126.756 117.884 126.271 117.939C125.995 117.966 125.794 117.513 125.765 117.101C125.731 116.574 125.999 116.175 126.371 116.088C126.61 116.033 126.941 116.418 126.974 116.867Z" fill="#1B6E92"/>
<path d="M155.735 130.944C155.363 130.724 155.032 130.44 155.112 129.922C155.174 129.533 155.446 129.249 155.823 129.276C156.43 129.318 156.292 129.876 156.296 130.28C156.3 130.655 156.233 131.035 155.735 130.944Z" fill="#1A6D92"/>
<path d="M153.199 135.972C152.865 136.004 152.681 135.853 152.601 135.51C152.48 134.969 152.731 134.548 153.128 134.433C153.438 134.346 153.727 134.726 153.765 135.13C153.798 135.578 153.476 135.78 153.199 135.972Z" fill="#1F7195"/>
<path d="M146.762 131.808C146.762 130.617 146.385 129.948 147.172 129.696C147.419 129.618 147.787 129.627 147.846 129.971C147.971 130.736 147.281 130.86 146.762 131.808Z" fill="#1A6D92"/>
<path d="M116.751 128.859C117.149 129.097 117.437 129.344 117.329 129.752C117.216 130.173 116.956 130.554 116.483 130.48C116.161 130.43 116.161 130.091 116.152 129.798C116.144 129.28 116.496 129.101 116.751 128.859Z" fill="#1A6D92"/>
<path d="M116.675 120.32C117.027 120.329 117.282 120.54 117.345 120.929C117.408 121.332 117.194 121.74 116.868 121.754C116.646 121.763 116.307 121.41 116.198 121.135C116.052 120.764 116.286 120.457 116.675 120.32Z" fill="#217497"/>
<path d="M152.399 132.762C151.955 132.835 151.766 132.67 151.75 132.322C151.733 131.969 151.662 131.53 152.152 131.502C152.465 131.484 152.926 131.452 152.876 131.974C152.842 132.281 152.532 132.551 152.399 132.762Z" fill="#196D91"/>
<path d="M142.924 112.341C142.79 112.506 142.652 112.836 142.438 112.905C141.923 113.079 142.07 112.456 141.89 112.218C141.618 111.856 141.995 111.659 142.212 111.608C142.61 111.512 142.79 111.847 142.924 112.341Z" fill="#217497"/>
<path d="M123.756 116.432C124.033 116.602 124.413 116.748 124.309 117.17C124.25 117.403 123.957 117.71 123.752 117.729C123.329 117.765 123.25 117.376 123.271 116.973C123.292 116.625 123.434 116.441 123.756 116.432Z" fill="#1A6D92"/>
<path d="M118.349 124.576C117.994 124.562 117.835 124.388 117.83 124.045C117.826 123.664 117.856 123.256 118.308 123.33C118.521 123.366 118.822 123.641 118.873 123.861C118.956 124.26 118.571 124.402 118.349 124.576Z" fill="#1B6F93"/>
<path d="M120.056 122.954C120.688 123.243 120.906 123.706 120.588 124.374C120.542 124.466 120.312 124.562 120.249 124.516C119.625 124.09 119.939 123.513 120.056 122.954Z" fill="#1A6D92"/>
<path d="M149.156 122.955C149.031 123.102 148.876 123.445 148.663 123.496C148.261 123.592 148.076 123.189 148.03 122.827C147.98 122.419 148.315 122.355 148.587 122.35C148.868 122.346 149.148 122.415 149.156 122.955Z" fill="#1F7295"/>
<path d="M128.983 123.106C128.694 123.335 128.498 123.628 128.292 123.633C127.815 123.642 127.849 123.197 127.878 122.831C127.907 122.474 128.117 122.263 128.422 122.428C128.623 122.542 128.749 122.817 128.983 123.106Z" fill="#247699"/>
<path d="M125.502 122.56C125.314 121.96 125.205 121.456 125.615 121.048C125.678 120.984 126.071 121.135 126.105 121.254C126.247 121.786 126.197 122.285 125.502 122.56Z" fill="#1D7094"/>
<path d="M112.737 125.726C112.712 126.11 112.645 126.477 112.31 126.353C112.033 126.252 111.745 125.968 111.611 125.684C111.498 125.451 111.653 125.043 112 125.157C112.285 125.249 112.515 125.547 112.737 125.726Z" fill="#1A6D91"/>
<path d="M142.454 118.383C142.337 118.52 142.178 118.864 141.982 118.891C141.542 118.956 141.609 118.415 141.5 118.149C141.303 117.664 141.751 117.787 141.94 117.774C142.212 117.755 142.454 117.883 142.454 118.383Z" fill="#1A6E92"/>
<path d="M116.055 125.593C116.113 125.684 116.394 125.932 116.39 126.17C116.385 126.376 116.055 126.573 115.87 126.779C115.695 126.56 115.431 126.367 115.36 126.111C115.268 125.776 115.494 125.575 116.055 125.593Z" fill="#1C6F93"/>
<path d="M111.911 120.055C111.89 120.22 111.79 120.499 111.451 120.412C111.137 120.334 111.116 120.023 111.137 119.73C111.162 119.414 111.283 119.143 111.61 119.226C111.924 119.299 111.94 119.615 111.911 120.055Z" fill="#1A6D92"/>
<path d="M121.949 119.629C121.958 120.284 121.774 120.522 121.472 120.417C121.238 120.334 121.066 120.05 120.865 119.853C121.054 119.651 121.234 119.299 121.43 119.294C121.648 119.29 121.882 119.583 121.949 119.629Z" fill="#1F7195"/>
<path d="M148.641 120.811C148.444 120.879 148.385 121.448 148.051 121.072C147.871 120.87 147.816 120.54 147.703 120.266C147.942 120.201 148.197 120.05 148.419 120.096C148.737 120.165 148.817 120.458 148.641 120.811Z" fill="#1F7296"/>
<path d="M144.597 121.026C144.949 121.054 144.991 121.351 144.991 121.631C144.991 121.906 144.97 122.236 144.605 122.226C144.258 122.222 144.208 121.906 144.199 121.622C144.195 121.347 144.246 121.054 144.597 121.026Z" fill="#1B6E92"/>
<path d="M152.044 125.012C151.864 125.025 151.743 124.796 151.713 124.48C151.688 124.182 151.726 123.871 152.036 123.798C152.362 123.724 152.496 123.985 152.513 124.306C152.53 124.595 152.546 124.897 152.044 125.012Z" fill="#196D91"/>
<path d="M149.244 133.71C148.972 133.729 148.825 133.532 148.809 133.192C148.792 132.89 148.817 132.579 149.139 132.505C149.474 132.427 149.616 132.721 149.658 133.014C149.7 133.316 149.604 133.582 149.244 133.71Z" fill="#1A6E92"/>
<path d="M144.536 130.05C144.465 130.1 144.239 130.403 144.017 130.394C143.828 130.385 143.657 130.027 143.473 129.821C143.669 129.629 143.845 129.34 144.076 129.267C144.377 129.166 144.557 129.418 144.536 130.05Z" fill="#1E7195"/>
<path d="M121.884 127.728C121.319 128.081 121.043 128.287 120.742 128.438C120.336 128.644 120.353 128.287 120.34 128.021C120.315 127.577 120.516 127.343 120.926 127.384C121.085 127.407 121.231 127.494 121.884 127.728Z" fill="#1B6E92"/>
<path d="M145.36 126.927C145.298 126.762 145.189 126.501 145.101 126.23C144.996 125.919 145.03 125.589 145.385 125.607C145.599 125.616 145.867 125.836 145.988 126.047C146.168 126.359 145.921 126.56 145.36 126.927Z" fill="#207296"/>
<path d="M137.693 114.288C137.379 113.496 137.362 112.79 138.166 112.3C138.475 113.102 137.705 113.61 137.693 114.288Z" fill="#030505"/>
<path d="M143.635 123.157C143.664 123.601 143.468 123.67 143.262 123.638C142.898 123.583 142.898 123.253 142.928 122.96C142.944 122.79 142.915 122.428 143.208 122.593C143.422 122.708 143.539 123.019 143.635 123.157Z" fill="#2B7C9D"/>
<path d="M128.213 112.392C128.112 112.456 127.962 112.635 127.815 112.63C127.451 112.616 127.426 112.287 127.468 111.98C127.493 111.81 127.456 111.485 127.774 111.618C128.037 111.728 128.242 111.925 128.213 112.392Z" fill="#1E7094"/>
<path d="M145.247 114.728C145.159 114.494 145.038 114.316 145.034 114.128C145.025 113.807 145.184 113.551 145.515 113.656C145.812 113.752 145.925 114.032 145.753 114.329C145.657 114.49 145.452 114.572 145.247 114.728Z" fill="#27799B"/>
<path d="M116.428 115.846C116.361 115.717 116.164 115.484 116.21 115.388C116.323 115.136 116.549 114.948 116.729 114.732C116.804 114.902 116.943 115.071 116.947 115.246C116.955 115.548 116.913 115.873 116.428 115.846Z" fill="#196C91"/>
<path d="M143.438 115.396C143.338 115.703 143.162 115.95 142.852 115.863C142.723 115.827 142.564 115.575 142.555 115.415C142.539 115.016 142.802 114.934 143.104 115.016C143.279 115.062 143.526 115.071 143.438 115.396Z" fill="#247699"/>
<path d="M145.627 116.752C145.87 117.073 146.1 117.26 146.163 117.503C146.193 117.618 145.946 117.888 145.774 117.989C145.422 118.2 145.221 117.792 145.2 117.595C145.18 117.379 145.422 117.132 145.627 116.752Z" fill="#1A6D92"/>
<path d="M124.292 126.866C124.208 126.545 124.116 126.352 124.111 126.155C124.107 125.835 124.229 125.532 124.58 125.624C124.706 125.656 124.894 126 124.852 126.105C124.752 126.357 124.534 126.559 124.292 126.866Z" fill="#1F7195"/>
<path d="M141.886 95.2607C140.166 95.508 138.844 94.4087 137.329 94.2484C136.91 94.2025 136.693 93.7262 136.659 93.2131C136.458 90.222 139.765 83.9511 142.251 82.6227C145.352 80.9645 149.009 82.6227 149.964 86.1361C150.135 86.7636 149.96 87.3133 149.646 87.8538C148.239 90.2861 146.657 92.5627 144.67 94.4636C143.858 95.2469 142.836 95.4897 141.886 95.2607Z" fill="#000304"/>
<path d="M117.959 93.5197C116.988 92.741 117.553 92.1364 118.135 91.5042C120.206 89.2368 122.948 88.5681 125.639 88.0504C127.518 87.684 129.523 87.7848 131.41 88.4627C132.184 88.7421 132.971 89.1269 133.251 90.0522C133.561 91.0691 132.586 91.2248 132.159 91.7378C131.833 92.1318 131.422 92.4478 131.117 92.8601C127.911 97.1888 123.806 97.143 119.457 95.6863C118.599 95.3978 117.448 95.0451 117.946 93.4968C120.642 94.4725 123.303 95.5627 126.241 94.7198C127.463 94.3671 128.526 93.8862 129.342 92.6173C128.2 92.2097 127.689 92.9563 127.112 93.4235C125.747 94.5183 124.304 94.8343 122.839 93.8174C121.223 92.6906 119.579 93.6709 117.959 93.5197Z" fill="#010405"/>
<path d="M118.432 88.9888C121.072 85.5716 129.146 84.3761 132.238 87.4405C129.602 86.6618 127.371 85.7136 124.914 86.3366C122.634 86.9183 120.583 88.0772 118.432 88.9888Z" fill="#000405"/>
<path d="M111.279 90.6559C112.619 91.1827 114.242 90.1063 115.661 91.4805C113.975 91.8103 112.564 91.6866 111.279 90.6559Z" fill="#010608"/>
<path d="M112.197 93.0433C113.168 92.3608 113.888 92.5302 114.788 92.7135C113.98 93.6983 113.264 93.6021 112.197 93.0433Z" fill="#010709"/>
<path d="M149.039 82.1914C148.189 81.7792 147.344 81.3669 146.285 80.8539C147.737 80.3592 148.441 81.1424 149.039 82.1914Z" fill="#000405"/>
<path d="M120.179 85.356C120.099 86.0291 119.71 86.226 119.162 86.3588C119.204 85.5941 119.484 85.2644 120.179 85.356Z" fill="#01080A"/>
<path d="M160.05 82.3515C161.628 81.3208 163.285 82.2186 163.854 84.1333C164.754 87.184 163.704 90.0332 161.67 91.4852C158.757 93.5648 157.196 95.9834 157.028 99.6891C156.999 100.294 156.526 100.875 156.254 101.471C155.949 102.135 155.07 102.557 154.84 102.309C154.233 101.654 155.082 101.439 155.43 101.036C156.242 100.088 156.777 98.8051 156.673 97.6187C156.413 94.6413 158.146 93.2946 160.012 91.9158C161.925 90.505 163.122 88.7277 163.063 85.9747C163.017 83.7394 162.323 82.4477 160.05 82.3515Z" fill="#020505"/>
<path d="M158.288 100.106C158.116 99.8127 158.057 99.7531 158.049 99.689C157.936 98.6446 158.271 97.7697 158.92 97.0368C158.961 96.991 159.397 97.2338 159.388 97.2842C159.217 98.2369 159.187 99.2676 158.288 100.106Z" fill="#090E0F"/>
<path d="M156.5 84.0149C157.178 82.3384 157.973 81.7566 159.451 81.6788C158.634 82.7781 157.776 83.2637 156.5 84.0149Z" fill="#060A0B"/>
<path d="M85.0533 100.881C83.8773 99.1354 82.6678 97.4223 81.5462 95.6358C81.0481 94.8388 81.4206 93.8952 81.9144 93.3455C83.1365 91.9942 83.4421 90.2719 83.9401 88.5771C84.8818 85.3752 89.4435 82.4253 92.4903 82.9338C94.8549 83.3277 95.6585 84.5736 95.918 88.2564C95.0349 88.1373 95.2734 87.267 95.0893 86.7128C94.2271 84.1385 92.5363 83.1674 90.1173 84.0789C87.1752 85.1874 84.752 86.8868 84.141 90.6338C83.9945 91.5362 83.5759 92.5256 83.0026 93.1806C81.6884 94.6785 82.2158 95.9381 83.2579 97.0741C84.2038 98.1048 84.9529 99.2179 85.0533 100.881Z" fill="#020505"/>
<path d="M88.1582 108.004C90.753 110.171 92.8372 108.673 94.9046 107.175C95.6705 106.621 96.4364 106.653 97.2735 106.923C93.7956 110.592 89.7193 111.206 88.1582 108.004Z" fill="#020505"/>
<path d="M83.5078 85.3156C83.9431 82.1275 85.5125 80.8449 88.1952 81.5732C85.9142 81.7656 84.7675 83.6208 83.5078 85.3156Z" fill="#040707"/>
<path d="M140.27 88.0581C140.479 89.4414 141.006 90.3118 142.408 90.3026C144.451 90.2934 145.849 88.7727 146.895 85.2685C149.82 86.5053 149.954 86.9359 147.987 89.4873C147.1 90.637 146.137 91.7089 145.275 92.8952C143.961 94.6954 139.152 94.9382 137.449 93.4586C136.901 92.9823 137.441 92.3547 137.545 92.1852C138.349 90.8248 138.742 89.1345 140.27 88.0581Z" fill="#B4F4FE"/>
<path d="M148.49 84.6141C144.472 83.7437 141.526 85.5027 138.885 88.4068C139.747 83.4231 145.543 81.0412 148.49 84.6141Z" fill="#258EBC"/>
<path d="M141.618 86.6485C141.752 86.7218 141.886 86.763 141.986 86.85C143.694 88.3662 143.715 88.3754 144.585 85.9293C144.728 85.5262 144.824 85.2193 145.238 85.2652C145.422 85.2835 145.694 85.3934 145.753 85.5446C146.058 86.3324 145.711 87.047 145.355 87.6746C144.614 88.9846 143.397 89.5847 142.074 89.7267C141.35 89.8045 141.208 88.8335 140.952 88.2517C140.634 87.5051 140.927 86.9462 141.618 86.6485Z" fill="#258EBD"/>
<path d="M143.56 86.9968C143.108 87.0151 142.962 86.8318 142.945 86.4745C142.928 86.053 143.033 85.7094 143.468 85.7231C143.644 85.7277 144.105 85.5444 143.954 86.0896C143.858 86.4241 143.678 86.731 143.56 86.9968Z" fill="#258EBC"/>
<path d="M118.672 92.1546C121.497 88.6413 130.252 87.6656 132.567 90.5881C127.938 91.1057 123.464 91.6141 118.672 92.1546Z" fill="#258EBD"/>
<path d="M117.96 93.5188C119.777 92.6348 121.564 91.9294 123.435 93.4684C124.715 94.522 126.004 93.9448 126.896 92.8317C127.862 91.6224 128.917 91.4209 130.206 91.7461C129.085 96.1618 121.723 97.2062 117.939 93.4868C117.948 93.4913 117.96 93.5188 117.96 93.5188Z" fill="#B3F3FD"/>
<path d="M123.111 93.0212C124.438 92.1555 125.384 91.8852 126.485 92.2471C125.664 93.4564 124.568 92.893 123.111 93.0212Z" fill="#248BB8"/>
</svg>
