<svg width="262" height="312" viewBox="0 0 262 312" fill="none" xmlns="http://www.w3.org/2000/svg">
<rect x="0.878906" y="85.8445" width="260.14" height="225.156" fill="#154063"/>
<path d="M35.4091 236.303C35.1891 236.287 35.0058 236.226 34.8591 236.12C34.5984 235.932 34.468 235.68 34.468 235.362C34.468 235.012 34.6228 234.747 34.9325 234.568C35.0628 234.494 35.2217 234.449 35.4091 234.433V230.388C35.4173 229.752 35.2991 229.328 35.0547 229.117C34.8428 228.937 34.4028 228.852 33.7347 228.86V227.528H34.4191C35.1199 227.528 35.621 227.577 35.9224 227.674C36.281 227.788 36.5702 228.045 36.7902 228.444C37.0102 228.045 37.2995 227.788 37.658 227.674C37.9594 227.577 38.4606 227.528 39.1613 227.528H39.8457V228.86C39.1776 228.852 38.7376 228.937 38.5257 229.117C38.2813 229.328 38.1631 229.752 38.1713 230.388V234.433C38.3831 234.449 38.5624 234.506 38.7091 234.604C38.9779 234.792 39.1124 235.044 39.1124 235.362C39.1124 235.712 38.9617 235.981 38.6602 236.169C38.5298 236.242 38.3668 236.287 38.1713 236.303V241.351C38.1631 241.986 38.2813 242.406 38.5257 242.61C38.7376 242.797 39.1776 242.887 39.8457 242.878V244.211H39.1613C38.4606 244.211 37.9594 244.162 37.658 244.064C37.2995 243.95 37.0102 243.693 36.7902 243.294C36.5702 243.693 36.281 243.95 35.9224 244.064C35.621 244.162 35.1199 244.211 34.4191 244.211H33.7347V242.878C34.4028 242.887 34.8428 242.797 35.0547 242.61C35.2991 242.406 35.4173 241.986 35.4091 241.351V236.303ZM45.8448 228.444C46.0648 228.045 46.3499 227.788 46.7003 227.674C46.961 227.593 47.3644 227.544 47.9103 227.528C47.9266 228.106 48.0162 228.664 48.1792 229.202L51.0147 238.271V230.388C51.0228 229.752 50.9047 229.328 50.6602 229.117C50.4484 228.937 50.0084 228.852 49.3402 228.86V227.528H49.6458C50.3547 227.528 50.8558 227.577 51.1491 227.674C51.5076 227.788 51.7969 228.045 52.0169 228.444C52.2369 228.045 52.522 227.788 52.8724 227.674C53.1739 227.577 53.675 227.528 54.3757 227.528H54.669V228.86C54.6446 228.86 54.6079 228.86 54.559 228.86C54.005 228.86 53.622 228.945 53.4102 229.117C53.2391 229.255 53.1291 229.455 53.0802 229.715C53.0639 229.805 53.0557 230.029 53.0557 230.388V234.433C53.2676 234.449 53.4468 234.506 53.5935 234.604C53.8624 234.792 53.9968 235.044 53.9968 235.362C53.9968 235.712 53.8461 235.981 53.5446 236.169C53.4142 236.25 53.2513 236.295 53.0557 236.303V241.351C53.0557 242.263 53.1128 243.217 53.2268 244.211C52.8683 244.211 52.5913 244.17 52.3957 244.088C52.078 243.942 51.7724 243.677 51.4791 243.294C51.088 243.905 50.5054 244.211 49.7314 244.211V244.076L49.7436 243.587L49.7558 242.976C49.7558 242.536 49.7191 242.198 49.6458 241.962L46.8836 233.59V241.351C46.8836 241.799 46.9325 242.129 47.0303 242.341C47.1362 242.569 47.3073 242.716 47.5436 242.781C47.7718 242.846 48.0936 242.878 48.5092 242.878V244.211H48.2036C47.5029 244.211 47.0018 244.162 46.7003 244.064C46.3499 243.95 46.0648 243.693 45.8448 243.294C45.6248 243.693 45.3355 243.95 44.977 244.064C44.6755 244.162 44.1744 244.211 43.4737 244.211H43.1681V242.878C43.8363 242.887 44.2763 242.797 44.4881 242.61C44.7326 242.406 44.8507 241.986 44.8426 241.351V236.303C44.6226 236.287 44.4392 236.226 44.2926 236.12C44.0318 235.932 43.9015 235.68 43.9015 235.362C43.9015 235.012 44.0563 234.747 44.3659 234.568C44.4963 234.494 44.6551 234.449 44.8426 234.433V230.388C44.8507 229.752 44.7326 229.328 44.4881 229.117C44.2763 228.937 43.8363 228.852 43.1681 228.86V227.528H43.4737C44.1744 227.528 44.6755 227.577 44.977 227.674C45.3355 227.788 45.6248 228.045 45.8448 228.444ZM66.2291 228.298C66.5306 228.021 66.8891 227.707 67.3046 227.357L67.9646 227.858C67.492 228.387 67.2557 228.949 67.2557 229.544C67.2557 229.781 67.3006 230.102 67.3902 230.51C67.4717 230.852 67.5124 231.105 67.5124 231.268C67.5124 231.585 67.3902 231.891 67.1457 232.184C66.8117 232.583 66.3839 232.783 65.8624 232.783C65.3654 232.783 64.9743 232.588 64.6891 232.196C64.4854 231.919 64.3836 231.614 64.3836 231.28C64.3836 230.709 64.6402 230.086 65.1536 229.41C64.7136 229.043 64.2369 228.86 63.7236 228.86C63.0555 228.86 62.6277 229.076 62.4403 229.508C62.3425 229.736 62.2936 230.054 62.2936 230.461V234.519H65.4469L64.7625 235.338L65.2269 236.218H62.2936V241.351C62.2855 241.986 62.4036 242.406 62.6481 242.61C62.8599 242.797 63.2999 242.887 63.968 242.878H64.4569V244.211H63.2836C62.5829 244.211 62.0818 244.162 61.7803 244.064C61.4218 243.95 61.1325 243.693 60.9125 243.294C60.6925 243.693 60.4033 243.95 60.0448 244.064C59.7433 244.162 59.2422 244.211 58.5415 244.211H57.857V242.878C58.5252 242.887 58.9652 242.797 59.177 242.61C59.4214 242.406 59.5396 241.986 59.5314 241.351V236.303C59.3114 236.287 59.1281 236.226 58.9815 236.12C58.7207 235.932 58.5903 235.68 58.5903 235.362C58.5903 235.012 58.7452 234.747 59.0548 234.568C59.1852 234.494 59.344 234.449 59.5314 234.433V230.388C59.5396 229.752 59.4214 229.328 59.177 229.117C58.9652 228.937 58.5252 228.852 57.857 228.86V227.528H58.5415C59.2422 227.528 59.7433 227.577 60.0448 227.674C60.4033 227.788 60.6925 228.045 60.9125 228.444C61.3118 227.719 62.1347 227.357 63.3814 227.357C64.4895 227.357 65.4387 227.67 66.2291 228.298ZM72.3137 236.303C72.0937 236.287 71.9104 236.226 71.7637 236.12C71.503 235.932 71.3726 235.68 71.3726 235.362C71.3726 235.012 71.5274 234.747 71.837 234.568C71.9674 234.494 72.1263 234.449 72.3137 234.433V230.388C72.3218 229.752 72.2037 229.328 71.9593 229.117C71.7474 228.937 71.3074 228.852 70.6393 228.86V227.528H71.3237C72.0244 227.528 72.5255 227.577 72.827 227.674C73.1855 227.788 73.4748 228.045 73.6948 228.444C73.8333 228.232 74.0044 228.061 74.2081 227.931C74.8029 227.548 75.5892 227.357 76.567 227.357C77.8543 227.357 78.8199 227.695 79.4636 228.371C80.148 229.088 80.4902 230.066 80.4902 231.304C80.4902 232.412 80.2132 233.321 79.6591 234.03C79.3821 234.388 78.9828 234.743 78.4614 235.093C79.9036 235.411 80.6124 236.213 80.588 237.501V241.131C80.588 241.848 80.6817 242.32 80.8691 242.549C81.0402 242.768 81.3458 242.878 81.7857 242.878C81.802 242.878 81.8346 242.878 81.8835 242.878V244.211H81.3824C80.7632 244.211 80.3028 244.15 80.0013 244.027C79.6917 243.889 79.4554 243.644 79.2925 243.294C78.9665 243.856 78.4817 244.162 77.838 244.211V238.149C77.8462 237.375 77.7729 236.869 77.618 236.633C77.4551 236.356 76.9744 236.218 76.1759 236.218H75.0759V241.351C75.0677 241.978 75.1859 242.398 75.4303 242.61C75.6422 242.797 76.0821 242.887 76.7503 242.878V244.211H76.0536C75.3529 244.211 74.8518 244.162 74.5503 244.064C74.2 243.95 73.9148 243.693 73.6948 243.294C73.4748 243.693 73.1855 243.95 72.827 244.064C72.5255 244.162 72.0244 244.211 71.3237 244.211H70.6393V242.878C71.3074 242.887 71.7474 242.797 71.9593 242.61C72.2037 242.406 72.3218 241.986 72.3137 241.351V236.303ZM75.0759 234.519H75.907C76.6647 234.51 77.1618 234.331 77.3981 233.981C77.6425 233.647 77.7688 233.076 77.7769 232.27V230.925C77.7769 230.086 77.6058 229.495 77.2636 229.153C77.0762 228.958 76.7707 228.86 76.347 228.86C75.801 228.86 75.4385 229.015 75.2592 229.324C75.137 229.552 75.0759 229.956 75.0759 230.534V234.519ZM87.6748 236.266C87.1941 236.136 86.9537 235.83 86.9537 235.35C86.9537 235.089 87.0433 234.873 87.2226 234.702C87.4181 234.515 87.63 234.421 87.8581 234.421C87.9152 234.421 87.9966 234.433 88.1026 234.458L89.1659 229.874C89.2148 229.679 89.2392 229.516 89.2392 229.385C89.2392 229.035 88.9174 228.86 88.2737 228.86H88.017V227.528H88.9092C90.2048 227.528 91.0318 227.833 91.3903 228.444C91.7814 227.809 92.5799 227.503 93.7858 227.528H94.4458V228.86H94.2991C93.8673 228.86 93.574 228.913 93.4191 229.019C93.2236 229.149 93.1258 229.341 93.1258 229.593C93.1258 229.667 93.138 229.777 93.1625 229.923L93.9447 234.433C94.018 234.425 94.071 234.421 94.1036 234.421C94.3317 234.421 94.5436 234.515 94.7391 234.702C94.9184 234.873 95.008 235.089 95.008 235.35C95.008 235.839 94.7595 236.148 94.2625 236.279L95.2036 241.791C95.2769 242.247 95.4032 242.536 95.5824 242.658C95.7861 242.805 96.0754 242.878 96.4502 242.878C96.4746 242.878 96.5154 242.878 96.5724 242.878V244.211H96.2424C95.3217 244.211 94.6739 244.105 94.2991 243.893C94.0465 243.738 93.8714 243.538 93.7736 243.294C93.4802 243.93 92.7714 244.235 91.6469 244.211H91.0725V242.878C91.9362 242.878 92.368 242.589 92.368 242.011C92.368 241.856 92.3477 241.656 92.3069 241.412L91.9158 238.87H88.9214L88.457 241.131C88.3674 241.563 88.3226 241.876 88.3226 242.072C88.3226 242.593 88.6892 242.862 89.4225 242.878V244.211H88.7503C87.8215 244.227 87.2837 243.921 87.137 243.294C87.023 243.653 86.8152 243.909 86.5137 244.064C86.3833 244.146 85.9678 244.194 85.2671 244.211H84.546V242.878C85.1489 242.878 85.593 242.756 85.8782 242.512C86.1715 242.243 86.3996 241.75 86.5626 241.033L87.6748 236.266ZM91.6469 237.195L90.657 230.999L89.3248 237.195H91.6469ZM107.998 228.31C108.308 228.033 108.674 227.715 109.098 227.357L109.758 227.858C109.285 228.387 109.049 228.949 109.049 229.544C109.049 229.789 109.094 230.111 109.184 230.51C109.265 230.852 109.306 231.105 109.306 231.268C109.306 231.585 109.184 231.891 108.939 232.184C108.605 232.583 108.177 232.783 107.656 232.783C107.167 232.783 106.776 232.588 106.483 232.196C106.279 231.919 106.177 231.614 106.177 231.28C106.177 230.726 106.425 230.115 106.922 229.447C106.466 229.055 105.981 228.86 105.468 228.86C104.792 228.86 104.364 229.076 104.185 229.508C104.087 229.736 104.038 230.054 104.038 230.461V234.519H107.191L106.507 235.338L106.971 236.218H104.038V240.984C104.038 241.685 104.099 242.145 104.221 242.365C104.401 242.707 104.706 242.878 105.138 242.878C105.7 242.878 106.222 242.581 106.702 241.986C106.32 241.449 106.128 240.943 106.128 240.471C106.128 240.006 106.275 239.611 106.568 239.285C106.853 238.959 107.22 238.796 107.668 238.796C108.198 238.796 108.642 239.016 109 239.456C109.261 239.782 109.391 240.12 109.391 240.471C109.391 240.617 109.338 240.87 109.232 241.229C109.11 241.652 109.049 241.982 109.049 242.219C109.049 242.797 109.285 243.351 109.758 243.881L109.098 244.382C108.642 243.999 108.21 243.62 107.802 243.245C107.525 243.473 107.293 243.653 107.106 243.783C106.519 244.182 105.827 244.382 105.028 244.382C103.912 244.382 103.121 244.019 102.657 243.294C102.437 243.693 102.148 243.95 101.789 244.064C101.488 244.162 100.987 244.211 100.286 244.211H99.6015V242.878C100.27 242.887 100.71 242.797 100.921 242.61C101.166 242.406 101.284 241.986 101.276 241.351V236.303C101.056 236.287 100.873 236.226 100.726 236.12C100.465 235.932 100.335 235.68 100.335 235.362C100.335 235.012 100.49 234.747 100.799 234.568C100.93 234.494 101.089 234.449 101.276 234.433V230.388C101.284 229.752 101.166 229.328 100.921 229.117C100.71 228.937 100.27 228.852 99.6015 228.86V227.528H100.286C100.987 227.528 101.488 227.577 101.789 227.674C102.148 227.788 102.437 228.045 102.657 228.444C103.056 227.719 103.883 227.357 105.138 227.357C106.238 227.357 107.191 227.674 107.998 228.31ZM114.547 243.16C114.18 243.51 113.724 243.917 113.178 244.382L112.506 243.881C112.979 243.343 113.215 242.785 113.215 242.206C113.215 241.978 113.154 241.652 113.032 241.229C112.926 240.862 112.873 240.601 112.873 240.446C112.873 240.08 113.003 239.733 113.264 239.407C113.63 238.943 114.087 238.711 114.633 238.711C115.138 238.711 115.545 238.939 115.855 239.395C116.067 239.713 116.173 240.063 116.173 240.446C116.173 240.903 116.006 241.359 115.671 241.815C116.209 242.516 116.788 242.866 117.407 242.866C117.888 242.866 118.316 242.658 118.69 242.243C119.114 241.779 119.326 241.192 119.326 240.483C119.326 239.864 119.175 239.334 118.874 238.894C118.588 238.47 118.1 237.99 117.407 237.452C117.179 237.688 116.934 237.806 116.674 237.806C116.421 237.806 116.201 237.713 116.014 237.525C115.834 237.346 115.745 237.126 115.745 236.865C115.745 236.67 115.814 236.474 115.953 236.279C115.39 235.822 114.967 235.46 114.682 235.191C113.663 234.221 113.154 233.068 113.154 231.732C113.154 230.168 113.724 228.949 114.865 228.078C115.623 227.491 116.454 227.198 117.358 227.198C118.36 227.198 119.305 227.609 120.194 228.432C120.56 228.09 120.968 227.731 121.416 227.357L122.076 227.858C121.611 228.395 121.379 228.958 121.379 229.544C121.379 229.781 121.424 230.102 121.514 230.51C121.587 230.852 121.624 231.105 121.624 231.268C121.624 231.585 121.501 231.891 121.257 232.184C120.923 232.583 120.495 232.783 119.974 232.783C119.477 232.783 119.086 232.588 118.8 232.196C118.597 231.919 118.495 231.614 118.495 231.28C118.495 230.75 118.715 230.172 119.155 229.544C118.698 229.088 118.214 228.86 117.7 228.86C117.309 228.86 116.967 228.974 116.674 229.202C116.193 229.569 115.953 230.188 115.953 231.06C115.953 231.581 116.038 232.001 116.209 232.319C116.462 232.775 117.012 233.345 117.859 234.03C118.071 233.851 118.291 233.761 118.519 233.761C118.764 233.761 118.98 233.855 119.167 234.042C119.354 234.213 119.448 234.433 119.448 234.702C119.448 234.865 119.399 235.028 119.301 235.191C119.587 235.427 119.778 235.582 119.876 235.655C120.446 236.103 120.845 236.499 121.074 236.841C121.587 237.615 121.844 238.507 121.844 239.517C121.844 240.878 121.42 242.068 120.573 243.086C119.774 244.056 118.751 244.541 117.505 244.541C116.609 244.541 115.818 244.256 115.134 243.685C114.987 243.571 114.792 243.396 114.547 243.16ZM127.366 229.41C127.879 230.094 128.136 230.718 128.136 231.28C128.136 231.687 127.993 232.042 127.708 232.343C127.423 232.636 127.069 232.783 126.645 232.783C126.132 232.783 125.708 232.583 125.374 232.184C125.129 231.891 125.007 231.581 125.007 231.255C125.007 231.101 125.044 230.852 125.117 230.51C125.207 230.102 125.252 229.781 125.252 229.544C125.252 228.949 125.015 228.387 124.543 227.858L125.215 227.357C125.606 227.691 125.948 227.992 126.242 228.261C127.016 227.658 127.786 227.357 128.552 227.357C129.285 227.357 130.014 227.662 130.739 228.273C131.464 227.662 132.194 227.357 132.927 227.357C133.685 227.357 134.455 227.658 135.237 228.261C135.53 227.992 135.873 227.691 136.264 227.357L136.936 227.858C136.463 228.387 136.227 228.954 136.227 229.557C136.227 229.785 136.272 230.102 136.361 230.51C136.435 230.852 136.471 231.105 136.471 231.268C136.471 231.585 136.349 231.891 136.105 232.184C135.763 232.583 135.335 232.783 134.821 232.783C134.324 232.783 133.933 232.588 133.648 232.196C133.444 231.919 133.343 231.614 133.343 231.28C133.343 230.709 133.599 230.086 134.113 229.41C133.86 228.994 133.53 228.787 133.123 228.787C132.683 228.787 132.389 229.002 132.243 229.434C132.161 229.687 132.12 230.115 132.12 230.718V234.433C132.332 234.449 132.511 234.506 132.658 234.604C132.927 234.792 133.061 235.044 133.061 235.362C133.061 235.712 132.911 235.981 132.609 236.169C132.479 236.25 132.316 236.295 132.12 236.303V241.351C132.112 241.986 132.23 242.406 132.475 242.61C132.687 242.797 133.127 242.887 133.795 242.878V244.211H133.11C132.41 244.211 131.904 244.162 131.595 244.064C131.244 243.95 130.959 243.693 130.739 243.294C130.519 243.693 130.23 243.95 129.872 244.064C129.57 244.162 129.069 244.211 128.368 244.211H127.684V242.878C128.352 242.887 128.792 242.797 129.004 242.61C129.248 242.406 129.366 241.986 129.358 241.351V236.303C129.138 236.287 128.955 236.226 128.808 236.12C128.547 235.932 128.417 235.68 128.417 235.362C128.417 235.012 128.572 234.747 128.882 234.568C129.012 234.494 129.171 234.449 129.358 234.433V230.718C129.358 230.123 129.317 229.695 129.236 229.434C129.089 229.002 128.796 228.787 128.356 228.787C127.949 228.787 127.619 228.994 127.366 229.41ZM141.285 236.303C141.065 236.287 140.882 236.226 140.735 236.12C140.474 235.932 140.344 235.68 140.344 235.362C140.344 235.012 140.499 234.747 140.808 234.568C140.939 234.494 141.097 234.449 141.285 234.433V230.388C141.293 229.752 141.175 229.328 140.93 229.117C140.719 228.937 140.279 228.852 139.61 228.86V227.528H140.295C140.996 227.528 141.497 227.577 141.798 227.674C142.157 227.788 142.446 228.045 142.666 228.444C142.804 228.232 142.976 228.061 143.179 227.931C143.774 227.548 144.56 227.357 145.538 227.357C146.826 227.357 147.791 227.695 148.435 228.371C149.119 229.088 149.461 230.066 149.461 231.304C149.461 232.412 149.184 233.321 148.63 234.03C148.353 234.388 147.954 234.743 147.433 235.093C148.875 235.411 149.584 236.213 149.559 237.501V241.131C149.559 241.848 149.653 242.32 149.84 242.549C150.011 242.768 150.317 242.878 150.757 242.878C150.773 242.878 150.806 242.878 150.855 242.878V244.211H150.354C149.734 244.211 149.274 244.15 148.973 244.027C148.663 243.889 148.427 243.644 148.264 243.294C147.938 243.856 147.453 244.162 146.809 244.211V238.149C146.817 237.375 146.744 236.869 146.589 236.633C146.426 236.356 145.946 236.218 145.147 236.218H144.047V241.351C144.039 241.978 144.157 242.398 144.402 242.61C144.613 242.797 145.053 242.887 145.721 242.878V244.211H145.025C144.324 244.211 143.823 244.162 143.522 244.064C143.171 243.95 142.886 243.693 142.666 243.294C142.446 243.693 142.157 243.95 141.798 244.064C141.497 244.162 140.996 244.211 140.295 244.211H139.61V242.878C140.279 242.887 140.719 242.797 140.93 242.61C141.175 242.406 141.293 241.986 141.285 241.351V236.303ZM144.047 234.519H144.878C145.636 234.51 146.133 234.331 146.369 233.981C146.614 233.647 146.74 233.076 146.748 232.27V230.925C146.748 230.086 146.577 229.495 146.235 229.153C146.047 228.958 145.742 228.86 145.318 228.86C144.772 228.86 144.41 229.015 144.23 229.324C144.108 229.552 144.047 229.956 144.047 230.534V234.519ZM163.099 234.433C163.311 234.449 163.49 234.506 163.637 234.604C163.906 234.792 164.04 235.044 164.04 235.362C164.04 235.712 163.89 235.981 163.588 236.169C163.458 236.25 163.295 236.295 163.099 236.303V239.615C163.099 240.797 162.989 241.693 162.769 242.304C162.533 242.956 162.142 243.465 161.596 243.832C160.887 244.304 160.031 244.541 159.029 244.541C157.856 244.541 156.907 244.231 156.182 243.612C155.399 242.944 155.008 241.864 155.008 240.373L155.02 239.689V236.303C154.8 236.287 154.617 236.226 154.47 236.12C154.21 235.932 154.079 235.68 154.079 235.362C154.079 235.012 154.234 234.747 154.544 234.568C154.682 234.494 154.841 234.449 155.02 234.433V230.388C155.029 229.752 154.91 229.328 154.666 229.117C154.47 228.945 154.088 228.86 153.517 228.86V227.528H154.03C154.739 227.528 155.24 227.577 155.534 227.674C155.884 227.788 156.173 228.045 156.402 228.444C156.622 228.045 156.911 227.788 157.269 227.674C157.571 227.577 158.072 227.528 158.773 227.528H159.115V228.86C158.675 228.86 158.345 228.954 158.125 229.141C157.889 229.345 157.774 229.76 157.783 230.388V234.433C157.994 234.449 158.174 234.506 158.32 234.604C158.581 234.792 158.712 235.044 158.712 235.362C158.712 235.712 158.565 235.981 158.272 236.169C158.141 236.25 157.978 236.295 157.783 236.303V240.703C157.783 242.145 158.324 242.866 159.408 242.866C160.5 242.866 161.046 242.145 161.046 240.703V236.303C160.834 236.287 160.655 236.226 160.508 236.12C160.256 235.932 160.129 235.68 160.129 235.362C160.129 235.012 160.284 234.747 160.594 234.568C160.724 234.494 160.879 234.449 161.058 234.433V230.388C161.058 229.76 160.944 229.345 160.716 229.141C160.496 228.954 160.166 228.86 159.726 228.86V227.528H159.86C160.471 227.528 160.916 227.577 161.193 227.674C161.551 227.788 161.84 228.045 162.06 228.444C162.28 228.045 162.566 227.788 162.916 227.674C163.193 227.577 163.637 227.528 164.248 227.528H164.383V228.86C163.975 228.86 163.661 228.954 163.441 229.141C163.278 229.271 163.173 229.463 163.124 229.715C163.107 229.821 163.099 230.045 163.099 230.388V234.433ZM174.843 228.432C175.193 228.106 175.596 227.748 176.053 227.357L176.725 227.858C176.252 228.387 176.016 228.949 176.016 229.544C176.016 229.781 176.061 230.102 176.15 230.51C176.232 230.852 176.273 231.105 176.273 231.268C176.273 231.585 176.15 231.891 175.906 232.184C175.572 232.583 175.144 232.783 174.623 232.783C174.134 232.783 173.743 232.588 173.449 232.196C173.246 231.919 173.144 231.61 173.144 231.268C173.144 230.779 173.339 230.241 173.73 229.654C173.478 229.125 173.087 228.86 172.557 228.86C172.174 228.86 171.856 229.007 171.604 229.3C171.286 229.675 171.127 230.261 171.127 231.06V234.433C171.339 234.449 171.518 234.506 171.665 234.604C171.934 234.792 172.068 235.044 172.068 235.362C172.068 235.712 171.917 235.981 171.616 236.169C171.486 236.25 171.323 236.295 171.127 236.303V240.495C171.127 241.277 171.205 241.831 171.359 242.157C171.596 242.638 172.003 242.878 172.582 242.878C173.184 242.878 173.62 242.577 173.889 241.974C174.142 241.404 174.268 240.54 174.268 239.383V237.623H176.101V239.713C176.101 240.935 175.951 241.901 175.649 242.61C175.429 243.139 175.059 243.575 174.537 243.917C173.983 244.284 173.352 244.467 172.643 244.467C171.233 244.467 170.166 243.783 169.44 242.414C168.552 240.719 168.088 238.682 168.047 236.303C167.835 236.287 167.664 236.23 167.534 236.132C167.273 235.945 167.143 235.688 167.143 235.362C167.143 235.012 167.298 234.747 167.607 234.568C167.754 234.486 167.925 234.441 168.121 234.433C168.267 233.023 168.548 231.793 168.964 230.742C169.445 229.536 170.043 228.656 170.76 228.102C171.396 227.605 172.072 227.357 172.789 227.357C173.539 227.357 174.223 227.715 174.843 228.432ZM182.064 229.41C182.577 230.094 182.834 230.718 182.834 231.28C182.834 231.687 182.691 232.042 182.406 232.343C182.121 232.636 181.766 232.783 181.343 232.783C180.829 232.783 180.406 232.583 180.072 232.184C179.827 231.891 179.705 231.581 179.705 231.255C179.705 231.101 179.742 230.852 179.815 230.51C179.905 230.102 179.949 229.781 179.949 229.544C179.949 228.949 179.713 228.387 179.241 227.858L179.913 227.357C180.304 227.691 180.646 227.992 180.939 228.261C181.713 227.658 182.483 227.357 183.249 227.357C183.983 227.357 184.712 227.662 185.437 228.273C186.162 227.662 186.892 227.357 187.625 227.357C188.383 227.357 189.153 227.658 189.935 228.261C190.228 227.992 190.57 227.691 190.961 227.357L191.634 227.858C191.161 228.387 190.925 228.954 190.925 229.557C190.925 229.785 190.97 230.102 191.059 230.51C191.133 230.852 191.169 231.105 191.169 231.268C191.169 231.585 191.047 231.891 190.803 232.184C190.46 232.583 190.033 232.783 189.519 232.783C189.022 232.783 188.631 232.588 188.346 232.196C188.142 231.919 188.04 231.614 188.04 231.28C188.04 230.709 188.297 230.086 188.81 229.41C188.558 228.994 188.228 228.787 187.82 228.787C187.38 228.787 187.087 229.002 186.94 229.434C186.859 229.687 186.818 230.115 186.818 230.718V234.433C187.03 234.449 187.209 234.506 187.356 234.604C187.625 234.792 187.759 235.044 187.759 235.362C187.759 235.712 187.609 235.981 187.307 236.169C187.177 236.25 187.014 236.295 186.818 236.303V241.351C186.81 241.986 186.928 242.406 187.173 242.61C187.384 242.797 187.824 242.887 188.493 242.878V244.211H187.808C187.107 244.211 186.602 244.162 186.293 244.064C185.942 243.95 185.657 243.693 185.437 243.294C185.217 243.693 184.928 243.95 184.569 244.064C184.268 244.162 183.767 244.211 183.066 244.211H182.382V242.878C183.05 242.887 183.49 242.797 183.702 242.61C183.946 242.406 184.064 241.986 184.056 241.351V236.303C183.836 236.287 183.653 236.226 183.506 236.12C183.245 235.932 183.115 235.68 183.115 235.362C183.115 235.012 183.27 234.747 183.579 234.568C183.71 234.494 183.869 234.449 184.056 234.433V230.718C184.056 230.123 184.015 229.695 183.934 229.434C183.787 229.002 183.494 228.787 183.054 228.787C182.646 228.787 182.316 228.994 182.064 229.41ZM203.719 234.433C203.931 234.449 204.11 234.506 204.257 234.604C204.526 234.792 204.66 235.044 204.66 235.362C204.66 235.712 204.51 235.981 204.208 236.169C204.078 236.25 203.915 236.295 203.719 236.303V239.615C203.719 240.797 203.609 241.693 203.389 242.304C203.153 242.956 202.762 243.465 202.216 243.832C201.507 244.304 200.652 244.541 199.649 244.541C198.476 244.541 197.527 244.231 196.802 243.612C196.019 242.944 195.628 241.864 195.628 240.373L195.641 239.689V236.303C195.421 236.287 195.237 236.226 195.091 236.12C194.83 235.932 194.699 235.68 194.699 235.362C194.699 235.012 194.854 234.747 195.164 234.568C195.302 234.494 195.461 234.449 195.641 234.433V230.388C195.649 229.752 195.531 229.328 195.286 229.117C195.091 228.945 194.708 228.86 194.137 228.86V227.528H194.651C195.359 227.528 195.861 227.577 196.154 227.674C196.504 227.788 196.793 228.045 197.022 228.444C197.242 228.045 197.531 227.788 197.889 227.674C198.191 227.577 198.692 227.528 199.393 227.528H199.735V228.86C199.295 228.86 198.965 228.954 198.745 229.141C198.509 229.345 198.395 229.76 198.403 230.388V234.433C198.615 234.449 198.794 234.506 198.94 234.604C199.201 234.792 199.332 235.044 199.332 235.362C199.332 235.712 199.185 235.981 198.892 236.169C198.761 236.25 198.598 236.295 198.403 236.303V240.703C198.403 242.145 198.945 242.866 200.028 242.866C201.12 242.866 201.666 242.145 201.666 240.703V236.303C201.454 236.287 201.275 236.226 201.128 236.12C200.876 235.932 200.749 235.68 200.749 235.362C200.749 235.012 200.904 234.747 201.214 234.568C201.344 234.494 201.499 234.449 201.678 234.433V230.388C201.678 229.76 201.564 229.345 201.336 229.141C201.116 228.954 200.786 228.86 200.346 228.86V227.528H200.48C201.092 227.528 201.536 227.577 201.813 227.674C202.171 227.788 202.46 228.045 202.68 228.444C202.9 228.045 203.186 227.788 203.536 227.674C203.813 227.577 204.257 227.528 204.868 227.528H205.003V228.86C204.595 228.86 204.281 228.954 204.061 229.141C203.899 229.271 203.793 229.463 203.744 229.715C203.727 229.821 203.719 230.045 203.719 230.388V234.433ZM209.865 236.303C209.645 236.287 209.462 236.226 209.315 236.12C209.054 235.932 208.924 235.68 208.924 235.362C208.924 235.012 209.079 234.747 209.388 234.568C209.519 234.494 209.678 234.449 209.865 234.433V230.388C209.873 229.752 209.755 229.328 209.511 229.117C209.299 228.937 208.859 228.852 208.191 228.86V227.528H208.875C209.576 227.528 210.077 227.577 210.378 227.674C210.737 227.788 211.026 228.045 211.246 228.444C211.385 228.232 211.556 228.061 211.759 227.931C212.354 227.548 213.14 227.357 214.118 227.357C215.406 227.357 216.371 227.695 217.015 228.371C217.699 229.088 218.041 230.066 218.041 231.304C218.041 232.412 217.764 233.321 217.21 234.03C216.933 234.388 216.534 234.743 216.013 235.093C217.455 235.411 218.164 236.213 218.139 237.501V241.131C218.139 241.848 218.233 242.32 218.42 242.549C218.591 242.768 218.897 242.878 219.337 242.878C219.353 242.878 219.386 242.878 219.435 242.878V244.211H218.934C218.314 244.211 217.854 244.15 217.553 244.027C217.243 243.889 217.007 243.644 216.844 243.294C216.518 243.856 216.033 244.162 215.389 244.211V238.149C215.397 237.375 215.324 236.869 215.169 236.633C215.006 236.356 214.526 236.218 213.727 236.218H212.627V241.351C212.619 241.978 212.737 242.398 212.982 242.61C213.193 242.797 213.633 242.887 214.302 242.878V244.211H213.605C212.904 244.211 212.403 244.162 212.102 244.064C211.751 243.95 211.466 243.693 211.246 243.294C211.026 243.693 210.737 243.95 210.378 244.064C210.077 244.162 209.576 244.211 208.875 244.211H208.191V242.878C208.859 242.887 209.299 242.797 209.511 242.61C209.755 242.406 209.873 241.986 209.865 241.351V236.303ZM212.627 234.519H213.458C214.216 234.51 214.713 234.331 214.949 233.981C215.194 233.647 215.32 233.076 215.328 232.27V230.925C215.328 230.086 215.157 229.495 214.815 229.153C214.627 228.958 214.322 228.86 213.898 228.86C213.352 228.86 212.99 229.015 212.81 229.324C212.688 229.552 212.627 229.956 212.627 230.534V234.519ZM225.226 236.266C224.745 236.136 224.505 235.83 224.505 235.35C224.505 235.089 224.595 234.873 224.774 234.702C224.969 234.515 225.181 234.421 225.409 234.421C225.466 234.421 225.548 234.433 225.654 234.458L226.717 229.874C226.766 229.679 226.79 229.516 226.79 229.385C226.79 229.035 226.469 228.86 225.825 228.86H225.568V227.528H226.461C227.756 227.528 228.583 227.833 228.942 228.444C229.333 227.809 230.131 227.503 231.337 227.528H231.997V228.86H231.85C231.419 228.86 231.125 228.913 230.97 229.019C230.775 229.149 230.677 229.341 230.677 229.593C230.677 229.667 230.689 229.777 230.714 229.923L231.496 234.433C231.569 234.425 231.622 234.421 231.655 234.421C231.883 234.421 232.095 234.515 232.29 234.702C232.47 234.873 232.559 235.089 232.559 235.35C232.559 235.839 232.311 236.148 231.814 236.279L232.755 241.791C232.828 242.247 232.954 242.536 233.134 242.658C233.337 242.805 233.627 242.878 234.001 242.878C234.026 242.878 234.067 242.878 234.124 242.878V244.211H233.794C232.873 244.211 232.225 244.105 231.85 243.893C231.598 243.738 231.423 243.538 231.325 243.294C231.032 243.93 230.323 244.235 229.198 244.211H228.624V242.878C229.487 242.878 229.919 242.589 229.919 242.011C229.919 241.856 229.899 241.656 229.858 241.412L229.467 238.87H226.473L226.008 241.131C225.919 241.563 225.874 241.876 225.874 242.072C225.874 242.593 226.241 242.862 226.974 242.878V244.211H226.302C225.373 244.227 224.835 243.921 224.688 243.294C224.574 243.653 224.366 243.909 224.065 244.064C223.935 244.146 223.519 244.194 222.818 244.211H222.097V242.878C222.7 242.878 223.144 242.756 223.429 242.512C223.723 242.243 223.951 241.75 224.114 241.033L225.226 236.266ZM229.198 237.195L228.208 230.999L226.876 237.195H229.198Z" fill="white"/>
<path d="M200.499 151.677C191.091 157.936 181.687 164.2 172.35 170.578C162.037 177.62 151.533 184.361 140.379 189.873C137.194 191.446 134.039 193.113 130.758 194.435C127.083 195.92 123.48 196.349 119.663 194.094C109.422 188.047 99.0427 182.261 88.6552 176.493C82.5449 173.098 76.1039 170.366 70.207 166.538C63.9461 162.476 58.451 157.574 54.9187 150.554C53.32 147.376 52.7969 143.906 52.55 140.463C51.6711 128.236 50.8884 115.983 51.286 103.717C51.6167 93.5145 51.8426 83.2682 54.1361 73.2562C55.3707 67.8679 58.3631 64.1106 62.8789 61.2021C71.7011 55.5175 80.264 49.391 88.9691 43.512C101.064 35.3433 113.184 27.2055 125.325 19.1075C129.477 16.3404 133.825 16.6719 138.128 18.7362C147.59 23.2758 156.367 29.0178 164.661 35.6262C171.224 40.8554 178.28 45.3729 184.679 50.8453C190.283 55.6413 195.874 60.4506 201.466 65.2555C202.324 65.9937 203.152 66.7761 204.027 67.4877C205.68 68.8271 205.827 70.4847 205.488 72.5755C205.207 74.3171 205.496 76.1825 205.676 77.9771C206.157 82.7201 206.279 87.4808 206.559 92.2326C207.09 101.316 207.71 110.396 207.718 119.497C207.722 126.446 206.555 133.284 205.437 140.109C205.052 142.456 204.864 144.856 203.91 147.067C203.391 148.269 202.654 149.312 201.859 150.32C201.549 150.934 201.11 151.398 200.499 151.677Z" fill="#000202"/>
<path d="M52.4949 108.336C52.0513 103.311 52.5618 97.3476 53.0097 91.442C53.537 84.4933 53.7086 77.4164 56.1862 70.755C57.5547 67.0773 59.8691 64.3898 63.0331 62.3608C82.6279 49.7807 101.808 36.5153 121.186 23.5727C123.663 21.915 126.112 20.2176 128.828 19.033C132.331 17.5036 135.516 18.9578 138.571 20.5359C146.995 24.8899 154.968 30.0307 162.493 35.9716C168.52 40.7279 174.793 45.1437 180.803 49.9177C185.21 53.4186 189.362 57.2731 193.647 60.9463C195.786 62.7808 197.803 64.8627 200.168 66.2817C202.934 67.9348 203.83 70.229 204.014 73.363C204.424 80.2189 204.876 87.0748 205.286 93.9351C205.612 99.4207 205.671 104.928 206.148 110.387C206.462 113.99 206.609 117.579 206.437 121.155C206.161 126.946 205.571 132.719 204.512 138.421C204.131 140.468 203.947 142.558 203.541 144.601C203.093 146.859 201.963 148.561 200.08 149.954C195.288 153.503 190.211 156.571 185.34 159.983C173.805 168.064 161.991 175.658 149.908 182.788C143.262 186.708 136.219 189.767 129.326 193.162C125.969 194.815 122.805 193.626 119.863 192.092C108.069 185.939 96.6189 179.097 84.9967 172.603C79.7904 169.695 74.2158 167.524 69.2857 164.046C63.6901 160.094 58.6094 155.629 55.5877 149.03C54.3322 146.289 54.0057 143.314 53.8048 140.432C53.0892 130.067 52.34 119.688 52.4949 108.336Z" fill="#C1E9EF"/>
<path d="M160.079 74.2514C160.372 74.2691 160.661 74.2957 160.807 74.6272C158.673 75.5024 157.062 76.9522 156.166 79.2331C156.015 79.6221 155.702 80.042 155.229 79.9978C154.651 79.9448 154.534 79.3613 154.333 78.906C154.274 78.7734 154.212 78.6275 154.212 78.4861C154.17 73.1464 150.847 69.0885 149.244 64.3588C148.641 62.5774 147.787 60.8933 147.574 59.3417C147.708 60.7253 147.62 62.4713 147.599 64.2173C147.591 64.8804 147.524 65.5479 146.988 66.0253C146.352 66.5955 141.15 67.011 140.472 66.5292C139.497 65.8263 139.451 64.6771 139.191 63.5013C139.153 66.1004 137.823 66.9447 135.571 67.1701C132.851 67.4398 130.147 67.3248 127.435 67.3337C126.51 67.3337 125.887 66.8209 125.493 65.9236C125.204 65.265 124.983 64.5621 124.409 63.8549C124.372 64.9379 124.824 66.012 124.074 66.79C123.296 67.5945 122.241 67.3337 121.283 67.3779C120.379 67.4221 119.483 67.4265 118.584 67.5989C116.19 68.0542 115.612 67.5016 115.537 64.8716C115.52 64.2085 115.562 63.5455 115.411 62.4404C114.064 66.6883 111.151 69.3051 108.782 72.3419C103.852 78.6585 102.45 85.8547 103.538 93.8467C104.023 97.3962 104.756 100.946 104.542 104.584C104.475 107.112 104.756 109.663 104.136 112.156C103.333 116.249 102.743 120.368 102.291 124.528C101.659 130.341 102.864 135.742 104.823 141.047C105.505 142.89 106.409 144.649 106.765 146.616C107.145 148.72 106.292 149.861 104.287 150.011C104.078 150.029 103.848 150.082 103.663 150.007C98.6957 148.048 93.209 149.706 88.2579 147.478C85.9645 146.444 83.4158 146.271 81.0135 145.569C78.9586 144.968 77.0669 145.759 75.2254 146.7C73.3379 147.664 72.7646 147.244 72.8817 145.007C73.0073 142.603 73.9992 140.49 74.9115 138.346C76.8409 133.819 79.8249 129.996 82.3151 125.841C84.7592 121.765 86.4751 117.385 87.2368 112.611C87.354 111.873 87.5339 111.174 88.0445 110.622C88.1993 110.498 88.35 110.374 88.5049 110.25C91.5893 109.804 94.6612 109.3 97.7331 108.778C99.3904 108.496 100.014 109.459 99.5913 111.227C99.403 112.014 99.1058 112.761 98.7794 113.468C100.784 108.027 101.621 102.484 99.9261 96.7464C99.2942 94.6025 99.156 92.4145 99.2398 90.1955C99.3276 87.8306 99.1812 85.4879 98.6204 83.1849C98.34 82.0268 98.3525 80.8421 98.5074 79.6707C98.6664 78.4773 98.5576 77.3324 98.0846 76.0638C97.7038 77.2307 97.0509 77.16 96.4818 76.4704C95.1802 74.9012 93.8284 73.5751 94.6905 70.9185C96.0549 66.7016 98.4362 63.236 100.834 59.7175C103.111 56.3757 106.262 54.0241 109.276 51.5488C110.69 50.3862 112.402 49.7895 114.227 49.374C120.429 47.9595 126.259 45.2631 132.286 43.2297C133.081 42.9601 133.851 42.6197 134.663 42.4164C135.06 42.3147 135.529 42.0805 135.751 42.633C135.935 43.0971 135.6 43.4507 135.295 43.7602C134.466 44.5956 133.24 45.0597 132.985 46.4875C134.767 46.7969 136.6 46.5494 138.208 47.6721C138.794 48.0832 139.551 47.6898 140.196 47.3539C141.2 46.8367 142.271 46.5317 143.372 46.3328C143.791 46.2576 144.238 46.0808 144.515 46.5184C144.795 46.9605 144.519 47.3981 144.226 47.6943C142.79 49.153 143.669 49.6745 144.962 50.4967C152.667 55.3812 157.819 62.2149 159.255 71.8291C159.368 72.6469 159.43 73.584 160.079 74.2514Z" fill="#2AD2ED"/>
<path d="M129.034 165.716C129.05 166.083 128.996 166.472 129.096 166.812C129.578 168.474 129.08 168.925 127.477 168.571C123.74 167.745 120.178 166.326 116.554 165.132C110.87 163.258 105.157 161.64 99.1644 161.344C97.9465 161.282 96.7495 160.783 95.54 160.482C95.0587 159.7 95.5149 159.046 95.879 158.458C97.369 156.04 98.6077 153.498 99.3694 150.727C99.721 149.449 100.403 149.131 101.558 149.489C103.245 150.01 105.103 150.576 106.417 148.932C107.66 147.376 106.539 145.63 105.915 144.193C104.04 139.897 102.73 135.477 102.069 130.778C101.617 127.573 102.144 124.483 102.404 121.358C102.567 119.391 102.768 117.411 103.249 115.483C103.35 115.077 103.308 114.555 103.822 114.414C104.387 114.259 104.814 114.591 105.036 115.05C106.48 118.052 108.564 120.717 109.288 124.103C109.677 125.929 109.506 127.653 108.372 129.102C107.618 130.066 108.003 130.513 108.811 130.946C109.56 131.344 110.347 131.649 111.134 131.94C114.695 133.28 117.273 135.883 118.542 139.503C119.734 142.911 120.94 143.875 124.819 143.924C127.569 143.959 127.527 143.915 126.933 146.7C126.046 150.881 126.485 155.054 127.502 159.121C128.046 161.313 128.23 163.599 129.034 165.716Z" fill="#B4F4FE"/>
<path d="M129.033 165.717C128.565 165.845 128.268 165.766 128.171 165.16C127.318 159.904 125.702 154.786 126.054 149.309C126.167 147.58 127.037 146.038 126.811 144.296C125.212 144.606 123.668 144.566 122.028 144.225C120.157 143.836 119.157 142.793 118.604 141.047C117.077 136.229 113.892 133.206 109.351 131.866C108.535 131.628 108.141 130.863 107.279 130.774C106.605 130.704 106.768 129.882 107.12 129.577C110.531 126.575 108.639 123.437 107.287 120.413C106.362 118.345 105.136 116.422 103.851 114.088C102.257 122.053 101.458 129.563 103.588 137.047C104.366 139.787 105.693 142.356 106.643 145.048C107.124 146.409 108.024 147.912 106.777 149.313C105.467 150.79 103.579 150.723 102.127 150.135C100.361 149.424 99.7207 149.817 99.411 151.585C98.8334 154.896 96.5484 157.376 95.5439 160.479C95.2384 160.607 94.8534 160.93 94.6483 160.828C94.0289 160.528 94.5437 160.143 94.7027 159.798C95.9248 157.168 97.7621 154.883 98.5447 152.005C98.7791 151.152 99.6328 150.259 99.1139 149.468C98.5112 148.549 97.5193 149.26 96.653 149.402C93.6983 149.888 90.9863 148.628 88.2074 147.894C85.7716 147.253 83.361 146.497 80.9085 145.945C78.4434 145.388 76.355 146.581 74.2876 147.819C73.7393 148.146 73.1618 148.933 72.4503 148.394C71.8853 147.965 72.1448 147.152 72.1783 146.524C72.442 141.781 74.5345 137.732 76.7694 133.807C79.6739 128.706 83.5326 124.193 85.3615 118.433C86.0897 116.139 86.6338 113.774 87.1778 111.422C87.3118 110.839 87.3536 110.423 88.0358 110.622C86.9811 117.929 84.1478 124.427 79.971 130.306C77.619 133.621 75.6729 137.166 74.2165 141.021C73.4841 142.961 73.1911 144.928 73.4255 147.121C75.857 146.17 78.0877 144.473 80.8248 145.079C82.842 145.529 84.8341 146.122 86.8514 146.568C89.7308 147.209 92.4595 148.854 95.4602 148.509C97.9713 148.221 100.315 148.363 102.65 149.384C103.249 149.645 104.036 149.508 104.722 149.433C106.199 149.278 106.785 148.434 106.358 146.873C105.655 144.309 104.391 141.98 103.558 139.482C101.512 133.347 101.031 127.114 102.152 120.63C102.629 117.872 103.161 115.104 103.592 112.324C103.797 112.187 104.002 112.191 104.207 112.324C105.542 113.602 105.823 115.564 107.066 117.164C107.702 115.591 107.898 113.902 108.966 112.647C110.774 110.521 112.849 108.894 115.545 108.182C117.75 107.599 120.006 107.015 121.446 105.092C117.001 102.157 112.485 99.5229 109.321 94.939C106.459 90.7928 105.977 81.2538 110.974 77.3639C114.063 74.9592 117.302 73.8542 121.149 75.3173C124.095 76.44 127.112 77.3727 130.155 78.1993C133.75 79.1762 136.776 78.3408 139.199 75.3261C140.677 73.4873 142.413 72.0639 144.64 71.3921C147.699 70.4682 149.997 71.3302 151.654 74.1724C152.964 76.4224 153.579 78.8314 153.132 81.5499C152.633 84.5646 151.817 87.451 150.373 90.0767C149.34 91.9553 149.285 93.635 150.357 95.4518C151.801 97.9051 152.407 100.57 152.135 103.466C152.068 104.195 152.215 104.964 151.399 105.34C150.353 104.894 150.193 103.89 150.327 102.953C150.683 100.403 150.03 98.1924 148.653 96.1325C148.256 95.5402 148.072 94.8064 147.795 93.9931C146.963 94.2539 146.674 95.0761 145.778 95.633C147.745 96.3314 149.461 96.9105 150.106 98.9969C150.486 100.23 150.57 101.477 149.603 102.241C147.779 103.678 148.009 105.437 148.452 107.365C148.716 108.505 149.017 109.614 149.687 110.662C149.842 109.296 150.126 107.979 150.327 106.648C150.419 106.043 150.298 105.075 151.416 105.415C152.177 106.746 151.637 108.147 151.696 109.522C152.294 103.965 152.684 98.3869 152.755 92.7908C152.78 90.7928 153.123 88.8346 153.429 86.8764C154.387 80.6924 153.366 74.8841 150.599 69.3764C149.649 67.4889 148.909 65.513 148.398 63.7714C148.381 63.4709 148.31 63.5106 148.314 63.5416C148.804 66.0833 147.804 67.374 145.368 67.3652C143.899 67.3607 142.346 68.0017 141.024 67.5906C139.676 67.1707 138.689 67.3917 137.379 67.6569C134.181 68.3067 130.879 68.3597 127.598 68.3509C126.275 68.3465 125.535 67.6569 124.991 66.5209C124.727 66.7861 124.702 67.1928 124.451 67.4447C123.626 68.2669 116.658 68.9653 115.75 68.2713C114.791 67.5375 114.645 66.4678 114.812 65.3583C114.034 67.1088 112.803 68.5719 111.552 70.0262C107.384 74.8664 104.291 80.1796 103.931 87.0134C103.73 90.8149 104.262 94.4837 104.688 98.1924C104.948 100.456 105.086 102.719 105.027 104.995C104.061 105.879 104.287 104.712 104.04 104.359C104.023 98.882 102.575 93.5643 102.621 88.0522C102.671 82.1069 104.722 77.1252 107.953 72.475C109.669 70.0041 111.916 68.0326 113.494 65.4202C114.306 64.0764 114.436 62.4233 115.532 61.1723C116.491 62.6443 116.043 64.2842 116.039 65.8181C116.039 67.0381 116.478 67.4801 117.487 67.2016C119.328 66.6888 121.195 66.7552 123.057 66.7994C123.974 66.8215 124.128 66.3308 124.015 65.5794C123.944 65.0887 123.685 64.6246 123.655 64.1339C123.614 63.4355 123.283 62.41 124.074 62.1669C124.924 61.9061 124.777 62.9846 124.953 63.5283C125.723 65.8755 126.819 67.3121 129.615 66.8657C132.114 66.4678 134.713 66.8303 137.253 66.3662C137.885 66.2512 138.224 66.207 138.278 65.3893C138.354 64.2002 138.638 63.02 138.864 61.6364C139.752 62.5028 139.936 63.4443 139.923 64.4654C139.902 66.1761 140.852 66.5474 142.217 66.3131C142.623 66.2424 143.012 66.0612 143.414 65.9683C144.59 65.7031 146.239 66.596 146.879 65.3804C147.415 64.3593 147.03 62.7946 147.038 61.4729C147.046 59.9346 147.042 58.3964 147.318 56.7697C148.432 65.0533 154.889 71.2241 154.96 80.2901C156.622 77.5672 157.17 74.2476 160.79 74.6233C160.995 74.6675 161.196 74.7117 161.401 74.7559C168.282 76.3605 167.503 79.3353 166.813 85.5194C166.294 90.1784 164.117 93.9003 161.326 97.2774C160.347 98.462 160.225 99.5936 160.966 100.571C163.172 103.47 162.682 106.976 162.845 110.18C163.222 117.465 165.997 123.503 170.286 128.953C170.805 129.612 171.534 130.08 172.132 130.673C172.785 131.318 172.689 132.149 172.442 132.914C172.266 133.453 171.672 133.71 171.22 133.493C169.357 132.6 167.503 133.365 165.704 133.586C162.443 133.988 158.949 133.528 156.27 135.884C156.722 136.402 157.233 136.989 157.877 137.728C156.915 138.125 155.948 138.346 155.182 138.886C154.031 139.695 152.646 140.207 152.751 142.342C152.809 143.571 152.052 144.99 151.324 146.254C150.537 147.611 149.578 147.912 148.398 147.603C147.218 147.293 146.85 146.157 146.607 144.955C146.414 144.013 147.36 142.789 145.59 142.17C143.861 141.564 143.003 142.325 142.045 143.447C140.974 144.707 140.266 146.294 138.467 146.825C135.78 147.616 133.482 146.736 131.277 145.357C128.598 143.686 128.267 143.841 127.514 147.001C126.284 152.178 127.74 157.097 128.753 162.035C129.029 163.303 128.962 164.493 129.033 165.717Z" fill="#010303"/>
<path d="M160.076 74.2521C158.532 74.0532 159 72.5503 158.846 71.7281C157.439 64.1915 154.087 58.0384 148.161 53.4236C146.353 52.018 144.65 50.5151 142.398 49.6619C143.151 48.5834 143.829 47.6154 144.717 46.3423C143.164 46.8462 141.95 47.275 140.716 47.6286C139.506 47.9734 138.552 48.632 137.016 47.5756C136.053 46.9125 133.827 46.329 132.065 47.9071C131.784 44.7642 134.835 44.5477 135.727 42.3773C130.056 44.4372 124.506 46.3202 119.062 48.4773C116.504 49.4896 113.688 49.4056 111.265 50.8378C107.138 53.2733 103.564 56.4692 100.747 60.4166C98.8515 63.0776 96.8427 65.7209 95.7294 68.992C94.3734 72.9923 94.4321 73.8631 97.5416 76.8645C97.8304 76.06 97.0017 75.5915 97.0561 74.8931C98.5335 75.1229 99.5463 76.9485 99.1697 78.9023C98.8767 80.4273 98.9101 81.8639 99.2282 83.411C99.5588 85.0156 99.9146 86.6643 99.7932 88.375C99.5338 92.035 100.04 95.6066 100.965 99.1517C101.865 102.604 101.467 106.065 100.526 109.473C100.224 110.565 100.099 111.723 99.7346 112.788C99.3663 113.862 98.7888 114.848 97.2696 114.897C97.6337 113.456 98.8139 112.687 99.0399 111.272C99.3663 109.261 99.2701 108.89 97.4119 109.248C95.5997 109.597 93.8169 110.101 92.0005 110.406C90.8496 110.596 89.6526 110.733 88.5017 110.256C86.9197 110.048 85.3712 109.535 84.0822 108.633C82.9773 107.86 82.4249 108.151 81.7218 109.044C81.3367 109.531 80.8973 109.959 80.2737 110.225C79.5371 110.538 78.8801 111.471 78.064 110.742C77.2102 109.981 77.4571 108.859 77.8212 107.913C78.1226 107.126 78.5034 106.282 79.0768 105.725C80.1649 104.659 79.8971 103.727 79.2819 102.555C78.5578 101.172 77.9719 102.405 77.3064 102.502C76.6201 102.6 75.9044 102.67 75.2264 102.564C74.2555 102.414 73.95 101.746 74.4689 100.831C74.8163 100.217 75.1553 99.4832 75.691 99.1252C78.5076 97.2244 77.8714 94.285 77.3818 91.7698C76.0718 85.0156 79.7297 76.2457 85.5177 72.736C87.8865 71.2994 90.272 71.3922 92.6827 72.1613C93.7373 72.4973 94.047 72.4928 94.3609 71.2728C96.0684 64.5849 100.036 59.4618 104.799 54.931C106.732 53.0877 108.582 51.1251 111.03 50.0023C114.353 48.4729 118.003 48.1502 121.393 46.7667C126.105 44.8438 130.968 43.3321 135.735 41.5551C136.622 41.2236 137.447 41.0998 138.539 41.2457C137.321 43.3188 134.894 43.8979 133.647 46.0682C134.978 45.7721 136.254 45.3389 137.288 46.0948C140.406 48.3801 142.829 45.2284 145.62 44.9985C146.198 44.9499 146.767 44.5874 147.659 44.9499C146.499 46.0948 145.453 47.1777 144.357 48.1944C143.561 48.9282 143.607 49.2774 144.591 49.8388C152.392 54.2944 157.448 61.0487 159.549 70.1854C159.85 71.4983 159.904 72.8907 160.076 74.2521Z" fill="#000303"/>
<path d="M103.895 112.323L103.748 112.319L103.602 112.323C104.054 109.689 103.995 107.019 104.049 104.358C104.275 104.65 104.497 104.941 104.723 105.233C105.782 107.302 105.372 110.781 103.895 112.323Z" fill="#071B1F"/>
<path d="M122.575 145.454C122.094 148.615 121.734 151.267 121.244 153.893C121.173 154.273 121.403 154.989 120.717 155.152C120.093 153.548 121.014 148.137 122.575 145.454Z" fill="#020404"/>
<path d="M120.441 158.016C121.454 159.837 121.023 161.817 121.119 163.736C121.144 164.257 120.839 164.779 120.537 164.761C120.043 164.735 119.889 164.195 119.847 163.63C119.704 161.72 120.089 159.886 120.441 158.016Z" fill="#010303"/>
<path d="M139.058 98.2407C140.82 99.39 142.293 97.7854 143.904 97.5733C144.699 97.4672 145.561 97.1578 146.31 97.3522C147.62 97.6926 149.064 98.1214 149.156 99.9867C149.253 101.963 147.855 102.254 146.478 102.608C145.273 102.917 144.038 103.253 143.197 104.659C144.569 104.8 145.62 103.138 146.557 103.908C147.499 104.681 146.8 106.308 147.131 107.466C148.089 110.825 149.357 113.999 151.948 116.444C153.27 117.69 154.367 119.233 155.455 120.727C157.933 124.139 156.426 127.587 155.405 131.004C155.246 131.543 154.643 132.056 154.693 132.525C155.032 135.707 153.488 134.682 152.027 133.93C147.742 131.716 143.724 129.161 140.799 124.988C139.715 123.441 138.17 122.464 136.228 123.578C135.626 123.923 134.805 124.046 134.437 123.728C131.554 121.209 128.662 122.667 125.908 123.759C121.103 125.664 116.19 127.096 111.18 128.175C110.536 128.312 109.958 128.944 109.033 128.493C110.029 126.257 109.502 124.029 108.9 121.743C107.255 115.524 110.36 111.572 115.487 109.711C118.149 108.743 120.911 108.089 122.681 105.543C123.443 104.451 124.313 104.907 125.422 105.468C125.15 104.12 124.401 104.133 123.861 103.93C122.388 103.377 120.873 102.935 119.417 102.334C118.094 101.79 117.257 100.778 117.349 99.1646C117.446 97.4716 118.709 96.8395 119.923 96.4417C122.765 95.5046 125.565 95.9377 128.314 97.0782C130.913 98.1612 133.479 99.4651 136.413 99.0496C136.798 98.9966 137.271 99.2043 137.476 98.6341C137.915 98.1214 138.417 97.8783 139.058 98.2407Z" fill="#B4F4FE"/>
<path d="M103.895 112.323C104.577 110.016 104.991 107.669 104.727 105.238C104.2 100.203 103.396 95.1814 103.212 90.1334C103.003 84.3693 104.355 78.9368 107.64 74.1187C109.331 71.6389 111.415 69.5348 113.14 67.0948C113.88 66.0472 114.424 64.9244 115.249 63.3552C115.249 64.5752 115.274 65.3753 115.245 66.1754C115.186 67.8816 116.132 68.4784 117.475 68.0673C118.844 67.6473 120.196 67.6871 121.568 67.6783C124.402 67.6606 124.402 67.6694 124.678 64.4647C125.251 68.4695 127.93 67.7932 130.345 67.6694C132.835 67.5413 135.321 67.3468 137.811 67.2407C139.456 67.1699 138.209 65.2029 139.422 64.867C139.489 66.8649 140.372 67.7844 142.373 66.971C142.687 66.8428 143.055 66.8517 143.402 66.8296C147.859 66.529 147.859 66.529 148.052 61.6932C149.801 67.0683 153.057 71.8157 154.049 77.4825C154.773 81.6288 154.438 85.8281 153.601 89.9345C153.271 91.5568 153.413 93.1481 153.371 94.7527C153.308 97.0689 153.509 99.3984 152.605 101.617C152.43 102.046 152.413 102.736 152.626 103.12C154.192 105.954 151.978 107.969 151.413 110.312C151.413 108.557 151.413 106.807 151.413 105.052L151.371 105.101C152.3 101.701 151.567 98.532 149.843 95.6721C148.554 93.5371 148.772 91.7645 149.977 89.7223C151.714 86.7607 152.647 83.3659 152.823 79.9711C152.97 77.1775 151.877 74.4546 149.663 72.5362C147.558 70.7106 144.315 71.7008 142.025 73.2611C141.347 73.7253 140.674 74.3043 140.205 74.9895C137.392 79.0738 133.68 80.0507 129.269 78.6141C126.088 77.5798 122.97 76.3244 119.76 75.4226C116.714 74.5651 113.864 75.5729 111.545 77.6417C107.18 81.5359 106.448 89.0814 109.603 94.209C111.231 96.8523 113.16 99.058 115.939 100.331C116.186 100.446 116.596 100.481 116.663 100.667C117.731 103.58 120.493 103.523 122.657 104.548C121.02 107.289 118.308 108.031 115.596 108.787C111.834 109.839 107.481 113.23 107.686 118.994C105.79 117.009 105.146 114.463 103.895 112.323Z" fill="#B4F4FE"/>
<path d="M139.055 98.2405C138.523 98.3731 137.996 98.5057 137.464 98.6383C137.376 98.5278 137.276 98.3201 137.196 98.3289C132.735 98.8328 129.01 96.0348 124.825 95.2524C121.577 94.6468 118.401 95.7651 116.677 98.7223C116.166 99.602 115.756 99.4252 115.229 99.0362C111.613 96.3663 108.779 93.1262 108.562 88.1534C108.403 84.5862 108.503 81.103 111.441 78.5083C114.09 76.1699 116.999 75.4096 120.322 76.4528C123.758 77.527 127.206 78.5436 130.63 79.662C133.903 80.7317 136.585 79.6443 138.971 77.3104C140.344 75.971 141.44 74.2824 143.152 73.3763C147.496 71.0821 151.263 72.9785 151.631 78.3226C152.213 86.8229 148.425 92.9008 141.75 97.2062C140.955 97.7277 139.963 97.909 139.055 98.2405Z" fill="#186C90"/>
<path d="M159.972 98.8021C159.972 100.075 160.253 101.07 160.851 101.998C162.115 103.974 162.006 106.365 162.048 108.522C162.224 117.372 165.195 124.829 171.193 130.982C171.528 131.322 172.327 131.596 171.9 132.317C171.557 132.896 170.866 132.684 170.343 132.622C166.832 132.215 163.388 133.139 159.901 133.205C158.842 133.227 157.805 134.134 156.741 134.598C156.302 134.788 155.854 135.429 155.36 134.912C154.804 134.328 154.963 133.647 155.319 132.914C156.469 130.54 157.357 128.082 157.549 125.359C157.742 122.65 156.796 120.386 154.967 118.764C151.753 115.918 150.627 112.898 152.833 108.761C153.452 107.603 153.875 106.14 153.804 104.615C153.749 103.474 154.586 102.604 155.419 101.963C156.85 100.884 158.361 99.916 159.972 98.8021Z" fill="#2AD2ED"/>
<path d="M155.221 136.405C150.781 137.409 146.478 136.781 142.473 134.765C139.857 133.453 137.363 131.773 134.584 130.946C130.834 129.832 126.992 129.961 123.071 130.288C118.12 130.699 113.089 130.849 108.117 129.779C113.562 129.001 118.639 126.747 123.966 125.54C125.937 125.094 127.545 123.746 129.524 123.237C130.876 122.888 131.998 122.888 133.027 123.732C134.191 124.687 135.354 124.926 136.668 124.236C137.756 123.666 138.74 123.896 139.443 124.842C143.431 130.168 148.772 133.422 154.589 135.959C154.819 136.061 155.012 136.255 155.221 136.405Z" fill="#186C90"/>
<path d="M153.434 102.9C153.764 99.8944 153.547 96.924 153.831 94.0198C154.254 89.6791 154.618 85.3162 155.798 81.0727C156.338 79.1322 157.476 77.6735 158.389 76.0247C158.452 75.9098 158.527 75.7197 158.611 75.7109C160.624 75.4457 162.62 75.6137 164.42 76.6126C166.064 77.5276 166.914 79.1897 166.692 81.1081C166.282 84.6399 165.964 88.1762 164.323 91.4693C162.44 95.2531 159.795 98.1174 156.43 100.35C155.367 101.057 154.124 101.539 153.434 102.9Z" fill="#B4F4FE"/>
<path d="M116.23 134.968C119.394 135.826 122.604 135.446 125.693 136.157C127.145 136.493 128.56 135.888 129.995 135.738C135.273 135.194 139.395 137.735 143.179 141.241C142.388 141.745 141.764 142.443 141.258 143.292C139.178 146.784 136.114 147.036 133.553 145.475C130.28 143.482 126.886 143.004 123.262 143.265C121.098 143.42 119.754 142.297 119.215 140.131C118.712 138.116 117.695 136.467 116.23 134.968Z" fill="#B4F4FE"/>
<path d="M155.616 137.506C154.478 138.479 153.825 139.124 153.092 139.632C152.615 139.964 152.038 140.463 151.452 139.694C151.201 139.367 151.13 138.54 150.435 139.115C150.238 139.279 150.058 139.584 150.037 139.836C149.954 140.852 150.941 140.074 151.205 140.569C151.259 140.671 151.377 140.733 151.557 140.896C148.363 141.926 145.484 141.829 142.797 139.517C139.039 136.286 134.77 134.169 129.827 134.969C125.194 135.72 120.754 134.788 116.297 133.943C114.1 133.528 112.354 131.746 110.145 131.075C113.045 131.181 115.895 131.318 118.753 131.357C121.537 131.402 124.261 130.823 127.048 130.818C131.154 130.814 135.084 131.521 138.595 133.705C143.358 136.662 148.38 138.037 153.875 137.51C154.264 137.475 154.67 137.506 155.616 137.506Z" fill="#186C90"/>
<path d="M151.398 105.047C150.393 106.625 150.841 108.513 150.431 110.223C150.272 110.878 150.343 111.594 150.28 112.814C148.033 109.848 147.644 106.864 147.485 103.801C147.464 103.416 147.589 103.199 147.974 102.987C149.406 102.201 150.452 101.064 149.824 99.2035C149.171 97.2807 147.597 96.6176 145.815 96.4055C145.471 96.3657 145.12 96.4011 144.551 96.4011C145.898 95.1634 147.112 94.0539 148.221 93.0372C148.196 93.9964 148.74 95.2297 149.376 96.4364C150.431 98.43 151.059 100.534 150.849 102.868C150.778 103.633 150.607 104.508 151.356 105.105C151.356 105.1 151.398 105.047 151.398 105.047Z" fill="#B4F4FE"/>
<path d="M152.055 141.595C152.122 143.42 151.541 144.888 150.452 146.143C149.553 147.186 148.025 147.009 147.611 145.728C147.355 144.932 147.431 143.982 147.502 143.115C147.611 141.727 148.674 142.585 149.285 142.377C150.122 142.099 150.984 141.895 152.055 141.595Z" fill="#C1E8EE"/>
<path d="M86.7526 103.751C85.8988 102.58 84.8484 103.106 83.9402 103.075C83.4045 103.057 83.438 103.358 83.7351 103.893C84.2499 104.821 83.4631 105.52 82.873 105.966C82.241 106.448 81.9773 105.63 81.6676 105.188C81.4207 104.834 81.1947 104.468 80.9269 104.132C78.9389 101.639 79.2863 100.282 82.1657 99.3091C82.2787 99.2693 82.3917 99.1809 82.5047 99.1853C82.965 99.2074 83.1827 100.688 83.8314 99.4505C83.982 99.1676 83.8774 98.6726 83.4003 98.6416C82.6344 98.593 81.5672 97.5365 81.2199 98.3808C80.7469 99.5301 79.7299 99.508 79.1398 100.304C77.562 93.4831 77.3612 86.5211 79.3407 81.5571C81.0943 77.1678 84.208 73.7553 88.7824 72.6679C90.536 72.2524 92.4988 72.8712 94.1352 74.2725C97.9311 77.5125 98.7054 82.0876 98.8393 86.6803C98.9816 91.5647 99.3373 96.3431 100.501 101.082C100.953 102.916 100.484 104.843 100.208 106.722C100.04 107.854 99.149 108.247 98.4752 108.265C95.5833 108.349 92.8252 109.6 89.8789 109.255C88.7824 109.127 87.6692 109.144 86.6145 108.769C85.4845 108.362 84.3587 107.933 83.4715 107.027C84.5387 105.904 84.6558 103.8 86.7526 103.751Z" fill="#B4F4FE"/>
<path d="M78.5644 109.937C77.9743 108.226 79.1001 107.227 79.7195 106.087C79.9455 105.667 80.3891 104.584 80.8328 105.212C81.3015 105.875 82.8793 106.595 81.5317 107.957C80.6696 108.814 79.7321 109.486 78.5644 109.937Z" fill="#C0E8EE"/>
<path d="M75.0312 101.534C75.5962 100.194 76.5923 99.5181 77.4461 98.5854C77.986 99.2529 78.7225 100.018 78.1743 100.743C77.4879 101.644 76.3705 101.998 75.0312 101.534Z" fill="#BFE6EC"/>
<path d="M130.45 108.274C130.149 104.199 129.739 103.69 126.144 102.585C124.784 102.165 123.445 101.666 122.093 101.224C121.159 100.919 121.051 100.19 121.118 99.3188C121.18 98.5054 121.637 98.2844 122.34 98.143C127.245 97.144 132.342 102.731 131.045 107.748C130.995 107.921 130.735 108.031 130.45 108.274Z" fill="#000303"/>
<path d="M138.732 107.387C137.803 103.829 140.297 99.6115 143.39 99.0944C144.332 98.9352 145.336 98.2368 146.311 99.0723C146.721 99.4215 147.366 99.6823 147.261 100.319C147.161 100.933 146.885 101.649 146.115 101.68C145.483 101.707 145.018 102.153 144.357 102.189C140.908 102.374 139.695 103.479 138.732 107.387Z" fill="#010303"/>
<path d="M138.089 121.863C137.49 118.636 136.955 115.409 137.511 112.107C137.494 115.374 138.52 118.57 138.089 121.863Z" fill="#020404"/>
<path d="M130.93 110.33C132.37 112.783 130.901 115.188 130.742 117.615C130.905 115.175 130.684 112.748 130.93 110.33Z" fill="#030606"/>
<path d="M154.542 123.926C153.864 122.817 154.525 122.278 155.077 121.345C155.68 122.596 155.153 123.175 154.542 123.926Z" fill="#196C91"/>
<path d="M152.46 123.803C152.347 124.241 152.112 124.603 151.652 124.594C151.146 124.585 151.275 124.099 151.267 123.781C151.254 123.357 151.258 122.861 151.895 123.012C152.263 123.1 152.447 123.383 152.46 123.803Z" fill="#1A6D92"/>
<path d="M126.931 112.792C126.78 113.194 126.713 113.773 126.228 113.826C125.952 113.853 125.751 113.415 125.722 113.018C125.688 112.509 125.956 112.125 126.328 112.041C126.567 111.988 126.898 112.359 126.931 112.792Z" fill="#1B6E92"/>
<path d="M155.694 126.376C155.322 126.164 154.991 125.89 155.071 125.391C155.133 125.015 155.405 124.741 155.782 124.767C156.389 124.807 156.251 125.346 156.255 125.735C156.259 126.098 156.192 126.465 155.694 126.376Z" fill="#1A6D92"/>
<path d="M153.157 131.229C152.822 131.26 152.638 131.114 152.558 130.783C152.437 130.261 152.688 129.854 153.085 129.744C153.395 129.66 153.684 130.027 153.722 130.416C153.755 130.849 153.433 131.043 153.157 131.229Z" fill="#1F7195"/>
<path d="M146.719 127.21C146.719 126.061 146.342 125.415 147.129 125.172C147.376 125.097 147.744 125.106 147.803 125.437C147.928 126.176 147.238 126.295 146.719 127.21Z" fill="#1A6D92"/>
<path d="M116.708 124.364C117.106 124.594 117.394 124.833 117.286 125.226C117.173 125.633 116.913 126 116.44 125.929C116.118 125.88 116.118 125.553 116.11 125.27C116.101 124.771 116.453 124.598 116.708 124.364Z" fill="#1A6D92"/>
<path d="M116.634 116.124C116.986 116.133 117.241 116.336 117.304 116.712C117.367 117.101 117.153 117.495 116.827 117.508C116.605 117.517 116.266 117.176 116.157 116.911C116.011 116.553 116.245 116.257 116.634 116.124Z" fill="#217497"/>
<path d="M152.358 128.131C151.914 128.202 151.725 128.043 151.709 127.707C151.692 127.366 151.621 126.942 152.111 126.915C152.424 126.897 152.885 126.867 152.835 127.371C152.801 127.667 152.491 127.928 152.358 128.131Z" fill="#196D91"/>
<path d="M142.883 108.425C142.749 108.584 142.611 108.902 142.397 108.969C141.882 109.137 142.029 108.535 141.849 108.306C141.577 107.956 141.954 107.766 142.171 107.718C142.569 107.625 142.749 107.948 142.883 108.425Z" fill="#217497"/>
<path d="M123.711 112.372C123.988 112.536 124.368 112.678 124.264 113.084C124.205 113.31 123.912 113.606 123.707 113.624C123.284 113.659 123.205 113.283 123.226 112.894C123.247 112.558 123.389 112.381 123.711 112.372Z" fill="#1A6D92"/>
<path d="M118.305 120.231C117.949 120.218 117.79 120.05 117.785 119.719C117.781 119.352 117.811 118.958 118.263 119.029C118.476 119.064 118.778 119.329 118.828 119.542C118.911 119.926 118.526 120.063 118.305 120.231Z" fill="#1B6F93"/>
<path d="M120.015 118.667C120.647 118.945 120.865 119.391 120.547 120.037C120.501 120.125 120.271 120.218 120.208 120.174C119.584 119.763 119.898 119.206 120.015 118.667Z" fill="#1A6D92"/>
<path d="M149.115 118.667C148.99 118.809 148.835 119.14 148.622 119.189C148.22 119.282 148.035 118.893 147.989 118.543C147.939 118.15 148.274 118.088 148.546 118.084C148.827 118.079 149.107 118.146 149.115 118.667Z" fill="#1F7295"/>
<path d="M128.94 118.813C128.651 119.034 128.455 119.317 128.249 119.321C127.772 119.33 127.806 118.901 127.835 118.547C127.864 118.203 128.074 117.999 128.379 118.158C128.58 118.269 128.706 118.534 128.94 118.813Z" fill="#247699"/>
<path d="M125.457 118.286C125.269 117.707 125.16 117.221 125.57 116.827C125.633 116.765 126.026 116.911 126.06 117.026C126.202 117.539 126.152 118.021 125.457 118.286Z" fill="#1D7094"/>
<path d="M112.694 121.341C112.669 121.712 112.602 122.066 112.267 121.946C111.991 121.849 111.702 121.575 111.568 121.301C111.455 121.075 111.61 120.682 111.957 120.792C112.242 120.881 112.472 121.168 112.694 121.341Z" fill="#1A6D91"/>
<path d="M142.413 114.255C142.296 114.388 142.137 114.719 141.941 114.746C141.501 114.808 141.568 114.286 141.459 114.029C141.262 113.561 141.71 113.68 141.899 113.667C142.171 113.649 142.413 113.773 142.413 114.255Z" fill="#1A6E92"/>
<path d="M116.012 121.213C116.07 121.301 116.351 121.54 116.347 121.77C116.342 121.969 116.012 122.159 115.827 122.358C115.652 122.146 115.388 121.96 115.317 121.712C115.225 121.39 115.451 121.195 116.012 121.213Z" fill="#1C6F93"/>
<path d="M111.87 115.869C111.849 116.028 111.749 116.297 111.41 116.213C111.096 116.138 111.075 115.838 111.096 115.555C111.121 115.25 111.242 114.989 111.569 115.068C111.883 115.139 111.899 115.444 111.87 115.869Z" fill="#1A6D92"/>
<path d="M121.905 115.457C121.913 116.089 121.729 116.319 121.427 116.218C121.193 116.138 121.021 115.864 120.82 115.674C121.009 115.479 121.189 115.139 121.385 115.134C121.603 115.13 121.838 115.413 121.905 115.457Z" fill="#1F7195"/>
<path d="M148.598 116.598C148.401 116.664 148.342 117.212 148.008 116.85C147.828 116.655 147.773 116.337 147.66 116.072C147.899 116.01 148.154 115.864 148.376 115.908C148.694 115.974 148.774 116.257 148.598 116.598Z" fill="#1F7296"/>
<path d="M144.554 116.806C144.906 116.832 144.948 117.12 144.948 117.389C144.948 117.655 144.927 117.973 144.563 117.964C144.215 117.96 144.165 117.655 144.156 117.381C144.152 117.115 144.203 116.832 144.554 116.806Z" fill="#1B6E92"/>
<path d="M152.001 120.652C151.821 120.665 151.7 120.444 151.67 120.139C151.645 119.852 151.683 119.551 151.993 119.48C152.319 119.409 152.453 119.661 152.47 119.971C152.487 120.249 152.503 120.541 152.001 120.652Z" fill="#196D91"/>
<path d="M149.201 129.046C148.929 129.064 148.782 128.873 148.766 128.546C148.749 128.255 148.774 127.954 149.096 127.883C149.431 127.808 149.573 128.091 149.615 128.374C149.657 128.666 149.561 128.922 149.201 129.046Z" fill="#1A6E92"/>
<path d="M144.493 125.514C144.422 125.562 144.196 125.854 143.974 125.845C143.786 125.837 143.614 125.492 143.43 125.293C143.626 125.107 143.802 124.829 144.033 124.758C144.334 124.661 144.514 124.904 144.493 125.514Z" fill="#1E7195"/>
<path d="M121.843 123.273C121.278 123.613 121.002 123.812 120.701 123.958C120.295 124.157 120.312 123.812 120.299 123.556C120.274 123.127 120.475 122.902 120.885 122.941C121.044 122.964 121.19 123.048 121.843 123.273Z" fill="#1B6E92"/>
<path d="M145.319 122.5C145.257 122.341 145.148 122.089 145.06 121.828C144.955 121.527 144.989 121.209 145.344 121.226C145.558 121.235 145.826 121.448 145.947 121.651C146.127 121.952 145.88 122.146 145.319 122.5Z" fill="#207296"/>
<path d="M137.65 110.303C137.336 109.539 137.319 108.858 138.123 108.385C138.432 109.159 137.662 109.649 137.65 110.303Z" fill="#030505"/>
<path d="M143.594 118.862C143.623 119.291 143.427 119.357 143.221 119.326C142.857 119.273 142.857 118.955 142.887 118.672C142.903 118.508 142.874 118.159 143.167 118.318C143.381 118.429 143.498 118.729 143.594 118.862Z" fill="#2B7C9D"/>
<path d="M128.17 108.474C128.069 108.536 127.919 108.708 127.772 108.704C127.408 108.69 127.383 108.372 127.425 108.076C127.45 107.913 127.413 107.599 127.731 107.727C127.994 107.833 128.199 108.023 128.17 108.474Z" fill="#1E7094"/>
<path d="M145.206 110.728C145.118 110.503 144.997 110.33 144.993 110.149C144.984 109.839 145.143 109.592 145.474 109.694C145.771 109.786 145.884 110.056 145.712 110.343C145.616 110.498 145.411 110.578 145.206 110.728Z" fill="#27799B"/>
<path d="M116.385 111.807C116.318 111.683 116.121 111.457 116.167 111.365C116.28 111.121 116.506 110.94 116.686 110.732C116.761 110.896 116.9 111.059 116.904 111.227C116.912 111.519 116.87 111.833 116.385 111.807Z" fill="#196C91"/>
<path d="M143.395 111.373C143.295 111.669 143.119 111.908 142.809 111.824C142.68 111.788 142.521 111.545 142.512 111.391C142.496 111.006 142.759 110.927 143.061 111.006C143.236 111.05 143.483 111.059 143.395 111.373Z" fill="#247699"/>
<path d="M145.584 112.681C145.827 112.991 146.058 113.172 146.12 113.406C146.15 113.517 145.903 113.778 145.731 113.875C145.379 114.078 145.178 113.685 145.158 113.495C145.137 113.287 145.379 113.048 145.584 112.681Z" fill="#1A6D92"/>
<path d="M124.247 122.441C124.163 122.131 124.071 121.946 124.067 121.756C124.062 121.446 124.184 121.154 124.535 121.243C124.661 121.274 124.849 121.605 124.807 121.707C124.707 121.95 124.489 122.145 124.247 122.441Z" fill="#1F7195"/>
<path d="M141.841 91.942C140.121 92.1807 138.799 91.1199 137.284 90.9652C136.865 90.921 136.648 90.4612 136.614 89.9662C136.413 87.0797 139.72 81.0283 142.206 79.7464C145.307 78.1463 148.965 79.7464 149.919 83.1368C150.09 83.7424 149.915 84.2728 149.601 84.7944C148.195 87.1416 146.613 89.3385 144.625 91.1729C143.813 91.9288 142.791 92.1631 141.841 91.942Z" fill="#000304"/>
<path d="M117.916 90.262C116.945 89.5106 117.51 88.9271 118.092 88.3171C120.163 86.1291 122.905 85.4837 125.596 84.9842C127.475 84.6306 129.48 84.7278 131.367 85.382C132.141 85.6517 132.928 86.023 133.208 86.9159C133.518 87.8972 132.543 88.0475 132.116 88.5425C131.79 88.9227 131.38 89.2277 131.074 89.6255C127.868 93.8027 123.763 93.7585 119.414 92.3528C118.556 92.0744 117.405 91.734 117.903 90.2399C120.599 91.1815 123.26 92.2335 126.198 91.4202C127.42 91.0798 128.483 90.6157 129.299 89.3912C128.157 88.9978 127.646 89.7183 127.069 90.1692C125.705 91.2257 124.261 91.5307 122.796 90.5494C121.18 89.462 119.536 90.4079 117.916 90.262Z" fill="#010405"/>
<path d="M118.391 85.8897C121.031 82.5921 129.105 81.4384 132.197 84.3956C129.561 83.6441 127.33 82.7291 124.873 83.3303C122.593 83.8917 120.542 85.01 118.391 85.8897Z" fill="#000405"/>
<path d="M111.238 87.4985C112.578 88.0068 114.201 86.9681 115.62 88.2942C113.933 88.6124 112.523 88.4931 111.238 87.4985Z" fill="#010608"/>
<path d="M112.152 89.8023C113.123 89.1437 113.843 89.3072 114.743 89.484C113.935 90.4344 113.22 90.3416 112.152 89.8023Z" fill="#010709"/>
<path d="M148.996 79.3302C148.146 78.9324 147.301 78.5345 146.242 78.0395C147.694 77.5621 148.398 78.3179 148.996 79.3302Z" fill="#000405"/>
<path d="M120.134 82.384C120.054 83.0336 119.665 83.2236 119.117 83.3517C119.159 82.6138 119.439 82.2956 120.134 82.384Z" fill="#01080A"/>
<path d="M160.009 79.4846C161.587 78.4901 163.244 79.3565 163.813 81.2042C164.713 84.1481 163.663 86.8975 161.629 88.2987C158.716 90.3056 157.155 92.6395 156.987 96.2155C156.958 96.799 156.485 97.3604 156.213 97.935C155.908 98.5759 155.029 98.9826 154.799 98.7439C154.192 98.1118 155.041 97.9041 155.389 97.5151C156.201 96.6001 156.736 95.3624 156.632 94.2175C156.372 91.3443 158.105 90.0448 159.971 88.7142C161.884 87.3528 163.081 85.6377 163.022 82.9811C162.976 80.824 162.282 79.5775 160.009 79.4846Z" fill="#020505"/>
<path d="M158.245 96.6176C158.073 96.3347 158.014 96.2773 158.006 96.2154C157.893 95.2076 158.228 94.3633 158.877 93.656C158.918 93.6118 159.354 93.8461 159.345 93.8947C159.174 94.8142 159.144 95.8087 158.245 96.6176Z" fill="#090E0F"/>
<path d="M156.457 81.0899C157.135 79.472 157.93 78.9107 159.408 78.8355C158.591 79.8964 157.733 80.3649 156.457 81.0899Z" fill="#060A0B"/>
<path d="M85.0084 97.3653C83.8324 95.6812 82.6229 94.028 81.5012 92.3041C81.0032 91.5349 81.3757 90.6244 81.8695 90.0939C83.0916 88.7899 83.3971 87.1279 83.8952 85.4924C84.8368 82.4026 89.3986 79.5559 92.4454 80.0466C94.81 80.4267 95.6136 81.629 95.873 85.183C94.99 85.068 95.2285 84.2282 95.0443 83.6933C94.1822 81.2091 92.4914 80.272 90.0724 81.1517C87.1302 82.2214 84.7071 83.8613 84.0961 87.4771C83.9496 88.3479 83.531 89.3027 82.9577 89.9348C81.6435 91.3802 82.1709 92.5958 83.213 93.6921C84.1588 94.6866 84.9079 95.7608 85.0084 97.3653Z" fill="#020505"/>
<path d="M88.1133 104.239C90.7081 106.33 92.7923 104.885 94.8597 103.439C95.6256 102.904 96.3915 102.935 97.2285 103.196C93.7507 106.737 89.6743 107.329 88.1133 104.239Z" fill="#020505"/>
<path d="M83.4648 82.3451C83.9001 79.2685 85.4695 78.0308 88.1522 78.7337C85.8713 78.9193 84.7246 80.7095 83.4648 82.3451Z" fill="#040707"/>
<path d="M140.227 84.9916C140.436 86.3265 140.963 87.1664 142.365 87.1575C144.408 87.1487 145.806 85.6811 146.852 82.2996C149.777 83.4931 149.911 83.9086 147.944 86.3707C147.057 87.4802 146.094 88.5146 145.232 89.6594C143.918 91.3966 139.109 91.6309 137.406 90.2031C136.858 89.7434 137.398 89.1378 137.502 88.9743C138.306 87.6614 138.699 86.0303 140.227 84.9916Z" fill="#B4F4FE"/>
<path d="M148.449 81.668C144.431 80.8282 141.485 82.5256 138.844 85.3281C139.706 80.5188 145.502 78.2202 148.449 81.668Z" fill="#258EBC"/>
<path d="M141.575 83.6313C141.709 83.702 141.843 83.7418 141.943 83.8258C143.651 85.2889 143.672 85.2977 144.542 82.9373C144.685 82.5483 144.781 82.2522 145.195 82.2964C145.379 82.314 145.651 82.4201 145.71 82.566C146.015 83.3263 145.668 84.0159 145.312 84.6214C144.571 85.8856 143.354 86.4647 142.031 86.6017C141.307 86.6769 141.165 85.7398 140.909 85.1784C140.591 84.4579 140.884 83.9186 141.575 83.6313Z" fill="#258EBD"/>
<path d="M143.519 83.9674C143.067 83.9851 142.921 83.8082 142.904 83.4634C142.887 83.0566 142.992 82.725 143.427 82.7383C143.603 82.7427 144.064 82.5659 143.913 83.092C143.817 83.4147 143.637 83.711 143.519 83.9674Z" fill="#258EBC"/>
<path d="M118.629 88.9447C121.454 85.5543 130.209 84.6128 132.524 87.433C127.895 87.9325 123.421 88.4231 118.629 88.9447Z" fill="#258EBD"/>
<path d="M117.915 90.2612C119.732 89.408 121.519 88.7273 123.39 90.2125C124.67 91.2292 125.959 90.6722 126.851 89.5981C127.818 88.4312 128.872 88.2367 130.161 88.5505C129.04 92.8117 121.678 93.8195 117.895 90.2302C117.903 90.2346 117.915 90.2612 117.915 90.2612Z" fill="#B3F3FD"/>
<path d="M123.07 89.781C124.397 88.9455 125.343 88.6847 126.444 89.0339C125.623 90.2009 124.527 89.6572 123.07 89.781Z" fill="#248BB8"/>
</svg>
