<svg width="262" height="310" viewBox="0 0 262 310" fill="none" xmlns="http://www.w3.org/2000/svg">
<rect x="0.439453" y="89" width="261" height="221" fill="#154063"/>
<path d="M40.7685 237.092C40.5485 237.076 40.3652 237.015 40.2185 236.909C39.9578 236.722 39.8274 236.469 39.8274 236.151C39.8274 235.801 39.9822 235.536 40.2918 235.357C40.4222 235.284 40.5811 235.239 40.7685 235.222V231.177C40.7766 230.541 40.6585 230.118 40.414 229.906C40.2022 229.727 39.7622 229.641 39.0941 229.649V228.317H39.7785C40.4792 228.317 40.9803 228.366 41.2818 228.464C41.6403 228.578 41.9296 228.834 42.1496 229.234C42.3696 228.834 42.6588 228.578 43.0173 228.464C43.3188 228.366 43.8199 228.317 44.5206 228.317H45.2051V229.649C44.5369 229.641 44.0969 229.727 43.8851 229.906C43.6407 230.118 43.5225 230.541 43.5307 231.177V235.222C43.7425 235.239 43.9218 235.296 44.0684 235.394C44.3373 235.581 44.4717 235.833 44.4717 236.151C44.4717 236.502 44.321 236.771 44.0195 236.958C43.8892 237.031 43.7262 237.076 43.5307 237.092V242.14C43.5225 242.776 43.6407 243.195 43.8851 243.399C44.0969 243.586 44.5369 243.676 45.2051 243.668V245H44.5206C43.8199 245 43.3188 244.951 43.0173 244.853C42.6588 244.739 42.3696 244.483 42.1496 244.083C41.9296 244.483 41.6403 244.739 41.2818 244.853C40.9803 244.951 40.4792 245 39.7785 245H39.0941V243.668C39.7622 243.676 40.2022 243.586 40.414 243.399C40.6585 243.195 40.7766 242.776 40.7685 242.14V237.092ZM58.7451 235.406L56.3985 242.666L55.4696 241.663L54.4796 242.666L52.243 235.54V242.14C52.243 242.588 52.2919 242.918 52.3897 243.13C52.4956 243.358 52.6667 243.505 52.903 243.57C53.1311 243.635 53.453 243.668 53.8685 243.668V245H53.563C52.8622 245 52.3611 244.951 52.0597 244.853C51.7093 244.739 51.4241 244.483 51.2041 244.083C50.9841 244.483 50.6949 244.739 50.3364 244.853C50.0349 244.951 49.5338 245 48.833 245H48.5275V243.668C49.1956 243.676 49.6356 243.586 49.8475 243.399C50.0919 243.195 50.2101 242.776 50.2019 242.14V237.092C49.9819 237.076 49.7986 237.015 49.6519 236.909C49.3912 236.722 49.2608 236.469 49.2608 236.151C49.2608 235.801 49.4156 235.536 49.7253 235.357C49.8556 235.284 50.0145 235.239 50.2019 235.222V231.177C50.2101 230.541 50.0919 230.118 49.8475 229.906C49.6356 229.727 49.1956 229.641 48.5275 229.649V228.317H48.833C49.5338 228.317 50.0349 228.366 50.3364 228.464C50.6949 228.578 50.9841 228.834 51.2041 229.234C51.4241 228.834 51.7093 228.578 52.0597 228.464C52.3611 228.366 52.8622 228.317 53.563 228.317H53.8563V229.649C53.343 229.649 53.0863 229.739 53.0863 229.918C53.0863 229.983 53.1067 230.077 53.1474 230.199L55.7629 238.901L58.4884 230.48C58.5373 230.325 58.5618 230.207 58.5618 230.126C58.5618 229.808 58.0688 229.649 57.0829 229.649V228.317H57.7551C58.4558 228.317 58.9569 228.366 59.2584 228.464C59.6169 228.578 59.9062 228.834 60.1262 229.234C60.3462 228.834 60.6354 228.578 60.9939 228.464C61.2954 228.366 61.7965 228.317 62.4972 228.317H63.1817V229.649C62.5135 229.641 62.0735 229.727 61.8617 229.906C61.6173 230.118 61.4991 230.541 61.5073 231.177V235.222C61.7191 235.239 61.8984 235.296 62.045 235.394C62.3139 235.581 62.4484 235.833 62.4484 236.151C62.4484 236.502 62.2976 236.771 61.9961 236.958C61.8658 237.039 61.7028 237.084 61.5073 237.092V242.14C61.4991 242.776 61.6173 243.195 61.8617 243.399C62.0735 243.586 62.5135 243.676 63.1817 243.668V245H62.4972C61.7965 245 61.2954 244.951 60.9939 244.853C60.6354 244.739 60.3462 244.483 60.1262 244.083C59.9062 244.483 59.6169 244.739 59.2584 244.853C58.9569 244.951 58.4558 245 57.7551 245H57.0707V243.668C57.7388 243.676 58.1788 243.586 58.3907 243.399C58.6351 243.195 58.7532 242.776 58.7451 242.14V235.406ZM68.1907 237.092C67.9707 237.076 67.7874 237.015 67.6408 236.909C67.38 236.722 67.2496 236.469 67.2496 236.151C67.2496 235.801 67.4045 235.536 67.7141 235.357C67.8445 235.284 68.0033 235.239 68.1907 235.222V231.177C68.1989 230.541 68.0807 230.118 67.8363 229.906C67.6245 229.727 67.1845 229.641 66.5163 229.649V228.317H67.2008C67.9015 228.317 68.4026 228.366 68.7041 228.464C69.0626 228.578 69.3518 228.834 69.5718 229.234C70.1992 228.508 71.1566 228.146 72.444 228.146C73.8699 228.146 74.9454 228.602 75.6706 229.515C76.3306 230.354 76.6606 231.487 76.6606 232.912C76.6606 234.452 76.2328 235.626 75.3773 236.432C74.8477 236.929 74.1999 237.268 73.434 237.447C73.0999 237.52 72.7944 237.557 72.5173 237.557C72.167 237.557 71.6455 237.508 70.9529 237.41V242.14C70.9448 242.776 71.0629 243.195 71.3074 243.399C71.5192 243.586 71.9592 243.676 72.6273 243.668V245H71.9429C71.2422 245 70.7411 244.951 70.4396 244.853C70.0811 244.739 69.7918 244.483 69.5718 244.083C69.3518 244.483 69.0626 244.739 68.7041 244.853C68.4026 244.951 67.9015 245 67.2008 245H66.5163V243.668C67.1845 243.676 67.6245 243.586 67.8363 243.399C68.0807 243.195 68.1989 242.776 68.1907 242.14V237.092ZM70.9529 231.116V235.589C71.3033 235.654 71.5885 235.687 71.8085 235.687C72.4359 235.687 72.9166 235.536 73.2507 235.235C73.5766 234.933 73.7395 234.355 73.7395 233.499V231.837C73.7395 231.079 73.5684 230.484 73.2262 230.052C73.0062 229.784 72.6762 229.649 72.2362 229.649C71.5355 229.649 71.1118 229.987 70.9651 230.664C70.957 230.827 70.9529 230.977 70.9529 231.116ZM81.1563 237.056C80.6756 236.925 80.4352 236.62 80.4352 236.139C80.4352 235.878 80.5249 235.662 80.7041 235.491C80.8997 235.304 81.1115 235.21 81.3397 235.21C81.3967 235.21 81.4782 235.222 81.5841 235.247L82.6474 230.664C82.6963 230.468 82.7207 230.305 82.7207 230.175C82.7207 229.824 82.3989 229.649 81.7552 229.649H81.4985V228.317H82.3908C83.6863 228.317 84.5133 228.623 84.8718 229.234C85.2629 228.598 86.0614 228.293 87.2673 228.317H87.9273V229.649H87.7807C87.3488 229.649 87.0555 229.702 86.9007 229.808C86.7051 229.938 86.6073 230.13 86.6073 230.382C86.6073 230.456 86.6196 230.566 86.644 230.712L87.4262 235.222C87.4995 235.214 87.5525 235.21 87.5851 235.21C87.8132 235.21 88.0251 235.304 88.2206 235.491C88.3999 235.662 88.4895 235.878 88.4895 236.139C88.4895 236.628 88.241 236.938 87.744 237.068L88.6851 242.58C88.7584 243.036 88.8847 243.326 89.064 243.448C89.2677 243.594 89.5569 243.668 89.9317 243.668C89.9562 243.668 89.9969 243.668 90.0539 243.668V245H89.724C88.8032 245 88.1555 244.894 87.7807 244.682C87.5281 244.527 87.3529 244.328 87.2551 244.083C86.9618 244.719 86.2529 245.024 85.1285 245H84.554V243.668C85.4177 243.668 85.8496 243.379 85.8496 242.8C85.8496 242.645 85.8292 242.446 85.7885 242.201L85.3974 239.659H82.403L81.9385 241.92C81.8489 242.352 81.8041 242.666 81.8041 242.861C81.8041 243.383 82.1708 243.652 82.9041 243.668V245H82.2319C81.303 245.016 80.7652 244.711 80.6186 244.083C80.5045 244.442 80.2967 244.699 79.9952 244.853C79.8649 244.935 79.4493 244.984 78.7486 245H78.0275V243.668C78.6304 243.668 79.0745 243.546 79.3597 243.301C79.653 243.032 79.8812 242.539 80.0441 241.822L81.1563 237.056ZM85.1285 237.985L84.1385 231.788L82.8063 237.985H85.1285ZM99.9396 229.221C100.29 228.895 100.693 228.537 101.15 228.146L101.822 228.647C101.349 229.177 101.113 229.739 101.113 230.334C101.113 230.57 101.158 230.892 101.247 231.299C101.329 231.641 101.37 231.894 101.37 232.057C101.37 232.375 101.247 232.68 101.003 232.974C100.669 233.373 100.241 233.572 99.7196 233.572C99.2307 233.572 98.8396 233.377 98.5463 232.986C98.3426 232.709 98.2407 232.399 98.2407 232.057C98.2407 231.568 98.4363 231.03 98.8274 230.444C98.5748 229.914 98.1837 229.649 97.6541 229.649C97.2711 229.649 96.9533 229.796 96.7008 230.089C96.383 230.464 96.2241 231.051 96.2241 231.849V235.222C96.4359 235.239 96.6152 235.296 96.7619 235.394C97.0308 235.581 97.1652 235.833 97.1652 236.151C97.1652 236.502 97.0145 236.771 96.713 236.958C96.5826 237.039 96.4197 237.084 96.2241 237.092V241.285C96.2241 242.067 96.3015 242.621 96.4563 242.947C96.6926 243.427 97.1 243.668 97.6785 243.668C98.2815 243.668 98.7174 243.366 98.9863 242.763C99.2389 242.193 99.3652 241.329 99.3652 240.172V238.412H101.198V240.502C101.198 241.725 101.048 242.69 100.746 243.399C100.526 243.929 100.156 244.364 99.634 244.707C99.08 245.073 98.4485 245.257 97.7396 245.257C96.33 245.257 95.2626 244.572 94.5375 243.203C93.6493 241.509 93.1849 239.472 93.1442 237.092C92.9323 237.076 92.7612 237.019 92.6308 236.921C92.3701 236.734 92.2397 236.477 92.2397 236.151C92.2397 235.801 92.3945 235.536 92.7042 235.357C92.8508 235.275 93.0219 235.231 93.2175 235.222C93.3642 233.813 93.6453 232.582 94.0608 231.531C94.5415 230.325 95.1404 229.445 95.8574 228.891C96.493 228.394 97.1693 228.146 97.8863 228.146C98.6359 228.146 99.3203 228.504 99.9396 229.221ZM107.161 230.199C107.674 230.884 107.931 231.507 107.931 232.069C107.931 232.477 107.788 232.831 107.503 233.132C107.218 233.426 106.863 233.572 106.44 233.572C105.926 233.572 105.503 233.373 105.169 232.974C104.924 232.68 104.802 232.371 104.802 232.045C104.802 231.89 104.839 231.641 104.912 231.299C105.002 230.892 105.046 230.57 105.046 230.334C105.046 229.739 104.81 229.177 104.338 228.647L105.01 228.146C105.401 228.48 105.743 228.781 106.036 229.05C106.81 228.447 107.58 228.146 108.346 228.146C109.08 228.146 109.809 228.451 110.534 229.063C111.259 228.451 111.989 228.146 112.722 228.146C113.48 228.146 114.25 228.447 115.032 229.05C115.325 228.781 115.667 228.48 116.058 228.146L116.731 228.647C116.258 229.177 116.022 229.743 116.022 230.346C116.022 230.574 116.067 230.892 116.156 231.299C116.23 231.641 116.266 231.894 116.266 232.057C116.266 232.375 116.144 232.68 115.9 232.974C115.557 233.373 115.13 233.572 114.616 233.572C114.119 233.572 113.728 233.377 113.443 232.986C113.239 232.709 113.137 232.403 113.137 232.069C113.137 231.499 113.394 230.875 113.907 230.199C113.655 229.784 113.325 229.576 112.917 229.576C112.477 229.576 112.184 229.792 112.037 230.224C111.956 230.476 111.915 230.904 111.915 231.507V235.222C112.127 235.239 112.306 235.296 112.453 235.394C112.722 235.581 112.856 235.833 112.856 236.151C112.856 236.502 112.706 236.771 112.404 236.958C112.274 237.039 112.111 237.084 111.915 237.092V242.14C111.907 242.776 112.025 243.195 112.27 243.399C112.481 243.586 112.921 243.676 113.59 243.668V245H112.905C112.204 245 111.699 244.951 111.39 244.853C111.039 244.739 110.754 244.483 110.534 244.083C110.314 244.483 110.025 244.739 109.666 244.853C109.365 244.951 108.864 245 108.163 245H107.479V243.668C108.147 243.676 108.587 243.586 108.799 243.399C109.043 243.195 109.161 242.776 109.153 242.14V237.092C108.933 237.076 108.75 237.015 108.603 236.909C108.342 236.722 108.212 236.469 108.212 236.151C108.212 235.801 108.367 235.536 108.676 235.357C108.807 235.284 108.966 235.239 109.153 235.222V231.507C109.153 230.912 109.112 230.484 109.031 230.224C108.884 229.792 108.591 229.576 108.151 229.576C107.743 229.576 107.413 229.784 107.161 230.199ZM119.185 237.092C118.965 237.084 118.782 237.023 118.635 236.909C118.375 236.722 118.244 236.469 118.244 236.151C118.244 235.801 118.399 235.536 118.709 235.357C118.855 235.275 119.031 235.231 119.234 235.222C119.34 233.805 119.576 232.599 119.943 231.605C120.399 230.358 121.002 229.417 121.752 228.781C122.387 228.244 123.064 227.975 123.781 227.975C124.799 227.975 125.712 228.488 126.519 229.515C127.545 230.827 128.152 232.729 128.34 235.222C128.568 235.231 128.763 235.288 128.926 235.394C129.187 235.581 129.317 235.833 129.317 236.151C129.317 236.502 129.167 236.771 128.865 236.958C128.735 237.039 128.572 237.084 128.376 237.092C128.344 238.893 128.091 240.429 127.619 241.7C127.162 242.955 126.559 243.896 125.81 244.523C125.182 245.061 124.506 245.33 123.781 245.33C122.77 245.33 121.858 244.817 121.043 243.79C119.862 242.283 119.242 240.05 119.185 237.092ZM125.296 235.222V232.411L125.309 231.751C125.309 230.969 125.133 230.399 124.783 230.04C124.522 229.78 124.184 229.649 123.769 229.649C123.361 229.649 123.031 229.78 122.779 230.04C122.428 230.407 122.253 230.977 122.253 231.751L122.265 232.411V235.222C122.477 235.239 122.66 235.296 122.815 235.394C123.076 235.581 123.206 235.833 123.206 236.151C123.206 236.502 123.056 236.771 122.754 236.958C122.624 237.039 122.461 237.084 122.265 237.092V240.906L122.253 241.566C122.253 242.34 122.428 242.91 122.779 243.277C123.039 243.537 123.373 243.668 123.781 243.668C124.196 243.668 124.53 243.537 124.783 243.277C125.133 242.91 125.309 242.34 125.309 241.566L125.296 240.906V237.092C125.076 237.076 124.893 237.015 124.746 236.909C124.486 236.722 124.355 236.469 124.355 236.151C124.355 235.801 124.51 235.536 124.82 235.357C124.95 235.284 125.109 235.239 125.296 235.222ZM142.929 243.949C142.562 244.299 142.106 244.707 141.56 245.171L140.888 244.67C141.36 244.132 141.597 243.574 141.597 242.996C141.597 242.767 141.535 242.442 141.413 242.018C141.307 241.651 141.254 241.39 141.254 241.236C141.254 240.869 141.385 240.523 141.645 240.197C142.012 239.732 142.468 239.5 143.014 239.5C143.519 239.5 143.927 239.728 144.237 240.185C144.448 240.502 144.554 240.853 144.554 241.236C144.554 241.692 144.387 242.148 144.053 242.604C144.591 243.305 145.169 243.656 145.789 243.656C146.269 243.656 146.697 243.448 147.072 243.032C147.496 242.568 147.708 241.981 147.708 241.272C147.708 240.653 147.557 240.123 147.255 239.683C146.97 239.26 146.481 238.779 145.789 238.241C145.561 238.478 145.316 238.596 145.055 238.596C144.803 238.596 144.583 238.502 144.395 238.315C144.216 238.135 144.127 237.915 144.127 237.655C144.127 237.459 144.196 237.263 144.334 237.068C143.772 236.612 143.348 236.249 143.063 235.98C142.045 235.011 141.535 233.858 141.535 232.521C141.535 230.957 142.106 229.739 143.247 228.867C144.004 228.28 144.835 227.987 145.74 227.987C146.742 227.987 147.687 228.398 148.575 229.221C148.942 228.879 149.349 228.521 149.798 228.146L150.458 228.647C149.993 229.185 149.761 229.747 149.761 230.334C149.761 230.57 149.806 230.892 149.895 231.299C149.969 231.641 150.005 231.894 150.005 232.057C150.005 232.375 149.883 232.68 149.639 232.974C149.305 233.373 148.877 233.572 148.355 233.572C147.858 233.572 147.467 233.377 147.182 232.986C146.978 232.709 146.876 232.403 146.876 232.069C146.876 231.54 147.096 230.961 147.536 230.334C147.08 229.877 146.595 229.649 146.082 229.649C145.691 229.649 145.349 229.763 145.055 229.991C144.575 230.358 144.334 230.977 144.334 231.849C144.334 232.371 144.42 232.79 144.591 233.108C144.844 233.564 145.394 234.135 146.241 234.819C146.453 234.64 146.673 234.55 146.901 234.55C147.145 234.55 147.361 234.644 147.549 234.831C147.736 235.002 147.83 235.222 147.83 235.491C147.83 235.654 147.781 235.817 147.683 235.98C147.968 236.216 148.16 236.371 148.258 236.445C148.828 236.893 149.227 237.288 149.455 237.63C149.969 238.404 150.225 239.296 150.225 240.307C150.225 241.667 149.802 242.857 148.954 243.876C148.156 244.845 147.133 245.33 145.886 245.33C144.99 245.33 144.2 245.045 143.515 244.474C143.369 244.36 143.173 244.185 142.929 243.949ZM154.159 237.092C153.939 237.084 153.755 237.023 153.609 236.909C153.348 236.722 153.218 236.469 153.218 236.151C153.218 235.801 153.373 235.536 153.682 235.357C153.829 235.275 154.004 235.231 154.208 235.222C154.314 233.805 154.55 232.599 154.917 231.605C155.373 230.358 155.976 229.417 156.725 228.781C157.361 228.244 158.037 227.975 158.754 227.975C159.773 227.975 160.685 228.488 161.492 229.515C162.519 230.827 163.126 232.729 163.313 235.222C163.541 235.231 163.737 235.288 163.9 235.394C164.16 235.581 164.291 235.833 164.291 236.151C164.291 236.502 164.14 236.771 163.839 236.958C163.708 237.039 163.545 237.084 163.35 237.092C163.317 238.893 163.065 240.429 162.592 241.7C162.136 242.955 161.533 243.896 160.783 244.523C160.156 245.061 159.479 245.33 158.754 245.33C157.744 245.33 156.831 244.817 156.017 243.79C154.835 242.283 154.216 240.05 154.159 237.092ZM160.27 235.222V232.411L160.282 231.751C160.282 230.969 160.107 230.399 159.756 230.04C159.496 229.78 159.158 229.649 158.742 229.649C158.335 229.649 158.005 229.78 157.752 230.04C157.402 230.407 157.227 230.977 157.227 231.751L157.239 232.411V235.222C157.451 235.239 157.634 235.296 157.789 235.394C158.049 235.581 158.18 235.833 158.18 236.151C158.18 236.502 158.029 236.771 157.728 236.958C157.597 237.039 157.434 237.084 157.239 237.092V240.906L157.227 241.566C157.227 242.34 157.402 242.91 157.752 243.277C158.013 243.537 158.347 243.668 158.754 243.668C159.17 243.668 159.504 243.537 159.756 243.277C160.107 242.91 160.282 242.34 160.282 241.566L160.27 240.906V237.092C160.05 237.076 159.866 237.015 159.72 236.909C159.459 236.722 159.329 236.469 159.329 236.151C159.329 235.801 159.484 235.536 159.793 235.357C159.924 235.284 160.082 235.239 160.27 235.222ZM174.482 229.221C174.832 228.895 175.236 228.537 175.692 228.146L176.364 228.647C175.892 229.177 175.655 229.739 175.655 230.334C175.655 230.57 175.7 230.892 175.79 231.299C175.871 231.641 175.912 231.894 175.912 232.057C175.912 232.375 175.79 232.68 175.545 232.974C175.211 233.373 174.784 233.572 174.262 233.572C173.773 233.572 173.382 233.377 173.089 232.986C172.885 232.709 172.783 232.399 172.783 232.057C172.783 231.568 172.979 231.03 173.37 230.444C173.117 229.914 172.726 229.649 172.197 229.649C171.814 229.649 171.496 229.796 171.243 230.089C170.925 230.464 170.767 231.051 170.767 231.849V235.222C170.978 235.239 171.158 235.296 171.304 235.394C171.573 235.581 171.708 235.833 171.708 236.151C171.708 236.502 171.557 236.771 171.255 236.958C171.125 237.039 170.962 237.084 170.767 237.092V241.285C170.767 242.067 170.844 242.621 170.999 242.947C171.235 243.427 171.642 243.668 172.221 243.668C172.824 243.668 173.26 243.366 173.529 242.763C173.781 242.193 173.908 241.329 173.908 240.172V238.412H175.741V240.502C175.741 241.725 175.59 242.69 175.289 243.399C175.069 243.929 174.698 244.364 174.177 244.707C173.622 245.073 172.991 245.257 172.282 245.257C170.872 245.257 169.805 244.572 169.08 243.203C168.192 241.509 167.727 239.472 167.687 237.092C167.475 237.076 167.304 237.019 167.173 236.921C166.913 236.734 166.782 236.477 166.782 236.151C166.782 235.801 166.937 235.536 167.247 235.357C167.393 235.275 167.564 235.231 167.76 235.222C167.907 233.813 168.188 232.582 168.603 231.531C169.084 230.325 169.683 229.445 170.4 228.891C171.035 228.394 171.712 228.146 172.429 228.146C173.178 228.146 173.863 228.504 174.482 229.221ZM181.227 237.092C181.007 237.076 180.823 237.015 180.677 236.909C180.416 236.722 180.286 236.469 180.286 236.151C180.286 235.801 180.44 235.536 180.75 235.357C180.88 235.284 181.039 235.239 181.227 235.222V231.177C181.235 230.541 181.117 230.118 180.872 229.906C180.66 229.727 180.22 229.641 179.552 229.649V228.317H180.237C180.937 228.317 181.438 228.366 181.74 228.464C182.098 228.578 182.388 228.834 182.608 229.234C182.828 228.834 183.117 228.578 183.475 228.464C183.777 228.366 184.278 228.317 184.979 228.317H185.663V229.649C184.995 229.641 184.555 229.727 184.343 229.906C184.099 230.118 183.981 230.541 183.989 231.177V235.222C184.201 235.239 184.38 235.296 184.527 235.394C184.795 235.581 184.93 235.833 184.93 236.151C184.93 236.502 184.779 236.771 184.478 236.958C184.347 237.031 184.184 237.076 183.989 237.092V242.14C183.981 242.776 184.099 243.195 184.343 243.399C184.555 243.586 184.995 243.676 185.663 243.668V245H184.979C184.278 245 183.777 244.951 183.475 244.853C183.117 244.739 182.828 244.483 182.608 244.083C182.388 244.483 182.098 244.739 181.74 244.853C181.438 244.951 180.937 245 180.237 245H179.552V243.668C180.22 243.676 180.66 243.586 180.872 243.399C181.117 243.195 181.235 242.776 181.227 242.14V237.092ZM191.772 237.056C191.292 236.925 191.051 236.62 191.051 236.139C191.051 235.878 191.141 235.662 191.32 235.491C191.516 235.304 191.727 235.21 191.956 235.21C192.013 235.21 192.094 235.222 192.2 235.247L193.263 230.664C193.312 230.468 193.337 230.305 193.337 230.175C193.337 229.824 193.015 229.649 192.371 229.649H192.114V228.317H193.007C194.302 228.317 195.129 228.623 195.488 229.234C195.879 228.598 196.677 228.293 197.883 228.317H198.543V229.649H198.397C197.965 229.649 197.671 229.702 197.517 229.808C197.321 229.938 197.223 230.13 197.223 230.382C197.223 230.456 197.236 230.566 197.26 230.712L198.042 235.222C198.115 235.214 198.168 235.21 198.201 235.21C198.429 235.21 198.641 235.304 198.837 235.491C199.016 235.662 199.105 235.878 199.105 236.139C199.105 236.628 198.857 236.938 198.36 237.068L199.301 242.58C199.374 243.036 199.501 243.326 199.68 243.448C199.884 243.594 200.173 243.668 200.548 243.668C200.572 243.668 200.613 243.668 200.67 243.668V245H200.34C199.419 245 198.771 244.894 198.397 244.682C198.144 244.527 197.969 244.328 197.871 244.083C197.578 244.719 196.869 245.024 195.744 245H195.17V243.668C196.034 243.668 196.466 243.379 196.466 242.8C196.466 242.645 196.445 242.446 196.404 242.201L196.013 239.659H193.019L192.554 241.92C192.465 242.352 192.42 242.666 192.42 242.861C192.42 243.383 192.787 243.652 193.52 243.668V245H192.848C191.919 245.016 191.381 244.711 191.235 244.083C191.12 244.442 190.913 244.699 190.611 244.853C190.481 244.935 190.065 244.984 189.365 245H188.643V243.668C189.246 243.668 189.69 243.546 189.976 243.301C190.269 243.032 190.497 242.539 190.66 241.822L191.772 237.056ZM195.744 237.985L194.754 231.788L193.422 237.985H195.744ZM210.8 242.776C210.336 242.205 210.103 241.659 210.103 241.138C210.103 240.682 210.262 240.278 210.58 239.928C210.89 239.586 211.273 239.415 211.729 239.415C212.258 239.415 212.694 239.635 213.037 240.075C213.281 240.392 213.403 240.726 213.403 241.077C213.403 241.256 213.363 241.533 213.281 241.908C213.191 242.356 213.147 242.706 213.147 242.959C213.147 243.57 213.383 244.14 213.855 244.67L213.195 245.171C212.739 244.788 212.307 244.409 211.9 244.034C211.623 244.263 211.391 244.442 211.203 244.572C210.617 244.971 209.924 245.171 209.126 245.171C208.009 245.171 207.219 244.809 206.754 244.083C206.534 244.483 206.245 244.739 205.887 244.853C205.585 244.951 205.084 245 204.383 245H203.699V243.668C204.367 243.676 204.807 243.586 205.019 243.399C205.263 243.195 205.382 242.776 205.373 242.14V237.092C205.153 237.076 204.97 237.015 204.823 236.909C204.563 236.722 204.432 236.469 204.432 236.151C204.432 235.801 204.587 235.536 204.897 235.357C205.027 235.284 205.186 235.239 205.373 235.222V231.177C205.382 230.541 205.263 230.118 205.019 229.906C204.807 229.727 204.367 229.641 203.699 229.649V228.317H204.383C205.084 228.317 205.585 228.366 205.887 228.464C206.245 228.578 206.534 228.834 206.754 229.234C206.974 228.834 207.264 228.578 207.622 228.464C207.924 228.366 208.425 228.317 209.126 228.317H209.81V229.649C209.142 229.641 208.702 229.727 208.49 229.906C208.246 230.118 208.127 230.541 208.136 231.177V235.222C208.347 235.239 208.527 235.296 208.673 235.394C208.942 235.581 209.077 235.833 209.077 236.151C209.077 236.502 208.926 236.771 208.624 236.958C208.494 237.031 208.331 237.076 208.136 237.092V241.773C208.136 242.474 208.197 242.934 208.319 243.154C208.498 243.497 208.804 243.668 209.236 243.668C209.798 243.668 210.319 243.37 210.8 242.776ZM49.5307 271.092C49.3107 271.076 49.1274 271.015 48.9807 270.909C48.72 270.722 48.5896 270.469 48.5896 270.151C48.5896 269.817 48.7525 269.548 49.0785 269.345L47.7585 266.081C47.3348 265.014 47.013 264.354 46.793 264.101C46.5404 263.832 46.1574 263.682 45.6441 263.649V262.317H46.0474C47.18 262.317 47.9663 262.623 48.4063 263.234C48.7811 262.631 49.3881 262.325 50.2273 262.317H51.0707V263.649H50.8507C50.2151 263.649 49.8973 263.832 49.8973 264.199C49.8973 264.321 49.934 264.48 50.0073 264.676L51.364 268.122L52.794 264.688C52.9243 264.387 52.9895 264.183 52.9895 264.077C52.9895 263.792 52.7695 263.649 52.3295 263.649H52.0606V262.317H52.574C53.511 262.309 54.0854 262.614 54.2973 263.234C54.5173 262.631 55.0632 262.325 55.935 262.317H56.1795V263.649C55.7965 263.665 55.4706 263.763 55.2017 263.942C54.9491 264.138 54.721 264.468 54.5173 264.932L52.5862 269.271C53.018 269.451 53.2339 269.744 53.2339 270.151C53.2339 270.502 53.0832 270.771 52.7817 270.958C52.6514 271.031 52.4884 271.076 52.2929 271.092V276.14C52.2847 276.776 52.4029 277.195 52.6473 277.399C52.8591 277.586 53.2991 277.676 53.9673 277.668V279H53.2828C52.5821 279 52.081 278.951 51.7795 278.853C51.421 278.739 51.1318 278.483 50.9118 278.083C50.6918 278.483 50.4025 278.739 50.044 278.853C49.7425 278.951 49.2414 279 48.5407 279H47.8563V277.668C48.5244 277.676 48.9644 277.586 49.1762 277.399C49.4207 277.195 49.5388 276.776 49.5307 276.14V271.092ZM69.522 271.092C69.302 271.076 69.1186 271.015 68.972 270.909C68.7112 270.722 68.5809 270.469 68.5809 270.151C68.5809 269.801 68.7357 269.536 69.0453 269.357C69.1757 269.284 69.3346 269.239 69.522 269.222V265.177C69.5301 264.541 69.412 264.118 69.1675 263.906C68.9557 263.727 68.5157 263.641 67.8476 263.649V262.317H68.532C69.2327 262.317 69.7338 262.366 70.0353 262.464C70.3938 262.578 70.6831 262.834 70.9031 263.234C71.5304 262.508 72.4878 262.146 73.7752 262.146C75.2011 262.146 76.2767 262.602 77.0018 263.515C77.6618 264.354 77.9918 265.487 77.9918 266.912C77.9918 268.452 77.564 269.626 76.7085 270.432C76.1789 270.929 75.5311 271.268 74.7652 271.447C74.4311 271.52 74.1256 271.557 73.8486 271.557C73.4982 271.557 72.9767 271.508 72.2841 271.41V276.14C72.276 276.776 72.3941 277.195 72.6386 277.399C72.8504 277.586 73.2904 277.676 73.9586 277.668V279H73.2741C72.5734 279 72.0723 278.951 71.7708 278.853C71.4123 278.739 71.123 278.483 70.9031 278.083C70.6831 278.483 70.3938 278.739 70.0353 278.853C69.7338 278.951 69.2327 279 68.532 279H67.8476V277.668C68.5157 277.676 68.9557 277.586 69.1675 277.399C69.412 277.195 69.5301 276.776 69.522 276.14V271.092ZM72.2841 265.116V269.589C72.6345 269.654 72.9197 269.687 73.1397 269.687C73.7671 269.687 74.2478 269.536 74.5819 269.235C74.9078 268.933 75.0708 268.355 75.0708 267.499V265.837C75.0708 265.079 74.8996 264.484 74.5574 264.052C74.3374 263.784 74.0074 263.649 73.5674 263.649C72.8667 263.649 72.443 263.987 72.2964 264.664C72.2882 264.827 72.2841 264.977 72.2841 265.116ZM90.4074 269.222C90.6193 269.239 90.7985 269.296 90.9452 269.394C91.2141 269.581 91.3485 269.833 91.3485 270.151C91.3485 270.502 91.1978 270.771 90.8963 270.958C90.7659 271.039 90.603 271.084 90.4074 271.092V274.405C90.4074 275.586 90.2974 276.482 90.0774 277.093C89.8411 277.745 89.45 278.254 88.9041 278.621C88.1952 279.094 87.3397 279.33 86.3375 279.33C85.1642 279.33 84.2149 279.02 83.4898 278.401C82.7075 277.733 82.3164 276.653 82.3164 275.162L82.3287 274.478V271.092C82.1087 271.076 81.9253 271.015 81.7787 270.909C81.5179 270.722 81.3876 270.469 81.3876 270.151C81.3876 269.801 81.5424 269.536 81.852 269.357C81.9905 269.284 82.1494 269.239 82.3287 269.222V265.177C82.3368 264.541 82.2187 264.118 81.9742 263.906C81.7787 263.735 81.3957 263.649 80.8254 263.649V262.317H81.3387C82.0476 262.317 82.5487 262.366 82.842 262.464C83.1924 262.578 83.4816 262.834 83.7098 263.234C83.9297 262.834 84.219 262.578 84.5775 262.464C84.879 262.366 85.3801 262.317 86.0808 262.317H86.423V263.649C85.983 263.649 85.653 263.743 85.4331 263.93C85.1968 264.134 85.0827 264.55 85.0908 265.177V269.222C85.3027 269.239 85.4819 269.296 85.6286 269.394C85.8893 269.581 86.0197 269.833 86.0197 270.151C86.0197 270.502 85.873 270.771 85.5797 270.958C85.4493 271.039 85.2864 271.084 85.0908 271.092V275.492C85.0908 276.934 85.6327 277.656 86.7164 277.656C87.8082 277.656 88.3541 276.934 88.3541 275.492V271.092C88.1423 271.076 87.963 271.015 87.8163 270.909C87.5638 270.722 87.4375 270.469 87.4375 270.151C87.4375 269.801 87.5923 269.536 87.9019 269.357C88.0323 269.284 88.1871 269.239 88.3663 269.222V265.177C88.3663 264.55 88.2523 264.134 88.0241 263.93C87.8041 263.743 87.4741 263.649 87.0341 263.649V262.317H87.1686C87.7797 262.317 88.2237 262.366 88.5008 262.464C88.8593 262.578 89.1485 262.834 89.3685 263.234C89.5885 262.834 89.8737 262.578 90.2241 262.464C90.5011 262.366 90.9452 262.317 91.5563 262.317H91.6907V263.649C91.2833 263.649 90.9696 263.743 90.7496 263.93C90.5867 264.061 90.4807 264.252 90.4319 264.505C90.4156 264.611 90.4074 264.835 90.4074 265.177V269.222ZM97.9342 263.234C98.3579 262.508 99.1808 262.146 100.403 262.146C101.935 262.146 103.084 262.68 103.85 263.747C104.42 264.545 104.705 265.446 104.705 266.448C104.705 267.703 104.269 268.709 103.397 269.467C103.186 269.638 102.921 269.829 102.603 270.041C103.149 270.31 103.564 270.628 103.85 270.995C104.477 271.826 104.791 272.873 104.791 274.136C104.791 275.667 104.277 276.947 103.251 277.973C102.452 278.772 101.47 279.171 100.305 279.171C99.4497 279.171 98.7775 278.955 98.2886 278.523C98.1583 278.409 98.0401 278.263 97.9342 278.083C97.7142 278.483 97.425 278.739 97.0664 278.853C96.765 278.951 96.2639 279 95.5631 279H94.8787V277.668C95.5468 277.676 95.9868 277.586 96.1987 277.399C96.4431 277.195 96.5613 276.776 96.5531 276.14V271.092C96.3331 271.076 96.1498 271.015 96.0031 270.909C95.7424 270.722 95.612 270.469 95.612 270.151C95.612 269.801 95.7668 269.536 96.0765 269.357C96.2068 269.284 96.3657 269.239 96.5531 269.222V265.177C96.5613 264.541 96.4431 264.118 96.1987 263.906C95.9868 263.727 95.5468 263.641 94.8787 263.649V262.317H95.5631C96.2639 262.317 96.765 262.366 97.0664 262.464C97.425 262.578 97.7142 262.834 97.9342 263.234ZM99.3153 271.007V276.226C99.3153 277.187 99.7145 277.668 100.513 277.668C101.092 277.668 101.47 277.476 101.65 277.093C101.78 276.824 101.845 276.189 101.845 275.187V273.696C101.845 272.938 101.817 272.433 101.76 272.18C101.678 271.789 101.422 271.475 100.99 271.239C100.713 271.092 100.285 271.015 99.7064 271.007H99.3153ZM99.3153 269.308H99.7431C100.509 269.308 101.035 269.206 101.32 269.002C101.678 268.75 101.862 268.118 101.87 267.108V265.702C101.87 264.88 101.772 264.321 101.576 264.028C101.405 263.775 101.075 263.649 100.586 263.649C100.081 263.649 99.7268 263.788 99.5231 264.065C99.3845 264.26 99.3153 264.611 99.3153 265.116V269.308ZM115.055 276.776C114.591 276.205 114.359 275.659 114.359 275.138C114.359 274.682 114.518 274.278 114.835 273.928C115.145 273.586 115.528 273.415 115.984 273.415C116.514 273.415 116.95 273.635 117.292 274.075C117.536 274.392 117.659 274.726 117.659 275.077C117.659 275.256 117.618 275.533 117.536 275.908C117.447 276.356 117.402 276.706 117.402 276.959C117.402 277.57 117.638 278.14 118.111 278.67L117.451 279.171C116.994 278.788 116.563 278.409 116.155 278.034C115.878 278.263 115.646 278.442 115.459 278.572C114.872 278.971 114.179 279.171 113.381 279.171C112.265 279.171 111.474 278.809 111.01 278.083C110.79 278.483 110.501 278.739 110.142 278.853C109.841 278.951 109.339 279 108.639 279H107.954V277.668C108.622 277.676 109.062 277.586 109.274 277.399C109.519 277.195 109.637 276.776 109.629 276.14V271.092C109.409 271.076 109.225 271.015 109.079 270.909C108.818 270.722 108.688 270.469 108.688 270.151C108.688 269.801 108.842 269.536 109.152 269.357C109.282 269.284 109.441 269.239 109.629 269.222V265.177C109.637 264.541 109.519 264.118 109.274 263.906C109.062 263.727 108.622 263.641 107.954 263.649V262.317H108.639C109.339 262.317 109.841 262.366 110.142 262.464C110.501 262.578 110.79 262.834 111.01 263.234C111.23 262.834 111.519 262.578 111.878 262.464C112.179 262.366 112.68 262.317 113.381 262.317H114.065V263.649C113.397 263.641 112.957 263.727 112.745 263.906C112.501 264.118 112.383 264.541 112.391 265.177V269.222C112.603 269.239 112.782 269.296 112.929 269.394C113.198 269.581 113.332 269.833 113.332 270.151C113.332 270.502 113.181 270.771 112.88 270.958C112.749 271.031 112.586 271.076 112.391 271.092V275.773C112.391 276.474 112.452 276.934 112.574 277.154C112.753 277.497 113.059 277.668 113.491 277.668C114.053 277.668 114.575 277.37 115.055 276.776ZM122.46 271.092C122.24 271.076 122.057 271.015 121.91 270.909C121.649 270.722 121.519 270.469 121.519 270.151C121.519 269.801 121.674 269.536 121.983 269.357C122.114 269.284 122.272 269.239 122.46 269.222V265.177C122.468 264.541 122.35 264.118 122.105 263.906C121.894 263.727 121.454 263.641 120.785 263.649V262.317H121.47C122.171 262.317 122.672 262.366 122.973 262.464C123.332 262.578 123.621 262.834 123.841 263.234C124.061 262.834 124.35 262.578 124.709 262.464C125.01 262.366 125.511 262.317 126.212 262.317H126.896V263.649C126.228 263.641 125.788 263.727 125.576 263.906C125.332 264.118 125.214 264.541 125.222 265.177V269.222C125.434 269.239 125.613 269.296 125.76 269.394C126.029 269.581 126.163 269.833 126.163 270.151C126.163 270.502 126.012 270.771 125.711 270.958C125.581 271.031 125.418 271.076 125.222 271.092V276.14C125.214 276.776 125.332 277.195 125.576 277.399C125.788 277.586 126.228 277.676 126.896 277.668V279H126.212C125.511 279 125.01 278.951 124.709 278.853C124.35 278.739 124.061 278.483 123.841 278.083C123.621 278.483 123.332 278.739 122.973 278.853C122.672 278.951 122.171 279 121.47 279H120.785V277.668C121.454 277.676 121.894 277.586 122.105 277.399C122.35 277.195 122.468 276.776 122.46 276.14V271.092ZM137.491 263.221C137.841 262.895 138.245 262.537 138.701 262.146L139.373 262.647C138.901 263.177 138.664 263.739 138.664 264.334C138.664 264.57 138.709 264.892 138.799 265.299C138.88 265.641 138.921 265.894 138.921 266.057C138.921 266.375 138.799 266.68 138.554 266.974C138.22 267.373 137.792 267.572 137.271 267.572C136.782 267.572 136.391 267.377 136.098 266.986C135.894 266.709 135.792 266.399 135.792 266.057C135.792 265.568 135.988 265.03 136.379 264.444C136.126 263.914 135.735 263.649 135.205 263.649C134.822 263.649 134.505 263.796 134.252 264.089C133.934 264.464 133.775 265.051 133.775 265.849V269.222C133.987 269.239 134.167 269.296 134.313 269.394C134.582 269.581 134.717 269.833 134.717 270.151C134.717 270.502 134.566 270.771 134.264 270.958C134.134 271.039 133.971 271.084 133.775 271.092V275.285C133.775 276.067 133.853 276.621 134.008 276.947C134.244 277.427 134.651 277.668 135.23 277.668C135.833 277.668 136.269 277.366 136.538 276.763C136.79 276.193 136.917 275.329 136.917 274.172V272.412H138.75V274.502C138.75 275.725 138.599 276.69 138.298 277.399C138.078 277.929 137.707 278.364 137.185 278.707C136.631 279.073 136 279.257 135.291 279.257C133.881 279.257 132.814 278.572 132.089 277.203C131.201 275.509 130.736 273.472 130.696 271.092C130.484 271.076 130.313 271.019 130.182 270.921C129.921 270.734 129.791 270.477 129.791 270.151C129.791 269.801 129.946 269.536 130.256 269.357C130.402 269.275 130.573 269.231 130.769 269.222C130.916 267.813 131.197 266.582 131.612 265.531C132.093 264.325 132.692 263.445 133.409 262.891C134.044 262.394 134.721 262.146 135.438 262.146C136.187 262.146 136.872 262.504 137.491 263.221ZM158.631 263.197C158.973 262.887 159.373 262.537 159.829 262.146L160.501 262.647C160.028 263.185 159.792 263.747 159.792 264.334C159.792 264.57 159.837 264.892 159.927 265.299C160.008 265.641 160.049 265.894 160.049 266.057C160.049 266.375 159.927 266.68 159.682 266.974C159.348 267.373 158.92 267.572 158.399 267.572C157.902 267.572 157.511 267.377 157.226 266.986C157.022 266.709 156.92 266.399 156.92 266.057C156.92 265.56 157.124 265.01 157.531 264.407C157.279 263.902 156.887 263.649 156.358 263.649C155.983 263.649 155.669 263.796 155.417 264.089C155.099 264.464 154.94 265.051 154.94 265.849V269.222C155.152 269.239 155.331 269.3 155.478 269.406C155.747 269.585 155.881 269.833 155.881 270.151C155.881 270.502 155.73 270.771 155.429 270.958C155.299 271.031 155.136 271.076 154.94 271.092V275.285C154.94 276.067 155.017 276.621 155.172 276.947C155.409 277.427 155.808 277.668 156.37 277.668C156.745 277.668 157.046 277.542 157.274 277.289C157.584 276.947 157.739 276.49 157.739 275.92V272.351C157.771 271.406 157.494 270.897 156.908 270.823V269.491H156.981C157.609 269.491 158.04 269.54 158.277 269.638C158.611 269.752 158.892 270.009 159.12 270.408C159.332 270.025 159.621 269.768 159.988 269.638C160.273 269.54 160.66 269.491 161.149 269.491H161.332V270.823C160.754 270.938 160.477 271.447 160.501 272.351V279L159.303 277.717C158.619 278.743 157.661 279.257 156.431 279.257C154.549 279.257 153.221 277.892 152.447 275.162C152.072 273.842 151.876 272.486 151.86 271.092C151.648 271.076 151.477 271.015 151.347 270.909C151.086 270.73 150.956 270.477 150.956 270.151C150.956 269.801 151.111 269.536 151.42 269.357C151.567 269.275 151.738 269.231 151.933 269.222C152.08 267.821 152.361 266.595 152.777 265.544C153.258 264.338 153.856 263.454 154.573 262.891C155.209 262.394 155.881 262.146 156.59 262.146C157.323 262.146 158.004 262.496 158.631 263.197ZM165.046 271.092C164.826 271.084 164.642 271.023 164.496 270.909C164.235 270.722 164.105 270.469 164.105 270.151C164.105 269.801 164.259 269.536 164.569 269.357C164.716 269.275 164.891 269.231 165.095 269.222C165.201 267.805 165.437 266.599 165.803 265.605C166.26 264.358 166.863 263.417 167.612 262.781C168.248 262.244 168.924 261.975 169.641 261.975C170.66 261.975 171.572 262.488 172.379 263.515C173.406 264.827 174.013 266.729 174.2 269.222C174.428 269.231 174.624 269.288 174.787 269.394C175.047 269.581 175.178 269.833 175.178 270.151C175.178 270.502 175.027 270.771 174.726 270.958C174.595 271.039 174.432 271.084 174.237 271.092C174.204 272.893 173.951 274.429 173.479 275.7C173.023 276.955 172.42 277.896 171.67 278.523C171.043 279.061 170.366 279.33 169.641 279.33C168.631 279.33 167.718 278.817 166.903 277.79C165.722 276.283 165.103 274.05 165.046 271.092ZM171.157 269.222V266.411L171.169 265.751C171.169 264.969 170.994 264.399 170.643 264.04C170.383 263.78 170.045 263.649 169.629 263.649C169.222 263.649 168.892 263.78 168.639 264.04C168.289 264.407 168.113 264.977 168.113 265.751L168.126 266.411V269.222C168.337 269.239 168.521 269.296 168.676 269.394C168.936 269.581 169.067 269.833 169.067 270.151C169.067 270.502 168.916 270.771 168.615 270.958C168.484 271.039 168.321 271.084 168.126 271.092V274.906L168.113 275.566C168.113 276.34 168.289 276.91 168.639 277.277C168.9 277.537 169.234 277.668 169.641 277.668C170.057 277.668 170.391 277.537 170.643 277.277C170.994 276.91 171.169 276.34 171.169 275.566L171.157 274.906V271.092C170.937 271.076 170.753 271.015 170.607 270.909C170.346 270.722 170.216 270.469 170.216 270.151C170.216 269.801 170.37 269.536 170.68 269.357C170.81 269.284 170.969 269.239 171.157 269.222ZM178.61 271.092C178.39 271.084 178.207 271.023 178.06 270.909C177.799 270.722 177.669 270.469 177.669 270.151C177.669 269.801 177.824 269.536 178.134 269.357C178.28 269.275 178.455 269.231 178.659 269.222C178.765 267.805 179.001 266.599 179.368 265.605C179.824 264.358 180.427 263.417 181.177 262.781C181.812 262.244 182.489 261.975 183.206 261.975C184.224 261.975 185.137 262.488 185.943 263.515C186.97 264.827 187.577 266.729 187.764 269.222C187.993 269.231 188.188 269.288 188.351 269.394C188.612 269.581 188.742 269.833 188.742 270.151C188.742 270.502 188.591 270.771 188.29 270.958C188.16 271.039 187.997 271.084 187.801 271.092C187.769 272.893 187.516 274.429 187.043 275.7C186.587 276.955 185.984 277.896 185.234 278.523C184.607 279.061 183.931 279.33 183.206 279.33C182.195 279.33 181.283 278.817 180.468 277.79C179.286 276.283 178.667 274.05 178.61 271.092ZM184.721 269.222V266.411L184.733 265.751C184.733 264.969 184.558 264.399 184.208 264.04C183.947 263.78 183.609 263.649 183.193 263.649C182.786 263.649 182.456 263.78 182.203 264.04C181.853 264.407 181.678 264.977 181.678 265.751L181.69 266.411V269.222C181.902 269.239 182.085 269.296 182.24 269.394C182.501 269.581 182.631 269.833 182.631 270.151C182.631 270.502 182.48 270.771 182.179 270.958C182.049 271.039 181.886 271.084 181.69 271.092V274.906L181.678 275.566C181.678 276.34 181.853 276.91 182.203 277.277C182.464 277.537 182.798 277.668 183.206 277.668C183.621 277.668 183.955 277.537 184.208 277.277C184.558 276.91 184.733 276.34 184.733 275.566L184.721 274.906V271.092C184.501 271.076 184.318 271.015 184.171 270.909C183.91 270.722 183.78 270.469 183.78 270.151C183.78 269.801 183.935 269.536 184.245 269.357C184.375 269.284 184.534 269.239 184.721 269.222ZM193.336 271.092C193.116 271.076 192.932 271.015 192.786 270.909C192.525 270.722 192.395 270.469 192.395 270.151C192.395 269.801 192.549 269.536 192.859 269.357C192.989 269.284 193.148 269.239 193.336 269.222V265.177C193.344 264.541 193.226 264.118 192.981 263.906C192.769 263.727 192.329 263.641 191.661 263.649V262.317H192.346C193.046 262.317 193.548 262.366 193.849 262.464C194.208 262.578 194.497 262.834 194.717 263.234C195.173 262.508 195.996 262.146 197.186 262.146C198.497 262.146 199.54 262.614 200.314 263.551C201.194 264.619 201.749 266.513 201.977 269.235C202.514 269.357 202.783 269.662 202.783 270.151C202.783 270.648 202.523 270.958 202.001 271.08C201.928 272.685 201.643 274.225 201.146 275.7C200.746 276.906 200.241 277.766 199.63 278.279C198.929 278.874 198.062 279.171 197.027 279.171C195.902 279.171 195.132 278.809 194.717 278.083C194.497 278.483 194.208 278.739 193.849 278.853C193.548 278.951 193.046 279 192.346 279H191.661V277.668C192.329 277.676 192.769 277.586 192.981 277.399C193.226 277.195 193.344 276.776 193.336 276.14V271.092ZM198.933 269.222V266.57C198.933 265.812 198.917 265.328 198.885 265.116C198.811 264.676 198.644 264.33 198.383 264.077C198.106 263.792 197.748 263.649 197.308 263.649C196.852 263.649 196.518 263.792 196.306 264.077C196.167 264.256 196.098 264.623 196.098 265.177V269.222C196.302 269.239 196.481 269.296 196.636 269.394C196.896 269.573 197.027 269.825 197.027 270.151C197.027 270.502 196.88 270.771 196.587 270.958C196.456 271.039 196.293 271.084 196.098 271.092V276.14C196.098 276.629 196.143 276.959 196.232 277.13C196.428 277.489 196.766 277.668 197.247 277.668C198.371 277.668 198.933 276.588 198.933 274.429V271.092C198.713 271.076 198.53 271.015 198.383 270.909C198.131 270.722 198.005 270.469 198.005 270.151C198.005 269.801 198.159 269.536 198.469 269.357C198.599 269.284 198.754 269.239 198.933 269.222ZM207.585 277.949C207.218 278.299 206.762 278.707 206.216 279.171L205.544 278.67C206.016 278.132 206.252 277.574 206.252 276.996C206.252 276.767 206.191 276.442 206.069 276.018C205.963 275.651 205.91 275.39 205.91 275.236C205.91 274.869 206.041 274.523 206.301 274.197C206.668 273.732 207.124 273.5 207.67 273.5C208.175 273.5 208.583 273.728 208.892 274.185C209.104 274.502 209.21 274.853 209.21 275.236C209.21 275.692 209.043 276.148 208.709 276.604C209.247 277.305 209.825 277.656 210.445 277.656C210.925 277.656 211.353 277.448 211.728 277.032C212.152 276.568 212.363 275.981 212.363 275.272C212.363 274.653 212.213 274.123 211.911 273.683C211.626 273.26 211.137 272.779 210.445 272.241C210.216 272.478 209.972 272.596 209.711 272.596C209.459 272.596 209.239 272.502 209.051 272.315C208.872 272.135 208.782 271.915 208.782 271.655C208.782 271.459 208.852 271.263 208.99 271.068C208.428 270.612 208.004 270.249 207.719 269.98C206.701 269.011 206.191 267.858 206.191 266.521C206.191 264.957 206.762 263.739 207.902 262.867C208.66 262.28 209.491 261.987 210.396 261.987C211.398 261.987 212.343 262.398 213.231 263.221C213.598 262.879 214.005 262.521 214.453 262.146L215.113 262.647C214.649 263.185 214.417 263.747 214.417 264.334C214.417 264.57 214.462 264.892 214.551 265.299C214.624 265.641 214.661 265.894 214.661 266.057C214.661 266.375 214.539 266.68 214.294 266.974C213.96 267.373 213.533 267.572 213.011 267.572C212.514 267.572 212.123 267.377 211.838 266.986C211.634 266.709 211.532 266.403 211.532 266.069C211.532 265.54 211.752 264.961 212.192 264.334C211.736 263.877 211.251 263.649 210.738 263.649C210.347 263.649 210.005 263.763 209.711 263.991C209.231 264.358 208.99 264.977 208.99 265.849C208.99 266.371 209.076 266.79 209.247 267.108C209.499 267.564 210.049 268.135 210.897 268.819C211.109 268.64 211.329 268.55 211.557 268.55C211.801 268.55 212.017 268.644 212.205 268.831C212.392 269.002 212.486 269.222 212.486 269.491C212.486 269.654 212.437 269.817 212.339 269.98C212.624 270.216 212.816 270.371 212.913 270.445C213.484 270.893 213.883 271.288 214.111 271.63C214.624 272.404 214.881 273.296 214.881 274.307C214.881 275.667 214.457 276.857 213.61 277.876C212.812 278.845 211.789 279.33 210.542 279.33C209.646 279.33 208.856 279.045 208.171 278.474C208.025 278.36 207.829 278.185 207.585 277.949Z" fill="white"/>
<path d="M200.499 157.162C191.091 163.648 181.687 170.139 172.35 176.749C162.037 184.046 151.533 191.031 140.379 196.743C137.194 198.374 134.039 200.101 130.758 201.47C127.083 203.009 123.48 203.454 119.663 201.118C109.422 194.851 99.0427 188.855 88.6552 182.878C82.5449 179.36 76.1039 176.529 70.207 172.562C63.9461 168.352 58.451 163.273 54.9187 155.999C53.32 152.705 52.7969 149.109 52.55 145.541C51.6711 132.871 50.8884 120.173 51.286 107.462C51.6167 96.8901 51.8426 86.2723 54.1361 75.8971C55.3707 70.3134 58.3631 66.4198 62.8789 63.4058C71.7011 57.5151 80.264 51.1664 88.9691 45.0741C101.064 36.6091 113.184 28.1762 125.325 19.7845C129.477 16.917 133.825 17.2606 138.128 19.3997C147.59 24.104 156.367 30.0543 164.661 36.9023C171.224 42.3212 178.28 47.0026 184.679 52.6734C190.283 57.6433 195.874 62.6271 201.466 67.6062C202.324 68.3712 203.152 69.1819 204.027 69.9194C205.68 71.3074 205.827 73.0251 205.488 75.1917C205.207 76.9965 205.496 78.9295 205.676 80.7892C206.157 85.7043 206.279 90.6376 206.559 95.5618C207.09 104.975 207.71 114.384 207.718 123.815C207.722 131.016 206.555 138.102 205.437 145.175C205.052 147.607 204.864 150.094 203.91 152.384C203.391 153.63 202.654 154.711 201.859 155.756C201.549 156.392 201.11 156.873 200.499 157.162Z" fill="#000202"/>
<path d="M52.4968 112.25C52.0532 107.041 52.5638 100.862 53.0116 94.7425C53.5389 87.5418 53.7105 80.2082 56.1881 73.3052C57.5567 69.4941 59.871 66.7091 63.035 64.6066C82.6298 51.5701 101.81 37.8237 121.188 24.4116C123.665 22.6939 126.113 20.9349 128.83 19.7073C132.333 18.1224 135.518 19.6294 138.573 21.2647C146.997 25.7766 154.97 31.1039 162.495 37.2603C168.521 42.189 174.795 46.7651 180.805 51.7121C185.212 55.34 189.363 59.3343 193.649 63.1408C195.788 65.0417 197.805 67.1992 200.17 68.6696C202.936 70.3827 203.832 72.7601 204.016 76.0077C204.426 83.1123 204.878 90.2168 205.288 97.326C205.614 103.011 205.673 108.718 206.15 114.375C206.464 118.108 206.61 121.828 206.439 125.533C206.163 131.534 205.573 137.516 204.514 143.425C204.133 145.546 203.949 147.713 203.543 149.829C203.095 152.17 201.965 153.933 200.082 155.376C195.29 159.054 190.213 162.233 185.342 165.77C173.807 174.143 161.993 182.013 149.91 189.401C143.264 193.464 136.221 196.634 129.328 200.152C125.971 201.865 122.807 200.633 119.865 199.043C108.071 192.667 96.6208 185.576 84.9987 178.847C79.7924 175.833 74.2177 173.584 69.2876 169.979C63.6921 165.884 58.6113 161.258 55.5897 154.419C54.3341 151.579 54.0077 148.496 53.8068 145.51C53.0911 134.768 52.342 124.013 52.4968 112.25Z" fill="#C1E9EF"/>
<path d="M160.081 76.9284C160.374 76.9468 160.663 76.9742 160.809 77.3178C158.675 78.2248 157.064 79.7272 156.168 82.0908C156.017 82.4939 155.704 82.9291 155.231 82.8832C154.653 82.8283 154.536 82.2236 154.335 81.7518C154.276 81.6144 154.214 81.4632 154.214 81.3167C154.172 75.7833 150.849 71.5783 149.246 66.677C148.643 64.831 147.789 63.0858 147.576 61.478C147.71 62.9117 147.622 64.7211 147.601 66.5304C147.593 67.2175 147.526 67.9092 146.99 68.4039C146.354 68.9948 141.152 69.4254 140.474 68.9261C139.499 68.1978 139.453 67.0068 139.193 65.7884C139.155 68.4818 137.824 69.3567 135.573 69.5903C132.853 69.8697 130.149 69.7506 127.437 69.7598C126.512 69.7598 125.889 69.2284 125.495 68.2985C125.206 67.616 124.985 66.8877 124.411 66.1548C124.373 67.2771 124.825 68.3902 124.076 69.1963C123.298 70.03 122.243 69.7598 121.285 69.8056C120.381 69.8514 119.485 69.856 118.585 70.0346C116.192 70.5064 115.614 69.9338 115.539 67.2084C115.522 66.5213 115.564 65.8342 115.413 64.689C114.065 69.091 111.153 71.8027 108.784 74.9496C103.854 81.4953 102.452 88.9526 103.54 97.2343C104.025 100.913 104.758 104.591 104.544 108.361C104.477 110.981 104.758 113.624 104.138 116.207C103.335 120.449 102.745 124.718 102.293 129.028C101.661 135.052 102.866 140.649 104.825 146.146C105.507 148.056 106.411 149.879 106.767 151.918C107.147 154.098 106.294 155.28 104.289 155.436C104.08 155.454 103.85 155.509 103.665 155.431C98.6977 153.402 93.2109 155.12 88.2599 152.811C85.9664 151.739 83.4177 151.561 81.0154 150.832C78.9605 150.209 77.0688 151.029 75.2274 152.005C73.3399 153.003 72.7665 152.568 72.8837 150.25C73.0092 147.759 74.0011 145.569 74.9135 143.347C76.8428 138.657 79.8269 134.695 82.317 130.389C84.7611 126.166 86.4771 121.626 87.2387 116.679C87.3559 115.914 87.5359 115.19 88.0465 114.618C88.2013 114.49 88.352 114.361 88.5068 114.233C91.5913 113.77 94.6632 113.248 97.7351 112.708C99.3924 112.415 100.016 113.413 99.5933 115.245C99.405 116.061 99.1078 116.835 98.7813 117.568C100.786 111.929 101.623 106.185 99.9281 100.239C99.2961 98.0176 99.158 95.7502 99.2417 93.4507C99.3296 91.0001 99.1831 88.5724 98.6223 86.1859C98.3419 84.9858 98.3545 83.7582 98.5093 82.5443C98.6683 81.3075 98.5595 80.1211 98.0866 78.8065C97.7058 80.0158 97.0529 79.9425 96.4837 79.2279C95.1821 77.6018 93.8303 76.2276 94.6925 73.4746C96.0568 69.1047 98.4382 65.5135 100.836 61.8673C103.113 58.4044 106.264 55.9675 109.278 53.4024C110.692 52.1977 112.404 51.5793 114.229 51.1487C120.431 49.6829 126.261 46.8887 132.288 44.7816C133.083 44.5022 133.853 44.1495 134.665 43.9388C135.062 43.8334 135.531 43.5907 135.753 44.1632C135.937 44.6442 135.602 45.0107 135.297 45.3313C134.468 46.197 133.242 46.678 132.986 48.1575C134.769 48.4782 136.602 48.2217 138.21 49.3852C138.795 49.8112 139.553 49.4035 140.197 49.0553C141.202 48.5194 142.273 48.2034 143.374 47.9972C143.793 47.9194 144.24 47.7361 144.517 48.1896C144.797 48.6477 144.521 49.1012 144.228 49.4081C142.792 50.9197 143.671 51.4602 144.964 52.3122C152.669 57.3738 157.821 64.4554 159.257 74.4183C159.37 75.2657 159.432 76.2368 160.081 76.9284Z" fill="#2AD2ED"/>
<path d="M129.036 171.71C129.052 172.09 128.998 172.493 129.098 172.846C129.58 174.568 129.082 175.036 127.479 174.669C123.741 173.813 120.18 172.342 116.556 171.105C110.872 169.163 105.159 167.487 99.1663 167.18C97.9484 167.116 96.7515 166.598 95.542 166.287C95.0607 165.476 95.5169 164.798 95.881 164.189C97.3709 161.683 98.6097 159.049 99.3714 156.177C99.7229 154.853 100.405 154.524 101.56 154.895C103.247 155.435 105.105 156.021 106.419 154.317C107.662 152.705 106.541 150.896 105.917 149.407C104.042 144.955 102.732 140.374 102.071 135.505C101.619 132.184 102.146 128.982 102.406 125.744C102.569 123.705 102.77 121.653 103.251 119.656C103.351 119.234 103.31 118.694 103.824 118.547C104.389 118.387 104.816 118.731 105.038 119.207C106.482 122.317 108.566 125.079 109.29 128.588C109.679 130.48 109.508 132.266 108.374 133.769C107.62 134.767 108.005 135.23 108.813 135.679C109.562 136.091 110.349 136.407 111.136 136.71C114.697 138.097 117.275 140.795 118.544 144.547C119.736 148.079 120.942 149.077 124.821 149.128C127.571 149.164 127.529 149.118 126.935 152.004C126.047 156.337 126.487 160.662 127.504 164.876C128.048 167.148 128.232 169.516 129.036 171.71Z" fill="#B4F4FE"/>
<path d="M129.035 171.711C128.567 171.844 128.269 171.762 128.173 171.134C127.319 165.688 125.704 160.383 126.056 154.708C126.169 152.917 127.039 151.318 126.813 149.514C125.214 149.834 123.67 149.793 122.029 149.44C120.159 149.037 119.158 147.956 118.606 146.147C117.078 141.154 113.894 138.021 109.353 136.633C108.537 136.385 108.143 135.593 107.281 135.501C106.607 135.428 106.77 134.576 107.122 134.26C110.533 131.15 108.641 127.898 107.289 124.764C106.364 122.621 105.138 120.628 103.853 118.21C102.259 126.464 101.459 134.246 103.59 142.001C104.368 144.841 105.695 147.503 106.645 150.292C107.126 151.703 108.026 153.261 106.779 154.713C105.469 156.243 103.581 156.174 102.129 155.565C100.363 154.827 99.7226 155.235 99.4129 157.067C98.8354 160.498 96.5503 163.068 95.5459 166.283C95.2404 166.416 94.8553 166.75 94.6503 166.645C94.0308 166.334 94.5456 165.935 94.7047 165.578C95.9267 162.852 97.764 160.484 98.5466 157.502C98.781 156.618 99.6348 155.693 99.1158 154.873C98.5132 153.92 97.5213 154.658 96.6549 154.804C93.7002 155.308 90.9882 154.003 88.2093 153.242C85.7736 152.578 83.3629 151.795 80.9105 151.222C78.4454 150.645 76.357 151.882 74.2895 153.164C73.7413 153.503 73.1637 154.319 72.4522 153.76C71.8873 153.315 72.1468 152.473 72.1803 151.822C72.4439 146.907 74.5365 142.711 76.7713 138.644C79.6758 133.358 83.5345 128.681 85.3634 122.712C86.0917 120.335 86.6357 117.884 87.1798 115.447C87.3137 114.843 87.3555 114.412 88.0377 114.618C86.9831 122.19 84.1498 128.924 79.973 135.016C77.6209 138.451 75.6748 142.125 74.2184 146.119C73.486 148.13 73.193 150.169 73.4274 152.441C75.859 151.456 78.0896 149.697 80.8267 150.324C82.844 150.792 84.8361 151.405 86.8533 151.868C89.7327 152.532 92.4614 154.236 95.4622 153.879C97.9733 153.581 100.317 153.728 102.652 154.786C103.251 155.056 104.037 154.914 104.724 154.836C106.201 154.676 106.787 153.801 106.36 152.184C105.657 149.527 104.393 147.113 103.56 144.525C101.514 138.167 101.033 131.709 102.154 124.989C102.631 122.131 103.163 119.263 103.594 116.382C103.799 116.24 104.004 116.245 104.209 116.382C105.544 117.706 105.825 119.74 107.068 121.398C107.704 119.767 107.9 118.017 108.968 116.716C110.776 114.513 112.851 112.827 115.547 112.09C117.752 111.485 120.008 110.881 121.448 108.888C117.003 105.846 112.487 103.116 109.323 98.3663C106.461 94.0697 105.979 84.1847 110.976 80.1538C114.065 77.6619 117.304 76.5168 121.151 78.0329C124.097 79.1964 127.114 80.1629 130.157 81.0195C133.752 82.0318 136.778 81.1661 139.201 78.0421C140.678 76.1366 142.415 74.6616 144.642 73.9653C147.701 73.008 149.999 73.9012 151.656 76.8466C152.966 79.1781 153.581 81.6745 153.133 84.4916C152.635 87.6156 151.819 90.6067 150.375 93.3276C149.342 95.2744 149.287 97.015 150.359 98.8977C151.803 101.44 152.409 104.202 152.137 107.202C152.07 107.958 152.217 108.755 151.401 109.145C150.354 108.682 150.195 107.642 150.329 106.671C150.685 104.028 150.032 101.738 148.655 99.6031C148.258 98.9893 148.074 98.2289 147.797 97.3861C146.965 97.6563 146.676 98.5083 145.78 99.0855C147.747 99.8092 149.463 100.409 150.108 102.571C150.488 103.849 150.572 105.141 149.605 105.934C147.781 107.422 148.011 109.245 148.454 111.242C148.718 112.424 149.019 113.574 149.689 114.66C149.844 113.244 150.128 111.879 150.329 110.5C150.421 109.873 150.3 108.87 151.418 109.222C152.179 110.601 151.639 112.053 151.698 113.478C152.296 107.72 152.686 101.939 152.757 96.1401C152.782 94.0697 153.125 92.0405 153.431 90.0113C154.389 83.603 153.368 77.584 150.601 71.8766C149.651 69.9207 148.911 67.8731 148.4 66.0684C148.383 65.7569 148.312 65.7981 148.316 65.8302C148.806 68.464 147.806 69.8016 145.37 69.7924C143.901 69.7878 142.348 70.452 141.026 70.026C139.678 69.5908 138.69 69.8199 137.381 70.0947C134.183 70.7681 130.881 70.823 127.6 70.8139C126.277 70.8093 125.537 70.0947 124.993 68.9175C124.729 69.1923 124.704 69.6138 124.453 69.8749C123.628 70.7269 116.66 71.4506 115.752 70.7314C114.793 69.971 114.647 68.8625 114.814 67.7128C114.036 69.5267 112.805 71.0429 111.554 72.5499C107.386 77.5657 104.293 83.0716 103.933 90.1533C103.732 94.0926 104.264 97.8945 104.69 101.738C104.95 104.083 105.088 106.428 105.029 108.787C104.063 109.703 104.289 108.494 104.042 108.128C104.025 102.452 102.577 96.9418 102.623 91.2297C102.673 85.0688 104.724 79.9064 107.955 75.0876C109.671 72.527 111.918 70.4841 113.496 67.7769C114.308 66.3844 114.438 64.6713 115.534 63.3749C116.493 64.9003 116.045 66.5997 116.041 68.1892C116.041 69.4534 116.48 69.9115 117.489 69.6229C119.33 69.0916 121.197 69.1603 123.059 69.2061C123.976 69.229 124.13 68.7205 124.017 67.9418C123.946 67.4334 123.687 66.9524 123.657 66.444C123.616 65.7202 123.285 64.6575 124.076 64.4056C124.926 64.1353 124.779 65.253 124.955 65.8164C125.725 68.2487 126.821 69.7374 129.617 69.2748C132.116 68.8625 134.715 69.2381 137.255 68.7572C137.887 68.6381 138.226 68.5923 138.28 67.7449C138.356 66.5127 138.64 65.2896 138.866 63.8559C139.754 64.7537 139.938 65.7294 139.925 66.7875C139.904 68.5602 140.854 68.945 142.219 68.7022C142.625 68.6289 143.014 68.4411 143.415 68.3449C144.591 68.0701 146.24 68.9954 146.881 67.7357C147.416 66.6776 147.032 65.056 147.04 63.6864C147.048 62.0924 147.044 60.4983 147.32 58.8127C148.433 67.3967 154.891 73.7913 154.962 83.1861C156.624 80.3645 157.172 76.9244 160.792 77.3138C160.997 77.3596 161.198 77.4054 161.403 77.4512C168.284 79.114 167.505 82.1967 166.815 88.605C166.296 93.433 164.119 97.2899 161.328 100.789C160.349 102.017 160.227 103.19 160.968 104.202C163.174 107.207 162.684 110.839 162.847 114.16C163.224 121.709 165.999 127.966 170.288 133.614C170.807 134.297 171.535 134.782 172.134 135.396C172.787 136.065 172.691 136.926 172.444 137.718C172.268 138.277 171.674 138.543 171.222 138.319C169.359 137.393 167.505 138.186 165.706 138.415C162.445 138.832 158.951 138.355 156.272 140.797C156.724 141.333 157.235 141.942 157.879 142.707C156.917 143.119 155.95 143.348 155.184 143.907C154.033 144.745 152.648 145.276 152.753 147.489C152.811 148.762 152.054 150.233 151.325 151.543C150.539 152.949 149.58 153.261 148.4 152.94C147.22 152.619 146.852 151.442 146.609 150.196C146.416 149.22 147.362 147.952 145.592 147.31C143.863 146.683 143.005 147.471 142.047 148.634C140.976 149.94 140.268 151.584 138.469 152.134C135.782 152.954 133.484 152.042 131.279 150.613C128.6 148.881 128.269 149.042 127.516 152.317C126.286 157.681 127.742 162.779 128.755 167.896C129.031 169.21 128.964 170.442 129.035 171.711Z" fill="#010303"/>
<path d="M160.08 76.9291C158.536 76.723 159.004 75.1656 158.849 74.3136C157.443 66.5037 154.091 60.1274 148.165 55.3453C146.357 53.8886 144.653 52.3312 142.402 51.4471C143.155 50.3295 143.833 49.3263 144.72 48.0071C143.168 48.5293 141.954 48.9736 140.719 49.34C139.51 49.6973 138.556 50.3799 137.02 49.2851C136.057 48.598 133.831 47.9933 132.069 49.6286C131.788 46.3718 134.839 46.1474 135.731 43.8983C130.06 46.0328 124.51 47.9842 119.066 50.2195C116.508 51.2685 113.692 51.1815 111.269 52.6656C107.142 55.1895 103.568 58.5013 100.751 62.5918C98.8554 65.3493 96.8466 68.0885 95.7333 71.4782C94.3774 75.6237 94.436 76.5261 97.5455 79.6363C97.8343 78.8026 97.0056 78.3171 97.06 77.5933C98.5374 77.8315 99.5502 79.7233 99.1736 81.748C98.8806 83.3283 98.914 84.817 99.2321 86.4202C99.5627 88.083 99.9185 89.7915 99.7971 91.5642C99.5377 95.357 100.044 99.0581 100.969 102.732C101.869 106.309 101.471 109.896 100.53 113.428C100.228 114.559 100.103 115.759 99.7385 116.863C99.3703 117.976 98.7927 118.998 97.2735 119.048C97.6376 117.555 98.8178 116.758 99.0438 115.292C99.3702 113.208 99.274 112.823 97.4158 113.194C95.6036 113.556 93.8208 114.078 92.0044 114.394C90.8535 114.591 89.6565 114.733 88.5056 114.238C86.9236 114.023 85.3751 113.492 84.0861 112.557C82.9812 111.756 82.4288 112.058 81.7257 112.983C81.3406 113.487 80.9012 113.931 80.2776 114.206C79.5411 114.531 78.884 115.498 78.0679 114.742C77.2141 113.954 77.461 112.791 77.8252 111.811C78.1265 110.995 78.5073 110.12 79.0807 109.543C80.1688 108.439 79.901 107.473 79.2858 106.259C78.5617 104.825 77.9758 106.103 77.3103 106.204C76.624 106.305 75.9083 106.378 75.2303 106.268C74.2594 106.112 73.9539 105.421 74.4729 104.472C74.8202 103.836 75.1592 103.075 75.6949 102.704C78.5115 100.735 77.8754 97.6885 77.3857 95.0822C76.0757 88.083 79.7336 78.995 85.5216 75.358C87.8904 73.8693 90.276 73.9655 92.6866 74.7625C93.7412 75.1106 94.0509 75.1061 94.3648 73.8418C96.0723 66.9113 100.04 61.6024 104.803 56.9072C106.736 54.9971 108.586 52.9633 111.034 51.7999C114.357 50.215 118.007 49.8806 121.397 48.4468C126.109 46.4543 130.972 44.8877 135.739 43.0463C136.626 42.7027 137.451 42.5745 138.543 42.7256C137.325 44.8739 134.898 45.474 133.651 47.7231C134.982 47.4162 136.258 46.9673 137.292 47.7506C140.41 50.1188 142.833 46.8528 145.624 46.6146C146.202 46.5642 146.771 46.1886 147.663 46.5642C146.503 47.7506 145.457 48.8728 144.36 49.9264C143.565 50.6868 143.611 51.0486 144.595 51.6304C152.396 56.2476 157.452 63.2468 159.553 72.715C159.854 74.0754 159.908 75.5183 160.08 76.9291Z" fill="#000303"/>
<path d="M103.895 116.381L103.748 116.376L103.602 116.381C104.054 113.651 103.995 110.884 104.049 108.127C104.275 108.429 104.497 108.731 104.723 109.034C105.782 111.177 105.372 114.782 103.895 116.381Z" fill="#071B1F"/>
<path d="M122.577 150.714C122.096 153.989 121.736 156.737 121.246 159.458C121.175 159.852 121.405 160.594 120.719 160.764C120.095 159.101 121.016 153.494 122.577 150.714Z" fill="#020404"/>
<path d="M120.443 163.731C121.456 165.618 121.025 167.67 121.121 169.658C121.146 170.199 120.841 170.739 120.539 170.721C120.045 170.693 119.891 170.134 119.849 169.548C119.706 167.569 120.091 165.668 120.443 163.731Z" fill="#010303"/>
<path d="M139.058 101.788C140.82 102.979 142.293 101.316 143.904 101.096C144.699 100.986 145.561 100.666 146.31 100.867C147.62 101.22 149.064 101.664 149.156 103.597C149.253 105.645 147.855 105.947 146.478 106.313C145.273 106.634 144.038 106.982 143.197 108.439C144.569 108.585 145.62 106.863 146.557 107.66C147.499 108.462 146.8 110.147 147.131 111.348C148.089 114.829 149.357 118.118 151.948 120.651C153.27 121.943 154.367 123.541 155.455 125.089C157.933 128.626 156.426 132.199 155.405 135.739C155.246 136.298 154.643 136.83 154.693 137.315C155.032 140.613 153.488 139.55 152.027 138.772C147.742 136.477 143.724 133.829 140.799 129.505C139.715 127.902 138.17 126.89 136.228 128.044C135.626 128.401 134.805 128.529 134.437 128.2C131.554 125.589 128.662 127.1 125.908 128.232C121.103 130.206 116.19 131.69 111.18 132.808C110.536 132.95 109.958 133.605 109.033 133.138C110.029 130.82 109.502 128.511 108.9 126.143C107.255 119.698 110.36 115.603 115.487 113.674C118.149 112.671 120.911 111.993 122.681 109.355C123.443 108.224 124.313 108.695 125.422 109.277C125.15 107.88 124.401 107.894 123.861 107.683C122.388 107.11 120.873 106.652 119.417 106.029C118.094 105.466 117.257 104.417 117.349 102.745C117.446 100.991 118.709 100.336 119.923 99.9235C122.765 98.9524 125.565 99.4013 128.314 100.583C130.913 101.705 133.479 103.057 136.413 102.626C136.798 102.571 137.271 102.786 137.476 102.195C137.915 101.664 138.417 101.412 139.058 101.788Z" fill="#B4F4FE"/>
<path d="M103.895 116.381C104.577 113.99 104.991 111.558 104.727 109.038C104.2 103.821 103.396 98.6175 103.212 93.3864C103.003 87.4133 104.355 81.7837 107.64 76.7908C109.331 74.2211 111.415 72.0407 113.14 69.5122C113.88 68.4266 114.424 67.2631 115.249 65.637C115.249 66.9013 115.274 67.7304 115.245 68.5595C115.186 70.3276 116.132 70.946 117.475 70.52C118.844 70.0848 120.196 70.126 121.568 70.1169C124.402 70.0985 124.402 70.1077 124.678 66.7868C125.251 70.9368 127.93 70.236 130.345 70.1077C132.835 69.9749 135.321 69.7733 137.811 69.6634C139.456 69.5901 138.209 67.5517 139.422 67.2036C139.489 69.274 140.372 70.2268 142.373 69.384C142.687 69.2511 143.055 69.2603 143.402 69.2374C147.859 68.9259 147.859 68.9259 148.052 63.9147C149.801 69.4847 153.057 74.4043 154.049 80.2767C154.773 84.5733 154.438 88.9249 153.601 93.1803C153.271 94.8614 153.413 96.5104 153.371 98.1732C153.308 100.573 153.509 102.987 152.605 105.287C152.43 105.731 152.413 106.446 152.626 106.844C154.192 109.78 151.978 111.869 151.413 114.297C151.413 112.478 151.413 110.665 151.413 108.846L151.371 108.896C152.3 105.374 151.567 102.09 149.843 99.1259C148.554 96.9135 148.772 95.0767 149.977 92.9604C151.714 89.8914 152.647 86.3735 152.823 82.8556C152.97 79.9606 151.877 77.139 149.663 75.151C147.558 73.2592 144.315 74.2852 142.025 75.9022C141.347 76.3832 140.674 76.9832 140.205 77.6932C137.392 81.9257 133.68 82.938 129.269 81.4493C126.088 80.3775 122.97 79.0766 119.76 78.1421C116.714 77.2535 113.864 78.2979 111.545 80.4416C107.18 84.4771 106.448 92.2962 109.603 97.6098C111.231 100.349 113.16 102.635 115.939 103.954C116.186 104.073 116.596 104.11 116.663 104.302C117.731 107.321 120.493 107.261 122.657 108.324C121.02 111.164 118.308 111.933 115.596 112.717C111.834 113.807 107.481 117.32 107.686 123.293C105.79 121.237 105.146 118.598 103.895 116.381Z" fill="#B4F4FE"/>
<path d="M139.058 101.788C138.527 101.925 138 102.062 137.468 102.2C137.38 102.085 137.28 101.87 137.2 101.879C132.739 102.401 129.014 99.5018 124.829 98.6911C121.581 98.0635 118.405 99.2224 116.68 102.287C116.17 103.198 115.76 103.015 115.232 102.612C111.616 99.8454 108.783 96.4878 108.565 91.3346C108.406 87.638 108.507 84.0285 111.445 81.3397C114.094 78.9165 117.003 78.1286 120.326 79.2097C123.762 80.3228 127.21 81.3763 130.634 82.5352C133.907 83.6437 136.589 82.5169 138.975 80.0983C140.347 78.7104 141.444 76.9606 143.156 76.0216C147.5 73.6442 151.267 75.6093 151.635 81.1473C152.217 89.9558 148.429 96.2542 141.754 100.716C140.958 101.256 139.967 101.444 139.058 101.788Z" fill="#186C90"/>
<path d="M159.974 102.37C159.974 103.689 160.255 104.719 160.853 105.681C162.117 107.729 162.008 110.207 162.05 112.442C162.226 121.613 165.197 129.34 171.195 135.716C171.53 136.069 172.329 136.353 171.902 137.1C171.559 137.7 170.868 137.48 170.345 137.416C166.834 136.994 163.389 137.952 159.903 138.021C158.844 138.043 157.806 138.982 156.743 139.463C156.304 139.66 155.856 140.325 155.362 139.789C154.806 139.184 154.965 138.479 155.321 137.718C156.471 135.258 157.359 132.712 157.551 129.89C157.744 127.082 156.798 124.737 154.969 123.056C151.755 120.106 150.629 116.977 152.834 112.69C153.454 111.49 153.877 109.973 153.805 108.393C153.751 107.211 154.588 106.309 155.421 105.645C156.852 104.527 158.363 103.524 159.974 102.37Z" fill="#2AD2ED"/>
<path d="M155.221 141.337C150.781 142.376 146.478 141.726 142.473 139.637C139.857 138.277 137.363 136.536 134.584 135.679C130.834 134.525 126.992 134.658 123.071 134.997C118.12 135.423 113.089 135.579 108.117 134.47C113.562 133.664 118.639 131.328 123.966 130.077C125.937 129.615 127.545 128.218 129.524 127.691C130.876 127.329 131.998 127.329 133.027 128.204C134.191 129.193 135.354 129.441 136.668 128.726C137.756 128.135 138.74 128.373 139.443 129.354C143.431 134.873 148.772 138.245 154.589 140.874C154.819 140.979 155.012 141.181 155.221 141.337Z" fill="#186C90"/>
<path d="M153.434 106.616C153.764 103.501 153.547 100.423 153.831 97.4138C154.254 92.9156 154.618 88.3945 155.798 83.9971C156.338 81.9862 157.476 80.4746 158.389 78.7661C158.452 78.647 158.527 78.45 158.611 78.4408C160.624 78.166 162.62 78.3401 164.42 79.3753C166.064 80.3235 166.914 82.0458 166.692 84.0338C166.282 87.6937 165.964 91.3582 164.323 94.7708C162.44 98.6918 159.795 101.66 156.43 103.973C155.367 104.706 154.124 105.205 153.434 106.616Z" fill="#B4F4FE"/>
<path d="M116.232 139.847C119.396 140.736 122.606 140.342 125.695 141.08C127.147 141.428 128.562 140.8 129.997 140.644C135.275 140.081 139.397 142.715 143.181 146.347C142.39 146.87 141.766 147.593 141.26 148.473C139.18 152.091 136.116 152.353 133.555 150.736C130.282 148.67 126.888 148.175 123.263 148.445C121.1 148.606 119.756 147.442 119.216 145.198C118.714 143.109 117.697 141.4 116.232 139.847Z" fill="#B4F4FE"/>
<path d="M155.618 142.477C154.48 143.485 153.827 144.154 153.094 144.68C152.617 145.024 152.04 145.542 151.454 144.745C151.203 144.406 151.132 143.549 150.437 144.145C150.24 144.314 150.06 144.63 150.039 144.891C149.956 145.945 150.943 145.139 151.207 145.652C151.261 145.757 151.379 145.821 151.559 145.991C148.365 147.058 145.486 146.957 142.799 144.561C139.041 141.213 134.772 139.019 129.829 139.848C125.196 140.627 120.756 139.66 116.299 138.785C114.102 138.355 112.356 136.509 110.146 135.812C113.047 135.922 115.897 136.064 118.755 136.106C121.538 136.151 124.263 135.551 127.05 135.547C131.156 135.542 135.086 136.275 138.597 138.538C143.36 141.602 148.382 143.027 153.877 142.482C154.266 142.445 154.672 142.477 155.618 142.477Z" fill="#186C90"/>
<path d="M151.4 108.841C150.395 110.476 150.843 112.432 150.433 114.205C150.274 114.883 150.345 115.625 150.282 116.889C148.035 113.816 147.646 110.724 147.487 107.549C147.466 107.151 147.591 106.926 147.976 106.707C149.407 105.891 150.454 104.714 149.826 102.786C149.173 100.793 147.599 100.106 145.817 99.886C145.473 99.8447 145.122 99.8814 144.553 99.8814C145.9 98.5988 147.114 97.4491 148.223 96.3955C148.198 97.3895 148.742 98.6675 149.378 99.918C150.433 101.984 151.061 104.164 150.851 106.583C150.78 107.375 150.609 108.282 151.358 108.901C151.358 108.896 151.4 108.841 151.4 108.841Z" fill="#B4F4FE"/>
<path d="M152.057 146.714C152.124 148.606 151.543 150.127 150.454 151.427C149.555 152.508 148.027 152.325 147.613 150.997C147.357 150.172 147.433 149.188 147.504 148.29C147.613 146.851 148.676 147.74 149.287 147.525C150.124 147.236 150.986 147.025 152.057 146.714Z" fill="#C1E8EE"/>
<path d="M86.7565 107.498C85.9027 106.285 84.8523 106.83 83.9441 106.798C83.4084 106.779 83.4419 107.091 83.739 107.645C84.2538 108.607 83.467 109.331 82.8769 109.793C82.2449 110.293 81.9812 109.445 81.6715 108.987C81.4246 108.621 81.1986 108.24 80.9308 107.892C78.9428 105.309 79.2902 103.903 82.1696 102.895C82.2826 102.854 82.3956 102.762 82.5086 102.767C82.9689 102.79 83.1866 104.324 83.8353 103.041C83.9859 102.748 83.8813 102.235 83.4042 102.203C82.6383 102.153 81.5711 101.058 81.2238 101.933C80.7508 103.124 79.7338 103.101 79.1437 103.926C77.5659 96.8576 77.3651 89.6431 79.3446 84.4991C81.0982 79.9505 84.2119 76.4143 88.7863 75.2875C90.5399 74.8569 92.5027 75.4982 94.1391 76.9502C97.935 80.3078 98.7093 85.0488 98.8432 89.808C98.9855 94.8696 99.3412 99.8213 100.505 104.732C100.957 106.633 100.488 108.63 100.212 110.577C100.044 111.749 99.1529 112.157 98.4791 112.175C95.5872 112.262 92.8291 113.559 89.8828 113.201C88.7863 113.068 87.6731 113.087 86.6184 112.697C85.4884 112.276 84.3626 111.832 83.4754 110.893C84.5426 109.729 84.6597 107.549 86.7565 107.498Z" fill="#B4F4FE"/>
<path d="M78.5664 113.908C77.9762 112.135 79.1021 111.1 79.7215 109.918C79.9475 109.483 80.3911 108.361 80.8347 109.011C81.3035 109.699 82.8813 110.445 81.5337 111.856C80.6715 112.745 79.734 113.441 78.5664 113.908Z" fill="#C0E8EE"/>
<path d="M75.0332 105.2C75.5982 103.812 76.5943 103.111 77.448 102.145C77.9879 102.837 78.7245 103.629 78.1762 104.38C77.4899 105.315 76.3724 105.681 75.0332 105.2Z" fill="#BFE6EC"/>
<path d="M130.454 112.185C130.153 107.962 129.743 107.435 126.148 106.29C124.788 105.855 123.448 105.337 122.097 104.879C121.163 104.563 121.055 103.807 121.122 102.905C121.184 102.062 121.64 101.833 122.344 101.686C127.249 100.651 132.346 106.441 131.049 111.64C130.998 111.819 130.739 111.933 130.454 112.185Z" fill="#000303"/>
<path d="M138.736 111.266C137.807 107.578 140.301 103.208 143.394 102.672C144.336 102.507 145.34 101.784 146.315 102.649C146.725 103.011 147.37 103.282 147.265 103.941C147.165 104.578 146.889 105.32 146.119 105.352C145.487 105.38 145.022 105.842 144.361 105.879C140.912 106.071 139.698 107.216 138.736 111.266Z" fill="#010303"/>
<path d="M138.093 126.267C137.494 122.923 136.959 119.579 137.515 116.157C137.498 119.543 138.524 122.854 138.093 126.267Z" fill="#020404"/>
<path d="M130.93 114.316C132.37 116.858 130.901 119.35 130.742 121.864C130.905 119.336 130.684 116.821 130.93 114.316Z" fill="#030606"/>
<path d="M154.544 128.405C153.866 127.255 154.527 126.696 155.079 125.73C155.682 127.026 155.155 127.626 154.544 128.405Z" fill="#196C91"/>
<path d="M152.46 128.277C152.347 128.731 152.112 129.106 151.652 129.097C151.146 129.088 151.275 128.584 151.267 128.254C151.254 127.814 151.258 127.301 151.895 127.457C152.263 127.549 152.447 127.842 152.46 128.277Z" fill="#1A6D92"/>
<path d="M126.933 116.867C126.782 117.284 126.715 117.884 126.23 117.939C125.954 117.966 125.753 117.513 125.724 117.101C125.69 116.574 125.958 116.175 126.33 116.088C126.569 116.033 126.9 116.418 126.933 116.867Z" fill="#1B6E92"/>
<path d="M155.694 130.944C155.322 130.724 154.991 130.44 155.071 129.922C155.133 129.533 155.405 129.249 155.782 129.276C156.389 129.318 156.251 129.876 156.255 130.28C156.259 130.655 156.192 131.035 155.694 130.944Z" fill="#1A6D92"/>
<path d="M153.158 135.972C152.824 136.004 152.64 135.853 152.56 135.51C152.439 134.969 152.69 134.548 153.087 134.433C153.397 134.346 153.686 134.726 153.723 135.13C153.757 135.578 153.435 135.78 153.158 135.972Z" fill="#1F7195"/>
<path d="M146.721 131.808C146.721 130.617 146.344 129.948 147.131 129.696C147.378 129.618 147.746 129.627 147.805 129.971C147.93 130.736 147.24 130.86 146.721 131.808Z" fill="#1A6D92"/>
<path d="M116.71 128.859C117.108 129.097 117.396 129.344 117.288 129.752C117.175 130.173 116.915 130.554 116.442 130.48C116.12 130.43 116.12 130.091 116.111 129.798C116.103 129.28 116.455 129.101 116.71 128.859Z" fill="#1A6D92"/>
<path d="M116.634 120.32C116.986 120.329 117.241 120.54 117.304 120.929C117.367 121.332 117.153 121.74 116.827 121.754C116.605 121.763 116.266 121.41 116.157 121.135C116.011 120.764 116.245 120.457 116.634 120.32Z" fill="#217497"/>
<path d="M152.359 132.762C151.916 132.835 151.727 132.67 151.711 132.322C151.694 131.969 151.623 131.53 152.112 131.502C152.426 131.484 152.887 131.452 152.837 131.974C152.803 132.281 152.493 132.551 152.359 132.762Z" fill="#196D91"/>
<path d="M142.883 112.341C142.749 112.506 142.611 112.836 142.397 112.905C141.882 113.079 142.029 112.456 141.849 112.218C141.577 111.856 141.954 111.659 142.171 111.608C142.569 111.512 142.749 111.847 142.883 112.341Z" fill="#217497"/>
<path d="M123.715 116.432C123.992 116.602 124.372 116.748 124.268 117.17C124.209 117.403 123.916 117.71 123.711 117.729C123.288 117.765 123.209 117.376 123.23 116.973C123.251 116.625 123.393 116.441 123.715 116.432Z" fill="#1A6D92"/>
<path d="M118.308 124.576C117.953 124.562 117.794 124.388 117.789 124.045C117.785 123.664 117.815 123.256 118.267 123.33C118.48 123.366 118.781 123.641 118.832 123.861C118.915 124.26 118.53 124.402 118.308 124.576Z" fill="#1B6F93"/>
<path d="M120.015 122.954C120.647 123.243 120.865 123.706 120.547 124.374C120.501 124.466 120.271 124.562 120.208 124.516C119.584 124.09 119.898 123.513 120.015 122.954Z" fill="#1A6D92"/>
<path d="M149.115 122.955C148.99 123.102 148.835 123.445 148.622 123.496C148.22 123.592 148.035 123.189 147.989 122.827C147.939 122.419 148.274 122.355 148.546 122.35C148.827 122.346 149.107 122.415 149.115 122.955Z" fill="#1F7295"/>
<path d="M128.944 123.106C128.655 123.335 128.458 123.628 128.253 123.633C127.776 123.642 127.81 123.197 127.839 122.831C127.868 122.474 128.078 122.263 128.383 122.428C128.584 122.542 128.71 122.817 128.944 123.106Z" fill="#247699"/>
<path d="M125.461 122.56C125.273 121.96 125.164 121.456 125.574 121.048C125.637 120.984 126.03 121.135 126.064 121.254C126.206 121.786 126.156 122.285 125.461 122.56Z" fill="#1D7094"/>
<path d="M112.696 125.726C112.671 126.11 112.604 126.477 112.269 126.353C111.992 126.252 111.704 125.968 111.57 125.684C111.457 125.451 111.612 125.043 111.959 125.157C112.244 125.249 112.474 125.547 112.696 125.726Z" fill="#1A6D91"/>
<path d="M142.413 118.383C142.296 118.52 142.137 118.864 141.941 118.891C141.501 118.956 141.568 118.415 141.459 118.149C141.262 117.664 141.71 117.787 141.899 117.774C142.171 117.755 142.413 117.883 142.413 118.383Z" fill="#1A6E92"/>
<path d="M116.014 125.593C116.072 125.684 116.353 125.932 116.348 126.17C116.344 126.376 116.014 126.573 115.829 126.779C115.654 126.56 115.39 126.367 115.319 126.111C115.227 125.776 115.453 125.575 116.014 125.593Z" fill="#1C6F93"/>
<path d="M111.872 120.055C111.851 120.22 111.751 120.499 111.412 120.412C111.098 120.334 111.077 120.023 111.098 119.73C111.123 119.414 111.244 119.143 111.571 119.226C111.885 119.299 111.901 119.615 111.872 120.055Z" fill="#1A6D92"/>
<path d="M121.908 119.629C121.917 120.284 121.733 120.522 121.431 120.417C121.197 120.334 121.025 120.05 120.824 119.853C121.013 119.651 121.193 119.299 121.389 119.294C121.607 119.29 121.841 119.583 121.908 119.629Z" fill="#1F7195"/>
<path d="M148.6 120.811C148.403 120.879 148.344 121.448 148.01 121.072C147.83 120.87 147.775 120.54 147.662 120.266C147.901 120.201 148.156 120.05 148.378 120.096C148.696 120.165 148.776 120.458 148.6 120.811Z" fill="#1F7296"/>
<path d="M144.558 121.026C144.91 121.054 144.952 121.351 144.952 121.631C144.952 121.906 144.931 122.236 144.566 122.226C144.219 122.222 144.169 121.906 144.16 121.622C144.156 121.347 144.207 121.054 144.558 121.026Z" fill="#1B6E92"/>
<path d="M152.003 125.012C151.823 125.025 151.702 124.796 151.672 124.48C151.647 124.182 151.685 123.871 151.995 123.798C152.321 123.724 152.455 123.985 152.472 124.306C152.489 124.595 152.505 124.897 152.003 125.012Z" fill="#196D91"/>
<path d="M149.203 133.71C148.931 133.729 148.784 133.532 148.768 133.192C148.751 132.89 148.776 132.579 149.098 132.505C149.433 132.427 149.575 132.721 149.617 133.014C149.659 133.316 149.563 133.582 149.203 133.71Z" fill="#1A6E92"/>
<path d="M144.495 130.05C144.424 130.1 144.198 130.403 143.976 130.394C143.787 130.385 143.616 130.027 143.432 129.821C143.628 129.629 143.804 129.34 144.034 129.267C144.336 129.166 144.516 129.418 144.495 130.05Z" fill="#1E7195"/>
<path d="M121.845 127.728C121.28 128.081 121.004 128.287 120.703 128.438C120.297 128.644 120.313 128.287 120.301 128.021C120.276 127.577 120.477 127.343 120.887 127.384C121.046 127.407 121.192 127.494 121.845 127.728Z" fill="#1B6E92"/>
<path d="M145.319 126.927C145.257 126.762 145.148 126.501 145.06 126.23C144.955 125.919 144.989 125.589 145.344 125.607C145.558 125.616 145.826 125.836 145.947 126.047C146.127 126.359 145.88 126.56 145.319 126.927Z" fill="#207296"/>
<path d="M137.652 114.288C137.338 113.496 137.321 112.79 138.125 112.3C138.434 113.102 137.664 113.61 137.652 114.288Z" fill="#030505"/>
<path d="M143.594 123.157C143.623 123.601 143.427 123.67 143.221 123.638C142.857 123.583 142.857 123.253 142.887 122.96C142.903 122.79 142.874 122.428 143.167 122.593C143.381 122.708 143.498 123.019 143.594 123.157Z" fill="#2B7C9D"/>
<path d="M128.172 112.392C128.071 112.456 127.921 112.635 127.774 112.63C127.41 112.616 127.385 112.287 127.427 111.98C127.452 111.81 127.415 111.485 127.732 111.618C127.996 111.728 128.201 111.925 128.172 112.392Z" fill="#1E7094"/>
<path d="M145.206 114.728C145.118 114.494 144.997 114.316 144.993 114.128C144.984 113.807 145.143 113.551 145.474 113.656C145.771 113.752 145.884 114.032 145.712 114.329C145.616 114.49 145.411 114.572 145.206 114.728Z" fill="#27799B"/>
<path d="M116.387 115.846C116.32 115.717 116.123 115.484 116.169 115.388C116.282 115.136 116.508 114.948 116.688 114.732C116.763 114.902 116.902 115.071 116.906 115.246C116.914 115.548 116.872 115.873 116.387 115.846Z" fill="#196C91"/>
<path d="M143.399 115.396C143.299 115.703 143.123 115.95 142.813 115.863C142.684 115.827 142.525 115.575 142.516 115.415C142.5 115.016 142.763 114.934 143.064 115.016C143.24 115.062 143.487 115.071 143.399 115.396Z" fill="#247699"/>
<path d="M145.586 116.752C145.829 117.073 146.059 117.26 146.122 117.503C146.152 117.618 145.905 117.888 145.733 117.989C145.381 118.2 145.18 117.792 145.159 117.595C145.139 117.379 145.381 117.132 145.586 116.752Z" fill="#1A6D92"/>
<path d="M124.25 126.866C124.167 126.545 124.075 126.352 124.07 126.155C124.066 125.835 124.188 125.532 124.539 125.624C124.665 125.656 124.853 126 124.811 126.105C124.711 126.357 124.493 126.559 124.25 126.866Z" fill="#1F7195"/>
<path d="M141.845 95.2607C140.125 95.508 138.803 94.4087 137.288 94.2484C136.869 94.2025 136.652 93.7262 136.618 93.2131C136.417 90.222 139.724 83.9511 142.21 82.6227C145.311 80.9645 148.968 82.6227 149.923 86.1361C150.094 86.7636 149.919 87.3133 149.605 87.8538C148.198 90.2861 146.616 92.5627 144.629 94.4636C143.817 95.2469 142.795 95.4897 141.845 95.2607Z" fill="#000304"/>
<path d="M117.92 93.5197C116.949 92.741 117.514 92.1364 118.096 91.5042C120.167 89.2368 122.909 88.5681 125.6 88.0504C127.479 87.684 129.483 87.7848 131.371 88.4627C132.145 88.7421 132.932 89.1269 133.212 90.0522C133.522 91.0691 132.547 91.2248 132.12 91.7378C131.794 92.1318 131.383 92.4478 131.078 92.8601C127.872 97.1888 123.767 97.143 119.418 95.6863C118.56 95.3978 117.409 95.0451 117.907 93.4968C120.602 94.4725 123.264 95.5627 126.202 94.7198C127.424 94.3671 128.487 93.8862 129.303 92.6173C128.161 92.2097 127.65 92.9563 127.073 93.4235C125.708 94.5183 124.264 94.8343 122.8 93.8174C121.184 92.6906 119.539 93.6709 117.92 93.5197Z" fill="#010405"/>
<path d="M118.393 88.9888C121.033 85.5716 129.107 84.3761 132.199 87.4405C129.563 86.6618 127.332 85.7136 124.875 86.3366C122.594 86.9183 120.544 88.0772 118.393 88.9888Z" fill="#000405"/>
<path d="M111.24 90.6559C112.579 91.1827 114.203 90.1063 115.622 91.4805C113.935 91.8103 112.525 91.6866 111.24 90.6559Z" fill="#010608"/>
<path d="M112.156 93.0433C113.127 92.3608 113.847 92.5302 114.747 92.7135C113.939 93.6983 113.223 93.6021 112.156 93.0433Z" fill="#010709"/>
<path d="M148.998 82.1914C148.148 81.7792 147.303 81.3669 146.244 80.8539C147.696 80.3592 148.4 81.1424 148.998 82.1914Z" fill="#000405"/>
<path d="M120.138 85.356C120.058 86.0291 119.669 86.226 119.121 86.3588C119.163 85.5941 119.443 85.2644 120.138 85.356Z" fill="#01080A"/>
<path d="M160.009 82.3515C161.587 81.3208 163.244 82.2186 163.813 84.1333C164.713 87.184 163.663 90.0332 161.629 91.4852C158.716 93.5648 157.155 95.9834 156.987 99.6891C156.958 100.294 156.485 100.875 156.213 101.471C155.908 102.135 155.029 102.557 154.799 102.309C154.192 101.654 155.041 101.439 155.389 101.036C156.201 100.088 156.736 98.8051 156.632 97.6187C156.372 94.6413 158.105 93.2946 159.971 91.9158C161.884 90.505 163.081 88.7277 163.022 85.9747C162.976 83.7394 162.282 82.4477 160.009 82.3515Z" fill="#020505"/>
<path d="M158.247 100.106C158.075 99.8127 158.016 99.7531 158.008 99.689C157.895 98.6446 158.23 97.7697 158.879 97.0368C158.92 96.991 159.356 97.2338 159.347 97.2842C159.176 98.2369 159.146 99.2676 158.247 100.106Z" fill="#090E0F"/>
<path d="M156.461 84.0149C157.139 82.3384 157.934 81.7566 159.411 81.6788C158.595 82.7781 157.737 83.2637 156.461 84.0149Z" fill="#060A0B"/>
<path d="M85.0123 100.881C83.8363 99.1354 82.6268 97.4223 81.5051 95.6358C81.0071 94.8388 81.3796 93.8952 81.8734 93.3455C83.0955 91.9942 83.401 90.2719 83.8991 88.5771C84.8407 85.3752 89.4025 82.4253 92.4493 82.9338C94.8139 83.3277 95.6175 84.5736 95.877 88.2564C94.9939 88.1373 95.2324 87.267 95.0483 86.7128C94.1861 84.1385 92.4953 83.1674 90.0763 84.0789C87.1341 85.1874 84.711 86.8868 84.1 90.6338C83.9535 91.5362 83.5349 92.5256 82.9616 93.1806C81.6474 94.6785 82.1748 95.9381 83.2169 97.0741C84.1627 98.1048 84.9118 99.2179 85.0123 100.881Z" fill="#020505"/>
<path d="M88.1172 108.004C90.712 110.171 92.7962 108.673 94.8636 107.175C95.6295 106.621 96.3954 106.653 97.2324 106.923C93.7546 110.592 89.6782 111.206 88.1172 108.004Z" fill="#020505"/>
<path d="M83.4668 85.3156C83.9021 82.1275 85.4715 80.8449 88.1541 81.5732C85.8732 81.7656 84.7265 83.6208 83.4668 85.3156Z" fill="#040707"/>
<path d="M140.229 88.0581C140.438 89.4414 140.965 90.3118 142.367 90.3026C144.41 90.2934 145.808 88.7727 146.854 85.2685C149.779 86.5053 149.913 86.9359 147.946 89.4873C147.059 90.637 146.096 91.7089 145.234 92.8952C143.92 94.6954 139.111 94.9382 137.408 93.4586C136.86 92.9823 137.4 92.3547 137.504 92.1852C138.308 90.8248 138.701 89.1345 140.229 88.0581Z" fill="#B4F4FE"/>
<path d="M148.449 84.6141C144.431 83.7437 141.485 85.5027 138.844 88.4068C139.706 83.4231 145.502 81.0412 148.449 84.6141Z" fill="#258EBC"/>
<path d="M141.577 86.6485C141.711 86.7218 141.845 86.763 141.945 86.85C143.653 88.3662 143.674 88.3754 144.544 85.9293C144.686 85.5262 144.783 85.2193 145.197 85.2652C145.381 85.2835 145.653 85.3934 145.712 85.5446C146.017 86.3324 145.67 87.047 145.314 87.6746C144.573 88.9846 143.356 89.5847 142.033 89.7267C141.309 89.8045 141.167 88.8335 140.911 88.2517C140.593 87.5051 140.886 86.9462 141.577 86.6485Z" fill="#258EBD"/>
<path d="M143.519 86.9968C143.067 87.0151 142.921 86.8318 142.904 86.4745C142.887 86.053 142.992 85.7094 143.427 85.7231C143.603 85.7277 144.064 85.5444 143.913 86.0896C143.817 86.4241 143.637 86.731 143.519 86.9968Z" fill="#258EBC"/>
<path d="M118.631 92.1546C121.456 88.6413 130.211 87.6656 132.526 90.5881C127.897 91.1057 123.423 91.6141 118.631 92.1546Z" fill="#258EBD"/>
<path d="M117.919 93.5188C119.736 92.6348 121.523 91.9294 123.394 93.4684C124.674 94.522 125.963 93.9448 126.855 92.8317C127.821 91.6224 128.876 91.4209 130.165 91.7461C129.043 96.1618 121.682 97.2062 117.898 93.4868C117.907 93.4913 117.919 93.5188 117.919 93.5188Z" fill="#B3F3FD"/>
<path d="M123.07 93.0212C124.397 92.1555 125.343 91.8852 126.444 92.2471C125.623 93.4564 124.527 92.893 123.07 93.0212Z" fill="#248BB8"/>
</svg>
