<svg width="260" height="311" viewBox="0 0 260 311" fill="none" xmlns="http://www.w3.org/2000/svg">
<rect y="84" width="260" height="227" fill="#154063"/>
<path d="M108.726 241.092C108.506 241.076 108.322 241.015 108.176 240.909C107.915 240.722 107.784 240.469 107.784 240.151C107.784 239.801 107.939 239.536 108.249 239.357C108.379 239.284 108.538 239.239 108.726 239.222V235.177C108.734 234.541 108.616 234.118 108.371 233.906C108.159 233.727 107.719 233.641 107.051 233.649V232.317H107.736C108.436 232.317 108.937 232.366 109.239 232.464C109.597 232.578 109.887 232.834 110.107 233.234C110.563 232.508 111.386 232.146 112.575 232.146C113.887 232.146 114.93 232.614 115.704 233.551C116.584 234.619 117.138 236.513 117.366 239.235C117.904 239.357 118.173 239.662 118.173 240.151C118.173 240.648 117.912 240.958 117.391 241.08C117.318 242.685 117.032 244.225 116.535 245.7C116.136 246.906 115.631 247.766 115.02 248.279C114.319 248.874 113.451 249.171 112.417 249.171C111.292 249.171 110.522 248.809 110.107 248.083C109.887 248.483 109.597 248.739 109.239 248.853C108.937 248.951 108.436 249 107.736 249H107.051V247.668C107.719 247.676 108.159 247.586 108.371 247.399C108.616 247.195 108.734 246.776 108.726 246.14V241.092ZM114.323 239.222V236.57C114.323 235.812 114.307 235.328 114.274 235.116C114.201 234.676 114.034 234.33 113.773 234.077C113.496 233.792 113.138 233.649 112.698 233.649C112.241 233.649 111.907 233.792 111.695 234.077C111.557 234.256 111.488 234.623 111.488 235.177V239.222C111.691 239.239 111.871 239.296 112.025 239.394C112.286 239.573 112.417 239.825 112.417 240.151C112.417 240.502 112.27 240.771 111.977 240.958C111.846 241.039 111.683 241.084 111.488 241.092V246.14C111.488 246.629 111.533 246.959 111.622 247.13C111.818 247.489 112.156 247.668 112.637 247.668C113.761 247.668 114.323 246.588 114.323 244.429V241.092C114.103 241.076 113.92 241.015 113.773 240.909C113.521 240.722 113.394 240.469 113.394 240.151C113.394 239.801 113.549 239.536 113.859 239.357C113.989 239.284 114.144 239.239 114.323 239.222ZM129.501 233.099C129.811 232.822 130.177 232.504 130.601 232.146L131.261 232.647C130.788 233.177 130.552 233.739 130.552 234.334C130.552 234.578 130.597 234.9 130.687 235.299C130.768 235.641 130.809 235.894 130.809 236.057C130.809 236.375 130.687 236.68 130.442 236.974C130.108 237.373 129.68 237.572 129.159 237.572C128.67 237.572 128.279 237.377 127.985 236.986C127.782 236.709 127.68 236.403 127.68 236.069C127.68 235.515 127.928 234.904 128.425 234.236C127.969 233.845 127.484 233.649 126.971 233.649C126.295 233.649 125.867 233.865 125.688 234.297C125.59 234.525 125.541 234.843 125.541 235.25V239.308H128.694L128.01 240.127L128.474 241.007H125.541V245.773C125.541 246.474 125.602 246.934 125.724 247.154C125.904 247.497 126.209 247.668 126.641 247.668C127.203 247.668 127.725 247.37 128.205 246.776C127.822 246.238 127.631 245.733 127.631 245.26C127.631 244.796 127.778 244.4 128.071 244.075C128.356 243.749 128.723 243.586 129.171 243.586C129.701 243.586 130.145 243.806 130.503 244.246C130.764 244.572 130.894 244.91 130.894 245.26C130.894 245.407 130.841 245.659 130.735 246.018C130.613 246.442 130.552 246.772 130.552 247.008C130.552 247.586 130.788 248.14 131.261 248.67L130.601 249.171C130.145 248.788 129.713 248.409 129.305 248.034C129.028 248.263 128.796 248.442 128.609 248.572C128.022 248.971 127.33 249.171 126.531 249.171C125.415 249.171 124.624 248.809 124.16 248.083C123.94 248.483 123.651 248.739 123.292 248.853C122.991 248.951 122.49 249 121.789 249H121.104V247.668C121.773 247.676 122.213 247.586 122.424 247.399C122.669 247.195 122.787 246.776 122.779 246.14V241.092C122.559 241.076 122.376 241.015 122.229 240.909C121.968 240.722 121.838 240.469 121.838 240.151C121.838 239.801 121.993 239.536 122.302 239.357C122.433 239.284 122.591 239.239 122.779 239.222V235.177C122.787 234.541 122.669 234.118 122.424 233.906C122.213 233.727 121.773 233.641 121.104 233.649V232.317H121.789C122.49 232.317 122.991 232.366 123.292 232.464C123.651 232.578 123.94 232.834 124.16 233.234C124.559 232.508 125.386 232.146 126.641 232.146C127.741 232.146 128.694 232.464 129.501 233.099ZM142.552 233.087C142.854 232.81 143.212 232.496 143.628 232.146L144.288 232.647C143.815 233.177 143.579 233.739 143.579 234.334C143.579 234.57 143.624 234.892 143.713 235.299C143.795 235.641 143.835 235.894 143.835 236.057C143.835 236.375 143.713 236.68 143.469 236.974C143.135 237.373 142.707 237.572 142.185 237.572C141.688 237.572 141.297 237.377 141.012 236.986C140.808 236.709 140.707 236.403 140.707 236.069C140.707 235.499 140.963 234.875 141.477 234.199C141.037 233.832 140.56 233.649 140.047 233.649C139.378 233.649 138.951 233.865 138.763 234.297C138.666 234.525 138.617 234.843 138.617 235.25V239.308H141.77L141.085 240.127L141.55 241.007H138.617V246.14C138.608 246.776 138.727 247.195 138.971 247.399C139.183 247.586 139.623 247.676 140.291 247.668H140.78V249H139.607C138.906 249 138.405 248.951 138.103 248.853C137.745 248.739 137.456 248.483 137.236 248.083C137.016 248.483 136.726 248.739 136.368 248.853C136.066 248.951 135.565 249 134.864 249H134.18V247.668C134.848 247.676 135.288 247.586 135.5 247.399C135.744 247.195 135.863 246.776 135.854 246.14V241.092C135.634 241.076 135.451 241.015 135.304 240.909C135.044 240.722 134.913 240.469 134.913 240.151C134.913 239.801 135.068 239.536 135.378 239.357C135.508 239.284 135.667 239.239 135.854 239.222V235.177C135.863 234.541 135.744 234.118 135.5 233.906C135.288 233.727 134.848 233.641 134.18 233.649V232.317H134.864C135.565 232.317 136.066 232.366 136.368 232.464C136.726 232.578 137.016 232.834 137.236 233.234C137.635 232.508 138.458 232.146 139.704 232.146C140.813 232.146 141.762 232.46 142.552 233.087ZM148.637 241.092C148.417 241.076 148.233 241.015 148.087 240.909C147.826 240.722 147.696 240.469 147.696 240.151C147.696 239.801 147.85 239.536 148.16 239.357C148.29 239.284 148.449 239.239 148.637 239.222V235.177C148.645 234.541 148.527 234.118 148.282 233.906C148.07 233.727 147.63 233.641 146.962 233.649V232.317H147.647C148.347 232.317 148.849 232.366 149.15 232.464C149.509 232.578 149.798 232.834 150.018 233.234C150.238 232.834 150.527 232.578 150.886 232.464C151.187 232.366 151.688 232.317 152.389 232.317H153.073V233.649C152.405 233.641 151.965 233.727 151.753 233.906C151.509 234.118 151.391 234.541 151.399 235.177V239.222C151.611 239.239 151.79 239.296 151.937 239.394C152.206 239.581 152.34 239.833 152.34 240.151C152.34 240.502 152.189 240.771 151.888 240.958C151.757 241.031 151.594 241.076 151.399 241.092V246.14C151.391 246.776 151.509 247.195 151.753 247.399C151.965 247.586 152.405 247.676 153.073 247.668V249H152.389C151.688 249 151.187 248.951 150.886 248.853C150.527 248.739 150.238 248.483 150.018 248.083C149.798 248.483 149.509 248.739 149.15 248.853C148.849 248.951 148.347 249 147.647 249H146.962V247.668C147.63 247.676 148.07 247.586 148.282 247.399C148.527 247.195 148.645 246.776 148.637 246.14V241.092Z" fill="white"/>
<path d="M199.62 148.393C190.212 154.516 180.808 160.643 171.471 166.883C161.159 173.772 150.654 180.367 139.5 185.759C136.315 187.298 133.16 188.929 129.879 190.222C126.204 191.675 122.601 192.094 118.784 189.889C108.543 183.973 98.1638 178.313 87.7763 172.669C81.666 169.348 75.225 166.676 69.3281 162.931C63.0672 158.957 57.5721 154.161 54.0398 147.294C52.4411 144.185 51.918 140.79 51.6711 137.422C50.7922 125.461 50.0095 113.474 50.4071 101.474C50.7378 91.4933 50.9637 81.4695 53.2572 71.6749C54.4918 66.4036 57.4842 62.7279 62 59.8825C70.8222 54.3215 79.3851 48.328 88.0902 42.5766C100.185 34.5853 112.305 26.6242 124.446 18.7021C128.598 15.995 132.946 16.3194 137.249 18.3388C146.711 22.7799 155.488 28.3972 163.783 34.862C170.345 39.9777 177.401 44.3971 183.8 49.7506C189.404 54.4425 194.995 59.1474 200.587 63.8479C201.445 64.5701 202.273 65.3355 203.148 66.0317C204.801 67.342 204.948 68.9636 204.609 71.009C204.328 72.7128 204.617 74.5376 204.797 76.2933C205.278 80.9333 205.4 85.5906 205.68 90.2392C206.212 99.1257 206.831 108.008 206.839 116.912C206.844 123.709 205.676 130.399 204.558 137.076C204.173 139.372 203.985 141.72 203.031 143.882C202.512 145.059 201.775 146.079 200.98 147.065C200.67 147.666 200.231 148.12 199.62 148.393Z" fill="#000202"/>
<path d="M51.616 105.993C51.1724 101.077 51.6829 95.2431 52.1308 89.4658C52.6581 82.668 52.8297 75.7448 55.3073 69.228C56.6758 65.6302 58.9902 63.001 62.1541 61.0162C81.749 48.7092 100.93 35.7319 120.307 23.0703C122.784 21.4487 125.233 19.7881 127.949 18.6292C131.452 17.133 134.637 18.5557 137.692 20.0995C146.116 24.3589 154.089 29.3881 161.614 35.2C167.641 39.8529 173.914 44.1729 179.924 48.8432C184.331 52.2681 188.483 56.0389 192.768 59.6324C194.907 61.427 196.924 63.4637 199.289 64.8518C202.055 66.4691 202.951 68.7134 203.135 71.7794C203.545 78.4864 203.997 85.1934 204.407 91.9047C204.734 97.2712 204.792 102.659 205.269 108C205.583 111.524 205.73 115.036 205.558 118.534C205.282 124.199 204.692 129.846 203.633 135.425C203.252 137.427 203.068 139.472 202.662 141.47C202.214 143.68 201.084 145.345 199.201 146.707C194.409 150.179 189.332 153.18 184.461 156.519C172.927 164.423 161.112 171.853 149.029 178.828C142.383 182.663 135.34 185.656 128.447 188.977C125.09 190.594 121.926 189.431 118.984 187.93C107.191 181.911 95.7399 175.217 84.1178 168.865C78.9115 166.019 73.3369 163.896 68.4068 160.493C62.8112 156.627 57.7305 152.259 54.7088 145.803C53.4533 143.122 53.1268 140.212 52.9259 137.392C52.2103 127.252 51.4611 117.098 51.616 105.993Z" fill="#C1E9EF"/>
<path d="M159.2 72.6485C159.493 72.6658 159.782 72.6918 159.928 73.0161C157.794 73.8723 156.183 75.2907 155.287 77.522C155.137 77.9026 154.823 78.3134 154.35 78.2701C153.772 78.2183 153.655 77.6474 153.454 77.202C153.395 77.0723 153.333 76.9296 153.333 76.7912C153.291 71.5675 149.968 67.5977 148.365 62.9707C147.762 61.228 146.909 59.5805 146.695 58.0626C146.829 59.4161 146.741 61.1242 146.72 62.8323C146.712 63.481 146.645 64.134 146.109 64.601C145.473 65.1588 140.271 65.5653 139.593 65.094C138.618 64.4064 138.572 63.2821 138.312 62.1318C138.275 64.6745 136.944 65.5004 134.692 65.721C131.972 65.9848 129.268 65.8723 126.556 65.881C125.631 65.881 125.008 65.3794 124.614 64.5015C124.326 63.8572 124.104 63.1696 123.53 62.4778C123.493 63.5372 123.945 64.588 123.195 65.3491C122.417 66.1361 121.362 65.881 120.404 65.9242C119.5 65.9675 118.604 65.9718 117.705 66.1404C115.311 66.5859 114.733 66.0453 114.658 63.4723C114.641 62.8237 114.683 62.175 114.532 61.094C113.185 65.2496 110.272 67.8096 107.903 70.7804C102.973 76.9599 101.571 83.9999 102.659 91.8182C103.144 95.2906 103.877 98.7631 103.663 102.322C103.596 104.795 103.877 107.291 103.257 109.73C102.454 113.734 101.864 117.764 101.412 121.833C100.78 127.52 101.985 132.804 103.944 137.993C104.626 139.797 105.53 141.518 105.886 143.442C106.267 145.5 105.413 146.616 103.408 146.763C103.199 146.78 102.969 146.832 102.785 146.759C97.8168 144.843 92.3301 146.465 87.379 144.285C85.0856 143.273 82.5369 143.105 80.1346 142.417C78.0797 141.829 76.188 142.603 74.3465 143.524C72.459 144.467 71.8857 144.056 72.0028 141.868C72.1284 139.515 73.1203 137.448 74.0326 135.351C75.962 130.923 78.946 127.182 81.4362 123.118C83.8803 119.131 85.5962 114.845 86.3579 110.175C86.4751 109.453 86.655 108.77 87.1656 108.229C87.3204 108.108 87.4711 107.987 87.6259 107.866C90.7104 107.429 93.7823 106.936 96.8542 106.426C98.5115 106.149 99.1351 107.092 98.7124 108.821C98.5241 109.591 98.2269 110.322 97.9005 111.014C99.9052 105.691 100.742 100.268 99.0472 94.655C98.4153 92.5577 98.2771 90.4172 98.3608 88.2463C98.4487 85.9328 98.3023 83.6409 97.7415 81.388C97.461 80.255 97.4736 79.0961 97.6284 77.9502C97.7875 76.7826 97.6787 75.6626 97.2057 74.4215C96.8249 75.5631 96.172 75.4939 95.6029 74.8193C94.3013 73.2842 92.9495 71.9869 93.8116 69.388C95.176 65.2626 97.5573 61.8723 99.9554 58.4302C102.232 55.161 105.384 52.8605 108.397 50.4389C109.811 49.3016 111.523 48.7178 113.348 48.3113C119.55 46.9275 125.38 44.2897 131.407 42.3005C132.202 42.0367 132.972 41.7037 133.784 41.5048C134.181 41.4054 134.65 41.1762 134.872 41.7167C135.056 42.1708 134.721 42.5167 134.416 42.8194C133.587 43.6367 132.361 44.0908 132.106 45.4875C133.889 45.7902 135.722 45.5481 137.329 46.6464C137.915 47.0486 138.672 46.6637 139.317 46.3351C140.321 45.8291 141.392 45.5308 142.493 45.3362C142.912 45.2627 143.36 45.0897 143.636 45.5178C143.916 45.9502 143.64 46.3783 143.347 46.6681C141.911 48.0951 142.79 48.6054 144.084 49.4097C151.788 54.188 156.94 60.8734 158.376 70.2788C158.489 71.0788 158.552 71.9956 159.2 72.6485Z" fill="#2AD2ED"/>
<path d="M128.155 162.127C128.172 162.486 128.117 162.866 128.218 163.199C128.699 164.825 128.201 165.266 126.598 164.92C122.861 164.112 119.299 162.723 115.675 161.556C109.991 159.722 104.279 158.14 98.2855 157.85C97.0676 157.789 95.8706 157.301 94.6611 157.007C94.1798 156.241 94.636 155.601 95.0001 155.026C96.4901 152.661 97.7288 150.174 98.4905 147.463C98.8421 146.213 99.5243 145.902 100.679 146.252C102.366 146.762 104.224 147.316 105.538 145.707C106.781 144.185 105.66 142.477 105.036 141.072C103.161 136.868 101.851 132.544 101.19 127.947C100.738 124.812 101.265 121.789 101.525 118.732C101.688 116.808 101.889 114.871 102.37 112.985C102.471 112.587 102.429 112.077 102.944 111.939C103.509 111.787 103.935 112.112 104.157 112.561C105.601 115.498 107.685 118.105 108.409 121.418C108.799 123.204 108.627 124.89 107.493 126.308C106.739 127.251 107.124 127.688 107.932 128.112C108.681 128.501 109.468 128.799 110.255 129.085C113.817 130.395 116.395 132.942 117.663 136.483C118.855 139.818 120.061 140.76 123.94 140.808C126.69 140.842 126.648 140.799 126.054 143.523C125.167 147.614 125.606 151.696 126.623 155.675C127.167 157.82 127.351 160.055 128.155 162.127Z" fill="#B4F4FE"/>
<path d="M128.155 162.128C127.686 162.253 127.389 162.175 127.292 161.583C126.439 156.441 124.823 151.434 125.175 146.076C125.288 144.385 126.158 142.876 125.932 141.172C124.333 141.475 122.789 141.436 121.149 141.103C119.278 140.722 118.278 139.702 117.725 137.994C116.198 133.28 113.013 130.322 108.472 129.012C107.656 128.779 107.262 128.031 106.4 127.944C105.726 127.875 105.89 127.071 106.241 126.772C109.652 123.836 107.76 120.766 106.408 117.808C105.484 115.784 104.257 113.903 102.973 111.62C101.378 119.412 100.579 126.759 102.709 134.08C103.487 136.761 104.814 139.274 105.764 141.907C106.245 143.239 107.145 144.709 105.898 146.08C104.588 147.525 102.7 147.46 101.248 146.885C99.4821 146.188 98.8418 146.573 98.5321 148.303C97.9545 151.542 95.6695 153.968 94.665 157.003C94.3595 157.129 93.9745 157.445 93.7694 157.345C93.15 157.051 93.6648 156.675 93.8238 156.338C95.0459 153.765 96.8832 151.529 97.6658 148.714C97.9001 147.879 98.7539 147.006 98.235 146.232C97.6323 145.332 96.6404 146.028 95.7741 146.167C92.8194 146.642 90.1074 145.41 87.3285 144.692C84.8927 144.065 82.4821 143.326 80.0296 142.785C77.5645 142.24 75.4761 143.408 73.4087 144.619C72.8604 144.939 72.2829 145.708 71.5714 145.181C71.0064 144.761 71.2659 143.966 71.2994 143.352C71.5631 138.712 73.6556 134.751 75.8905 130.911C78.795 125.92 82.6537 121.505 84.4826 115.871C85.2108 113.626 85.7549 111.313 86.2989 109.012C86.4328 108.441 86.4747 108.035 87.1568 108.23C86.1022 115.378 83.2689 121.734 79.0921 127.486C76.7401 130.729 74.794 134.197 73.3376 137.968C72.6052 139.866 72.3122 141.791 72.5466 143.935C74.9781 143.006 77.2088 141.345 79.9459 141.938C81.9631 142.379 83.9552 142.958 85.9725 143.395C88.8518 144.022 91.5806 145.631 94.5813 145.293C97.0924 145.012 99.4361 145.151 101.771 146.149C102.37 146.405 103.157 146.271 103.843 146.197C105.32 146.046 105.906 145.22 105.479 143.693C104.776 141.185 103.512 138.906 102.68 136.463C100.633 130.461 100.152 124.364 101.273 118.02C101.75 115.321 102.282 112.614 102.713 109.894C102.918 109.76 103.123 109.765 103.328 109.894C104.663 111.144 104.944 113.064 106.187 114.63C106.823 113.09 107.02 111.438 108.087 110.21C109.895 108.13 111.971 106.539 114.666 105.843C116.871 105.272 119.127 104.701 120.567 102.82C116.122 99.9485 111.606 97.3712 108.443 92.8869C105.58 88.8307 105.099 79.4988 110.096 75.6934C113.184 73.341 116.424 72.2599 120.27 73.6912C123.216 74.7896 126.234 75.702 129.276 76.5107C132.871 77.4664 135.897 76.6491 138.32 73.6999C139.798 71.901 141.534 70.5085 143.761 69.8512C146.82 68.9475 149.118 69.7907 150.775 72.5712C152.085 74.7723 152.7 77.1291 152.253 79.7885C151.755 82.7377 150.938 85.5615 149.495 88.1301C148.461 89.968 148.406 91.6112 149.478 93.3885C150.922 95.7885 151.529 98.3961 151.256 101.228C151.19 101.942 151.336 102.694 150.52 103.062C149.474 102.625 149.315 101.644 149.448 100.727C149.804 98.2317 149.151 96.0696 147.774 94.0544C147.377 93.475 147.193 92.7571 146.917 91.9615C146.084 92.2166 145.795 93.0209 144.899 93.5658C146.866 94.249 148.582 94.8155 149.227 96.8566C149.607 98.0631 149.691 99.2825 148.724 100.031C146.9 101.436 147.13 103.157 147.574 105.043C147.837 106.158 148.139 107.244 148.808 108.268C148.963 106.932 149.248 105.644 149.448 104.342C149.541 103.75 149.419 102.803 150.537 103.136C151.298 104.437 150.758 105.808 150.817 107.153C151.416 101.717 151.805 96.2598 151.876 90.7853C151.901 88.8307 152.244 86.915 152.55 84.9993C153.508 78.9496 152.487 73.2675 149.721 67.8794C148.771 66.0329 148.03 64.0999 147.519 62.3961C147.502 62.1021 147.431 62.141 147.436 62.1713C147.925 64.6577 146.925 65.9205 144.489 65.9118C143.02 65.9075 141.467 66.5345 140.145 66.1323C138.797 65.7215 137.81 65.9377 136.5 66.1972C133.302 66.8329 130 66.8848 126.719 66.8761C125.397 66.8718 124.656 66.1972 124.112 65.0859C123.848 65.3453 123.823 65.7432 123.572 65.9896C122.747 66.794 115.779 67.4772 114.871 66.7983C113.912 66.0804 113.766 65.034 113.933 63.9486C113.155 65.661 111.925 67.0923 110.673 68.515C106.505 73.2502 103.412 78.448 103.052 85.1334C102.851 88.8523 103.383 92.4415 103.81 96.0696C104.069 98.2836 104.207 100.498 104.149 102.725C103.182 103.59 103.408 102.448 103.161 102.102C103.144 96.7442 101.696 91.542 101.742 86.1496C101.792 80.3334 103.843 75.4599 107.074 70.9107C108.79 68.4934 111.037 66.5648 112.615 64.0091C113.427 62.6945 113.557 61.0772 114.653 59.8534C115.612 61.2934 115.164 62.8978 115.16 64.3983C115.16 65.5918 115.599 66.0242 116.608 65.7518C118.449 65.2502 120.316 65.315 122.178 65.3583C123.095 65.3799 123.25 64.8999 123.137 64.1648C123.065 63.6848 122.806 63.2307 122.777 62.7507C122.735 62.0675 122.404 61.0642 123.195 60.8264C124.045 60.5713 123.898 61.6264 124.074 62.1583C124.844 64.4545 125.941 65.8599 128.736 65.4232C131.235 65.034 133.834 65.3886 136.374 64.9345C137.006 64.8221 137.345 64.7788 137.4 63.9788C137.475 62.8156 137.759 61.661 137.985 60.3075C138.873 61.155 139.057 62.0761 139.044 63.0751C139.023 64.7486 139.973 65.1118 141.338 64.8826C141.744 64.8134 142.133 64.6361 142.535 64.5453C143.711 64.2859 145.36 65.1594 146 63.9702C146.536 62.9713 146.151 61.4405 146.159 60.1475C146.167 58.6426 146.163 57.1378 146.439 55.5464C147.553 63.6502 154.01 69.6869 154.081 78.5561C155.743 75.8923 156.291 72.6448 159.911 73.0123C160.116 73.0556 160.317 73.0988 160.522 73.1421C167.403 74.7118 166.624 77.622 165.934 83.6718C165.415 88.2296 163.239 91.8707 160.447 95.1744C159.468 96.3334 159.346 97.4404 160.087 98.3961C162.293 101.233 161.803 104.662 161.966 107.797C162.343 114.924 165.118 120.831 169.407 126.162C169.926 126.807 170.655 127.265 171.253 127.845C171.906 128.476 171.81 129.289 171.563 130.037C171.387 130.565 170.793 130.815 170.341 130.604C168.478 129.73 166.624 130.478 164.825 130.694C161.564 131.088 158.07 130.638 155.391 132.943C155.843 133.449 156.354 134.024 156.998 134.746C156.036 135.135 155.069 135.352 154.303 135.879C153.152 136.671 151.767 137.172 151.872 139.261C151.93 140.463 151.173 141.851 150.445 143.088C149.658 144.415 148.699 144.709 147.519 144.407C146.339 144.104 145.971 142.993 145.728 141.816C145.535 140.895 146.481 139.698 144.711 139.092C142.983 138.5 142.125 139.244 141.166 140.342C140.095 141.574 139.387 143.127 137.588 143.646C134.901 144.42 132.603 143.559 130.398 142.21C127.719 140.575 127.389 140.727 126.635 143.819C125.405 148.882 126.861 153.695 127.874 158.526C128.15 159.767 128.083 160.93 128.155 162.128Z" fill="#010303"/>
<path d="M159.197 72.6492C157.653 72.4546 158.122 70.9844 157.967 70.18C156.56 62.8071 153.208 56.7876 147.282 52.273C145.474 50.8979 143.771 49.4276 141.519 48.593C142.272 47.5379 142.95 46.5909 143.838 45.3455C142.285 45.8385 141.071 46.2579 139.837 46.6039C138.627 46.9412 137.673 47.5855 136.137 46.552C135.174 45.9033 132.948 45.3325 131.186 46.8763C130.906 43.8017 133.957 43.5898 134.848 41.4666C129.177 43.4817 123.628 45.3239 118.183 47.4341C115.626 48.4244 112.809 48.3422 110.386 49.7433C106.259 52.126 102.685 55.2525 99.8685 59.1141C97.9726 61.7173 95.9638 64.3033 94.8505 67.5033C93.4945 71.4168 93.5532 72.2687 96.6627 75.2049C96.9515 74.4179 96.1228 73.9595 96.1772 73.2762C97.6546 73.5011 98.6674 75.287 98.2908 77.1984C97.9978 78.6903 98.0312 80.0957 98.3493 81.6092C98.6799 83.1789 99.0357 84.7919 98.9143 86.4654C98.6549 90.0459 99.1612 93.54 100.086 97.0081C100.986 100.385 100.588 103.771 99.6467 107.105C99.3454 108.173 99.2198 109.306 98.8557 110.349C98.4874 111.399 97.9099 112.364 96.3907 112.411C96.7548 111.002 97.935 110.249 98.161 108.865C98.4874 106.898 98.3912 106.535 96.533 106.885C94.7208 107.226 92.938 107.719 91.1216 108.018C89.9707 108.204 88.7737 108.338 87.6228 107.871C86.0408 107.668 84.4923 107.166 83.2033 106.284C82.0984 105.527 81.546 105.812 80.8429 106.686C80.4578 107.162 80.0184 107.581 79.3948 107.84C78.6582 108.148 78.0012 109.06 77.1851 108.346C76.3313 107.603 76.5782 106.504 76.9423 105.579C77.2437 104.809 77.6245 103.983 78.1979 103.438C79.286 102.396 79.0182 101.484 78.403 100.338C77.6789 98.9843 77.093 100.191 76.4275 100.286C75.7412 100.381 75.0255 100.45 74.3475 100.346C73.3766 100.199 73.0711 99.5465 73.59 98.6513C73.9374 98.0502 74.2764 97.3324 74.8121 96.9821C77.6287 95.1227 76.9925 92.247 76.5029 89.7865C75.1929 83.1789 78.8508 74.5995 84.6388 71.166C87.0076 69.7606 89.3931 69.8514 91.8038 70.6038C92.8584 70.9325 93.1681 70.9281 93.482 69.7346C95.1895 63.1919 99.1571 58.1801 103.92 53.7476C105.853 51.9444 107.703 50.0244 110.151 48.926C113.474 47.4298 117.124 47.1141 120.514 45.7606C125.226 43.8795 130.089 42.4006 134.856 40.6622C135.744 40.3379 136.568 40.2168 137.66 40.3595C136.442 42.3876 134.015 42.9541 132.768 45.0774C134.099 44.7876 135.375 44.3639 136.409 45.1033C139.527 47.339 141.95 44.2558 144.742 44.0309C145.319 43.9833 145.888 43.6287 146.78 43.9833C145.621 45.1033 144.574 46.1628 143.478 47.1574C142.682 47.8752 142.729 48.2168 143.712 48.766C151.513 53.1249 156.569 59.7325 158.67 68.6708C158.971 69.9552 159.025 71.3173 159.197 72.6492Z" fill="#000303"/>
<path d="M103.012 109.894L102.865 109.889L102.719 109.894C103.171 107.316 103.112 104.704 103.167 102.101C103.393 102.387 103.614 102.672 103.84 102.957C104.899 104.981 104.489 108.384 103.012 109.894Z" fill="#071B1F"/>
<path d="M121.696 142.305C121.215 145.397 120.855 147.992 120.365 150.56C120.294 150.932 120.524 151.633 119.838 151.793C119.214 150.223 120.135 144.93 121.696 142.305Z" fill="#020404"/>
<path d="M119.562 154.594C120.575 156.375 120.144 158.313 120.24 160.189C120.265 160.7 119.96 161.21 119.658 161.193C119.165 161.167 119.01 160.639 118.968 160.086C118.826 158.218 119.211 156.423 119.562 154.594Z" fill="#010303"/>
<path d="M138.179 96.1169C139.941 97.2412 141.414 95.6715 143.025 95.4639C143.82 95.3601 144.682 95.0574 145.432 95.2477C146.742 95.5807 148.185 96.0001 148.278 97.825C148.374 99.758 146.976 100.043 145.599 100.389C144.394 100.692 143.159 101.021 142.318 102.396C143.691 102.534 144.741 100.908 145.678 101.661C146.62 102.417 145.921 104.009 146.252 105.142C147.21 108.428 148.478 111.533 151.069 113.924C152.391 115.144 153.488 116.653 154.576 118.115C157.054 121.453 155.547 124.826 154.526 128.169C154.367 128.696 153.764 129.198 153.814 129.656C154.153 132.77 152.609 131.767 151.148 131.031C146.863 128.865 142.845 126.365 139.92 122.283C138.836 120.77 137.291 119.814 135.35 120.904C134.747 121.241 133.927 121.362 133.558 121.051C130.675 118.586 127.783 120.013 125.029 121.081C120.224 122.945 115.311 124.346 110.302 125.401C109.657 125.535 109.079 126.154 108.154 125.712C109.151 123.524 108.623 121.345 108.021 119.109C106.376 113.025 109.481 109.159 114.608 107.338C117.27 106.391 120.032 105.751 121.802 103.261C122.564 102.193 123.434 102.638 124.543 103.187C124.271 101.868 123.522 101.881 122.982 101.682C121.509 101.142 119.994 100.709 118.538 100.121C117.215 99.5893 116.378 98.599 116.47 97.0207C116.567 95.3645 117.831 94.7461 119.044 94.3569C121.886 93.4401 124.686 93.8639 127.435 94.9796C130.034 96.0391 132.6 97.3147 135.534 96.9082C135.919 96.8563 136.392 97.0596 136.597 96.5017C137.036 96.0001 137.538 95.7623 138.179 96.1169Z" fill="#B4F4FE"/>
<path d="M103.012 109.894C103.694 107.636 104.108 105.34 103.845 102.962C103.317 98.0364 102.514 93.124 102.33 88.1856C102.12 82.5467 103.472 77.2321 106.757 72.5186C108.448 70.0927 110.532 68.0343 112.257 65.6473C112.997 64.6224 113.542 63.5241 114.366 61.9889C114.366 63.1824 114.391 63.9651 114.362 64.7478C114.303 66.417 115.249 67.0008 116.592 66.5986C117.961 66.1878 119.313 66.2268 120.686 66.2181C123.519 66.2008 123.519 66.2095 123.795 63.0743C124.369 66.9922 127.047 66.3305 129.462 66.2095C131.952 66.0841 134.438 65.8938 136.928 65.79C138.573 65.7208 137.326 63.7965 138.539 63.4678C138.606 65.4224 139.489 66.3219 141.49 65.5262C141.804 65.4008 142.172 65.4095 142.519 65.3878C146.977 65.0938 146.977 65.0938 147.169 60.363C148.919 65.6213 152.175 70.2657 153.166 75.8094C153.891 79.8656 153.556 83.9737 152.719 87.991C152.388 89.5781 152.53 91.1348 152.488 92.7045C152.426 94.9705 152.627 97.2494 151.723 99.4202C151.547 99.8397 151.53 100.514 151.743 100.89C153.309 103.662 151.095 105.634 150.53 107.926C150.53 106.209 150.53 104.497 150.53 102.78L150.488 102.828C151.417 99.5024 150.685 96.4018 148.96 93.604C147.671 91.5153 147.889 89.7813 149.094 87.7835C150.831 84.8862 151.764 81.5651 151.94 78.244C152.087 75.5111 150.994 72.8473 148.78 70.9705C146.675 69.1846 143.432 70.1532 141.143 71.6797C140.465 72.1338 139.791 72.7003 139.322 73.3705C136.51 77.3662 132.797 78.3219 128.386 76.9165C125.206 75.9046 122.088 74.6765 118.878 73.7943C115.831 72.9554 112.981 73.9413 110.662 75.9651C106.297 79.7748 105.565 87.1564 108.72 92.1726C110.348 94.7586 112.278 96.9164 115.057 98.1618C115.303 98.2743 115.714 98.3089 115.781 98.4905C116.848 101.34 119.61 101.284 121.774 102.287C120.137 104.968 117.425 105.695 114.713 106.434C110.951 107.463 106.598 110.78 106.803 116.419C104.908 114.477 104.263 111.987 103.012 109.894Z" fill="#B4F4FE"/>
<path d="M138.176 96.1167C137.644 96.2464 137.117 96.3761 136.585 96.5059C136.497 96.3978 136.397 96.1945 136.317 96.2032C131.856 96.6961 128.131 93.9588 123.946 93.1934C120.698 92.601 117.522 93.6951 115.798 96.588C115.287 97.4486 114.877 97.2756 114.35 96.8951C110.734 94.2832 107.9 91.1135 107.683 86.2486C107.524 82.7589 107.624 79.3513 110.562 76.8129C113.211 74.5254 116.12 73.7816 119.443 74.8021C122.879 75.8529 126.328 76.8475 129.751 77.9416C133.024 78.9881 135.706 77.9243 138.092 75.6411C139.465 74.3308 140.561 72.6789 142.273 71.7924C146.617 69.5481 150.384 71.4032 150.752 76.6313C151.334 84.947 147.546 90.8929 140.871 95.1048C140.076 95.6151 139.084 95.7924 138.176 96.1167Z" fill="#186C90"/>
<path d="M159.093 96.6661C159.093 97.9115 159.374 98.8844 159.972 99.7925C161.236 101.726 161.127 104.065 161.169 106.175C161.345 114.833 164.317 122.128 170.314 128.147C170.649 128.48 171.448 128.748 171.021 129.453C170.678 130.02 169.987 129.812 169.464 129.751C165.953 129.354 162.509 130.257 159.022 130.322C157.964 130.344 156.926 131.23 155.863 131.684C155.423 131.87 154.975 132.497 154.481 131.991C153.925 131.421 154.084 130.755 154.44 130.037C155.591 127.715 156.478 125.31 156.67 122.647C156.863 119.996 155.917 117.782 154.088 116.195C150.874 113.41 149.748 110.456 151.954 106.409C152.573 105.276 152.996 103.844 152.925 102.353C152.87 101.237 153.707 100.385 154.54 99.758C155.971 98.7028 157.482 97.7558 159.093 96.6661Z" fill="#2AD2ED"/>
<path d="M154.342 133.453C149.902 134.434 145.599 133.82 141.594 131.848C138.978 130.564 136.484 128.921 133.705 128.112C129.955 127.022 126.113 127.148 122.192 127.468C117.241 127.87 112.21 128.017 107.238 126.971C112.683 126.209 117.76 124.004 123.087 122.824C125.059 122.387 126.666 121.068 128.645 120.571C129.997 120.229 131.119 120.229 132.148 121.055C133.312 121.989 134.475 122.222 135.789 121.548C136.877 120.99 137.861 121.215 138.564 122.14C142.552 127.351 147.893 130.534 153.71 133.016C153.94 133.115 154.133 133.306 154.342 133.453Z" fill="#186C90"/>
<path d="M152.555 100.675C152.885 97.7347 152.668 94.8287 152.952 91.9876C153.375 87.7412 153.739 83.4731 154.919 79.3217C155.459 77.4233 156.597 75.9963 157.51 74.3834C157.573 74.2709 157.648 74.085 157.732 74.0763C159.745 73.8169 161.741 73.9812 163.541 74.9585C165.185 75.8536 166.035 77.4796 165.813 79.3563C165.403 82.8114 165.085 86.2709 163.444 89.4925C161.561 93.1941 158.916 95.9963 155.551 98.1801C154.488 98.872 153.245 99.3433 152.555 100.675Z" fill="#B4F4FE"/>
<path d="M115.352 132.047C118.516 132.886 121.726 132.514 124.814 133.21C126.266 133.539 127.681 132.946 129.117 132.799C134.394 132.267 138.516 134.754 142.3 138.183C141.509 138.676 140.885 139.359 140.379 140.19C138.299 143.606 135.235 143.852 132.674 142.326C129.401 140.376 126.007 139.909 122.383 140.164C120.219 140.315 118.876 139.217 118.336 137.098C117.833 135.126 116.816 133.513 115.352 132.047Z" fill="#B4F4FE"/>
<path d="M154.737 134.53C153.599 135.481 152.946 136.112 152.214 136.61C151.736 136.934 151.159 137.423 150.573 136.67C150.322 136.35 150.251 135.541 149.556 136.104C149.359 136.264 149.179 136.562 149.158 136.808C149.075 137.803 150.062 137.042 150.326 137.526C150.38 137.626 150.498 137.686 150.678 137.846C147.484 138.854 144.605 138.759 141.918 136.497C138.16 133.336 133.891 131.265 128.948 132.047C124.315 132.783 119.875 131.87 115.418 131.044C113.221 130.638 111.475 128.895 109.266 128.238C112.166 128.341 115.016 128.475 117.874 128.514C120.658 128.558 123.382 127.991 126.169 127.987C130.275 127.983 134.205 128.674 137.716 130.811C142.479 133.704 147.501 135.048 152.996 134.534C153.385 134.499 153.791 134.53 154.737 134.53Z" fill="#186C90"/>
<path d="M150.519 102.776C149.514 104.319 149.962 106.166 149.552 107.839C149.393 108.479 149.464 109.18 149.401 110.373C147.154 107.472 146.765 104.553 146.606 101.556C146.585 101.18 146.71 100.968 147.095 100.76C148.527 99.9907 149.573 98.8793 148.945 97.0588C148.292 95.1777 146.719 94.5291 144.936 94.3215C144.593 94.2826 144.241 94.3172 143.672 94.3172C145.019 93.1064 146.233 92.021 147.342 91.0264C147.317 91.9647 147.861 93.1712 148.497 94.3518C149.552 96.302 150.18 98.3604 149.97 100.644C149.899 101.392 149.728 102.248 150.477 102.832C150.477 102.827 150.519 102.776 150.519 102.776Z" fill="#B4F4FE"/>
<path d="M151.177 138.529C151.243 140.315 150.662 141.751 149.574 142.979C148.674 144 147.146 143.827 146.732 142.573C146.477 141.794 146.552 140.864 146.623 140.017C146.732 138.659 147.795 139.498 148.406 139.295C149.243 139.022 150.105 138.823 151.177 138.529Z" fill="#C1E8EE"/>
<path d="M85.8776 101.508C85.0238 100.362 83.9734 100.877 83.0652 100.846C82.5295 100.829 82.563 101.123 82.8601 101.646C83.3749 102.554 82.5881 103.238 81.998 103.674C81.366 104.146 81.1023 103.346 80.7926 102.913C80.5457 102.567 80.3197 102.209 80.0519 101.88C78.0639 99.441 78.4113 98.1134 81.2907 97.162C81.4037 97.1231 81.5167 97.0366 81.6297 97.041C82.09 97.0626 82.3077 98.5112 82.9564 97.3004C83.107 97.0237 83.0024 96.5393 82.5253 96.5091C81.7594 96.4615 80.6922 95.428 80.3449 96.2539C79.8719 97.3783 78.8549 97.3566 78.2648 98.135C76.687 91.4626 76.4862 84.6518 78.4657 79.7956C80.2193 75.5015 83.333 72.1632 87.9074 71.0994C89.661 70.6929 91.6238 71.2983 93.2602 72.6691C97.0561 75.8388 97.8304 80.3145 97.9643 84.8075C98.1066 89.5858 98.4623 94.2604 99.6258 98.8961C100.078 100.691 99.6091 102.576 99.3328 104.414C99.1654 105.521 98.274 105.906 97.6002 105.923C94.7083 106.005 91.9502 107.229 89.0039 106.892C87.9074 106.766 86.7942 106.784 85.7395 106.416C84.6095 106.018 83.4837 105.599 82.5965 104.712C83.6637 103.614 83.7808 101.556 85.8776 101.508Z" fill="#B4F4FE"/>
<path d="M77.6855 107.559C77.0954 105.886 78.2212 104.908 78.8406 103.793C79.0666 103.382 79.5102 102.322 79.9539 102.936C80.4226 103.585 82.0004 104.29 80.6528 105.622C79.7907 106.461 78.8531 107.118 77.6855 107.559Z" fill="#C0E8EE"/>
<path d="M74.1523 99.3384C74.7173 98.0281 75.7134 97.3665 76.5672 96.454C77.1071 97.107 77.8436 97.8551 77.2954 98.5643C76.609 99.4465 75.4916 99.7924 74.1523 99.3384Z" fill="#BFE6EC"/>
<path d="M129.572 105.933C129.27 101.946 128.86 101.448 125.265 100.367C123.905 99.9564 122.566 99.4677 121.214 99.0353C120.281 98.7369 120.172 98.0234 120.239 97.1715C120.302 96.3759 120.758 96.1596 121.461 96.0213C126.366 95.044 131.463 100.51 130.166 105.418C130.116 105.587 129.856 105.695 129.572 105.933Z" fill="#000303"/>
<path d="M137.853 105.064C136.924 101.583 139.418 97.4579 142.511 96.952C143.453 96.7963 144.457 96.1131 145.432 96.9304C145.843 97.272 146.487 97.5271 146.382 98.1498C146.282 98.7509 146.006 99.4514 145.236 99.4817C144.604 99.5076 144.139 99.9444 143.478 99.979C140.029 100.161 138.816 101.242 137.853 105.064Z" fill="#010303"/>
<path d="M137.21 119.226C136.611 116.07 136.076 112.913 136.632 109.683C136.616 112.878 137.641 116.005 137.21 119.226Z" fill="#020404"/>
<path d="M130.048 107.944C131.487 110.344 130.018 112.696 129.859 115.07C130.023 112.683 129.801 110.309 130.048 107.944Z" fill="#030606"/>
<path d="M153.663 121.245C152.985 120.159 153.646 119.632 154.198 118.719C154.801 119.943 154.274 120.51 153.663 121.245Z" fill="#196C91"/>
<path d="M151.577 121.124C151.464 121.552 151.229 121.907 150.769 121.898C150.263 121.889 150.392 121.414 150.384 121.102C150.371 120.687 150.376 120.203 151.012 120.35C151.38 120.436 151.564 120.713 151.577 121.124Z" fill="#1A6D92"/>
<path d="M126.052 110.352C125.901 110.746 125.835 111.312 125.349 111.364C125.073 111.39 124.872 110.962 124.843 110.573C124.809 110.076 125.077 109.699 125.449 109.617C125.688 109.565 126.019 109.928 126.052 110.352Z" fill="#1B6E92"/>
<path d="M154.811 123.641C154.439 123.434 154.108 123.166 154.188 122.677C154.25 122.31 154.522 122.041 154.899 122.067C155.506 122.106 155.368 122.634 155.372 123.014C155.376 123.369 155.309 123.728 154.811 123.641Z" fill="#1A6D92"/>
<path d="M152.278 128.389C151.943 128.419 151.759 128.276 151.679 127.952C151.558 127.442 151.809 127.044 152.206 126.936C152.516 126.854 152.805 127.213 152.843 127.593C152.876 128.017 152.554 128.207 152.278 128.389Z" fill="#1F7195"/>
<path d="M145.84 124.457C145.84 123.333 145.463 122.701 146.25 122.464C146.497 122.39 146.865 122.399 146.924 122.723C147.05 123.445 146.359 123.562 145.84 124.457Z" fill="#1A6D92"/>
<path d="M115.829 121.673C116.227 121.898 116.515 122.131 116.407 122.516C116.294 122.914 116.034 123.273 115.561 123.204C115.239 123.156 115.239 122.836 115.231 122.56C115.222 122.071 115.574 121.902 115.829 121.673Z" fill="#1A6D92"/>
<path d="M115.755 113.612C116.107 113.621 116.362 113.82 116.425 114.187C116.488 114.568 116.275 114.953 115.948 114.966C115.726 114.974 115.387 114.641 115.278 114.382C115.132 114.032 115.366 113.742 115.755 113.612Z" fill="#217497"/>
<path d="M151.479 125.358C151.035 125.427 150.847 125.272 150.83 124.943C150.813 124.61 150.742 124.195 151.232 124.169C151.546 124.151 152.006 124.121 151.956 124.614C151.922 124.904 151.613 125.159 151.479 125.358Z" fill="#196D91"/>
<path d="M142.004 106.08C141.87 106.236 141.732 106.547 141.518 106.612C141.004 106.776 141.15 106.188 140.97 105.963C140.698 105.622 141.075 105.436 141.292 105.388C141.69 105.297 141.87 105.613 142.004 106.08Z" fill="#217497"/>
<path d="M122.832 109.942C123.109 110.102 123.49 110.24 123.385 110.638C123.326 110.859 123.033 111.148 122.828 111.166C122.405 111.2 122.326 110.833 122.347 110.452C122.368 110.123 122.51 109.95 122.832 109.942Z" fill="#1A6D92"/>
<path d="M117.426 117.63C117.07 117.617 116.911 117.453 116.907 117.128C116.902 116.769 116.932 116.384 117.384 116.454C117.597 116.488 117.899 116.748 117.949 116.955C118.033 117.332 117.647 117.466 117.426 117.63Z" fill="#1B6F93"/>
<path d="M119.133 116.099C119.765 116.372 119.982 116.808 119.664 117.44C119.618 117.526 119.388 117.617 119.325 117.574C118.701 117.172 119.015 116.627 119.133 116.099Z" fill="#1A6D92"/>
<path d="M148.233 116.1C148.107 116.238 147.952 116.563 147.739 116.61C147.337 116.701 147.153 116.32 147.107 115.979C147.056 115.594 147.391 115.533 147.663 115.529C147.944 115.525 148.224 115.589 148.233 116.1Z" fill="#1F7295"/>
<path d="M128.061 116.242C127.772 116.458 127.576 116.735 127.371 116.74C126.893 116.748 126.927 116.329 126.956 115.983C126.985 115.645 127.195 115.446 127.5 115.602C127.701 115.71 127.827 115.97 128.061 116.242Z" fill="#247699"/>
<path d="M124.578 115.727C124.39 115.16 124.281 114.684 124.691 114.3C124.754 114.239 125.147 114.382 125.181 114.494C125.323 114.996 125.273 115.467 124.578 115.727Z" fill="#1D7094"/>
<path d="M111.815 118.715C111.79 119.079 111.723 119.425 111.388 119.308C111.112 119.213 110.823 118.944 110.689 118.676C110.576 118.456 110.731 118.071 111.078 118.179C111.363 118.265 111.593 118.547 111.815 118.715Z" fill="#1A6D91"/>
<path d="M141.535 111.783C141.417 111.913 141.258 112.238 141.062 112.263C140.622 112.324 140.689 111.814 140.58 111.563C140.383 111.104 140.831 111.221 141.02 111.208C141.292 111.191 141.535 111.312 141.535 111.783Z" fill="#1A6E92"/>
<path d="M115.133 118.59C115.191 118.676 115.472 118.91 115.468 119.135C115.463 119.33 115.133 119.516 114.949 119.71C114.773 119.503 114.509 119.321 114.438 119.079C114.346 118.763 114.572 118.573 115.133 118.59Z" fill="#1C6F93"/>
<path d="M110.991 113.362C110.97 113.518 110.87 113.781 110.531 113.699C110.217 113.626 110.196 113.332 110.217 113.055C110.242 112.756 110.363 112.501 110.69 112.579C111.004 112.648 111.02 112.947 110.991 113.362Z" fill="#1A6D92"/>
<path d="M121.026 112.959C121.034 113.578 120.85 113.803 120.548 113.703C120.314 113.625 120.142 113.357 119.941 113.171C120.13 112.981 120.31 112.648 120.507 112.644C120.724 112.639 120.959 112.916 121.026 112.959Z" fill="#1F7195"/>
<path d="M147.719 114.075C147.522 114.14 147.464 114.677 147.129 114.322C146.949 114.132 146.894 113.82 146.781 113.561C147.02 113.5 147.275 113.357 147.497 113.401C147.815 113.466 147.895 113.742 147.719 114.075Z" fill="#1F7296"/>
<path d="M143.675 114.279C144.027 114.305 144.069 114.586 144.069 114.85C144.069 115.109 144.048 115.421 143.684 115.412C143.336 115.408 143.286 115.109 143.278 114.841C143.273 114.582 143.324 114.305 143.675 114.279Z" fill="#1B6E92"/>
<path d="M151.122 118.041C150.942 118.054 150.821 117.838 150.792 117.54C150.766 117.258 150.804 116.964 151.114 116.895C151.44 116.826 151.574 117.072 151.591 117.375C151.608 117.648 151.624 117.933 151.122 118.041Z" fill="#196D91"/>
<path d="M148.322 126.253C148.05 126.27 147.903 126.084 147.887 125.764C147.87 125.479 147.895 125.185 148.217 125.116C148.552 125.042 148.695 125.319 148.736 125.596C148.778 125.881 148.682 126.132 148.322 126.253Z" fill="#1A6E92"/>
<path d="M143.614 122.798C143.543 122.845 143.317 123.131 143.095 123.122C142.907 123.113 142.735 122.776 142.551 122.581C142.748 122.4 142.923 122.127 143.154 122.058C143.455 121.963 143.635 122.201 143.614 122.798Z" fill="#1E7195"/>
<path d="M120.964 120.606C120.399 120.938 120.123 121.133 119.822 121.276C119.416 121.47 119.433 121.133 119.42 120.882C119.395 120.463 119.596 120.242 120.006 120.281C120.165 120.303 120.312 120.385 120.964 120.606Z" fill="#1B6E92"/>
<path d="M144.436 119.849C144.374 119.693 144.265 119.447 144.177 119.192C144.072 118.898 144.106 118.586 144.462 118.603C144.675 118.612 144.943 118.82 145.064 119.019C145.244 119.313 144.997 119.503 144.436 119.849Z" fill="#207296"/>
<path d="M136.771 107.918C136.457 107.17 136.44 106.504 137.244 106.041C137.554 106.798 136.784 107.278 136.771 107.918Z" fill="#030505"/>
<path d="M142.715 116.29C142.744 116.71 142.548 116.775 142.343 116.744C141.978 116.692 141.978 116.381 142.008 116.104C142.024 115.944 141.995 115.603 142.288 115.758C142.502 115.866 142.619 116.16 142.715 116.29Z" fill="#2B7C9D"/>
<path d="M127.291 106.128C127.191 106.188 127.04 106.357 126.894 106.352C126.53 106.339 126.504 106.028 126.546 105.739C126.571 105.579 126.534 105.272 126.852 105.397C127.115 105.501 127.32 105.687 127.291 106.128Z" fill="#1E7094"/>
<path d="M144.327 108.333C144.239 108.113 144.118 107.944 144.114 107.767C144.105 107.464 144.264 107.222 144.595 107.321C144.892 107.412 145.005 107.676 144.834 107.957C144.737 108.108 144.532 108.186 144.327 108.333Z" fill="#27799B"/>
<path d="M115.506 109.388C115.439 109.267 115.242 109.047 115.288 108.956C115.401 108.718 115.627 108.54 115.807 108.337C115.883 108.497 116.021 108.657 116.025 108.822C116.033 109.107 115.991 109.414 115.506 109.388Z" fill="#196C91"/>
<path d="M142.516 108.964C142.416 109.254 142.24 109.487 141.931 109.405C141.801 109.37 141.642 109.133 141.634 108.981C141.617 108.605 141.88 108.527 142.182 108.605C142.357 108.648 142.604 108.657 142.516 108.964Z" fill="#247699"/>
<path d="M144.706 110.244C144.948 110.546 145.179 110.724 145.241 110.953C145.271 111.061 145.024 111.316 144.852 111.411C144.5 111.61 144.3 111.225 144.279 111.039C144.258 110.836 144.5 110.603 144.706 110.244Z" fill="#1A6D92"/>
<path d="M123.368 119.791C123.284 119.489 123.192 119.307 123.188 119.121C123.183 118.818 123.305 118.533 123.656 118.619C123.782 118.65 123.97 118.974 123.929 119.074C123.828 119.311 123.61 119.502 123.368 119.791Z" fill="#1F7195"/>
<path d="M140.963 89.955C139.242 90.1885 137.92 89.1507 136.405 88.9993C135.986 88.9561 135.769 88.5064 135.735 88.022C135.534 85.1983 138.841 79.2783 141.327 78.0242C144.428 76.4588 148.086 78.0242 149.04 81.341C149.211 81.9334 149.036 82.4523 148.722 82.9626C147.316 85.2588 145.734 87.408 143.746 89.2026C142.934 89.942 141.913 90.1712 140.963 89.955Z" fill="#000304"/>
<path d="M117.037 88.3115C116.066 87.5763 116.631 87.0055 117.213 86.4088C119.284 84.2682 122.026 83.6369 124.717 83.1482C126.596 82.8023 128.601 82.8974 130.488 83.5374C131.262 83.8012 132.049 84.1644 132.33 85.038C132.639 85.9979 131.664 86.145 131.237 86.6293C130.911 87.0012 130.501 87.2996 130.195 87.6888C126.989 91.7752 122.884 91.732 118.535 90.3569C117.677 90.0844 116.526 89.7515 117.024 88.2898C119.72 89.2109 122.381 90.2401 125.319 89.4444C126.541 89.1115 127.604 88.6574 128.421 87.4596C127.278 87.0747 126.768 87.7796 126.19 88.2207C124.826 89.2542 123.382 89.5525 121.917 88.5925C120.301 87.5288 118.657 88.4542 117.037 88.3115Z" fill="#010405"/>
<path d="M117.512 84.034C120.153 80.8081 128.226 79.6795 131.318 82.5724C128.682 81.8373 126.451 80.9422 123.994 81.5303C121.714 82.0795 119.663 83.1735 117.512 84.034Z" fill="#000405"/>
<path d="M110.359 85.6079C111.699 86.1052 113.322 85.089 114.741 86.3863C113.055 86.6977 111.644 86.5809 110.359 85.6079Z" fill="#010608"/>
<path d="M111.273 87.8617C112.244 87.2173 112.964 87.3773 113.864 87.5503C113.056 88.48 112.341 88.3892 111.273 87.8617Z" fill="#010709"/>
<path d="M148.117 77.617C147.268 77.2278 146.422 76.8387 145.363 76.3543C146.816 75.8873 147.519 76.6268 148.117 77.617Z" fill="#000405"/>
<path d="M119.255 80.6045C119.175 81.24 118.786 81.4258 118.238 81.5512C118.28 80.8293 118.56 80.5181 119.255 80.6045Z" fill="#01080A"/>
<path d="M159.126 77.7681C160.704 76.7952 162.361 77.6427 162.93 79.4503C163.83 82.3303 162.78 85.02 160.746 86.3908C157.833 88.3541 156.272 90.6373 156.105 94.1357C156.075 94.7065 155.602 95.2557 155.33 95.8178C155.025 96.4448 154.146 96.8427 153.916 96.6092C153.309 95.9908 154.158 95.7876 154.506 95.407C155.318 94.5119 155.853 93.3011 155.749 92.1811C155.489 89.3703 157.222 88.0989 159.089 86.7973C161.001 85.4654 162.198 83.7876 162.14 81.1887C162.094 79.0784 161.399 77.8589 159.126 77.7681Z" fill="#020505"/>
<path d="M157.366 94.5291C157.194 94.2523 157.135 94.1961 157.127 94.1356C157.014 93.1496 157.349 92.3237 157.998 91.6318C158.04 91.5885 158.475 91.8177 158.466 91.8653C158.295 92.7647 158.266 93.7377 157.366 94.5291Z" fill="#090E0F"/>
<path d="M155.578 79.3385C156.256 77.7558 157.051 77.2066 158.529 77.1331C157.713 78.1709 156.855 78.6293 155.578 79.3385Z" fill="#060A0B"/>
<path d="M84.1295 95.2605C82.9535 93.6129 81.7439 91.9956 80.6223 90.3092C80.1243 89.5567 80.4968 88.6659 80.9906 88.147C82.2127 86.8713 82.5182 85.2454 83.0163 83.6454C83.9579 80.6227 88.5197 77.8378 91.5665 78.3178C93.9311 78.6897 94.7347 79.8659 94.9941 83.3427C94.1111 83.2303 94.3496 82.4086 94.1654 81.8854C93.3033 79.4551 91.6125 78.5384 89.1935 79.3989C86.2513 80.4454 83.8282 82.0497 83.2171 85.587C83.0707 86.4389 82.6521 87.373 82.0787 87.9913C80.7646 89.4054 81.292 90.5946 82.3341 91.667C83.2799 92.64 84.029 93.6908 84.1295 95.2605Z" fill="#020505"/>
<path d="M87.2344 101.985C89.8292 104.031 91.9134 102.617 93.9808 101.202C94.7467 100.679 95.5126 100.71 96.3496 100.965C92.8718 104.428 88.7954 105.008 87.2344 101.985Z" fill="#020505"/>
<path d="M82.5859 80.5664C83.0212 77.5567 84.5906 76.3459 87.2733 77.0334C84.9924 77.2151 83.8457 78.9664 82.5859 80.5664Z" fill="#040707"/>
<path d="M139.348 83.1554C139.557 84.4614 140.085 85.283 141.487 85.2744C143.529 85.2657 144.927 83.83 145.973 80.5219C148.899 81.6895 149.032 82.096 147.065 84.5046C146.178 85.59 145.216 86.6019 144.353 87.7219C143.039 89.4214 138.231 89.6506 136.527 88.2538C135.979 87.8041 136.519 87.2117 136.623 87.0517C137.427 85.7673 137.82 84.1717 139.348 83.1554Z" fill="#B4F4FE"/>
<path d="M147.57 79.9041C143.552 79.0825 140.606 80.743 137.965 83.4846C138.827 78.7798 144.623 76.5311 147.57 79.9041Z" fill="#258EBC"/>
<path d="M140.696 81.8247C140.83 81.8939 140.964 81.9328 141.064 82.015C142.772 83.4463 142.793 83.455 143.663 81.1458C143.806 80.7653 143.902 80.4755 144.316 80.5188C144.5 80.5361 144.772 80.6399 144.831 80.7826C145.136 81.5263 144.789 82.2009 144.433 82.7934C143.693 84.0301 142.475 84.5966 141.152 84.7307C140.428 84.8042 140.286 83.8874 140.031 83.3382C139.712 82.6334 140.005 82.1058 140.696 81.8247Z" fill="#258EBD"/>
<path d="M142.637 82.1535C142.184 82.1708 142.038 81.9978 142.021 81.6604C142.004 81.2625 142.109 80.9381 142.544 80.9511C142.72 80.9554 143.181 80.7824 143.03 81.2971C142.934 81.6129 142.754 81.9026 142.637 82.1535Z" fill="#258EBC"/>
<path d="M117.75 87.0227C120.575 83.706 129.33 82.7849 131.645 85.5438C127.016 86.0325 122.542 86.5125 117.75 87.0227Z" fill="#258EBD"/>
<path d="M117.037 88.3106C118.853 87.476 120.64 86.8101 122.511 88.2631C123.791 89.2576 125.08 88.7128 125.972 87.662C126.939 86.5203 127.993 86.3301 129.282 86.6371C128.161 90.8057 120.799 91.7917 117.016 88.2803C117.024 88.2847 117.037 88.3106 117.037 88.3106Z" fill="#B3F3FD"/>
<path d="M122.188 87.8409C123.514 87.0236 124.46 86.7684 125.561 87.1101C124.74 88.2517 123.644 87.7198 122.188 87.8409Z" fill="#248BB8"/>
</svg>
