<svg width="1745" height="818" viewBox="0 0 1745 818" fill="none" xmlns="http://www.w3.org/2000/svg">
<path d="M1 548L565 715.5L1390.5 755.5L1744 548V817H1V548Z" fill="#74ACDF"/>
<path d="M96.9078 240.847L1 1V816.192L144.905 771.491L237.66 729.674L351.311 713.812L501.251 781.104L626.877 816.192C662.899 816.192 737.284 809.174 746.649 781.104C756.015 753.034 808.486 739.607 833.552 736.403C886.383 748.099 1008.89 773.413 1076.25 781.104C1160.45 790.717 1174.86 822.44 1228.89 816.192C1272.12 811.193 1322.85 814.109 1342.81 816.192L1513.46 771.491L1606.22 755.629L1744 781.104V145.197L1695.82 240.847C1680.96 272.891 1649.98 346.495 1644.94 384.563C1639.9 422.631 1617.02 436.634 1606.22 438.877C1590.16 464.512 1552.09 517.705 1528.32 525.395C1498.6 535.008 1486.44 669.111 1450.42 688.337C1414.4 707.563 1360.37 736.403 1342.81 736.403C1328.76 736.403 1234.89 691.542 1189.72 669.111L1010.06 618.162L920.454 669.111L686.763 713.812L599.861 669.111L530.969 618.162H366.62C352.572 618.162 288.723 586.118 258.555 570.096L195.967 438.877L96.9078 240.847Z" fill="#539EE2" stroke="#539EE2" stroke-width="0.809013"/>
</svg>
