<svg width="422" height="450" viewBox="0 0 422 450" fill="none" xmlns="http://www.w3.org/2000/svg">
<path d="M330.458 321.969C329.341 322.187 328.743 323.104 328.215 323.84C324.431 329.161 318.64 332.483 314.037 336.977C311.417 335.948 311.071 333.475 310.661 331.393C308.592 320.819 304.792 310.681 302.329 300.212C301.786 297.905 301.605 295.523 301.275 293.178C300.976 291.066 300.952 288.849 303.454 287.647C306.531 286.715 309.686 287.143 312.809 287.218C314.525 287.263 315.799 288.135 316.468 289.661C320.78 299.461 325.808 308.96 330.104 318.768C330.544 319.775 331.174 320.819 330.458 321.969Z" fill="#258EBD"/>
<path d="M118.42 254.955C118.435 260.876 118.646 266.804 118.383 272.71C118.21 276.597 118.931 280.355 119.307 284.144C119.667 287.789 120.787 291.381 121.801 294.935C122.297 296.674 122.651 298.481 122.861 300.198C123.717 307.147 125.25 313.945 126.776 320.751C127.099 322.21 128.113 323.541 128.94 324.849C130.781 327.791 132.99 330.498 134.267 333.788C134.56 334.544 135.281 335.126 135.747 335.716C135.717 336.601 135.041 336.835 134.605 337.342C132.779 337.342 130.916 337.342 128.962 337.342C128.038 336.767 126.798 336.608 125.814 335.444C124.243 337.614 121.275 335.466 119.923 337.984C121.816 342.075 124.469 345.826 125.438 350.583C124.702 351.24 123.965 351.898 123.582 352.239C119.344 353.464 116.241 351.044 112.822 350.083C110.576 349.448 108.284 348.813 106.225 347.512C105.166 346.839 104.219 346.166 103.55 345.365C103.039 343.376 104.399 341.145 102.265 339.671C99.8609 340.434 97.494 341.327 94.9243 341.183C94.0677 340.571 93.4215 339.845 93.692 338.688C94.0977 336.948 94.4058 335.171 94.9844 333.485C95.33 332.472 95.4653 331.307 95.1271 330.574C93.6845 327.42 94.1428 324.055 94.5711 321C95.7809 312.516 94.9168 304.032 95.1196 295.562C95.1798 292.953 96.2542 290.549 95.9988 287.887C95.7433 285.27 95.7283 282.578 95.9988 279.962C96.3068 277.058 95.5254 274.291 95.0295 271.568C94.7214 269.875 94.5035 268.211 94.4584 266.517C94.3833 263.772 94.4359 261.02 94.2405 258.222C92.8805 261.556 91.0772 264.611 89.5593 267.818C87.0572 273.088 84.9158 278.465 83.8713 284.28C83.3379 287.244 82.7593 290.186 82.3385 293.188C81.5045 299.124 80.8357 305.113 79.0624 310.875C77.8377 314.853 77.1164 318.974 75.6512 322.876C75.5685 323.095 75.6512 323.375 75.6512 323.624C75.6512 325.008 75.9742 326.505 75.561 327.753C75.1101 329.099 75.7037 330.218 75.6361 331.436C75.4858 334.098 76.658 336.321 77.7175 338.703C76.9586 339.633 76.1696 339.928 74.6894 339.194C71.6989 337.72 68.543 336.54 65.0941 336.684C63.674 336.601 62.4793 335.164 60.8488 336.033C60.5633 336.359 60.2402 336.737 59.8344 337.198C62.1036 340.374 58.7825 343.565 59.9396 346.613C57.4525 350.204 53.6956 350.371 50.1415 350.991C48.2255 351.324 46.1667 350.371 44.3333 351.702C43.9425 351.989 43.4391 351.482 43.0258 351.195C42.3421 350.726 41.9063 351.293 41.5531 351.603C40.118 351.014 38.8707 350.242 38.0742 348.949C38.0742 348.291 38.0742 347.656 38.0742 347.021C41.6132 342.695 46.347 339.467 49.2924 334.899C49.2924 333.394 49.2924 332.154 49.2924 330.922C42.4623 329.848 41.8086 330.581 36.2859 332.079C35.6923 331.519 35.0611 330.922 34.4224 330.309C33.8364 327.186 36.1131 325.318 37.6234 323.231C38.8631 321.53 39.855 319.791 40.4411 317.787C43.2062 313.892 44.6338 309.348 46.2493 304.947C46.8279 303.374 47.6093 301.922 48.233 300.394C49.9912 296.084 52.4332 292.099 54.4019 287.902C56.1075 284.265 57.7981 280.605 59.5263 276.975C62.5169 270.691 66.5067 264.982 70.3313 259.197C71.9994 256.679 72.856 253.911 73.5398 250.932C74.2235 247.953 73.9305 245.049 74.1935 242.115C74.5241 241.827 74.9073 241.744 75.328 241.865C76.9586 243.03 76.658 244.739 76.4852 246.334C75.854 252.18 74.1709 257.685 70.8422 262.57C61.0892 276.892 54.4169 292.81 47.4515 308.554C44.5061 315.208 41.4855 321.794 37.7361 327.602C37.8713 328.366 38.0516 328.623 38.3146 328.577C45.2199 327.239 51.6217 328.585 57.9184 331.663C62.8625 334.075 68.4904 334.483 74.1108 336.17C72.1948 329.235 73.1716 322.702 75.1627 316.297C77.9429 307.359 79.3405 298.156 80.6404 288.93C81.8276 280.499 84.4274 272.521 88.3421 264.967C90.6639 260.498 92.625 255.87 94.4434 251.174C95.3225 248.905 96.134 246.47 98.4408 244.852C100.169 246.38 99.6956 247.96 99.0719 249.435C95.7658 257.284 95.5554 265.292 97.5917 273.482C99.6806 281.868 97.9749 290.284 97.5316 298.67C97.3437 302.224 97.757 305.703 97.7871 309.219C97.8246 313.9 97.2235 318.497 96.7727 323.133C96.3068 327.965 98.3882 332.774 96.2768 338.423C103.678 336.359 110.425 338.075 116.79 335.746C121.185 334.135 125.626 332.88 130.315 334.619C130.781 334.793 131.307 334.657 131.742 334.241C131.96 332.729 130.998 331.61 130.187 330.566C125.288 324.297 123.319 316.947 122.155 309.272C121.095 302.3 119.495 295.434 118.135 288.515C116.098 278.117 115.813 267.538 116.023 256.951C116.046 255.946 116.196 254.932 117.045 254.206C117.789 253.858 118.105 254.41 118.42 254.955Z" fill="#010607"/>
<path d="M330.288 321.446C327.332 314.639 324.078 307.96 320.93 301.235C319.046 297.208 316.955 293.21 315.692 288.899C315.569 288.473 315.025 288.167 314.658 287.778C311.211 287.778 307.773 287.778 304.342 287.778C303.806 288.189 303.254 288.182 302.695 287.823C302.734 285.492 304.579 285.559 306.188 285.343C308.156 285.081 310.239 285.701 312.513 284.588C310.66 279.104 308.34 273.889 306.341 268.569C305.782 267.082 304.686 265.685 305.598 263.974C305.904 263.682 306.264 263.593 306.678 263.697C309.098 265.939 309.894 269.032 310.959 271.916C317.69 290.184 326.367 307.631 334.608 325.257C336.185 328.634 337.342 332.183 339.027 335.836C345.268 335.089 351.295 335.44 357.093 337.607C357.369 337.958 357.376 338.317 357.116 338.676C355.883 338.676 354.658 338.676 353.333 338.676C353.371 340.043 353.953 341.067 354.696 341.702C356.924 343.607 357.353 345.983 357.154 348.643C357.116 349.129 357.147 349.622 357.147 350.279C354.887 352.312 352.314 353.275 349.266 352.013C346.172 350.728 342.672 350.13 340.39 347.156C339.861 343.771 340.987 340.753 343.315 338.048C341.883 337.6 340.826 338.026 339.624 338.504C338.039 339.139 336.821 338.489 336.499 336.882C335.443 331.578 332.831 326.915 330.373 322.178C330.281 321.969 330.319 321.693 330.288 321.446Z" fill="#020708"/>
<path d="M305.813 262.857H305.452L305.092 262.873C300.935 260.634 300.743 256.316 299.393 253.781C299.884 255.694 300.145 258.866 300.429 262.03C301.18 270.37 302.837 278.657 301.97 287.096C302.523 287.111 303.075 287.134 303.627 287.149C303.604 288.044 302.714 287.779 302.032 288.295C302.4 290.283 301.61 292.415 302.753 294.624C303.504 296.066 302.139 298.099 303.497 299.64C304.402 306.181 307.009 312.26 308.72 318.574C309.211 320.38 309.456 322.353 309.793 324.25C310.537 328.469 311.412 332.696 313.605 336.491C313.759 338.039 312.447 338.6 311.596 339.435C309.525 339.769 307.354 338.98 305.368 340.088C305.222 340.171 304.777 339.731 304.471 339.534C301.188 339.974 301.311 338.008 301.771 335.808C304.57 333.964 307.055 337.174 309.732 336.354C310.445 335.853 310.376 335.201 310.185 334.609C307.308 325.844 306.219 316.623 303.167 307.889C299.961 298.729 299.708 289.084 298.68 279.56C297.3 266.796 297.085 253.88 293.726 241.359C293.166 239.287 291.931 237.435 291.777 235.25C291.754 234.878 291.808 234.498 292.552 234.013C293.825 234.051 294.707 235.166 295.175 236.403C298.366 244.789 301.963 252.985 305.936 261.029C306.204 261.605 306.181 262.273 305.813 262.857Z" fill="#020D0F"/>
<path d="M302.091 336.635C301.822 337.936 302.679 338.905 303.038 340.112C303.418 340.149 303.84 340.192 304.255 340.228C304.034 340.886 304.455 341.689 303.902 342.267C303.239 342.961 303.218 344.067 303.522 344.588C305.222 347.494 302.962 349.382 301.856 351.37C301.324 352.331 299.645 352.968 298.235 352.31C297.039 351.753 295.85 351.247 294.537 351.102C292.36 351.102 290.19 351.102 287.923 351.102C287.142 350.256 286.347 349.396 285.531 348.514C285.531 347.574 285.531 346.627 285.531 345.622C287.812 342.997 290.646 340.807 292.312 337.322C291.109 337.322 289.982 337.343 288.856 337.307C288.503 337.293 288.261 337.025 288.296 336.599C290.487 335.203 292.733 335.001 295.055 336.23C294.15 339.317 291.973 341.551 290.217 344.067C289.492 345.108 288.317 345.817 288.04 347.162C288.745 348.796 290.127 348.593 291.33 348.637C293.397 348.716 295.436 348.839 297.495 349.143C300.806 349.635 302.465 347.292 301.138 343.988C300.301 341.898 299.562 339.729 298.283 337.849C297.862 337.228 297.509 336.606 298.394 336.056C299.728 335.579 301.006 335.449 302.091 336.635Z" fill="#010405"/>
<path d="M357.267 339.339C357.274 339.075 357.29 338.811 357.297 338.548C350.241 326.537 346.345 313.269 341.375 300.431C339.899 296.613 337.193 293.217 337.023 288.925C337.302 288.563 337.626 288.518 337.997 288.789C339.837 290.845 340.656 293.428 341.839 295.83C342.905 297.991 343.184 300.506 344.923 302.374C345.263 305.626 346.701 308.541 347.829 311.553C349.661 316.432 351.408 321.349 353.487 326.131C355.342 330.4 357.05 334.79 360.428 338.314C360.389 338.759 360.343 339.241 360.289 339.873C359.191 339.798 358.086 340.701 357.267 339.339Z" fill="#051012"/>
<path d="M338.632 288.326L338.266 288.334L337.901 288.326C337.565 288.021 337.36 287.641 337.284 287.191C337.23 286.498 337.428 285.881 337.847 285.332C339.47 283.824 339.76 281.897 339.798 279.787C339.905 274.066 339.714 268.367 338.975 262.7C337.596 252.141 339.265 241.712 340.126 231.246C340.636 225.052 340.743 218.844 341.269 212.65C341.383 211.287 341.452 209.847 340.118 208.095C332.201 207.188 323.88 205.87 315.422 206.708C314.309 209.999 316.13 211.866 317.769 213.778C321.8 218.47 323.408 223.932 322.813 230.027C322.539 232.838 321.845 235.55 319.339 237.347C318.95 237.546 318.538 237.591 318.119 237.485C317.052 236.296 317.792 235.131 318.18 233.973C320.276 227.741 319.704 221.876 315.742 216.497C315.353 216.177 314.98 215.591 314.5 215.69C307.032 217.183 299.466 214.707 291.998 216.261C287.921 217.114 283.73 216.993 279.456 217.061C279.745 217.686 279.943 217.998 280.088 218.349C281.886 225.928 281.917 233.691 282.58 241.37C284.028 258.144 285.117 274.942 286.893 291.686C287.335 295.86 287.182 300.035 287.121 304.217C287.106 305.36 286.954 306.51 285.994 307.333C285.544 307.371 285.224 307.089 285.254 306.716C285.673 300.957 283.936 295.296 284.508 289.537C284.63 288.265 284.515 287.069 283.692 286.025C282.008 284.075 282.763 281.668 282.473 279.467C280.149 261.778 279.867 243.914 277.985 226.187C277.596 222.546 277.086 219.072 275.089 215.728C273.36 212.833 272.956 209.268 274.015 205.81C274.205 205.406 274.525 205.162 274.967 205.071C277.68 207.257 276.263 210.837 278.046 213.907C288.821 214.898 299.732 210.456 311.01 213.153C310.812 203.92 311.947 195.335 314.195 186.026C311.269 188.959 308.754 190.025 305.508 188.228C303.817 187.291 302.468 188.906 301.089 189.759C297.904 191.739 295.275 194.764 291.19 195.061C289.522 193.309 291.373 192.684 292.326 192.075C295.427 190.094 298.429 187.999 301.386 185.813C302.498 184.99 303.74 184.289 304.266 182.91C303.39 177.875 300.578 176.115 296.12 177.806C295.298 178.119 294.505 178.629 293.659 177.89C293.911 172.382 298.879 166.12 303.512 165.679C303.74 167.438 302.399 168.368 301.553 169.533C300.67 170.745 299.496 171.773 298.963 173.586C305.432 174.317 307.047 179.665 309.501 185.302C313.677 181.402 319.102 179.688 321.67 174.477C323.369 171.034 322.958 169.343 319.613 167.598C313.745 164.528 308.069 161.276 303.245 156.613C300.913 154.366 298.643 154.755 296.456 157.55C293.667 161.116 290.276 163.546 285.742 164.163C282.801 164.566 280.477 163.5 279.006 160.902C277.703 158.609 278.107 154.328 279.692 152.591C280.202 152.035 280.812 151.517 281.658 152.081C282.412 153.505 281.528 154.785 281.307 156.118C280.789 159.318 282.595 161.291 285.795 161.009C291.19 160.537 294.078 156.751 293.042 151.388C292.326 147.655 291.708 143.907 291.015 140.174C290.764 138.833 290.284 137.378 291.884 136.434C293.583 136.487 293.789 137.889 294.17 139.062C294.642 140.509 294.955 142.018 295.13 143.526C295.663 148.234 296.73 152.317 302.757 152.37C304.114 152.378 305.341 153.414 306.331 154.419C310.316 158.465 315.186 161.146 320.192 163.683C327.126 167.202 328.048 170.828 323.903 177.441C323.293 178.408 322.623 179.33 321.838 180.168C317.327 184.982 314.454 195.152 315.719 202.374C324.794 202.869 333.915 204.217 342.785 203.105C344.149 201.833 344.324 200.553 344.317 199.289C344.301 195.099 344.881 190.939 345.056 186.765C346.153 160.651 345.925 134.514 345.894 108.385C345.894 107.257 345.963 106.092 344.873 104.622C327.263 103.845 309.333 103.311 291.533 106.663C294.932 106.915 298.178 105.909 301.462 105.277C303.641 104.858 306.004 103.456 307.764 105.848C309.593 108.339 309.036 111.447 307.368 113.336C304.373 116.719 303.977 120.474 303.184 124.634C302.003 130.812 297.263 134.682 291.312 136.815C290.04 137.866 288.561 137.873 287.045 137.637C284.188 137.058 281.406 136.845 278.419 137.416C274.045 138.254 270.7 133.722 272.262 129.517C272.895 127.818 274.045 126.462 275.219 125.121C277.726 122.257 279.12 118.882 279.517 115.142C280.05 110.084 277.116 107.356 272.057 107.212C261.16 106.884 250.271 106.32 239.359 106.564C237.736 106.602 236.045 106.267 234.46 107.219C233.423 108.971 233.614 110.784 234.391 112.78C237.256 114.35 240.228 113.55 243.154 112.841C245.372 112.3 247.459 111.302 249.723 110.914C255.582 109.908 261.846 113.39 264.627 119.202C266.997 124.154 265.831 130.339 261.77 133.813C258.211 136.86 254.211 137.462 250.675 135.977C259.194 143.13 269.824 146.169 281.97 144.905C284.127 143.381 283.311 139.694 285.955 138.125C286.717 138.049 287.373 138.544 287.266 139.13C286.397 143.854 286.024 148.805 281.856 152.165C280.538 151.685 281.079 150.093 279.837 149.072C274.998 147.228 269.321 149.552 264.033 147.396C260.352 150.565 258.554 154.861 256.382 159.272C261.732 164.643 270.395 165.564 274.434 172.969C271.234 174.173 270.06 171.301 267.843 170.333C269.542 176.991 270.38 183.611 272.171 189.721C274.51 191.122 275.905 189.903 277.299 188.799C281.467 185.493 285.658 182.217 289.903 179.01C290.985 178.187 292.112 176.656 293.812 178.119C293.766 180.015 292.356 180.998 291.091 182.011C288.028 184.457 284.851 186.78 281.924 189.37C278.29 192.577 274.396 194.002 269.473 193.446C262.181 192.631 254.896 191.823 247.863 189.644C246.172 189.119 243.977 188.806 244.091 186.171C245.516 185.31 246.781 186.171 248.069 186.59C254.142 188.54 260.459 189.218 266.738 190.056C267.241 190.124 267.751 190.063 268.567 189.34C267.111 182.712 266.067 175.727 264.2 168.901C263.797 167.438 262.387 166.867 261.168 166.181C259.407 165.199 257.442 164.49 256.344 162.616C255.636 160.575 253.151 160.978 251.917 159.257C251.544 157.893 251.559 156.354 252.649 154.854C246.507 148.104 239.093 142.757 232.707 135.405C232.707 139.062 232.54 142.094 232.745 145.095C233.134 150.763 231.092 156.301 232.098 161.641C231.45 163.218 230.406 163.82 229.248 163.355C226.207 162.121 223.06 162.929 219.989 162.616C217.086 162.319 214.404 163.713 211.478 163.454C208.582 163.195 205.641 163.401 202.677 163.401C202.342 163.081 201.976 162.731 201.625 162.403C201.686 161.618 202.38 162.022 202.677 161.755C203.599 158.129 203.881 154.45 203.782 150.717C203.66 146.063 201.595 142.109 199.438 138.216C198.318 136.182 195.941 135.581 194.036 134.514C193.358 134.133 192.253 134.285 191.407 134.484C187.551 135.382 183.368 140.334 183.208 144.349C183.071 147.899 182.834 151.502 183.276 154.998C183.68 158.183 184.183 161.436 185.555 164.536C185.159 164.894 184.785 165.237 184.214 165.747C181.067 165.382 177.76 166.082 174.384 165.077C172.807 164.605 170.841 164.848 168.905 165.511C166.749 166.258 164.143 165.679 161.598 165.679C160.302 166.837 158.71 167.515 156.957 168.162C154.283 169.145 151.844 170.859 149.413 172.436C145.436 175.011 141.595 177.799 137.602 180.343C135.476 181.691 133.152 182.72 130.645 184.03C131.499 185.904 128.839 187.351 130.31 189.523C131.362 191.077 130.272 193.08 131.042 194.969C131.781 196.76 132.451 198.519 134.173 200.248C130.287 201.262 127.079 200.805 123.826 199.342C123.826 200.53 123.826 201.627 123.826 202.709C124.298 202.938 124.732 203.136 125.342 203.425C123.818 207.783 124.603 212.3 124.557 216.764C124.542 218.425 123.521 219.758 123.673 221.441C123.803 222.874 124.176 224.473 122.949 225.73C123.528 228.016 122.446 230.141 122.081 232.289C121.7 234.536 121.867 236.921 120.861 239.061C120.808 239.176 120.663 239.267 120.663 239.366C120.892 244.341 119.01 249.094 119.109 254.053C118.568 254.046 118.377 253.726 118.362 253.238C116.83 251.456 117.432 249.406 117.646 247.418C118.888 236.197 121.494 225.166 122.347 213.884C122.484 212.125 122.964 210.357 121.905 208.72C120.473 207.615 118.964 208.179 117.509 208.537C106.78 211.165 96.8509 210.342 88.6366 201.955C88.3699 201.681 87.9889 201.574 87.1126 201.513C82.6701 204.652 79.5916 209.177 77.9762 214.646C75.8426 221.86 74.3339 229.181 75.7741 236.784C76.056 238.262 76.1779 239.838 74.9663 241.095L74.593 241.103H74.2196C74.5244 238.833 73.1147 236.822 73.3662 234.506C73.6024 232.373 73.389 230.194 73.4195 228.038C73.5186 221.388 75.0806 215.126 77.9381 209.1C79.6983 205.391 82.5558 202.709 85.3066 199.852C86.2134 198.908 87.8212 198.291 87.0745 196.607C88.0346 195.845 88.9718 196.371 89.7872 196.089C90.1834 195.861 90.1453 195.472 90.1453 195.045C89.1166 194.116 87.7374 195.03 86.4877 194.367C85.5733 190.429 88.6899 187.984 89.9472 185.363C90.5949 180.846 91.3569 176.778 90.7778 172.238C90.2977 171.103 89.33 169.693 89.2157 168.162C87.5621 167.461 86.9449 168.665 86.0686 169.35C84.9409 168.124 84.9409 166.639 84.7961 165.092C84.4989 161.938 85.2076 158.884 85.7181 155.867C86 154.214 86.4344 152.294 87.806 150.938C89.1318 149.628 90.3129 148.142 92.6294 147.442C94.1001 147.502 96.0508 147.144 97.971 148.135C99.1597 148.744 100.249 147.563 101.377 147.274C101.789 146.375 101.674 145.522 101.438 144.356C100.745 144.92 100.143 145.408 99.5483 145.895C96.1117 145.895 92.6828 145.91 89.2538 145.895C85.9086 145.88 82.8911 144.6 79.7364 143.435C79.3173 142.094 79.5612 141.027 80.5746 139.786C82.3348 137.637 83.8969 135.276 85.2457 132.838C86.5792 130.438 87.6841 127.886 88.6366 125.312C89.6805 122.485 91.113 119.865 92.5608 117.252C93.2619 115.987 93.9553 114.7 94.7935 113.519C98.0853 108.857 102.49 105.239 106.452 101.049C107.145 101.049 107.885 101.049 108.807 101.049C110.437 101.955 111.184 103.921 112.548 105.322C113.828 106.64 114.773 108.43 116.754 108.781C117.12 110.213 115.68 110.457 115.261 111.607C117.006 114.555 118.979 117.587 120.64 120.787C122.256 123.895 124.869 126.195 127.011 129.113C124.862 131.97 121.73 133.288 118.735 134.217C116.381 134.948 113.661 136.411 110.757 134.4C110.834 138.178 111.695 141.561 112.418 144.89C114.743 145.887 116.175 143.945 118.057 143.488C119.269 141.766 119.185 139.359 120.808 137.721C121.623 136.898 122.713 136.647 123.795 135.862C124.786 136.67 125.921 137.386 126.226 138.932C131.202 136.022 136.162 133.128 140.94 130.339C142.052 126.119 141.496 121.792 142.174 117.671C142.906 113.26 142.19 108.88 142.845 104.583C143.759 98.573 143.287 92.5549 143.622 86.552C143.721 84.7542 144.91 82.7812 144.186 81.1433C143.081 78.6447 143.889 76.2374 143.416 73.5331C148.491 73.5331 153.368 72.9694 158.047 73.6931C162.832 74.432 167.556 73.9368 172.281 74.333C174.087 74.4853 175.542 73.2436 177.363 73.495C178.986 73.7159 180.663 73.6016 182.309 73.5255C185.562 73.3807 188.664 74.63 191.963 74.3558C195.118 74.0892 198.379 73.8759 201.465 74.4091C209.131 75.727 216.812 74.6681 224.47 75.0567C225.08 75.0871 225.811 75.1557 226.291 74.8738C228.829 73.4036 230.726 74.592 232.639 76.1536C232.639 85.3331 232.639 94.4517 232.639 103.547C233.561 104.378 234.62 103.982 235.58 103.989C244.594 104.027 253.609 103.974 262.623 104.035C264.574 104.05 266.509 103.761 268.513 104.644C269.694 105.17 271.584 105.269 272.895 104.439C273.87 103.822 274.853 104.264 276.034 103.822C276.049 101.62 276.385 99.3881 277.154 97.1789C278.099 94.4593 280.675 94.5203 282.625 93.4919C283.448 94.5736 285.681 93.6366 286.039 95.6249C285.765 95.8991 285.43 96.0972 285.049 96.12C278.854 96.4857 276.674 100.439 279.89 105.993C281.536 108.842 283.517 111.455 283.227 114.913C285.087 115.667 286.375 114.586 287.746 114.113C289.423 113.534 291.061 112.818 292.829 112.597C296.547 112.14 298.566 114.327 297.698 118.143C296.989 121.259 296.166 124.298 297.721 127.467C299.428 126.264 300.304 124.504 300.174 122.47C299.93 118.433 301.241 115.05 303.801 112.011C304.586 111.074 305.348 109.962 304.815 108.293C301.957 108.042 299.222 108.857 296.501 109.748C294.939 110.259 293.423 110.967 291.739 110.899C289.293 110.8 287.441 109.741 287.449 107.082C287.457 103.182 286.992 99.3652 286.024 95.602C288.386 95.5944 288.607 97.5522 289.026 99.1138C289.491 100.858 289.643 102.679 290.893 103.936C291.937 104.271 292.257 103.136 293.095 103.235C297.241 103.723 301.325 102.908 305.386 102.42C316.976 101.018 328.589 102.092 340.187 101.712C340.911 101.689 341.604 101.689 342.366 101.437C346.214 100.165 348.973 101.582 349.148 105.49C349.293 108.918 350.146 112.506 348.569 115.911C348.279 116.536 348.508 117.412 348.508 118.166C348.508 129.212 348.569 140.25 348.447 151.296C348.424 153.216 349.293 154.854 349.346 156.743C349.414 159.516 348.157 162.06 348.454 164.871C348.736 167.507 349.026 170.326 348.393 172.832C347.41 176.717 347.708 180.572 347.829 184.403C347.997 189.942 346.595 195.358 346.9 200.904C346.976 202.191 346.641 203.875 345.467 204.88C344.644 205.581 344.896 206.83 343.639 207.325C345.063 208.788 345.132 210.654 344.583 212.003C343.623 214.364 344.088 216.688 343.959 219.019C343.852 220.916 344.05 222.835 343.905 224.725C343.768 226.553 344.271 228.351 343.28 230.24C342.48 231.771 343.814 233.965 342.427 235.641C342.305 235.793 342.396 236.136 342.412 236.388C342.762 240.905 341.878 245.354 341.688 249.841C341.497 254.274 341.063 258.822 341.779 263.149C342.983 270.439 341.878 277.699 342.488 284.7C341.436 286.262 339.836 286.399 338.617 287.244C338.632 287.564 338.632 287.945 338.632 288.326Z" fill="#000303"/>
<path d="M284.786 307.461C284.794 303.072 284.701 298.675 284.856 294.294C284.925 292.292 283.798 290.577 283.952 288.523C284.091 286.634 284.732 284.534 283.265 282.759C283.141 282.608 283.234 282.268 283.265 282.019C283.86 277.796 282.709 273.657 282.323 269.51C281.944 265.438 282.238 261.321 281.558 257.355C281.072 254.515 281.419 251.675 280.856 248.948C280.176 245.632 280.701 242.24 280.006 239.06C279.411 236.333 279.365 233.681 279.473 231.022C279.543 229.338 278.647 227.993 278.577 226.399C278.508 224.843 279.072 223.272 278.006 221.693C277.473 220.908 277.89 219.518 277.882 218.392C282.454 216.828 287.234 217.705 291.914 217.297C299.815 216.609 307.784 217.992 315.692 216.851C318.31 219.827 319.592 223.272 319.554 227.2C319.538 229.073 319.554 230.939 319.554 232.767C318.851 234.58 317.415 236.023 317.191 237.995C316.225 238.236 316.804 238.591 317.098 238.961C321.523 244.468 324.442 250.617 326.404 257.393C328.844 265.838 331.74 274.185 335.447 282.208C336.296 284.043 336.636 286.022 337.3 287.903C337.293 288.145 337.323 288.379 337.378 288.613C340.505 295.284 343.293 302.09 345.811 308.994C347.633 314.002 349.301 319.063 351.487 323.943C352.707 326.655 353.657 329.473 354.993 332.154C356.074 334.337 357.642 336.143 358.87 338.386C358.375 338.439 357.881 338.485 357.395 338.537C354.398 338.447 351.518 337.759 348.599 337.178C346.498 336.755 344.312 336.792 342.196 337.231C341.756 337.321 341.393 337.767 340.83 337.729C340.065 337.676 339.3 337.714 339.038 337.714C336.574 337.087 337.64 335.297 337.107 334.118C335.733 331.074 334.636 327.917 333.107 324.925C329.524 317.9 326.635 310.573 323.021 303.548C319.754 297.21 317.175 290.525 314.457 283.93C312.418 278.982 310.665 273.929 308.742 268.928C308.055 267.138 306.657 265.649 306.348 263.693C304.587 260.279 302.649 256.932 301.12 253.42C299.421 249.499 297.428 245.684 296.355 241.507C295.745 239.128 294.54 236.952 292.833 234.943C292.694 235.373 292.486 235.668 292.563 235.819C293.281 237.209 294.208 238.516 294.749 239.959C295.189 241.122 294.926 242.565 295.59 243.645C296.463 245.05 295.976 246.772 296.95 248.094C297.081 248.275 297.173 248.562 297.143 248.774C296.633 251.901 298.363 254.855 297.899 257.944C297.614 259.871 298.911 261.434 298.788 263.361C298.672 265.136 298.031 267.123 299.475 268.762C299.537 268.83 299.49 269.011 299.475 269.132C298.927 272.758 300.432 276.248 300.224 279.836C299.992 283.696 300.834 287.488 301.236 291.25C301.66 295.253 301.846 299.4 303.274 303.344C304.61 307.03 305.383 310.913 306.518 314.667C307.421 317.658 308.132 320.68 308.85 323.717C309.8 327.75 309.931 332.064 312.387 335.69C312.572 335.961 312.565 336.385 312.588 336.74C312.619 337.215 312.596 337.699 312.596 338.281C309.321 338.991 306.75 337.291 304.016 336.422C303.498 336.256 303.05 336.256 302.556 336.249C301.027 336.241 299.49 336.233 297.961 336.226C296.911 337.11 295.853 337.11 294.803 336.226C293.621 335.954 292.524 335.742 291.227 336.113C289.968 336.475 288.524 336.203 287.157 336.218C286.261 336.218 285.373 336.218 284.493 336.218C284.068 335.463 283.667 334.745 283.257 334.028C283.945 331.882 284.84 329.79 284.81 327.471C284.779 325.227 285.057 322.946 284.717 320.748C284.485 319.222 286.007 318.051 285.25 316.646C284.423 315.105 284.933 313.504 284.825 311.94C284.725 310.459 284.794 308.956 284.786 307.461Z" fill="#15CDEB"/>
<path d="M273.319 205.838C273.025 209.375 274.269 212.749 274.276 216.186C274.782 216.901 275.513 216.332 276.222 216.839C277.202 220.414 278.159 224.266 277.88 228.225C277.715 230.554 278.778 232.599 278.748 234.875C278.717 236.958 278.092 239.172 279.441 241.125C279.554 241.294 279.464 241.624 279.441 241.878C278.966 247.705 280.376 253.433 280.338 259.267C280.316 262.988 280.708 266.786 281.1 270.499C281.364 272.975 281.175 275.588 281.831 277.887C282.744 281.054 282.239 284.137 282.412 287.258C281.59 287.812 280.753 288.112 279.69 288.088C276.063 287.996 272.429 288.05 268.795 288.05C268.199 288.05 267.506 287.858 267.355 288.773C266.254 290.156 264.625 289.995 263.178 290.103C254.68 290.725 246.168 291.194 237.663 291.725C234.783 291.902 234.27 289.849 233.9 287.497C232.604 279.217 233.358 270.891 233.146 262.589C233.094 260.551 233.282 258.468 231.827 256.692C230.643 255.785 229.211 256.108 227.861 256.085C223.842 256.008 219.816 256.262 215.805 255.962C211.741 255.654 209.14 252.679 209.079 248.605C209.019 244.484 211.484 241.378 215.533 241.002C219.786 240.602 224.031 240.686 228.261 241.709C232.325 242.685 233.923 241.378 233.855 237.089C233.765 230.962 232.769 224.865 233.139 218.707C233.214 217.431 233.116 216.147 233.207 214.864C233.561 209.805 234.406 208.975 239.254 207.86C241.252 207.399 243.227 207.36 245.225 207.33C252.863 207.207 260.516 207.66 268.147 206.899C259.589 207.683 251.023 207.207 242.458 207.299C240.913 207.314 239.518 207.899 238.017 208.06C235.295 208.344 233.493 207.376 233.516 204.385C233.546 199.281 232.589 194.184 233.275 189.071C236.803 188.249 240.204 189.233 243.325 190.54C252.826 194.53 261.858 199.642 271.622 203.048C272.866 203.486 274.043 204.109 273.319 205.838Z" fill="#63E8FD"/>
<path d="M233.95 188.462C233.745 188.577 233.358 188.684 233.358 188.806C233.289 191.468 232.712 194.283 233.381 196.754C234.034 199.163 233.775 201.458 233.98 203.798C234.034 204.418 233.988 205.045 233.988 205.695C234.375 206.093 234.725 206.453 234.915 206.651C238.408 207.386 241.469 205.848 244.735 205.948C252.314 206.177 259.909 206.024 267.504 206.017C268.855 206.017 270.283 206.376 271.225 205.099C271.878 205.649 272.448 205.909 272.607 206.827C266.934 206.483 261.42 208.074 255.762 207.615C253.628 207.439 251.464 207.577 249.314 207.585C244.712 207.615 240.087 207.263 235.363 208.701C234.672 210.468 234.011 212.419 233.996 214.522C233.965 219.112 233.586 223.739 234.11 228.267C234.558 232.161 234.58 236.023 234.732 239.962C233.396 241.638 231.808 242.999 229.477 242.731C228.55 242.624 227.616 242.181 226.735 241.898C224.647 241.225 222.581 241.27 220.485 241.248C218.464 241.232 216.437 241.24 214.401 241.24C211.325 242.731 211.325 242.731 209.655 245.546C209.655 246.877 209.655 248.269 209.655 249.707C210.429 251.887 211.925 253.409 214.166 254.274C220.302 254.274 226.5 254.274 232.887 254.274C233.51 256.974 234.11 259.697 233.973 262.58C233.836 265.502 233.943 268.439 233.95 271.369C233.95 274.429 233.905 277.488 233.965 280.54C234.018 283.393 235.287 286.131 234.656 288.862C235.302 289.826 236.069 290.652 236.927 290.155C239.069 288.923 241.332 289.413 243.512 289.474C249.534 289.642 255.458 288.365 261.496 288.51C263.342 288.556 265.369 287.937 267.344 287.852C272.364 287.852 277.392 287.852 282.412 287.852C281.402 288.709 280.566 289.551 279.268 289.443C272.243 288.87 265.278 290.139 258.276 290.377C253.955 290.522 249.534 290.468 245.266 291.119C242.023 291.616 238.841 291.562 235.522 291.761C234.292 292.327 232.849 292.755 232.029 294.071C230.373 293.78 228.717 294.492 227.229 293.291C226.766 292.916 225.641 292.993 225.019 293.283C222.505 294.484 219.87 293.903 217.287 293.995C214.637 294.086 211.956 294.201 209.32 293.956C206.898 293.727 204.726 294.859 202.356 294.782C199.956 294.706 197.541 294.629 195.149 294.805C190.379 295.142 185.754 293.681 180.977 293.956C176.185 294.224 171.286 294.568 166.57 293.887C157.281 292.541 147.993 293.88 138.5 293.069C137.809 292.633 137.436 291.876 137.459 290.698C137.543 286.108 136.973 281.45 137.611 276.953C138.72 269.12 137.49 261.257 138.371 253.509C139.388 244.529 138.72 235.572 138.971 226.607C139.016 224.848 140.049 223.349 139.829 221.513C139.639 219.953 139.882 218.4 140.398 216.779C140.983 214.928 140.512 212.74 140.535 210.705C140.55 209.229 140.14 207.653 141.644 206.468C142.829 205.221 144.545 205.282 146.284 205.29C157.661 205.313 169.038 205.305 180.605 205.305C181.076 203.362 180.02 201.726 179.648 200.043C178.866 196.509 177.825 192.899 178.592 189.388C179.997 182.97 183.073 177.532 189.908 175.551C190.82 175.291 191.602 174.488 193.144 174.801C194.093 175.298 195.635 175.826 196.82 176.79C198.726 178.35 200.093 180.224 200.792 182.825C202.159 187.889 202.136 188.409 201.414 193.579C201.126 195.629 200.427 197.626 200.419 199.783C200.412 201.756 199.569 203.73 199.098 205.695C199.204 205.795 199.326 205.978 199.387 205.955C202.629 204.8 205.834 206.345 209.085 206.108C212.358 205.871 215.662 206.055 218.951 206.055C222.368 206.055 225.786 206.055 229.203 206.055C230.449 206.055 231.702 206.055 232.902 206.055C233.168 205.313 232.424 205.145 232.424 204.709C232.408 199.232 232.416 193.748 232.416 188.195C231.277 186.206 228.284 186.573 227.176 183.949C227.176 182.947 227.176 181.563 227.176 179.934C227.601 178.61 228.459 177.295 229.849 176.255C230.411 176.255 231.034 176.255 231.657 176.255C231.854 176.576 231.869 176.912 231.702 177.249C227.829 181.418 227.95 182.634 232.553 185.655C233.289 186.137 234.072 186.558 234.315 187.514C234.337 187.881 234.224 188.202 233.95 188.462Z" fill="#000303"/>
<path d="M232.484 177.009C232.528 176.777 232.543 176.545 232.521 176.313C232.916 175.431 233.545 174.65 233.274 173.536C233.048 172.6 233.903 172.275 234.357 171.648C235.915 171.648 237.495 171.494 239.038 171.695C240.531 171.88 241.672 170.766 243.128 170.836C244.378 170.898 245.6 170.689 246.902 170.271C249.806 169.343 251.869 167.401 253.537 165.057C254.1 164.26 255.095 163.526 255.219 162.342C256.711 161.847 257.245 163.471 258.255 164.013C260.091 164.988 262.146 165.63 263.653 167.007C265.248 175.253 266.813 183.353 268.371 191.406C267.42 191.994 266.44 192.033 265.826 191.6C265.036 191.043 264.297 190.973 263.456 190.996C262.036 191.027 260.691 190.919 259.308 190.292C258.174 189.774 256.645 190.78 255.555 189.519C251.24 189.758 247.48 187.623 243.515 186.355C242.359 185.403 242.828 183.655 241.942 182.703C238.929 180.359 233.604 182.626 232.484 177.009Z" fill="#258EBD"/>
<path d="M74.6095 241.662C75.0899 238.137 73.6952 234.779 73.7185 231.254C73.7495 226.882 74.625 222.663 75.516 218.474C76.4147 214.239 78.096 210.188 80.7535 206.586C82.6594 204 85.2782 202.138 87.2694 199.689C89.6789 201.688 91.5151 204.114 94.1804 205.732C97.3182 207.639 100.487 209.074 104.283 208.898C105.632 208.837 107.026 208.509 108.367 209.47C108.955 209.898 110.242 209.882 110.978 209.554C113.589 208.379 116.54 208.685 119.167 207.494C120.221 207.021 121.677 207.418 123.018 207.418C123.661 207.922 124.335 208.486 124.172 209.539C123.87 211.485 124.792 213.537 123.482 215.437C123.118 215.964 123.304 216.933 123.413 217.673C123.777 220.198 122.708 222.564 122.646 225.028C122.584 227.508 121.7 229.789 121.251 232.162C120.84 234.314 120.879 236.549 120.329 238.724C119.516 241.929 119.764 245.286 118.826 248.521C118.346 250.169 118.733 252.054 118.725 253.832C118.106 253.946 117.966 254.343 117.974 254.915C117.989 259.615 117.493 264.384 118.129 269C118.679 273.021 118.353 277.012 118.818 280.972C119.306 285.168 120.073 289.38 121.445 293.393C122.003 295.041 121.274 296.934 122.63 298.338C122.653 301.924 123.668 305.388 124.296 308.859C125.257 314.155 125.861 319.641 128.735 324.478C129.549 325.844 130.355 327.179 131.308 328.453C133.059 330.796 134.422 333.375 135.747 336.16C133.531 336.381 131.269 336.648 129.2 335.504C126.574 334.046 124.195 335.549 121.786 336.045C119.058 336.602 116.463 337.724 113.759 338.426C112.682 338.708 111.473 338.609 110.334 338.563C105.663 338.403 101.037 338.639 96.5434 340.082C96.342 340.143 96.0708 339.998 95.513 339.883C95.9004 337.938 96.1096 335.908 96.7526 334.023C97.0625 333.131 97.3415 332.009 96.9928 331.528C96.2335 330.468 96.466 329.384 96.2645 328.301C95.5905 324.661 96.1173 321.182 96.9618 317.611C97.5042 315.322 97.1633 312.797 97.0393 310.393C96.8998 307.799 97.7134 305.105 96.3188 302.618C96.2103 302.427 96.2413 302.092 96.3265 301.87C97.5352 298.582 96.4272 295.057 97.1943 291.844C98.155 287.823 97.4344 283.841 97.8761 279.881C98.1627 277.324 97.4732 274.845 96.8146 272.594C95.5595 268.306 95.3038 264.018 95.6292 259.714C95.7764 257.792 96.4737 255.876 96.249 254.137C97.388 250.894 99.4799 248.201 99.4024 244.637C97.8528 245.347 98.1007 246.682 97.5584 247.583C95.6292 250.818 94.622 254.404 93.1422 257.814C91.6546 261.256 89.5395 264.43 87.9977 267.856C85.4099 273.586 83.0933 279.392 82.2565 285.717C81.8227 288.976 81.1176 292.211 80.6682 295.499C80.2266 298.757 80.0872 302.16 79.0954 305.243C78.1037 308.333 78.0495 311.713 76.2365 314.544C75.7174 319.397 73.4086 323.906 73.7495 328.965C74.0671 333.68 73.9199 334.161 76.0738 338.83C70.7588 336.335 65.3121 335.618 60.0282 334.557C59.881 334.069 59.7725 333.718 59.664 333.367C59.2069 333.588 58.7962 333.794 58.2462 334.069C50.9168 329.613 43.1457 327.614 34.6154 331.07C34.1971 329.659 34.1506 328.659 35.0571 327.454C40.341 320.411 43.8043 312.453 46.733 304.236C47.376 302.435 48.5382 300.81 49.2665 299.032C51.2422 294.202 54.0779 289.792 56.1543 284.985C57.913 280.918 59.85 276.821 62.213 272.998C64.5839 269.168 66.9624 265.33 69.5037 261.607C72.3007 257.509 74.1446 253.175 74.7102 248.185C74.9194 246.385 75.299 244.569 75.361 242.722C75.3843 242.165 75.2603 241.738 74.6095 241.662Z" fill="#15CDEB"/>
<path d="M48.679 335.076C48.679 334.403 48.679 333.251 48.679 332.292C49.1136 331.651 49.4659 331.132 49.7282 330.738C52.5834 331.805 54.7267 333.692 57.4771 334.21C58.144 338.115 57.3422 341.951 56.7502 346.057C55.4312 347.874 53.3628 348.284 50.9722 348.794C47.1577 349.606 43.3881 349.165 39.6261 349.459C38.6968 349.011 38.1273 348.191 37.4453 347.394C40.0982 345.098 42.1216 342.175 45.1043 340.226C46.6106 339.244 47.9371 337.783 48.679 335.076Z" fill="#015E85"/>
<path d="M123.633 350.872C121.425 351.392 119.591 350.425 117.75 349.702C115.565 348.84 113.481 347.898 111.062 347.605C108.425 347.289 106.271 345.485 104.539 343.186C104.539 341.918 104.539 340.586 104.539 338.855C109.197 338.498 114.113 339.546 118.265 336.978C119.412 337.523 119.794 338.156 120.184 339.099C121.409 342.024 122.822 344.875 124.39 347.614C125.194 349.027 124.843 349.84 123.633 350.872Z" fill="#015E86"/>
<path d="M302.892 288.616C301.731 288.167 302.284 287.059 302.332 286.323C302.636 281.35 301.124 276.502 301.6 271.529C300.661 269.252 301.31 266.735 300.82 264.473C300.301 262.087 300.543 259.694 300.143 257.394C299.804 255.434 299.293 253.575 299.776 251.174C301.642 255.426 303.355 259.322 305.041 263.226C305.199 263.59 305.31 263.892 305.711 263.892C305.828 264.62 305.669 265.348 306.008 266.099C308.985 272.691 310.547 279.925 313.621 286.827C310.339 287.407 307.307 286.943 304.177 287.16C303.652 287.407 303.155 287.872 302.892 288.616Z" fill="#64E9FE"/>
<path d="M341.142 348.531C341.34 347.672 340.222 347.318 340.145 346.635C341.099 343.775 342.509 341.213 343.937 338.537C346.146 338.537 348.408 338.537 350.858 338.537C352.905 339.742 352.913 342.474 354.96 344.024C356.955 345.535 356.258 348.314 357.299 349.961C357.402 351.174 356.611 351.44 356.189 351.914C354.9 352.532 353.489 351.89 352.079 352.428C351.047 352.821 349.543 352.355 348.33 352.018C347.187 351.697 346.146 351.038 345.072 350.508C343.885 349.921 342.698 349.311 341.142 348.531Z" fill="#015E85"/>
<path d="M295.581 336.978C296.648 336.978 297.724 336.978 298.792 336.978C298.894 337.177 298.957 337.524 299.098 337.554C299.585 337.664 300.103 337.672 300.888 337.738C300.966 339.885 301.916 341.87 303.204 343.715C304.829 346.031 304.554 348.119 302.482 350.052C302.207 350.311 301.987 350.621 301.642 351.019C299.899 350.776 298.266 350.938 296.468 350.348C294.615 349.735 292.354 350.141 290.281 350.244C288.059 350.355 286.426 349.676 285.531 347.559C288.515 344.689 291.93 341.973 293.469 337.915C293.955 337.177 295.424 338.395 295.581 336.978Z" fill="#015E85"/>
<path d="M157.275 160.159C155.68 160.997 154.54 162.493 152.649 162.956C151.76 163.173 150.757 163.435 150.119 163.091C147.977 161.947 145.508 162.657 143.358 161.722C142.849 161.498 142.158 161.692 141.231 161.692C141.664 159.411 140.426 157.602 140.426 155.463C140.426 153.571 141.459 151.993 141.36 150.086C141.269 148.313 140.684 146.384 142.006 144.693C142.249 144.379 142.089 143.714 142.029 143.228C141.497 139.025 142.371 134.874 142.925 130.783C143.761 124.591 143.951 118.384 144.498 112.199C144.931 107.27 144.46 102.305 145.227 97.4808C145.895 93.2853 145.675 89.1421 145.819 84.9691C145.888 83.0321 146.07 81.0876 145.151 79.1955C144.832 78.53 144.893 77.5054 145.44 76.4584C147.149 76.6079 148.919 76.1069 150.78 76.952C151.836 77.4231 153.249 77.1539 154.502 77.1688C157.792 77.1988 161.203 76.6678 164.325 77.3857C166.992 77.999 169.704 78.3056 172.074 77.7522C175.849 76.8697 179.617 76.9071 183.241 77.3184C187.487 77.8045 191.787 77.3334 195.912 78.0513C201.313 78.9861 206.669 78.4327 212.04 78.6421C215.071 78.7618 218.117 78.7244 221.149 78.6496C223.982 78.5748 226.899 79.2703 229.193 77.7671C230.204 78.171 230.143 78.6646 230.173 79.1656C230.485 85.1934 231.153 91.1913 230.963 97.249C230.774 103.344 230.918 109.454 230.918 115.751C234.162 116.865 237.421 117.606 240.809 116.08C244.121 116.521 246.901 114.592 249.993 113.994C252.136 113.575 253.761 114.712 255.683 114.794C256.967 114.854 258.107 116.005 258.859 117.127C259.983 118.817 260.948 120.62 261.829 122.123C262.703 124.98 261.411 127.38 261.183 129.938C260.689 130.447 260.142 130.97 259.649 131.539C257.104 134.433 253.951 134.657 250.548 133.468C246.924 132.197 243.012 132.017 239.472 130.342C238.34 129.803 236.669 130.02 235.362 130.349C234.633 130.536 233.622 130.738 233.113 131.898C232.612 133.049 231.602 134.059 231.214 134.844C229.718 143.923 230.318 152.696 230.135 161.304C229.399 161.887 228.707 161.752 228.145 161.655C222.782 160.683 219.865 160.66 214.205 161.648C213.962 161.692 213.704 161.662 213.445 161.662C210.543 161.662 207.642 161.662 204.595 161.662C204.238 160.458 204.656 159.456 204.93 158.26C205.963 153.69 205.925 149.046 204.086 144.596C202.856 141.627 201.929 138.479 199.376 136.22C197.637 134.687 195.912 133.146 193.337 133.169C193.041 133.169 192.737 132.765 192.296 132.443C190.344 133.737 188.065 134.478 186.014 135.831C182.937 137.851 181.76 140.603 181.592 143.923C181.433 147.027 181.714 150.16 181.509 153.264C181.357 155.642 181.911 157.908 182.709 159.98C183.188 161.229 182.215 162.784 184.32 163.809C176.746 163.809 169.825 163.809 162.806 163.809C162.677 163.091 163.337 162.627 163.71 162.567C164.553 162.425 165.13 161.969 165.472 161.348C165.753 160.84 165.753 160.182 166.125 159.98C165.624 157.789 166.49 156.024 167.113 154.176C167.751 152.277 168.154 150.302 168.708 148.186C168.23 147.326 167.538 146.511 166.558 145.98C163.391 147.214 161.605 150.392 158.301 151.387C157.701 152.74 157.663 154.117 157.967 155.627C158.286 157.183 156.835 158.589 157.222 160.234L157.275 160.159Z" fill="#C1E9EF"/>
<path d="M290.957 137.001C291.966 136.238 292.908 135.347 294.009 134.743C295.269 134.056 296.059 133.067 296.59 131.746C297.084 131.724 297.577 131.701 298.116 131.671C299.149 131.308 297.798 129.602 299.392 129.406C300.736 129.24 300.766 127.798 301.336 126.922C301.837 126.152 301.632 125.088 302.277 124.227C302.573 123.835 302.649 122.74 302.11 122.106C301.154 120.996 301.753 119.728 301.571 118.459C302.862 117.78 302.839 115.976 304.062 115.379C305.208 114.821 305.998 114.02 306.613 113.431C306.271 111.68 307.387 110.623 307.41 109.294C307.471 108.298 306.598 107.452 306.772 106.335C306.081 105.973 305.443 105.64 304.646 105.225C303.986 105.059 303.416 105.807 302.877 106.116C301.229 107.045 299.612 107.913 297.699 107.505C296.226 107.188 294.973 108.011 293.857 108.434C292.49 108.955 291.238 108.955 290.045 109.038C288.231 108.245 288.724 106.833 288.686 105.437C289.241 105.369 289.597 105.255 289.939 105.286C295.193 105.746 300.349 104.04 305.603 104.523C308.716 103.247 312.019 104.153 315.177 103.685C317.113 103.398 319.042 102.741 320.993 103.043C329.33 104.327 337.728 103.481 346.383 103.859C346.383 105.021 346.383 106.116 346.383 107.218C346.383 126.454 346.383 145.69 346.383 164.926C345.199 172.604 346.117 180.372 345.464 188.042C345.115 192.119 344.941 196.173 344.903 200.25C344.887 201.661 343.824 202.658 343.984 204.175C338.145 204.175 332.413 204.711 326.832 204.009C322.33 203.443 317.873 203.738 313.37 203.353C313.264 203.217 312.968 202.99 313.006 202.839C313.431 200.937 314.107 199.042 313.712 197.079C313.325 195.154 314.501 193.561 314.615 191.696C314.767 189.258 315.982 186.91 316.4 184.464C316.726 182.554 317.789 181.165 319.224 180.349C322.588 178.447 323.233 174.808 325.055 171.954C325.807 170.777 324.873 169.282 324.152 168.218C323.188 166.798 321.813 165.681 320.188 164.971C316.438 163.333 312.846 161.468 309.498 159.045C308.07 158.011 306.772 156.886 305.626 155.64C303.72 153.579 301.45 152.764 298.739 152.839C298.109 152.854 297.471 152.839 296.545 152.839C296.127 152.334 295.565 151.654 295.026 151.005C294.108 146.354 293.181 141.674 292.255 136.978C291.693 136.978 291.313 136.978 290.934 136.978L290.957 137.001Z" fill="#258EBD"/>
<path d="M292.927 178.05C292.142 177.972 291.584 178.297 290.942 178.816C286.662 182.297 282.283 185.654 278.003 189.128C277.029 189.917 276.296 191.015 275.526 191.889C274.047 191.889 272.816 191.889 271.382 191.889C270.793 191.557 270.197 191.038 270.212 189.963C270.257 186.846 269.268 183.852 268.543 180.904C267.985 178.63 268.158 176.232 267.222 174.05C266.46 172.263 266.633 170.19 265.305 168.171C268.936 168.821 270.008 172.526 273.02 173.238C273.307 172.743 273.458 172.209 272.597 171.876C270.461 171.049 269.54 168.697 267.441 167.66C266.196 167.049 264.995 166.167 263.704 165.51C260.481 163.878 257.408 161.974 254.328 159.638C256.834 154.687 259.628 149.721 263.244 145.087C263.757 145.574 264.527 146.301 265.297 147.029C270.68 147.446 276.176 146.294 281.566 148.266C281.453 149.458 280.426 150.487 280.773 151.786L280.834 151.724C279.18 152.281 278.871 153.852 278.576 155.244C278.32 156.474 278.471 157.813 278.531 159.097C278.644 161.448 280.766 162.067 282.064 163.305C289.175 163.823 293.395 159.476 296.778 154.092C298.521 154.092 300.009 154.092 301.458 154.092C303.761 155.886 305.557 158.153 307.852 159.948C311.151 162.531 314.752 164.481 318.391 166.361C320.467 167.436 322.12 168.62 322.981 170.902C322.709 171.838 322.475 172.913 322.098 173.934C320.837 177.369 318.353 179.728 315.402 181.608C312.895 183.194 310.54 184.958 308.517 187.155C306.652 186.838 307.06 184.95 306.743 183.914C305.625 180.285 303.904 177.237 300.514 174.893C299.224 174.893 297.623 174.893 295.849 174.893C297.691 171.381 300.054 168.596 302.719 166.044C301.851 165.371 301.383 165.811 300.952 166.291C299.02 168.434 296.808 170.283 295.245 172.813C294.203 174.499 294.03 176.526 292.86 178.104L292.927 178.05Z" fill="#15CDEB"/>
<path d="M317.413 237.562C320.93 233.477 321.203 228.838 320.136 223.876C319.296 219.971 317.522 216.665 314.433 213.997C312.013 211.906 311.888 209.185 312.161 206.097C316.433 206.097 320.627 205.633 324.65 206.247C327.848 206.734 331.007 206.517 334.151 206.907C336.509 207.199 338.827 207.799 341.629 207.536C341.629 209.613 341.73 211.576 341.598 213.517C341.473 215.451 342.228 217.467 340.928 219.319C340.625 219.753 340.858 220.533 340.851 221.155C340.835 224.273 341.426 227.548 340.64 230.479C339.839 233.47 340.882 236.617 339.318 239.421C339.263 239.518 339.302 239.668 339.31 239.788C339.676 244.982 338.882 250.131 338.477 255.288C338.306 257.424 339.115 259.365 339.294 261.426C339.473 263.48 338.75 265.609 339.995 267.58C340.283 268.037 340.057 268.801 340.065 269.431C340.065 274.415 340.065 279.407 340.065 284.406C339.1 285.013 337.831 284.729 336.968 285.493C334.081 281.738 332.875 277.241 331.163 272.991C328.883 267.325 326.86 261.539 325.179 255.678C323.685 250.461 321.498 245.679 318.199 241.287C317.514 240.365 315.39 239.218 317.413 237.562Z" fill="#64E9FE"/>
<path d="M284.668 138.43C283.721 141.068 282.774 143.699 281.812 146.381C278.896 147.316 276.301 145.47 273.497 145.821C270.693 146.172 267.808 145.896 264.989 145.896C263.199 144.446 261.82 141.995 258.815 143.429C254.594 140.5 250.209 137.458 245.221 133.998C248.114 134.058 249.919 135.336 252.051 135.523C254.818 135.777 257.935 135.381 259.859 133.782C262.67 131.45 264.169 128.61 263.796 124.881C263.699 123.895 263.781 122.893 263.781 122.37C262.812 118.88 260.582 116.81 258.397 114.695C257.51 113.836 256.451 113.148 255.302 113.059C253.192 112.902 251.231 111.549 248.957 112.513C247.025 113.335 244.945 113.798 242.961 114.516C239.882 115.629 236.712 115.121 233.543 115.286C233.156 114.897 232.805 114.553 232.484 114.232C232.484 111.654 232.484 109.18 232.484 106.677C233.327 105.929 234.364 106.318 235.296 106.31C243.245 106.273 251.186 106.258 259.135 106.303C262.29 106.325 265.362 107.372 268.568 107.065C270.723 106.863 272.953 107.319 274.981 106.086C277.062 107.663 277.487 110.323 279.351 111.788C279.791 116.197 278.844 120.181 276.562 123.887C276.264 124.373 276.115 124.986 275.645 125.389C273.684 127.071 272.2 129.096 271.268 131.697C271.648 133.737 272.699 135.56 274.623 136.868C276.853 137.302 278.777 136.285 280.88 135.53C282.289 135.979 283.862 136.479 285.428 136.98C285.771 137.78 285.22 138.109 284.668 138.43Z" fill="#258EBD"/>
<path d="M289.925 194.768C291.869 194.715 293.302 193.478 294.797 192.523C297.556 190.748 300.194 188.776 302.847 186.85C303.289 186.531 303.716 186.387 304.654 186.493C305.302 187.07 306.224 187.889 307.147 188.715C307.78 188.715 308.412 188.715 309.274 188.715C310.837 187.221 312.537 185.591 314.1 184.089C315.556 184.521 315.197 185.545 314.946 186.023C313.856 188.071 313.764 190.399 312.887 192.523C312.232 194.123 313.124 196.216 312.003 197.9C312.522 201.776 310.974 205.507 311.187 209.39C311.279 211.013 312.689 212.348 311.767 214.305C310.73 214.449 309.518 214.351 308.138 214.169C305.226 213.789 302.306 211.719 299.264 213.744C299.18 213.805 299.013 213.759 298.891 213.744C295.239 213.16 291.755 214.631 288.111 214.571C284.017 214.502 279.976 215.89 275.539 214.98C275.822 211.886 274.67 208.708 274.609 205.401C275.379 202.906 277.057 205.515 278.421 204.574C278.848 199.607 284.154 198.901 286.975 195.769C287.806 195.01 288.751 194.563 289.925 194.768Z" fill="#15CDEB"/>
<path d="M129.475 173.193C128.789 174.415 127.029 173.498 126.312 174.728C124.158 173.578 122.091 172.545 120.118 171.381C119.511 171.024 118.982 170.886 118.327 170.944L118.391 171.002C118.327 170.013 117.42 169.431 116.726 169.161C113.468 167.888 110.967 165.523 107.708 164.22C105.326 163.267 103.251 161.644 100.971 160.284C100.971 159.127 100.971 157.933 100.971 156.776C100.213 156.194 99.4955 156.281 98.746 156.674C99.2193 157.206 99.6927 157.737 100.387 158.508C97.5547 159.672 94.5015 159.803 91.8743 161.324C89.3024 162.816 87.8507 165.356 84.8449 166.789C84.1427 164.846 84.0796 162.852 84.5845 161.186C86.2965 155.539 86.0599 153.014 90.5252 149.834C93.2471 149.834 96.0084 149.834 98.9905 149.834C101.957 152.527 104.474 156.07 109.728 156.813C109.988 156.762 110.596 155.845 111.495 156.463C113.546 153.8 113.894 150.94 113.61 148.03C115.18 146.356 117.894 146.836 119.235 145.053C120.394 143.511 120.166 141.444 121.57 139.996C122.343 139.625 123.108 139.254 123.96 138.846C124.26 139.043 124.623 139.195 124.86 139.45C125.862 140.527 126.169 141.902 126.603 143.212C127.866 146.996 129.672 150.496 132.623 153.276C132.378 154.222 131.818 154.659 131.069 154.935C129.68 155.335 128.615 153.305 127.108 154.491C128.142 155.816 129.988 156.609 130.083 158.544C130.39 160.487 130.367 162.547 129.404 164.373C128.189 166.68 128.749 169.023 128.797 171.373C128.797 171.468 129.207 171.555 129.428 171.643C129.862 172.159 129.901 172.669 129.475 173.193Z" fill="#15CDEB"/>
<path d="M289.021 195.158C288.937 196.005 288.34 195.997 287.713 195.929C287.169 195.869 286.791 196.043 286.723 196.64C285.249 197.6 283.767 198.53 282.278 199.46C279.95 200.919 277.493 202.287 278.068 205.931C268.982 202.499 260.199 199.384 251.793 195.302C247.122 193.034 242.708 190.04 237.197 189.927C235.973 189.904 234.809 189.186 233.834 188.332C233.085 187.107 231.664 186.903 230.538 186.404C228.565 185.52 227.605 184.046 227.839 182.133C228.096 180.062 228.935 178.081 231.498 177.748C232.979 179.676 234.604 181.324 237.363 180.818C238.973 181.906 240.856 181.475 242.889 181.634C242.889 183.456 242.889 185.164 242.889 186.873C244.098 189.254 246.615 189.307 248.687 189.821C253.124 190.932 257.659 191.643 262.194 192.331C265.157 192.785 268.06 192.701 270.985 192.905C271.832 192.966 272.761 192.664 273.389 193.541C276.322 192.323 278.499 189.995 281.031 188.203C284.735 185.573 288.038 182.39 291.5 179.427C291.757 179.207 291.885 178.837 292.074 178.542L292.006 178.603C293.926 178.497 294.947 176.524 296.806 176.289C300.903 177.159 303.186 179.805 304.259 184.008C299.883 187.546 295.445 191.008 290.434 193.669C289.807 194.017 289.164 194.327 289.021 195.158Z" fill="#B4F4FE"/>
<path d="M156.969 160.746C158.314 160.016 158.526 158.793 158.519 157.451C158.503 155.977 158.519 154.51 158.519 152.792C161.913 152.6 163.016 148.634 166.463 148.207C167.627 150.278 166.44 152.173 165.722 153.942C164.891 155.991 164.384 157.996 164.604 160.223C163.137 162.021 160.786 163.054 159.879 165.42C159.66 165.995 158.526 166.363 157.74 166.592C153.038 167.97 149.115 170.735 145.184 173.411C140.135 176.846 135.191 180.355 129.28 182.368C126.914 183.178 124.518 184.321 123.558 186.975C123.513 187.108 123.142 187.152 122.915 187.203C122.81 187.226 122.681 187.174 122.515 187.152C121.479 186.017 123.739 185.338 123.422 183.82C122.885 183.503 122.364 183.156 121.804 182.884C117.314 180.687 112.779 178.564 108.326 176.301C102.294 173.234 96.3454 170.005 90.1318 167.292C89.701 167.101 89.3835 166.651 88.9375 166.245C91.9309 163.348 95.2644 161.093 99.3917 159.839C104.736 163.437 110.231 166.769 115.946 169.762C116.785 170.204 117.223 171.347 118.456 171.096L118.395 171.037C120.02 173.219 122.621 174.023 124.851 175.328C125.319 175.6 126.173 175.652 126.657 175.423C128.713 174.443 131.034 174.421 133.12 173.44C136.318 171.937 139.742 170.912 142.977 169.489C146.22 168.066 149.221 166.187 152.638 165.014C154.074 164.52 155.533 163.393 157.029 162.501C157.029 161.904 157.029 161.292 157.029 160.687L156.969 160.746Z" fill="#B4F4FE"/>
<path d="M120.85 185.193C120.453 186.65 119.4 187.375 120.024 188.539C120.632 189.117 121.708 188.893 122.082 190.019C122.753 189.433 123.291 189.186 123.47 188.778C124.422 186.619 126.059 185.263 128.507 184.376C128.344 189.556 128.344 194.644 131.065 199.485C127.112 200.07 123.837 199.438 120.866 197.218C119.283 196.031 117.513 195.122 115.922 193.912C113.872 192.354 111.189 192.324 108.803 192.108C106.355 191.892 103.665 191.198 101.294 192.763C98.3313 192.339 95.5788 193.927 92.5846 193.572C90.4169 193.31 88.1946 193.518 85.8164 193.518C86.4012 191.46 87.5552 189.811 88.4052 188.03C89.528 185.679 90.2454 183.22 90.2843 180.584C90.2999 179.351 89.8399 177.994 90.9627 176.953C90.4949 174.949 90.4871 172.852 89.6606 170.918C89.3954 170.293 89.1381 169.669 88.6469 168.49C99.883 173.731 110.02 179.944 120.85 185.193Z" fill="#15CDEB"/>
<path d="M115.461 110.433C112.6 110.831 111.035 112.93 108.985 114.729C107.745 113.542 107.443 111.628 105.489 111.268C104.122 113.06 105.377 115.135 104.543 117.073C103.828 118.743 102.898 120.672 103.486 122.748C102.135 122.572 101.929 121.017 100.347 121.446C100.228 122.763 101.722 124.104 100.331 125.727C99.219 127.021 101.492 128.699 100.999 130.33C100.514 131.954 101.905 133.118 101.881 134.657C101.857 136.212 101.15 137.95 102.469 139.268C101.372 141.404 100.371 143.579 98.0192 145.088C91.988 144.828 85.5914 145.877 79.6397 143.25C79.4251 142.17 79.7509 141.473 80.4263 140.746C84.0816 136.786 86.1238 131.915 88.2772 127.152C90.5418 122.135 92.8859 117.195 96.5888 112.991C97.7013 111.727 98.7899 110.441 100.204 109.399C102.58 107.638 104.273 105.21 106.029 102.966C106.982 102.966 107.753 102.966 108.699 102.966C110.264 105.845 113.045 107.821 115.461 110.433Z" fill="#015E85"/>
<path d="M285.842 95.9369C286.593 97.1813 287.336 98.4258 288.057 99.6313C288.057 102.914 288.057 106.149 288.057 109.47C291.449 112.286 294.34 109.813 297.902 108.444C299.895 108.786 302.198 107.837 304.435 106.81C305.98 107.884 306.179 109.237 305.296 110.777C304.45 112.247 303.685 113.818 302.61 115.086C301.801 116.05 301.382 117.225 300.572 118.205C300.572 120.616 300.572 123.058 300.572 124.458C300.146 128.129 297.865 129.086 296.047 131.046C296.408 128.324 295.738 126.123 294.657 123.991C295.775 121.853 295.952 119.348 296.805 116.743C296.511 115.226 295.304 114.277 293.605 113.818C290.419 114.798 287.196 115.747 284.238 117.466C282.988 118.189 282.2 117.567 281.421 116.486C282.752 113.779 282.443 111.244 280.251 109.128C278.97 107.891 278.86 105.978 277.734 104.796C277.734 102.875 277.734 101.07 277.734 99.258C279.721 94.9569 280.964 94.4124 285.129 95.9369C285.349 96.0147 285.614 95.9447 285.857 95.9524L285.842 95.9369Z" fill="#015E85"/>
<path d="M88.9762 199.238C88.9762 198.676 88.8799 198.357 88.9911 198.182C89.7618 196.967 90.5844 195.789 91.3404 194.657C97.1581 194.437 102.835 193.974 108.327 193.449C109.134 194.209 110.039 194.589 109.572 196.306C110.468 195.516 110.876 195.151 111.521 194.581C116.323 196.207 119.792 199.398 121.704 204.655C118.013 205.567 114.433 206.569 110.802 207.306C107.037 208.074 103.376 206.159 99.4185 206.645C97.5657 205.65 95.6611 204.442 93.6156 203.584C91.3997 202.657 90.7771 200.218 88.9762 199.238Z" fill="#B4F4FE"/>
<path d="M106.296 113.174C107.761 114.533 108.639 115.35 109.591 116.228C110.536 114.495 111.964 113.311 113.674 112.326C117.594 117.58 119.907 123.91 124.823 128.667C123.112 131.08 120.316 131.882 117.765 132.989C116.605 133.493 115.065 133.523 114.061 134.02C112.871 134.608 112.335 133.21 111.502 133.806C108.312 131.813 105.367 129.614 104.66 125.475C104.511 124.62 104.481 122.398 104.675 121.825C105.5 119.29 106.214 116.74 106.296 113.174Z" fill="#B4F4FE"/>
<path d="M128.023 174.72C128.008 174.161 127.993 173.611 127.97 173.053C127.857 171.26 128.137 169.546 128.711 167.832C129.876 164.349 129.452 160.724 129.475 157.138C129.997 155.448 133.022 155.912 132.439 153.065C131.857 152.397 131.101 151.54 130.345 150.683C133.029 148.529 135.918 146.634 138.519 143.528C138.315 146.539 138.489 148.953 138.043 151.548C137.385 155.377 137.287 159.481 138.784 163.554C141.764 164.482 144.856 165.496 148.229 165.158C148.025 166.833 146.686 166.951 145.855 167.297C141.204 169.208 136.712 171.464 132.228 173.737C130.904 174.405 129.52 174.798 128.023 174.72Z" fill="#258EBD"/>
<path d="M285.688 138.768C285.956 138.289 286.232 137.818 286.5 137.34C288.069 137.332 289.63 137.318 291.199 137.31L291.175 137.288C291.072 139.195 291.829 141.013 292.223 142.816C292.72 145.098 292.933 147.432 293.532 149.699C294.092 151.819 294.431 153.998 294.896 156.309C293.508 157.597 292.145 159.364 290.3 160.416C288.573 161.396 286.342 161.616 284.033 162.249C282.259 161.896 280.863 160.52 279.523 159.091C278.601 156.464 280.729 154.395 280.99 151.995L280.927 152.054C282.448 151.767 282.96 150.339 283.102 149.441C283.591 146.327 285.396 143.685 286.256 140.733C286.484 139.982 287.036 139.121 285.688 138.768Z" fill="#B4F4FE"/>
<path d="M259.115 145.716C259.523 145.456 259.831 145.261 260.154 145.051C260.731 145.478 260.4 146.107 260.57 146.707C258.007 148.813 255.859 151.214 254.859 154.448C253.366 154.028 252.219 153.421 251.234 152.495C245.03 146.664 238.095 141.55 232.484 135.451C233.239 134.728 234.07 133.932 235.448 132.608C237.764 132.572 240.466 133.44 243.083 135.306C246.1 137.462 249.032 139.741 252.388 141.542C254.689 142.787 256.683 144.617 259.115 145.716Z" fill="#B4F4FE"/>
<path d="M111.059 148.27C111.478 148.71 111.905 149.158 112.34 149.612C111.455 151.186 111.501 153.215 109.56 154.449C106.789 153.114 103.582 152.276 101.625 149.519C101.625 147.317 101.625 145.043 101.625 142.747C102.138 141.852 102.666 140.935 103.186 140.025C103.116 138.163 103.209 136.329 102.472 134.481C101.835 132.893 102.736 131.088 101.742 129.298C101.074 128.1 101.618 126.324 101.796 124.808C104.257 130.496 105.616 132.626 109.397 134.517C108.869 139.152 110.632 143.628 111.059 148.27Z" fill="#B4F4FE"/>
<path d="M293.423 115.446C295.227 116.792 295.108 118.008 294.474 119.645C293.789 121.42 292.984 123.271 293.52 125.451C290.025 127.31 286.745 129.253 283.287 130.776C282.042 131.326 280.38 130.867 278.882 130.867C278.547 130.248 278.196 129.613 277.734 128.756C278.897 125.956 279.724 122.835 280.179 119.408C282.206 119.6 283.891 118.972 285.672 118.047C288.05 116.807 290.785 116.295 293.423 115.446Z" fill="#B4F4FE"/>
<path d="M126.383 140.587C130.756 137.863 135.779 135.973 140.328 132.607C140.328 134.313 140.192 135.828 140.36 137.312C140.705 140.35 139.686 142.897 137.079 144.504C134.736 145.95 133.011 148.008 130.635 149.768C127.915 147.197 126.672 144.106 126.383 140.587Z" fill="#B4F4FE"/>
<path d="M294.121 126.472C293.834 128.285 295.601 129.501 294.567 131.788C293.479 132.897 292.157 134.748 289.551 135.643C287.414 135.887 284.891 135.536 282.383 134.908C279.822 134.266 277.405 136.132 274.928 135.643C272.095 131.681 272.307 130.541 276.673 126.365C276.824 128.445 276.945 130.434 278.591 131.665C281.446 132.407 284.022 131.62 286.288 130.151C288.705 128.591 291.523 128.071 294.121 126.472Z" fill="#015E86"/>
<path d="M315.181 216.807C315.181 217.593 314.44 217.766 314.095 218.411C302.224 218.411 290.362 218.411 278.499 218.411C278.259 217.979 278.019 217.546 277.734 217.043C278.064 216.964 278.416 216.783 278.739 216.815C284.396 217.373 289.949 215.658 295.592 216.036C296.394 216.091 296.994 215.446 297.593 215.383C301.572 214.966 305.514 215.249 309.186 216.783C310.4 217.184 310.925 215.784 311.929 215.839C312.641 215.281 311.674 214.235 312.596 213.731C313.39 214.738 314.657 215.422 315.181 216.807Z" fill="#015E86"/>
<path d="M234.066 187.209C235.705 187.772 237.351 188.342 238.998 188.913C239.388 188.619 239.793 188.317 240.067 188.116C252.192 193.631 263.537 200.707 276.926 204.535C277.222 204.829 278.073 205.66 278.962 206.524C279.665 205.366 279.056 204.099 279.477 202.512C282.201 200.405 284.9 197.551 288.653 196.451C287.998 198.416 286.039 198.667 284.775 199.843C283.301 201.202 281.327 201.891 280.148 203.687C281.327 204.938 281.178 206.08 279.829 207.246C279.118 207.716 278.237 207.364 277.394 207.356C276.723 207.011 276.895 204.115 275.342 206.592C275.069 206.608 274.788 206.617 274.515 206.634C274.312 206.491 274.117 206.348 273.914 206.214C274.117 205.895 274.328 205.584 274.523 205.274C262.889 201.53 252.285 195.133 241.073 189.837C239.95 189.837 238.654 189.837 237.156 189.837C236.228 189.325 235.135 188.72 234.043 188.124C234.051 187.814 234.059 187.511 234.066 187.209Z" fill="#030A0C"/>
<path d="M318.093 236.948C318.221 237.409 317.86 237.628 317.551 238.012C319.245 240.749 321.248 243.306 322.761 246.254C324.847 250.32 325.804 254.754 327.174 259.039C330.118 268.212 332.814 277.479 336.97 286.183C337.068 286.394 337 286.691 337.008 286.957C337 287.512 336.985 288.059 336.978 288.615C334.448 285.135 333.266 280.959 331.782 277.01C329.365 270.597 327.468 263.966 325.45 257.397C324.471 254.23 323.778 250.969 322.347 247.959C320.48 244.017 317.942 240.53 315.548 236.948C315.247 236.495 314.983 236.104 315.382 235.572C316.339 235.572 316.451 236.917 317.385 236.948C317.611 236.948 317.852 236.956 318.093 236.948Z" fill="#051012"/>
<path d="M142.773 208.833C143.509 207.384 144.793 207.574 145.552 206.595C157.894 206.595 170.372 206.595 182.874 206.595C182.167 201.656 180.276 197.089 180.724 192.142C180.945 189.707 181.955 187.545 182.783 185.314C182.82 185.208 182.988 185.147 183.033 185.041C184.681 181.452 187.643 179.336 191.653 177.849C192.542 177.849 193.939 177.849 195.451 177.849C195.747 178.114 196.096 178.471 196.484 178.782C201.056 182.461 201.656 187.643 201.132 192.825C200.706 196.983 199.438 201.079 198.967 205.283C198.891 205.943 197.79 206.33 198.572 207.452C200.524 207.452 202.666 207.285 204.762 207.505C206.334 207.672 208.005 207.483 209.425 207.847C211.203 208.302 212.889 208.067 214.598 208.181C216.489 208.302 218.387 208.211 220.286 208.211C222.056 208.211 223.825 208.211 225.595 208.211C227.365 208.211 229.134 208.211 231.003 208.211C231.891 208.583 232.423 209.47 233.182 210.222C232.628 215.168 234.223 220.039 233.957 225.046C233.691 230.084 233.896 235.152 233.896 240.22C232.309 241.593 230.828 241.548 228.671 241.024C226.392 240.463 223.932 239.575 221.403 240.045C220.841 240.152 220.149 240.303 219.603 239.81C218.699 238.998 217.924 239.4 216.906 239.803C215.805 240.235 214.461 240.068 213.056 240.167C210.656 241.805 208.598 243.657 208.651 247.276C208.689 249.665 208.256 249.802 211.233 254.931C216.572 256.736 222.086 255.78 227.532 255.993C229.035 256.053 230.539 256 231.99 256C233.448 259.543 233.122 263.147 233.129 266.705C233.144 271.379 233.084 276.06 233.16 280.733C233.182 282.296 232.673 283.943 233.851 285.437C234.215 285.908 233.972 286.917 233.881 287.66C233.813 288.191 233.235 288.942 233.418 289.17C233.957 289.853 234.048 290.551 233.805 291.249C233.653 291.681 233.152 292 232.765 292.417C230.638 292.417 228.496 292.493 226.362 292.402C215.425 291.947 204.557 293.487 193.613 293.274C188.995 293.183 184.491 292.114 179.843 292.364C175.18 292.614 170.403 292.963 165.823 292.296C157.674 291.105 149.54 292.061 141.413 291.658C140.935 291.636 140.456 291.658 140.069 291.658C139.347 290.513 140.152 289.246 139.18 288.313C138.846 287.986 138.77 287.015 138.998 286.545C140.319 283.798 139.704 280.9 139.689 278.086C139.636 270.962 140.828 263.898 140.555 256.751C140.281 249.559 140.099 242.321 140.654 235.159C140.957 231.199 140.623 227.14 141.436 223.324C142.013 220.593 141.557 217.793 142.643 215.062C143.373 213.196 142.773 210.813 142.773 208.833Z" fill="#015E85"/>
<path d="M207.348 83.0409C207.894 84.6582 206.997 84.9944 206.459 85.7668C202.324 85.7668 198.108 85.685 193.892 85.8031C192.27 85.8485 190.954 84.5401 189.257 84.7764C187.739 84.9854 186.035 85.4306 184.637 83.9586C184.495 83.8132 184.151 83.9223 183.904 83.9586C179.21 84.6401 174.642 82.6502 169.955 83.0228C167.532 83.2136 165.11 83.0954 162.27 81.3963C165.432 81.4145 168.018 80.4968 170.575 81.9324C170.994 82.1687 171.532 82.1505 172.01 82.1141C182.656 81.4509 193.241 83.5407 203.887 83.0409C205.09 82.9955 206.302 83.0409 207.348 83.0409Z" fill="#020404"/>
</svg>
