<svg width="271" height="53" viewBox="0 0 271 53" fill="none" xmlns="http://www.w3.org/2000/svg">
<path d="M188.392 9.2014C187.201 9.2014 184.89 8.90376 181.456 8.3087C178.024 7.71364 175.528 7.416 173.972 7.416C172.461 7.416 171.5 7.43891 171.088 7.48473C169.852 7.71364 168.799 8.49178 167.93 9.81937L165.801 9.33865C166.167 6.82094 167.082 4.73801 168.547 3.08997C170.058 1.39622 171.866 0.549345 173.972 0.549345C176.124 0.549345 178.962 0.823964 182.487 1.37331C186.012 1.92265 188.461 2.19738 189.833 2.19738C191.253 2.19738 192.329 2.06002 193.062 1.7854C193.794 1.51067 194.48 0.915611 195.121 0L197.25 0.411984C196.792 3.06717 195.923 5.19581 194.641 6.79802C193.358 8.40024 191.276 9.2014 188.392 9.2014Z" fill="white"/>
<path d="M0 51.6582H20.4168C29.7307 51.6582 34.5718 47.3432 34.5718 41.4498V41.3444C34.5718 36.2929 31.5724 33.8197 26.7839 32.3989C30.7831 30.9782 33.3615 28.3998 33.3615 23.9797V23.8745C33.3615 21.3487 32.4143 19.4543 31.0988 18.1388C28.9414 15.9813 25.7315 14.8237 20.6273 14.8237H0V51.6582ZM21.2587 26.7686C21.2587 28.4524 19.9432 29.2943 17.3648 29.2943H11.9975V24.1376H17.3122C19.9432 24.1376 21.2587 24.9795 21.2587 26.6634V26.7686ZM22.2059 39.6606C22.2059 41.2918 20.8378 42.3443 18.1541 42.3443H11.9975V36.8717H18.2067C20.8904 36.8717 22.2059 37.9241 22.2059 39.5554V39.6606ZM55.0416 52.3948C66.0394 52.3948 73.3536 47.4484 73.3536 34.8721V14.8237H60.8299V35.2404C60.8299 39.7133 58.5146 41.5023 55.1469 41.5023C51.8318 41.5023 49.4638 39.5554 49.4638 34.9774V14.8237H36.9401V35.1352C36.9401 47.3432 44.0965 52.3948 55.0416 52.3948ZM77.3405 51.6582H89.6537V14.8237H77.3405V51.6582ZM93.9875 51.6582H107.668C122.56 51.6582 130.033 43.9755 130.033 33.0305V32.9252C130.033 21.9801 122.718 14.8237 108.09 14.8237H93.9875V51.6582ZM108.353 25.5583C114.036 25.5583 117.614 27.8736 117.614 33.1883V33.2935C117.614 38.6083 114.036 40.9235 108.353 40.9235H106.3V25.5583H108.353ZM133.402 51.6582H163.027V41.134H145.715V14.8237H133.402V51.6582ZM165.725 51.6582H197.402V41.5549H177.827V37.5558H195.823V28.6629H177.827V24.9268H197.138V14.8237H165.725V51.6582ZM200.719 51.6582H213.033V41.134H215.664L222.609 51.6582H236.659L228.082 39.1345C232.555 36.977 235.343 33.2935 235.343 27.8736V27.7684C235.343 23.9797 234.238 21.296 231.976 19.0333C229.398 16.4549 225.293 14.8237 218.715 14.8237H200.719V51.6582ZM213.033 32.3463V25.1373H218.399C221.294 25.1373 223.083 26.2949 223.083 28.6629V28.7681C223.083 31.0308 221.294 32.3463 218.347 32.3463H213.033ZM254.174 52.3422C264.066 52.3422 270.434 47.6064 270.434 39.8711V39.7659C270.434 32.3989 264.118 29.5575 254.7 27.8736C250.753 27.1896 249.805 26.5055 249.805 25.5056V25.4004C249.805 24.5059 250.648 23.8745 252.489 23.8745C255.91 23.8745 260.015 24.9795 263.54 27.5053L269.539 19.1912C265.277 15.8235 260.067 14.1396 252.911 14.1396C242.807 14.1396 237.283 19.5595 237.283 26.5581V26.6634C237.283 34.4512 244.544 36.8191 252.806 38.503C256.752 39.2923 257.91 39.8711 257.91 40.9235V41.0287C257.91 42.0286 257.015 42.6074 254.752 42.6074C250.385 42.6074 245.859 41.3971 241.861 38.2924L235.283 46.133C239.966 50.29 246.648 52.3422 254.174 52.3422Z" fill="white"/>
</svg>
