<svg width="1184" height="356" viewBox="0 0 1184 356" fill="none" xmlns="http://www.w3.org/2000/svg">
<path d="M514.012 130.358H451.475V163.461H522.747V186.607H425.184V57.8633H519.602V80.6599H451.475V107.998H514.012V130.358ZM628.31 57.8633V80.6599H589.791V186.607H562.715V80.6599H524.022V57.8633H628.31ZM711.95 186.607V129.136H661.64V186.607H635V57.8633H661.64V106.95H711.95V57.8633H738.677V186.607H711.95ZM910.411 186.607H875.823L836.082 130.358L823.243 143.547V186.607H796.778V57.8633H823.243V110.881L872.941 57.8633H907.704L854.948 110.881L910.411 186.607ZM914.569 57.8633H941.296V186.607H914.569V57.8633ZM1012.18 140.315H984.845V186.607H958.118V57.8633H1014.19C1027.12 57.8633 1037.43 61.1824 1045.11 67.8205C1052.8 74.4586 1056.64 84.736 1056.64 98.6527C1056.64 113.85 1052.8 124.594 1045.11 130.882C1037.43 137.171 1026.45 140.315 1012.18 140.315ZM1024.76 113.501C1028.26 110.415 1030 105.524 1030 98.8274C1030 92.131 1028.23 87.3563 1024.67 84.5031C1021.18 81.6498 1016.26 80.2232 1009.91 80.2232H984.845V118.13H1009.91C1016.26 118.13 1021.21 116.587 1024.76 113.501ZM1144.04 136.996V57.8633H1171.38V136.996C1171.38 150.68 1169.25 161.336 1165 168.964C1157.08 182.939 1141.97 189.926 1119.67 189.926C1097.37 189.926 1082.23 182.939 1074.25 168.964C1070 161.336 1067.87 150.68 1067.87 136.996V57.8633H1095.21V136.996C1095.21 145.847 1096.26 152.311 1098.36 156.387C1101.62 163.607 1108.72 167.217 1119.67 167.217C1130.56 167.217 1137.63 163.607 1140.89 156.387C1142.99 152.311 1144.04 145.847 1144.04 136.996Z" fill="#828EFF"/>
<path d="M514.012 130.358H451.475V163.461H522.747V186.607H425.184V57.8633H519.602V80.6599H451.475V107.998H514.012V130.358ZM628.31 57.8633V80.6599H589.791V186.607H562.715V80.6599H524.022V57.8633H628.31ZM711.95 186.607V129.136H661.64V186.607H635V57.8633H661.64V106.95H711.95V57.8633H738.677V186.607H711.95ZM910.411 186.607H875.823L836.082 130.358L823.243 143.547V186.607H796.778V57.8633H823.243V110.881L872.941 57.8633H907.704L854.948 110.881L910.411 186.607ZM914.569 57.8633H941.296V186.607H914.569V57.8633ZM1012.18 140.315H984.845V186.607H958.118V57.8633H1014.19C1027.12 57.8633 1037.43 61.1824 1045.11 67.8205C1052.8 74.4586 1056.64 84.736 1056.64 98.6527C1056.64 113.85 1052.8 124.594 1045.11 130.882C1037.43 137.171 1026.45 140.315 1012.18 140.315ZM1024.76 113.501C1028.26 110.415 1030 105.524 1030 98.8274C1030 92.131 1028.23 87.3563 1024.67 84.5031C1021.18 81.6498 1016.26 80.2232 1009.91 80.2232H984.845V118.13H1009.91C1016.26 118.13 1021.21 116.587 1024.76 113.501ZM1144.04 136.996V57.8633H1171.38V136.996C1171.38 150.68 1169.25 161.336 1165 168.964C1157.08 182.939 1141.97 189.926 1119.67 189.926C1097.37 189.926 1082.23 182.939 1074.25 168.964C1070 161.336 1067.87 150.68 1067.87 136.996V57.8633H1095.21V136.996C1095.21 145.847 1096.26 152.311 1098.36 156.387C1101.62 163.607 1108.72 167.217 1119.67 167.217C1130.56 167.217 1137.63 163.607 1140.89 156.387C1142.99 152.311 1144.04 145.847 1144.04 136.996Z" fill="#828EFF"/>
<circle cx="767.829" cy="127.21" r="14.3333" fill="#828EFF"/>
<path d="M421.24 311.28V241.724H427.809V305.677H465.099V311.28H421.24ZM468.545 311.28L495.884 241.724H503.323L529.986 311.28H523.224L515.205 289.447H483.518L475.307 311.28H468.545ZM485.74 283.844H512.983L499.362 247.327L485.74 283.844ZM524.209 241.724H574.83V247.327H552.804V311.28H546.235V247.327H524.209V241.724ZM586.487 311.28V241.724H593.056V311.28H586.487ZM617.625 250.611H617.432V311.28H610.863V241.724H618.302L658.49 302.489H658.683V241.724H665.252V311.28H657.62L617.625 250.611ZM678.07 276.598C678.07 271.511 678.746 266.745 680.099 262.301C681.515 257.857 683.576 253.993 686.281 250.708C688.986 247.359 692.335 244.718 696.328 242.786C700.321 240.854 704.926 239.888 710.143 239.888C715.553 239.888 720.287 240.854 724.344 242.786C728.466 244.654 731.88 247.262 734.584 250.611C737.354 253.896 739.415 257.792 740.767 262.301C742.184 266.745 742.893 271.511 742.893 276.598C742.893 281.622 742.184 286.356 740.767 290.8C739.415 295.179 737.386 299.043 734.681 302.392C731.976 305.677 728.595 308.285 724.537 310.217C720.48 312.15 715.778 313.116 710.433 313.116C705.087 313.116 700.386 312.15 696.328 310.217C692.271 308.285 688.89 305.677 686.185 302.392C683.48 299.043 681.451 295.179 680.099 290.8C678.746 286.356 678.07 281.622 678.07 276.598ZM710.53 307.512C715.038 307.512 718.902 306.675 722.122 305.001C725.407 303.262 728.08 300.975 730.141 298.142C732.266 295.308 733.812 292.023 734.778 288.288C735.808 284.552 736.323 280.656 736.323 276.598C736.323 271.768 735.712 267.453 734.488 263.653C733.329 259.789 731.622 256.504 729.368 253.799C727.114 251.094 724.376 249.034 721.156 247.617C717.936 246.2 714.329 245.491 710.336 245.491C705.892 245.491 702.028 246.361 698.744 248.1C695.523 249.839 692.851 252.157 690.725 255.055C688.664 257.889 687.119 261.174 686.088 264.909C685.122 268.645 684.639 272.541 684.639 276.598C684.639 280.72 685.122 284.649 686.088 288.384C687.119 292.12 688.664 295.404 690.725 298.238C692.851 301.072 695.523 303.326 698.744 305.001C702.028 306.675 705.957 307.512 710.53 307.512ZM749.589 311.28L776.929 241.724H784.368L811.031 311.28H804.269L796.25 289.447H764.563L756.352 311.28H749.589ZM766.785 283.844H794.028L780.407 247.327L766.785 283.844ZM820.111 311.28V241.724H830.158L852.957 303.069H853.151L875.563 241.724H885.514V311.28H878.944V249.259H878.751L855.952 311.28H849.769L826.874 249.259H826.68V311.28H820.111ZM900.875 311.28V241.724H947.149V247.327H907.444V272.444H943.285V278.048H907.444V305.677H948.115V311.28H900.875ZM917.008 236.314L927.731 222.885H935.17L921.935 236.314H917.008ZM986.886 274.087C989.333 274.087 991.588 273.829 993.648 273.314C995.774 272.799 997.609 271.994 999.155 270.899C1000.7 269.739 1001.92 268.29 1002.83 266.551C1003.73 264.813 1004.18 262.719 1004.18 260.272C1004.18 257.696 1003.7 255.571 1002.73 253.896C1001.83 252.222 1000.57 250.901 998.962 249.935C997.416 248.969 995.613 248.293 993.552 247.906C991.555 247.52 989.462 247.327 987.272 247.327H966.406V274.087H986.886ZM966.406 279.69V311.28H959.836V241.724H987.079C994.743 241.724 1000.6 243.173 1004.66 246.071C1008.72 248.905 1010.75 253.542 1010.75 259.982C1010.75 264.362 1009.85 267.84 1008.04 270.416C1006.3 272.992 1003.44 275.182 999.445 276.985C1001.51 277.693 1003.12 278.724 1004.28 280.076C1005.43 281.429 1006.3 282.974 1006.88 284.713C1007.46 286.452 1007.82 288.288 1007.95 290.22C1008.14 292.152 1008.27 294.02 1008.33 295.823C1008.4 298.464 1008.49 300.653 1008.62 302.392C1008.82 304.131 1009.01 305.548 1009.2 306.643C1009.46 307.738 1009.75 308.607 1010.07 309.251C1010.39 309.831 1010.78 310.282 1011.23 310.604V311.28H1003.99C1003.28 310.121 1002.76 308.511 1002.44 306.45C1002.18 304.389 1001.96 302.231 1001.76 299.977C1001.63 297.723 1001.51 295.533 1001.38 293.408C1001.31 291.283 1001.15 289.544 1000.89 288.191C1000.51 286.324 999.863 284.842 998.962 283.747C998.125 282.588 997.094 281.719 995.87 281.139C994.647 280.559 993.262 280.173 991.716 279.98C990.235 279.786 988.689 279.69 987.079 279.69H966.406ZM1026.69 311.28V241.724H1033.26V311.28H1026.69ZM1100.62 261.914C1099.27 255.989 1096.76 251.771 1093.09 249.259C1089.42 246.747 1084.62 245.491 1078.69 245.491C1074.51 245.491 1070.9 246.329 1067.87 248.003C1064.85 249.678 1062.33 251.932 1060.34 254.765C1058.4 257.599 1056.96 260.884 1055.99 264.619C1055.09 268.29 1054.64 272.187 1054.64 276.309C1054.64 280.173 1055.02 283.973 1055.8 287.708C1056.63 291.444 1057.99 294.793 1059.85 297.755C1061.72 300.653 1064.23 303.004 1067.39 304.808C1070.54 306.611 1074.51 307.512 1079.27 307.512C1082.23 307.512 1084.94 307.029 1087.39 306.063C1089.83 305.097 1091.96 303.777 1093.76 302.103C1095.63 300.364 1097.18 298.335 1098.4 296.016C1099.69 293.698 1100.65 291.154 1101.3 288.384H1108.16C1107.38 291.733 1106.26 294.921 1104.78 297.948C1103.29 300.911 1101.33 303.519 1098.88 305.774C1096.5 308.028 1093.57 309.831 1090.09 311.184C1086.68 312.472 1082.65 313.116 1078.02 313.116C1072.67 313.116 1068.1 312.15 1064.3 310.217C1060.5 308.221 1057.37 305.548 1054.93 302.199C1052.54 298.85 1050.81 294.986 1049.71 290.606C1048.62 286.163 1048.07 281.461 1048.07 276.502C1048.07 269.868 1048.87 264.233 1050.48 259.596C1052.16 254.959 1054.44 251.191 1057.34 248.293C1060.24 245.33 1063.65 243.205 1067.58 241.917C1071.51 240.564 1075.79 239.888 1080.43 239.888C1083.97 239.888 1087.26 240.371 1090.28 241.337C1093.38 242.239 1096.08 243.624 1098.4 245.491C1100.78 247.359 1102.71 249.678 1104.2 252.447C1105.74 255.152 1106.8 258.308 1107.38 261.914H1100.62ZM1114.6 311.28L1141.94 241.724H1149.38L1176.04 311.28H1169.28L1161.26 289.447H1129.57L1121.36 311.28H1114.6ZM1131.79 283.844H1159.04L1145.42 247.327L1131.79 283.844Z" fill="#828EFF"/>
<path fill-rule="evenodd" clip-rule="evenodd" d="M350.743 165.309C357.752 172.318 357.752 183.682 350.743 190.691L190.691 350.743C183.682 357.752 172.318 357.752 165.309 350.743L5.25729 190.691C-1.75174 183.682 -1.75174 172.318 5.25729 165.309L165.309 5.25676C172.318 -1.75225 183.682 -1.75225 190.691 5.25676L350.743 165.309ZM269.878 113.139L178.85 22.1109C178.224 21.4851 177.21 21.4851 176.584 22.1109L128.947 69.7481C136.323 68.8737 143.459 69.4712 150.724 71.835C161.46 75.3282 172.006 82.5371 183.807 93.4772C184.557 93.9473 185.265 94.5084 185.917 95.1604L261.335 170.578C261.514 170.757 261.686 170.941 261.852 171.128C268.608 162.964 273.274 155.425 275.737 148.177C279.561 136.924 278.235 125.887 269.672 113.28L269.878 113.139ZM287.792 131.053L334.122 177.383C334.747 178.008 334.747 179.023 334.122 179.649L243.909 269.862C227.087 276.577 214.302 277.008 202.211 272.467C196.766 270.422 191.341 267.328 185.672 263.156C185.755 263.078 185.836 262.998 185.917 262.917L261.335 187.499C261.902 186.932 262.401 186.322 262.83 185.68C273.693 174.039 281.693 162.856 285.549 151.512C287.878 144.657 288.657 137.867 287.792 131.053ZM246.962 187.217L227.138 207.041V151.036L254.007 177.906C254.442 178.34 254.575 178.962 254.406 179.51C252.067 181.988 249.558 184.527 246.882 187.135L246.962 187.217ZM176.725 255.883C176.398 255.595 176.071 255.303 175.743 255.009L149.496 228.763H205.417L178.59 255.59C178.085 256.094 177.327 256.192 176.725 255.883ZM198.705 281.801C189.752 278.438 181.178 272.812 172.327 265.27C171.122 264.699 169.993 263.914 168.996 262.917L93.5781 187.499C93.4509 187.372 93.3271 187.243 93.2068 187.111C89.4669 191.87 86.5041 196.42 84.263 200.998C78.9447 211.861 77.5316 223.236 80.2929 238.629L176.584 334.92C177.21 335.546 178.224 335.546 178.85 334.92L229.288 284.482C218.428 286.353 208.478 285.471 198.705 281.801ZM100.502 178.586C102.127 176.814 103.851 175.001 105.675 173.136L110.599 168.212C112.361 166.485 114.202 164.71 116.125 162.882L116.029 162.782L129.545 149.267V208.811L100.906 180.172C100.476 179.742 100.342 179.13 100.502 178.586ZM75.3077 196.613C79.0234 189.024 84.3468 181.714 91.1598 174.05C91.7363 172.792 92.5424 171.614 93.5781 170.578L168.996 95.1604C169.154 95.0025 169.315 94.8498 169.48 94.7026C161.388 88.0703 154.306 83.8983 147.517 81.6893C137.481 78.4238 127.444 79.2532 114.616 84.0788L21.3121 177.383C20.6864 178.008 20.6864 179.023 21.3121 179.649L69.001 227.338C68.5639 216.082 70.6009 206.227 75.3077 196.613ZM184.314 108.212L184.213 108.312C182.005 106.08 179.875 103.998 177.812 102.058C177.293 101.941 176.727 102.084 176.324 102.488L147.642 131.169H207.271L184.314 108.212ZM341.449 186.976C346.122 182.304 346.122 174.728 341.449 170.055L186.178 14.7833C181.505 10.1106 173.929 10.1106 169.256 14.7833L13.9845 170.055C9.31183 174.728 9.31183 182.304 13.9845 186.976L169.256 342.248C173.929 346.921 181.505 346.921 186.178 342.248L341.449 186.976ZM145.498 141.14H211.184C214.488 141.14 217.167 143.819 217.167 147.123V212.809C217.167 216.113 214.488 218.792 211.184 218.792H145.498C142.194 218.792 139.515 216.113 139.515 212.809V147.123C139.515 143.819 142.194 141.14 145.498 141.14ZM147.588 153.092C147.588 150.889 149.374 149.103 151.576 149.103H206.026C208.229 149.103 210.014 150.889 210.014 153.092V207.541C210.014 209.744 208.229 211.53 206.026 211.53H151.576C149.374 211.53 147.588 209.744 147.588 207.541V153.092Z" fill="#828EFF"/>
<path d="M159.737 159.51C158.773 159.51 157.992 160.291 157.992 161.254L157.992 199.383C157.992 200.346 158.773 201.127 159.737 201.127L197.865 201.127C198.829 201.127 199.61 200.346 199.61 199.383L199.61 161.254C199.61 160.291 198.829 159.51 197.865 159.51L159.737 159.51Z" fill="#CFB1FB"/>
</svg>
