<svg width="1087" height="171" viewBox="0 0 1087 171" fill="none" xmlns="http://www.w3.org/2000/svg">
<path d="M47.9234 164.171C26.1725 151.179 -10.5372 109.634 16.6317 47.3892M57.6764 129.975C47.832 122.733 30.9547 101.043 42.2006 72.2185" stroke="url(#paint0_linear_40_303)" stroke-width="12.9941" stroke-linecap="round" stroke-linejoin="round"/>
<path d="M158.611 6.72632C180.362 19.7185 217.071 61.2641 189.903 123.509M148.858 40.9228C158.702 48.1649 175.58 69.8551 164.334 98.6792" stroke="url(#paint1_linear_40_303)" stroke-width="12.9941" stroke-linecap="round" stroke-linejoin="round"/>
<path d="M66.3044 90.5251L103.883 27.7883V112.658L66.3044 90.5251Z" fill="url(#paint2_linear_40_303)"/>
<path d="M141.461 90.5251L103.883 27.7883V112.658L141.461 90.5251Z" fill="url(#paint3_linear_40_303)"/>
<path d="M104.042 151.829L66.3042 98.009L104.042 120.301V151.829Z" fill="url(#paint4_linear_40_303)"/>
<path d="M104.042 151.669L141.779 97.8496L104.042 120.142V151.669Z" fill="url(#paint5_linear_40_303)"/>
<path d="M277.812 136.278C294.997 136.278 303.59 130.398 303.59 118.637C303.59 115.018 302.798 111.965 301.215 109.477C299.746 106.876 297.711 104.671 295.11 102.862C292.51 100.94 289.514 99.3 286.122 97.943C282.843 96.586 279.338 95.229 275.607 93.8721C271.311 92.402 267.241 90.7623 263.397 88.953C259.553 87.0306 256.217 84.8255 253.391 82.3377C250.564 79.7368 248.303 76.6836 246.607 73.178C245.024 69.6725 244.233 65.4319 244.233 60.4563C244.233 50.1658 247.738 42.137 254.748 36.3698C261.757 30.6026 271.424 27.719 283.748 27.719C290.87 27.719 297.315 28.5106 303.081 30.0937C308.96 31.5638 313.256 33.2035 315.97 35.0128L310.713 48.413C308.338 46.943 304.777 45.5294 300.028 44.1724C295.393 42.7024 289.966 41.9674 283.748 41.9674C280.582 41.9674 277.642 42.3066 274.929 42.9851C272.215 43.6636 269.841 44.6813 267.806 46.0383C265.771 47.3953 264.132 49.1481 262.888 51.2966C261.757 53.3321 261.192 55.7634 261.192 58.5904C261.192 61.7567 261.814 64.4142 263.058 66.5627C264.301 68.7113 266.054 70.6337 268.315 72.3299C270.576 73.9131 273.176 75.3831 276.116 76.7401C279.169 78.0971 282.504 79.4541 286.122 80.8111C291.21 82.8465 295.845 84.882 300.028 86.9175C304.325 88.953 307.999 91.3842 311.052 94.2113C314.217 97.0384 316.648 100.431 318.344 104.389C320.04 108.233 320.888 112.926 320.888 118.467C320.888 128.758 317.101 136.674 309.525 142.215C302.063 147.756 291.492 150.526 277.812 150.526C273.176 150.526 268.88 150.187 264.923 149.508C261.079 148.943 257.631 148.265 254.578 147.473C251.525 146.568 248.868 145.664 246.607 144.759C244.459 143.741 242.763 142.893 241.52 142.215L246.438 128.645C249.038 130.115 252.995 131.755 258.309 133.564C263.623 135.373 270.124 136.278 277.812 136.278Z" fill="white"/>
<path d="M354.505 59.7778H387.915V73.0084H354.505V113.718C354.505 118.128 354.845 121.803 355.523 124.743C356.201 127.571 357.219 129.832 358.576 131.528C359.932 133.112 361.628 134.242 363.663 134.921C365.698 135.599 368.073 135.939 370.786 135.939C375.535 135.939 379.322 135.43 382.149 134.412C385.088 133.281 387.123 132.49 388.254 132.037L391.307 145.098C389.724 145.89 386.954 146.851 382.997 147.982C379.04 149.226 374.517 149.848 369.429 149.848C363.437 149.848 358.463 149.113 354.505 147.643C350.661 146.059 347.552 143.741 345.178 140.688C342.804 137.635 341.108 133.903 340.09 129.493C339.186 124.97 338.733 119.768 338.733 113.888V35.1824L354.505 32.4684V59.7778Z" fill="white"/>
<path d="M440.546 57.9119C441.903 57.9119 443.429 58.025 445.125 58.2512C446.934 58.3643 448.687 58.5904 450.383 58.9297C452.078 59.1558 453.605 59.4385 454.961 59.7778C456.431 60.0039 457.505 60.2301 458.184 60.4563L455.47 74.1958C454.227 73.7434 452.135 73.2346 449.195 72.6691C446.369 71.9907 442.694 71.6514 438.172 71.6514C435.232 71.6514 432.293 71.9907 429.353 72.6691C426.527 73.2346 424.661 73.6304 423.757 73.8565V147.982H407.985V63.5095C411.716 62.1525 416.351 60.9086 421.891 59.7778C427.431 58.5339 433.65 57.9119 440.546 57.9119Z" fill="white"/>
<path d="M468.485 104.049C468.485 96.2468 469.616 89.4618 471.877 83.6947C474.138 77.8144 477.134 72.9519 480.865 69.1071C484.596 65.2623 488.892 62.3787 493.754 60.4563C498.616 58.5339 503.59 57.5727 508.678 57.5727C520.549 57.5727 529.651 61.3044 535.982 68.7678C542.314 76.1182 545.479 87.3698 545.479 102.523C545.479 103.201 545.479 104.106 545.479 105.237C545.479 106.255 545.423 107.216 545.31 108.12H484.935C485.614 117.28 488.271 124.235 492.906 128.984C497.542 133.734 504.777 136.108 514.614 136.108C520.154 136.108 524.789 135.656 528.52 134.751C532.364 133.734 535.247 132.772 537.169 131.868L539.374 145.098C537.452 146.116 534.06 147.19 529.199 148.321C524.45 149.452 519.023 150.017 512.918 150.017C505.23 150.017 498.559 148.887 492.906 146.625C487.366 144.25 482.787 141.027 479.169 136.956C475.551 132.885 472.838 128.079 471.029 122.538C469.333 116.884 468.485 110.721 468.485 104.049ZM529.029 95.3987C529.142 88.2745 527.333 82.4508 523.602 77.9275C519.984 73.2911 514.953 70.9729 508.508 70.9729C504.891 70.9729 501.668 71.708 498.842 73.178C496.128 74.535 493.811 76.3443 491.889 78.606C489.967 80.8676 488.44 83.4685 487.31 86.4086C486.292 89.3488 485.614 92.3454 485.275 95.3987H529.029Z" fill="white"/>
<path d="M597.983 136.617C601.715 136.617 604.993 136.561 607.82 136.447C610.759 136.221 613.19 135.882 615.112 135.43V109.138C613.982 108.573 612.116 108.12 609.516 107.781C607.028 107.329 603.976 107.103 600.358 107.103C597.984 107.103 595.44 107.272 592.726 107.612C590.126 107.951 587.695 108.686 585.434 109.817C583.286 110.834 581.477 112.304 580.007 114.227C578.537 116.036 577.802 118.467 577.802 121.521C577.802 127.175 579.611 131.133 583.229 133.394C586.847 135.543 591.765 136.617 597.983 136.617ZM596.627 57.5727C602.958 57.5727 608.272 58.4208 612.568 60.117C616.978 61.7002 620.483 64.0184 623.083 67.0716C625.796 70.0117 627.718 73.5738 628.849 77.7578C629.98 81.8288 630.545 86.3521 630.545 91.3277V146.455C629.188 146.681 627.266 147.021 624.779 147.473C622.405 147.812 619.691 148.151 616.638 148.491C613.586 148.83 610.251 149.113 606.633 149.339C603.128 149.678 599.623 149.848 596.118 149.848C591.143 149.848 586.564 149.339 582.381 148.321C578.198 147.303 574.58 145.72 571.527 143.572C568.475 141.31 566.1 138.37 564.405 134.751C562.709 131.133 561.861 126.779 561.861 121.69C561.861 116.828 562.822 112.644 564.744 109.138C566.779 105.633 569.492 102.806 572.884 100.657C576.276 98.5084 580.233 96.9253 584.755 95.9075C589.278 94.8898 594.026 94.3809 599.001 94.3809C600.584 94.3809 602.223 94.494 603.919 94.7202C605.615 94.8332 607.198 95.0594 608.668 95.3987C610.251 95.6248 611.607 95.851 612.738 96.0771C613.868 96.3033 614.66 96.4729 615.112 96.586V92.1758C615.112 89.5749 614.83 87.0306 614.264 84.5428C613.699 81.9419 612.681 79.6802 611.212 77.7578C609.742 75.7224 607.707 74.1392 605.106 73.0084C602.619 71.7645 599.34 71.1425 595.27 71.1425C590.069 71.1425 585.49 71.5383 581.533 72.3299C577.689 73.0084 574.806 73.7434 572.884 74.535L571.019 61.474C573.054 60.5694 576.445 59.7212 581.194 58.9297C585.943 58.025 591.087 57.5727 596.627 57.5727Z" fill="white"/>
<path d="M656.74 62.3221C660.358 61.4175 665.107 60.4563 670.986 59.4385C676.978 58.4208 683.875 57.9119 691.676 57.9119C697.329 57.9119 702.077 58.7035 705.921 60.2867C709.766 61.7567 712.988 63.9618 715.588 66.902C716.38 66.3366 717.623 65.545 719.319 64.5272C721.015 63.5095 723.107 62.5483 725.594 61.6436C728.081 60.6259 730.851 59.7778 733.904 59.0993C736.957 58.3077 740.235 57.9119 743.74 57.9119C750.524 57.9119 756.064 58.9297 760.36 60.9651C764.656 62.8875 767.992 65.6581 770.366 69.2767C772.853 72.8953 774.493 77.1924 775.284 82.1681C776.189 87.1437 776.641 92.5716 776.641 98.4519V147.982H760.869V101.844C760.869 96.6426 760.586 92.1758 760.021 88.4441C759.569 84.7124 758.608 81.6026 757.138 79.1148C755.781 76.627 753.859 74.8177 751.372 73.6869C748.997 72.443 745.888 71.821 742.044 71.821C736.73 71.821 732.321 72.5561 728.816 74.0261C725.424 75.3831 723.107 76.627 721.863 77.7578C722.767 80.698 723.446 83.9208 723.898 87.4264C724.35 90.9319 724.576 94.6071 724.576 98.4519V147.982H708.804V101.844C708.804 96.6426 708.522 92.1758 707.957 88.4441C707.391 84.7124 706.374 81.6026 704.904 79.1148C703.547 76.627 701.625 74.8177 699.138 73.6869C696.764 72.443 693.711 71.821 689.98 71.821C688.397 71.821 686.701 71.8776 684.892 71.9907C683.083 72.1037 681.331 72.2734 679.635 72.4995C678.052 72.6126 676.582 72.7822 675.225 73.0084C673.869 73.2346 672.964 73.4042 672.512 73.5173V147.982H656.74V62.3221Z" fill="white"/>
<path d="M803.831 147.982V30.433H875.568V44.5117H820.281V79.4541H869.463V93.1936H820.281V133.903H879.808V147.982H803.831Z" fill="white"/>
<path d="M979.237 30.433V44.6813H942.266V147.982H925.816V44.6813H888.845V30.433H979.237Z" fill="white"/>
<path d="M1070.55 30.433H1087V147.982H1070.55V93.7024H1013.06V147.982H996.608V30.433H1013.06V79.4541H1070.55V30.433Z" fill="white"/>
<defs>
<linearGradient id="paint0_linear_40_303" x1="0.860556" y1="112.18" x2="70.7627" y2="89.4103" gradientUnits="userSpaceOnUse">
<stop stop-color="#6426EF"/>
<stop offset="1" stop-color="#FF9976"/>
</linearGradient>
<linearGradient id="paint1_linear_40_303" x1="209.134" y1="58.2012" x2="137.799" y2="90.0473" gradientUnits="userSpaceOnUse">
<stop stop-color="#6426EF"/>
<stop offset="1" stop-color="#FF9976"/>
</linearGradient>
<linearGradient id="paint2_linear_40_303" x1="103.883" y1="27.7883" x2="90.1837" y2="97.2574" gradientUnits="userSpaceOnUse">
<stop stop-color="#6426EF"/>
<stop offset="1" stop-color="#FF9976"/>
</linearGradient>
<linearGradient id="paint3_linear_40_303" x1="104.042" y1="27.7883" x2="141.353" y2="91.222" gradientUnits="userSpaceOnUse">
<stop stop-color="#6426EF"/>
<stop offset="1" stop-color="#FF9976"/>
</linearGradient>
<linearGradient id="paint4_linear_40_303" x1="88.278" y1="107.881" x2="111.819" y2="147.242" gradientUnits="userSpaceOnUse">
<stop stop-color="#FF9976"/>
<stop offset="1" stop-color="#6426EF"/>
</linearGradient>
<linearGradient id="paint5_linear_40_303" x1="103.882" y1="112.658" x2="107.8" y2="152.459" gradientUnits="userSpaceOnUse">
<stop stop-color="#FF9976"/>
<stop offset="1" stop-color="#6426EF"/>
</linearGradient>
</defs>
</svg>
