<?xml version="1.0" encoding="utf-8"?>
<!-- Generator: Adobe Illustrator 27.7.0, SVG Export Plug-In . SVG Version: 6.00 Build 0)  -->
<svg version="1.1" id="Capa_2_00000152256362438830209580000011291576189663480509_"
	 xmlns="http://www.w3.org/2000/svg" xmlns:xlink="http://www.w3.org/1999/xlink" x="0px" y="0px" viewBox="0 0 348.6 95.6"
	 style="enable-background:new 0 0 348.6 95.6;" xml:space="preserve">
<style type="text/css">
	.st0{fill:#00FF65;}
	.st1{fill:#FFFFFF;}
</style>
<path class="st0" d="M60,45.6L60,45.6c-6.2-5-16.1-7.5-29.2-7.5H22V15.2l37.1,0.1c1.5,0,2.7-0.5,3.7-1.5c1-1,1.5-2.3,1.5-3.7V1.5
	h-56v43.4c0,1.5,0.5,2.8,1.6,3.8c1.1,1.1,2.3,1.6,3.8,1.6h14.3c10,0,17.1,1.4,21.2,4.2c4.1,2.7,6.1,6.8,6.1,12.1
	c0,4.9-1.9,8.9-5.5,11.7c-3.7,2.9-9,4.3-15.9,4.3c-5.3,0-10.5-0.9-15.3-2.7c-2.9-1.1-5.6-2.4-7.8-3.8c-1.3-0.9-2.7-1.2-4.2-0.8
	c-1.5,0.3-2.7,1.2-3.5,2.6L0,83.7l0.3,0.2c3.9,3.5,9,6.3,15.1,8.3c6,2,12.4,3,18.9,3c7.7,0,14.2-1.3,19.4-3.8
	c5.3-2.5,9.3-6,11.9-10.4c2.6-4.4,3.9-9.4,3.9-14.9C69.5,57.5,66.3,50.6,60,45.6L60,45.6z"/>
<path class="st1" d="M143.1,48.9c-2.9-2.1-6.4-4-10.4-5.4c-4-1.5-8.9-2.7-14.6-3.8c-7.4-1.5-12.8-3.2-16-5.1
	c-3.1-1.9-4.6-4.5-4.6-7.8c0-4,1.6-7,5-9.3c3.4-2.2,8.2-3.4,14.4-3.4s12.3,1.6,17.5,4.9c2.4,1.5,5.4,1.5,7.9,0.1
	c1.2-0.7,2.2-1.7,2.8-3l2.5-4.7l-0.2-0.2c-2.2-2-4.6-3.8-7.3-5.2s-5.1-2.6-7.2-3.3s-4.4-1.3-6.8-1.7c-2.4-0.4-4.2-0.6-5.4-0.7
	C119.5,0,118.3,0,117.2,0c-5.3,0-10.1,0.7-14.4,2.1c-4.3,1.4-7.9,3.4-10.7,5.8c-2.8,2.5-4.9,5.4-6.4,8.7c-1.5,3.3-2.2,6.9-2.2,10.8
	c0,2.6,0.3,5,1,7.1c0.6,2.2,1.8,4.3,3.3,6.3c1.6,2,3.6,3.8,6.2,5.4c2.5,1.6,5.7,3,9.6,4.3c3.8,1.3,8.3,2.4,13.4,3.2
	c6.5,1.2,11.7,2.9,15.3,5.3c3.6,2.3,5.4,5.2,5.4,8.6c0,4.3-1.8,7.7-5.4,10.2c-3.7,2.5-8.9,3.8-15.7,3.8c-8.1,0-15.8-2.7-22.8-7.9
	c-1.3-1-2.9-1.5-4.5-1.5c-1.3,0-2.6,0.3-3.8,1c-1.2,0.7-2.2,1.6-2.9,2.9l-2.3,4.2l0.2,0.2c0.5,0.6,1.2,1.4,2.2,2.3
	c0.9,0.9,2.6,2.2,4.8,3.8c2.2,1.6,4.7,3.1,7.2,4.3c2.6,1.2,5.8,2.4,9.7,3.3c3.9,1,7.9,1.4,12,1.4c5.3,0,10.2-0.7,14.7-2.2
	c4.4-1.4,8.2-3.4,11.2-6c3-2.5,5.4-5.6,7-9.1c1.6-3.5,2.5-7.3,2.5-11.4s-0.7-7.3-2.1-10.3S146,51.1,143.1,48.9L143.1,48.9z"/>
<path class="st1" d="M218.8,1.5h-53.1v13.9h60.6V9c0-2.1-0.7-3.8-2.2-5.3C222.6,2.2,220.8,1.5,218.8,1.5L218.8,1.5z"/>
<rect x="165.6" y="41" class="st1" width="46.7" height="13.8"/>
<path class="st1" d="M181.4,80h-15.8v14h53.1c2.1,0,3.9-0.7,5.3-2.2c1.5-1.5,2.2-3.2,2.2-5.3v-6.4L181.4,80L181.4,80L181.4,80z"/>
<path class="st1" d="M251.9,1.5h-6.4v85c0,2.1,0.7,3.8,2.2,5.3c1.5,1.5,3.2,2.2,5.3,2.2h6.4V9c0-2.1-0.7-3.8-2.2-5.3
	C255.8,2.2,254,1.5,251.9,1.5L251.9,1.5z"/>
<path class="st1" d="M346.6,56.6c-1.4-3-3.6-5.6-6.5-7.7c-2.9-2.1-6.4-4-10.4-5.4c-4-1.5-8.9-2.7-14.6-3.8c-7.5-1.5-12.8-3.2-16-5.1
	c-3.1-1.9-4.6-4.5-4.6-7.8c0-4,1.6-7,5-9.3c3.4-2.2,8.2-3.4,14.4-3.4s12.3,1.6,17.5,4.9c2.4,1.5,5.4,1.5,7.9,0.1
	c1.2-0.7,2.2-1.7,2.8-3l2.5-4.7l-0.2-0.2c-2.2-2-4.6-3.8-7.3-5.2s-5.1-2.6-7.2-3.3s-4.4-1.3-6.8-1.7c-2.4-0.4-4.2-0.6-5.4-0.7
	C316.6,0,315.4,0,314.2,0c-5.3,0-10.1,0.7-14.4,2.1c-4.3,1.4-7.9,3.4-10.7,5.8c-2.8,2.5-5,5.4-6.4,8.7c-1.5,3.3-2.2,6.9-2.2,10.8
	c0,2.6,0.3,5,1,7.1c0.6,2.2,1.8,4.3,3.3,6.3c1.6,2,3.6,3.8,6.2,5.4c2.5,1.6,5.7,3,9.6,4.3c3.8,1.3,8.3,2.4,13.4,3.2
	c6.5,1.2,11.7,2.9,15.3,5.3c3.6,2.3,5.4,5.2,5.4,8.6c0,4.3-1.8,7.7-5.4,10.2c-3.7,2.5-8.9,3.8-15.6,3.8c-8.1,0-15.8-2.7-22.8-7.9
	c-1.3-1-2.9-1.5-4.5-1.5c-1.3,0-2.6,0.3-3.8,1c-1.2,0.7-2.2,1.6-2.9,2.9l-2.3,4.2l0.2,0.2c0.5,0.6,1.2,1.4,2.2,2.3
	c1,0.9,2.6,2.2,4.8,3.8s4.7,3.1,7.2,4.3c2.6,1.2,5.8,2.4,9.7,3.3c3.9,1,7.9,1.4,12,1.4c5.3,0,10.3-0.7,14.7-2.2
	c4.4-1.4,8.2-3.4,11.2-6c3-2.5,5.4-5.6,7-9.1c1.6-3.5,2.5-7.3,2.5-11.4S347.9,59.6,346.6,56.6z"/>
</svg>
