<svg width="140" height="140" viewBox="0 0 140 140" fill="none" xmlns="http://www.w3.org/2000/svg">
<rect width="140" height="140" fill="#F9B300"/>
<path fill-rule="evenodd" clip-rule="evenodd" d="M70.5938 48.9225C73.7807 44.1138 76.8579 39.3081 80.0449 34.4965C76.9874 36.5018 70.7965 40.6352 70.7036 40.6966L70.5938 48.9225Z" fill="white"/>
<path fill-rule="evenodd" clip-rule="evenodd" d="M61.5039 34.2563L70.5947 48.9219L70.7045 40.696C67.6376 38.5504 64.5708 36.4038 61.5039 34.2563Z" fill="white"/>
<path fill-rule="evenodd" clip-rule="evenodd" d="M70.5371 49.5661C67.3501 54.3748 64.2729 59.1804 61.0859 63.9919C64.1434 61.9866 70.3344 57.8533 70.4273 57.7919L70.5371 49.5661Z" fill="white"/>
<path fill-rule="evenodd" clip-rule="evenodd" d="M79.6303 64.2305L70.5395 49.5649L70.4297 57.7906C73.4966 59.9362 76.5634 62.0829 79.6303 64.2305Z" fill="white"/>
<path fill-rule="evenodd" clip-rule="evenodd" d="M70.9297 49.2619C75.561 52.568 80.1894 55.7631 84.8207 59.0721C82.8922 55.8976 78.9084 49.4694 78.8521 49.3758C76.2057 49.3349 73.5733 49.2941 70.9297 49.2619Z" fill="white"/>
<path fill-rule="evenodd" clip-rule="evenodd" d="M85.0544 39.8232C80.3433 42.9686 75.6351 46.1149 70.9297 49.2622L78.8521 49.3761L85.0544 39.8232Z" fill="white"/>
<path fill-rule="evenodd" clip-rule="evenodd" d="M70.3118 49.1942C65.6805 45.8881 61.0521 42.693 56.418 39.384C58.3493 42.5586 62.3302 48.9866 62.3894 49.0802C65.033 49.1211 67.6682 49.1562 70.3118 49.1942Z" fill="white"/>
<path fill-rule="evenodd" clip-rule="evenodd" d="M56.1875 58.6343C60.8948 55.4889 65.603 52.3426 70.3122 49.1953L62.3898 49.0813L56.1875 58.6343Z" fill="white"/>
<path fill-rule="evenodd" clip-rule="evenodd" d="M84.6914 69.6289C87.8784 64.8173 90.9528 60.0145 94.1398 55.203C91.0823 57.2083 84.8913 61.3416 84.8012 61.403L84.6914 69.6289Z" fill="white"/>
<path fill-rule="evenodd" clip-rule="evenodd" d="M75.6016 54.9631L84.6924 69.6287L84.8022 61.4028C81.7372 59.2533 78.6703 57.1067 75.6016 54.9631Z" fill="white"/>
<path fill-rule="evenodd" clip-rule="evenodd" d="M84.6348 70.2685C81.4478 75.0801 78.3706 79.8858 75.1836 84.6945C78.2411 82.6921 84.4321 78.5557 84.5222 78.4972L84.6348 70.2685Z" fill="white"/>
<path fill-rule="evenodd" clip-rule="evenodd" d="M93.724 84.9374L84.636 70.2688L84.5234 78.4975C87.5922 80.6431 90.6591 82.7898 93.724 84.9374Z" fill="white"/>
<path fill-rule="evenodd" clip-rule="evenodd" d="M85.0273 69.9644C89.6614 73.2734 94.2899 76.4684 98.9212 79.7775C96.9898 76.6029 93.0089 70.1749 92.9526 70.0784C90.3062 70.0492 87.6738 70.0053 85.0273 69.9644Z" fill="white"/>
<path fill-rule="evenodd" clip-rule="evenodd" d="M99.1559 60.5266C94.4486 63.6739 89.7404 66.8202 85.0312 69.9655L92.9621 70.0796L99.1559 60.5266Z" fill="white"/>
<path fill-rule="evenodd" clip-rule="evenodd" d="M84.4094 69.9005C79.7754 66.5915 75.1469 63.3963 70.5156 60.0873C72.447 63.2619 76.4279 69.69 76.4842 69.7865C79.1306 69.8274 81.763 69.8596 84.4094 69.9005Z" fill="white"/>
<path fill-rule="evenodd" clip-rule="evenodd" d="M70.2852 79.3395C74.9924 76.1941 79.7007 73.0479 84.4098 69.9006L76.4846 69.7866L70.2852 79.3395Z" fill="white"/>
<path fill-rule="evenodd" clip-rule="evenodd" d="M55.5156 69.3597C58.7026 64.5482 61.7798 59.7454 64.9668 54.9338C61.9093 56.9391 55.7183 61.0725 55.6282 61.1339L55.5156 69.3597Z" fill="white"/>
<path fill-rule="evenodd" clip-rule="evenodd" d="M46.4297 54.694L55.5149 69.3596L55.6275 61.1337L46.4297 54.694Z" fill="white"/>
<path fill-rule="evenodd" clip-rule="evenodd" d="M55.4562 70.0038C52.2692 74.8124 49.1948 79.6182 46.0078 84.4269C49.0653 82.4245 55.2563 78.2881 55.3464 78.2297L55.4562 70.0038Z" fill="white"/>
<path fill-rule="evenodd" clip-rule="evenodd" d="M64.5483 84.6666L55.4574 70.001L55.3477 78.2356C58.4127 80.3793 61.4795 82.523 64.5483 84.6666Z" fill="white"/>
<path fill-rule="evenodd" clip-rule="evenodd" d="M55.8516 69.6969C60.4857 73.006 65.1113 76.201 69.7454 79.51C67.814 76.3354 63.8331 69.9074 63.774 69.8138C61.1304 69.7583 58.498 69.7379 55.8516 69.6969Z" fill="white"/>
<path fill-rule="evenodd" clip-rule="evenodd" d="M69.9762 60.2569C65.269 63.4061 60.5607 66.5524 55.8516 69.6958L63.774 69.8127L69.9762 60.2569Z" fill="white"/>
<path fill-rule="evenodd" clip-rule="evenodd" d="M55.2348 69.6327C50.6035 66.3236 45.975 63.1287 41.3437 59.8196C43.2723 62.9942 47.256 69.4252 47.3123 69.5188C49.956 69.5597 52.5883 69.5918 55.2348 69.6327Z" fill="white"/>
<path fill-rule="evenodd" clip-rule="evenodd" d="M41.1094 79.0721C45.8185 75.9268 50.5268 72.7805 55.2341 69.6332L47.3116 69.5193L41.1094 79.0721Z" fill="white"/>
<path fill-rule="evenodd" clip-rule="evenodd" d="M69.793 89.2073C72.98 84.3957 76.0572 79.593 79.2441 74.7815C76.1867 76.7868 69.9957 80.9201 69.9028 80.9815L69.793 89.2073Z" fill="white"/>
<path fill-rule="evenodd" clip-rule="evenodd" d="M60.7031 74.5417L69.794 89.2073L69.9037 80.9815C66.8387 78.832 63.7719 76.6853 60.7031 74.5417Z" fill="white"/>
<path fill-rule="evenodd" clip-rule="evenodd" d="M69.7324 89.8504C66.5454 94.659 63.4682 99.4647 60.2812 104.273C63.3387 102.271 69.5297 98.1347 69.6226 98.0763L69.7324 89.8504Z" fill="white"/>
<path fill-rule="evenodd" clip-rule="evenodd" d="M78.8217 104.516L69.7309 89.8508L69.6211 98.0766L78.8217 104.516Z" fill="white"/>
<path fill-rule="evenodd" clip-rule="evenodd" d="M70.125 89.5425C74.7563 92.8516 79.3847 96.0465 84.016 99.3556C82.0875 96.181 78.1037 89.753 78.0474 89.6594C75.4038 89.6185 72.7686 89.5834 70.125 89.5425Z" fill="white"/>
<path fill-rule="evenodd" clip-rule="evenodd" d="M84.2497 80.1032C79.5424 83.2505 74.8342 86.3968 70.125 89.5422L78.0474 89.6591L84.2497 80.1032Z" fill="white"/>
<path fill-rule="evenodd" clip-rule="evenodd" d="M69.5071 89.479C64.8758 86.17 60.2474 82.9749 55.6133 79.6688C57.5446 82.8404 61.5255 89.2714 61.5847 89.365C64.2283 89.4059 66.8635 89.4381 69.5071 89.479Z" fill="white"/>
<path fill-rule="evenodd" clip-rule="evenodd" d="M55.3828 98.9185L69.5075 89.4795L61.5851 89.3654L55.3828 98.9185Z" fill="white"/>
</svg>
