<svg width="140" height="140" viewBox="0 0 140 140" fill="none" xmlns="http://www.w3.org/2000/svg">
<rect y="0.235474" width="139.078" height="139.078" fill="#F9B300"/>
<path d="M70.4845 47.6303C70.4845 39.6968 70.4845 30.0003 70.4845 30.0003C79.6727 30.0003 87.1211 37.8935 87.1211 47.6303C87.1211 57.3672 79.6727 65.2604 70.4845 65.2604C70.4845 65.2604 70.4845 55.1231 70.4845 47.6303Z" fill="#0B1628"/>
<path d="M103.153 47.6305C103.153 55.564 103.153 65.2606 103.153 65.2606C94.2987 65.2606 87.1211 57.3673 87.1211 47.6305C87.1211 37.8937 94.2987 30.0004 103.153 30.0004C103.153 30.0004 103.153 40.1377 103.153 47.6305Z" fill="#0B1628"/>
<path d="M53.2429 65.2601C45.4842 65.2601 36.0013 65.2601 36.0013 65.2601C36.0013 55.2602 43.7206 47.1536 53.2429 47.1536C62.7651 47.1536 70.4844 55.2602 70.4844 65.2601C70.4844 65.2601 60.5705 65.2601 53.2429 65.2601Z" fill="#0B1628"/>
<path d="M53.2415 30C61.0002 30 70.483 30 70.483 30C70.483 39.4736 62.7638 47.1536 53.2415 47.1536C43.7193 47.1536 36 39.4736 36 30C36 30 45.9139 30 53.2415 30Z" fill="#0B1628"/>
<path d="M68.6717 82.8905C68.6717 90.824 68.6717 100.521 68.6717 100.521C59.4836 100.521 52.0352 92.6273 52.0352 82.8905C52.0352 73.1537 59.4836 65.2604 68.6717 65.2604C68.6717 65.2604 68.6717 75.3977 68.6717 82.8905Z" fill="#0B1628"/>
<path d="M35.9997 82.8914C35.9997 74.9579 35.9997 65.2614 35.9997 65.2614C44.8537 65.2614 52.0313 73.1546 52.0313 82.8914C52.0313 92.6283 44.8537 100.522 35.9997 100.522C35.9997 100.522 35.9997 90.3842 35.9997 82.8914Z" fill="#0B1628"/>
<path d="M85.9095 65.2607C93.6682 65.2607 103.151 65.2607 103.151 65.2607C103.151 75.2607 95.4317 83.3672 85.9095 83.3672C76.3873 83.3672 68.668 75.2606 68.668 65.2607C68.668 65.2607 78.5818 65.2607 85.9095 65.2607Z" fill="#0B1628"/>
<path d="M85.9108 100.521C78.1521 100.521 68.6693 100.521 68.6693 100.521C68.6693 91.0472 76.3886 83.3672 85.9108 83.3672C95.4331 83.3672 103.152 91.0472 103.152 100.521C103.152 100.521 93.2385 100.521 85.9108 100.521Z" fill="#0B1628"/>
</svg>
