<svg width="140" height="140" viewBox="0 0 140 140" fill="none" xmlns="http://www.w3.org/2000/svg">
<rect y="0.157715" width="139.078" height="139.078" fill="#A7D9EA"/>
<path fill-rule="evenodd" clip-rule="evenodd" d="M69.5039 70.7629C76.171 60.8539 82.6079 50.9566 89.275 41.0388C82.8785 45.159 69.9243 53.6936 69.7343 53.8084C69.6537 59.4736 69.5845 65.1035 69.5039 70.7629Z" fill="#0B1628"/>
<path fill-rule="evenodd" clip-rule="evenodd" d="M50.4844 40.5508C56.8176 50.6216 63.1574 60.6925 69.504 70.7634L69.7344 53.8177L50.4844 40.5508Z" fill="#0B1628"/>
<path fill-rule="evenodd" clip-rule="evenodd" d="M69.3736 72.088C62.7065 81.997 56.2667 91.8942 49.5996 101.812C55.9961 97.6919 68.9504 89.1573 69.1404 89.0425C69.221 83.3773 69.2902 77.7591 69.3736 72.088Z" fill="#0B1628"/>
<path fill-rule="evenodd" clip-rule="evenodd" d="M88.3905 102.298L69.3738 72.0881L69.1406 89.0338L88.3905 102.298Z" fill="#0B1628"/>
<path fill-rule="evenodd" clip-rule="evenodd" d="M70.1953 71.4584C79.888 78.2743 89.5691 84.8548 99.2703 91.6707C95.2401 85.1314 86.8918 71.891 86.7796 71.6968C81.238 71.6114 75.7282 71.5408 70.1953 71.4584Z" fill="#0B1628"/>
<path fill-rule="evenodd" clip-rule="evenodd" d="M99.759 52.014L70.209 71.4583L86.7847 71.6967L99.759 52.014Z" fill="#0B1628"/>
<path fill-rule="evenodd" clip-rule="evenodd" d="M68.8993 71.3253C59.2066 64.5093 49.5255 57.9288 39.8242 51.1129C43.8544 57.6522 52.2027 70.8927 52.315 71.0869C57.8565 71.1722 63.3664 71.2429 68.8993 71.3253Z" fill="#0B1628"/>
<path fill-rule="evenodd" clip-rule="evenodd" d="M39.3477 90.7698L68.9006 71.3255L52.3249 71.0872L39.3477 90.7698Z" fill="#0B1628"/>
</svg>
