<svg width="1600" height="408" viewBox="0 0 1600 408" fill="none" xmlns="http://www.w3.org/2000/svg">
<path d="M13.6992 123.8V283.6C13.6992 293.8 19.0992 303.2 27.8992 308.3L166.199 388.1C174.999 393.2 185.899 393.2 194.699 388.1L332.999 308.3C341.799 303.2 347.199 293.8 347.199 283.6V123.8C347.199 113.6 341.799 104.2 332.999 99.0997L194.699 19.2996C185.899 14.1996 174.999 14.1996 166.199 19.2996L27.8992 99.0997C19.1992 104.2 13.6992 113.7 13.6992 123.8Z" fill="#213147"/>
<path d="M210.801 234.7L191.001 288.7C190.401 290.2 190.401 291.9 191.001 293.4L224.901 386.5L264.101 363.8L217.101 234.7C216.001 231.7 211.801 231.7 210.801 234.7Z" fill="#12AAFF"/>
<path d="M250.2 143.7C249.1 140.7 245 140.7 243.9 143.7L224.2 197.7C223.6 199.2 223.6 200.9 224.2 202.4L279.8 354.8L319 332.1L250.2 143.7Z" fill="#12AAFF"/>
<path d="M180.5 25.2C181.5 25.2 182.4 25.4 183.3 26L333 112.4C334.8 113.4 335.8 115.2 335.8 117.2V290C335.8 292 334.7 293.8 333 294.8L183.3 381.3C182.5 381.8 181.5 382.1 180.5 382.1C179.5 382.1 178.6 381.9 177.7 381.3L28.1 294.9C26.3 293.9 25.3 292.1 25.3 290.1V117.2C25.3 115.2 26.4 113.4 28.1 112.4L177.8 26C178.6 25.5 179.6 25.2 180.5 25.2ZM180.5 0C175.2 0 169.8 1.40001 165.1 4.20001L15.4 90.6C5.89999 96.1 0 106.3 0 117.3V290.1C0 301.1 5.89999 311.3 15.4 316.9L165.1 403.3C169.9 406.1 175.2 407.5 180.5 407.5C185.8 407.5 191.2 406.1 195.9 403.3L345.6 316.9C355.2 311.4 361 301.2 361 290.1V117.2C361 106.2 355.1 96 345.6 90.4L196 4.20001C191.2 1.40001 185.8 0 180.5 0Z" fill="#9DCCED"/>
<path d="M81.5996 355L95.2996 317.3L123 340.3L97.1996 364L81.5996 355Z" fill="#213147"/>
<path d="M167.9 104.9H130C127.2 104.9 124.6 106.7 123.7 109.3L42.4004 332.3L81.6004 355L171.2 109.4C171.9 107.2 170.3 104.9 167.9 104.9Z" fill="white"/>
<path d="M234.301 104.9H196.401C193.601 104.9 191.001 106.7 190.101 109.3L97.2012 364L136.401 386.7L237.501 109.5C238.301 107.2 236.701 104.9 234.301 104.9Z" fill="white"/>
<path d="M522.6 151.399C526.4 151.399 529.6 152.199 532.2 153.699C534.8 155.299 537.4 158.299 539.9 162.799L589.4 252.599C589.9 253.599 590 254.399 589.7 255.099C589.5 255.799 588.7 256.099 587.5 256.099H568.5C566.8 256.099 565.7 255.399 565.1 254.199L554.5 234.999H484.3L474 254.199C473.3 255.499 472.2 256.099 470.6 256.099H451.2C449.9 256.099 449.1 255.799 448.9 255.099C448.7 254.399 448.7 253.599 449.2 252.599L498.3 162.799C500.8 158.299 503.2 155.299 505.6 153.699C508 152.099 510.8 151.399 513.9 151.399H522.6ZM493.5 217.499H545L521.2 173.699C520.8 172.999 520.3 172.599 519.5 172.599H518.6C517.9 172.599 517.4 172.899 516.9 173.699L493.5 217.499Z" fill="white"/>
<path d="M698.1 151.399C709.6 151.399 717.8 153.999 722.8 159.199C727.8 164.399 730.3 171.999 730.3 182.199V190.699C730.3 199.299 728.5 205.999 725.1 210.999C721.7 215.999 715.9 219.199 708 220.599L733.6 252.299C734.1 252.799 734.3 253.499 734 254.499C733.8 255.499 733 255.999 731.6 255.999H712.4C711.1 255.999 710.2 255.799 709.7 255.599C709.2 255.299 708.7 254.799 708.2 254.099L684.5 222.999H636.2V252.799C636.2 254.999 635.1 255.999 633 255.999H616.8C614.5 255.999 613.4 254.899 613.4 252.799V155.899C613.4 152.899 614.9 151.399 617.9 151.399H698.1ZM636.2 204.699H693.4C698.5 204.699 702.1 203.599 704.2 201.499C706.3 199.299 707.4 195.999 707.4 191.499V185.299C707.4 180.799 706.3 177.499 704.2 175.299C702.1 173.099 698.5 172.099 693.4 172.099H638.1C636.8 172.099 636.2 172.699 636.2 173.899V204.699Z" fill="white"/>
<path d="M855.3 151.399C865.5 151.399 872.9 153.499 877.2 157.599C881.5 161.699 883.7 167.799 883.7 176.099V183.299C883.7 191.599 880.5 197.999 874.1 202.299C880.9 206.299 884.4 212.699 884.4 221.499V230.199C884.4 234.199 884 237.799 883.1 240.999C882.2 244.199 880.8 246.899 878.7 249.199C876.6 251.399 873.9 253.199 870.5 254.399C867.1 255.599 862.9 256.199 857.9 256.199H769.1C766.1 256.199 764.6 254.699 764.6 251.699V155.899C764.6 152.899 766.1 151.399 769.1 151.399H855.3ZM787.6 194.899H848.9C853.9 194.899 857.2 194.099 859.1 192.699C861 191.299 861.8 188.999 861.8 186.099V180.999C861.8 177.899 861 175.699 859.2 174.199C857.4 172.799 854.6 171.999 850.8 171.999H789.6C788.3 171.999 787.7 172.699 787.7 173.899L787.6 194.899ZM787.6 211.099V233.299C787.6 234.599 788.3 235.199 789.5 235.199H850.8C854.8 235.199 857.6 234.399 859.3 232.999C861 231.599 861.9 229.199 861.9 226.099V220.399C861.9 217.299 861 214.999 859.1 213.399C857.3 211.799 853.8 210.999 848.9 210.999L787.6 211.099Z" fill="white"/>
<path d="M940.2 151.399C942.4 151.399 943.5 152.499 943.5 154.599V252.699C943.5 254.899 942.4 255.899 940.2 255.899H924C921.7 255.899 920.6 254.799 920.6 252.699V154.599C920.6 152.399 921.8 151.399 924 151.399H940.2Z" fill="white"/>
<path d="M1096.9 151.399C1099.2 151.399 1100.3 152.499 1100.3 154.599V169.299C1100.3 171.599 1099.1 172.699 1096.9 172.699H1050V252.699C1050 254.899 1048.9 255.899 1046.8 255.899H1030.5C1028.3 255.899 1027.3 254.799 1027.3 252.699V172.699H980.4C978.1 172.699 977 171.499 977 169.299V154.599C977 152.399 978.2 151.399 980.4 151.399C980.2 151.399 1096.9 151.399 1096.9 151.399Z" fill="white"/>
<path d="M1215.2 151.399C1226.7 151.399 1234.9 153.999 1239.9 159.199C1244.9 164.399 1247.4 171.999 1247.4 182.199V190.699C1247.4 199.299 1245.6 205.999 1242.2 210.999C1238.8 215.999 1233 219.199 1225.1 220.599L1250.7 252.299C1251.2 252.799 1251.4 253.499 1251.1 254.499C1250.9 255.499 1250.1 255.999 1248.7 255.999H1229.5C1228.2 255.999 1227.3 255.799 1226.8 255.599C1226.3 255.299 1225.8 254.799 1225.3 254.099L1201.6 222.999H1153.3V252.799C1153.3 254.999 1152.2 255.999 1150.1 255.999H1133.9C1131.6 255.999 1130.5 254.899 1130.5 252.799V155.899C1130.5 152.899 1132 151.399 1135 151.399H1215.2ZM1153.3 204.699H1210.5C1215.6 204.699 1219.2 203.599 1221.3 201.499C1223.4 199.299 1224.5 195.999 1224.5 191.499V185.299C1224.5 180.799 1223.4 177.499 1221.3 175.299C1219.2 173.099 1215.6 172.099 1210.5 172.099H1155.2C1153.9 172.099 1153.3 172.699 1153.3 173.899V204.699Z" fill="white"/>
<path d="M1299.2 151.399C1301.4 151.399 1302.4 152.499 1302.4 154.599V214.299C1302.4 218.299 1302.7 221.599 1303.4 224.199C1304.1 226.899 1305.1 228.999 1306.6 230.399C1308.1 231.999 1310.1 233.099 1312.7 233.599C1315.3 234.299 1318.5 234.599 1322.4 234.599H1363.8C1367.7 234.599 1370.9 234.299 1373.5 233.599C1376.1 232.899 1378.1 231.799 1379.6 230.399C1381.1 228.799 1382.2 226.699 1382.8 224.199C1383.4 221.499 1383.7 218.299 1383.7 214.299V154.599C1383.7 152.399 1384.8 151.399 1386.9 151.399H1403.2C1405.4 151.399 1406.4 152.499 1406.4 154.599V216.499C1406.4 223.699 1405.6 229.699 1404.2 234.799C1402.7 239.799 1400.3 243.899 1397 246.999C1393.7 250.199 1389.3 252.399 1384 253.799C1378.7 255.199 1372.2 255.899 1364.7 255.899H1321.6C1314 255.899 1307.6 255.199 1302.4 253.799C1297.1 252.399 1292.8 250.099 1289.5 246.999C1286.2 243.799 1283.7 239.799 1282.2 234.799C1280.7 229.799 1279.9 223.599 1279.9 216.499V154.599C1279.9 152.399 1281.1 151.399 1283.3 151.399C1283.2 151.399 1299.2 151.399 1299.2 151.399Z" fill="white"/>
<path d="M1470.8 151.4C1473 151.4 1474.9 151.6 1476.5 151.8C1478.1 152.1 1479.5 152.6 1480.7 153.6C1481.9 154.4 1482.9 155.6 1483.9 157C1484.8 158.4 1485.8 160.3 1486.8 162.8L1517.9 234.6C1518.3 235.5 1519 235.9 1520 235.9H1521.8C1522.8 235.9 1523.5 235.5 1523.9 234.6L1555 162.7C1556 160.3 1557 158.4 1557.9 156.9C1558.8 155.4 1559.9 154.3 1561.1 153.5C1562.3 152.7 1563.7 152.1 1565.2 151.7C1566.8 151.4 1568.6 151.3 1570.8 151.3H1586.8C1592 151.3 1595.5 152.5 1597.3 154.8C1599.1 157.1 1600 161.1 1600 166.8V252.6C1600 254.8 1598.8 255.8 1596.6 255.8H1581.3C1579.1 255.8 1578.1 254.7 1578.1 252.6V174.6C1578.1 173.6 1577.7 173.1 1576.9 173.1H1575.6C1574.6 173.1 1573.9 173.5 1573.7 174.3L1543.4 241.3C1542.2 244 1541 246.3 1539.7 248.1C1538.5 249.9 1537.1 251.4 1535.7 252.7C1534.3 253.9 1532.6 254.8 1530.8 255.3C1529 255.8 1526.8 256.1 1524.3 256.1H1517.1C1514.6 256.1 1512.4 255.9 1510.6 255.3C1508.8 254.7 1507.1 254 1505.7 252.7C1504.3 251.5 1502.9 249.9 1501.7 248.1C1500.5 246.3 1499.2 244 1498 241.3L1467.8 174.3C1467.5 173.5 1466.9 173.1 1465.9 173.1H1464.6C1463.8 173.1 1463.4 173.6 1463.4 174.6V252.7C1463.4 254.9 1462.3 255.9 1460.2 255.9H1445C1442.7 255.9 1441.6 254.8 1441.6 252.7V166.9C1441.6 161.2 1442.5 157.2 1444.3 154.9C1446.1 152.6 1449.6 151.4 1454.9 151.4H1470.8Z" fill="white"/>
</svg>
