<?xml version="1.0" encoding="UTF-8" standalone="no"?>
<svg
   xmlns:dc="http://purl.org/dc/elements/1.1/"
   xmlns:cc="http://creativecommons.org/ns#"
   xmlns:rdf="http://www.w3.org/1999/02/22-rdf-syntax-ns#"
   xmlns:svg="http://www.w3.org/2000/svg"
   xmlns="http://www.w3.org/2000/svg"
   xmlns:sodipodi="http://sodipodi.sourceforge.net/DTD/sodipodi-0.dtd"
   xmlns:inkscape="http://www.inkscape.org/namespaces/inkscape"
   id="Layer_1"
   data-name="Layer 1"
   viewBox="0 0 315.55 85.17"
   version="1.1"
   sodipodi:docname="COINSPECT_LOGO_HEAD-01__white_BG.svg"
   inkscape:version="1.0.2 (1.0.2+r75+1)">
  <metadata
     id="metadata31">
    <rdf:RDF>
      <cc:Work
         rdf:about="">
        <dc:format>image/svg+xml</dc:format>
        <dc:type
           rdf:resource="http://purl.org/dc/dcmitype/StillImage" />
        <dc:title>COINSPECT_LOGO_HEAD</dc:title>
      </cc:Work>
    </rdf:RDF>
  </metadata>
  <sodipodi:namedview
     pagecolor="#ffffff"
     bordercolor="#666666"
     borderopacity="1"
     objecttolerance="10"
     gridtolerance="10"
     guidetolerance="10"
     inkscape:pageopacity="0"
     inkscape:pageshadow="2"
     inkscape:window-width="1920"
     inkscape:window-height="1016"
     id="namedview29"
     showgrid="false"
     inkscape:zoom="4.1673271"
     inkscape:cx="157.77499"
     inkscape:cy="42.584999"
     inkscape:window-x="0"
     inkscape:window-y="27"
     inkscape:window-maximized="1"
     inkscape:current-layer="Layer_1" />
  <defs
     id="defs4">
    <style
       id="style2">.cls-1{fill:#fff;}.cls-2{fill:#f6b221;}</style>
  </defs>
  <title
     id="title6">COINSPECT_LOGO_HEAD</title>
  <path
     class="cls-1"
     d="M50.49,46.93a13.25,13.25,0,0,1-.77-5,22,22,0,0,1,.41-4.54c.59-2,2.32-3.82,5.91-3.82h8.59V29.48H54.31c-4.32,0-6.36,1.59-7.36,2.59-2.68,2.77-2.73,6.91-2.73,9.77,0,3.41.18,6.41,2.18,8.77a9.19,9.19,0,0,0,7.18,3H65.17V49.47H56.53C54.31,49.47,51.67,49.24,50.49,46.93Z"
     id="path8"
     style="fill:#666a73;fill-opacity:1" />
  <rect
     class="cls-1"
     x="111.58"
     y="29.48"
     width="5.32"
     height="24.08"
     id="rect10"
     style="fill:#666a73;fill-opacity:1" />
  <path
     class="cls-1"
     d="M142.13,31.43c-1.91-1.73-4.22-2-6.72-2h-8.5c-1,0-2.68,0-3.68,1.09a3.67,3.67,0,0,0-.77,2.59v20.4h5.32V34.84a1.4,1.4,0,0,1,.27-1,1.14,1.14,0,0,1,.91-.27h5.41c2,0,3,.45,3.82,1.45a7,7,0,0,1,1,4.27V53.56h5.32V37.7C144.5,34.38,143.41,32.57,142.13,31.43Z"
     id="path12"
     style="fill:#666a73;fill-opacity:1" />
  <path
     class="cls-1"
     d="M162.81,40.29l-5.18-1.45a11,11,0,0,1-3-1.23,2,2,0,0,1-.77-1.86,1.91,1.91,0,0,1,.68-1.73,2.85,2.85,0,0,1,1.86-.45h12.77V29.48H155.59c-2,0-4.36.14-5.77,2.09a6.93,6.93,0,0,0-1.14,4.09,6.93,6.93,0,0,0,1.14,4.09c1,1.32,2.73,2.23,5.27,2.91l4.63,1.27c3.36.91,4,1.23,4.36,1.55a2.25,2.25,0,0,1,.68,1.82,2.11,2.11,0,0,1-.46,1.5,2.22,2.22,0,0,1-1.77.68H149v4.09h15.4a6.33,6.33,0,0,0,3.86-1c.91-.73,2-2.23,2-5.14A6.36,6.36,0,0,0,168.81,43C167.63,41.75,165.67,41.11,162.81,40.29Z"
     id="path14"
     style="fill:#666a73;fill-opacity:1" />
  <path
     class="cls-1"
     d="M186.87,29.48h-8.41a5,5,0,0,0-3,.77,3.57,3.57,0,0,0-1.36,3V61.29h5.32V53.56h6.73c2.45,0,6.18-.18,8.45-3.45,1.73-2.45,1.91-5.91,1.91-9.09,0-2.64-.09-6.36-2.54-8.91A9.75,9.75,0,0,0,186.87,29.48ZM190,47.24a5,5,0,0,1-4.54,2.23h-6V34.7a1.1,1.1,0,0,1,.37-.82,1.49,1.49,0,0,1,.73-.32h5.23a4.79,4.79,0,0,1,4.63,2.73c.27.64.64,1.91.64,5.18C191,45.06,190.51,46.52,190,47.24Z"
     id="path16"
     style="fill:#666a73;fill-opacity:1" />
  <path
     class="cls-1"
     d="M222.71,42.38a4.92,4.92,0,0,0,1.14-3.63c0-3-.59-6-3.41-7.82-2.23-1.41-5.13-1.54-8-1.54-2.27,0-6.36,0-9,2.27s-2.86,5.59-2.86,10.09c0,3.18.14,6.5,1.73,8.77,2,2.82,4.91,3,7.36,3h13.36V49.47H211.3c-2,0-4.18-.27-4.86-2.86a17.42,17.42,0,0,1-.32-3.32h14A3.44,3.44,0,0,0,222.71,42.38Zm-5.54-3.18h-11c0-1.59,0-2.91,1.09-4.14,1.45-1.64,3.64-1.59,5-1.59a7.37,7.37,0,0,1,4.54,1.09,4.09,4.09,0,0,1,1.55,3.23C218.34,38.43,218.21,39.2,217.16,39.2Z"
     id="path18"
     style="fill:#666a73;fill-opacity:1" />
  <path
     class="cls-1"
     d="M234.51,46.93a13.25,13.25,0,0,1-.77-5,22,22,0,0,1,.41-4.54c.59-2,2.32-3.82,5.91-3.82h8.59V29.48H238.33c-4.32,0-6.36,1.59-7.36,2.59-2.68,2.77-2.73,6.91-2.73,9.77,0,3.41.18,6.41,2.18,8.77a9.19,9.19,0,0,0,7.18,3h11.59V49.47h-8.63C238.33,49.47,235.69,49.24,234.51,46.93Z"
     id="path20"
     style="fill:#666a73;fill-opacity:1" />
  <path
     class="cls-2"
     d="M87.92,23.39a18.18,18.18,0,0,0-13.84,30L61,66.43l.1,4.23,4.23.1L78.8,57.3a18.18,18.18,0,1,0,9.12-33.92Zm8.53,26.71a12.06,12.06,0,1,1-8.54-20.57,12.16,12.16,0,0,1,3.17.42l.57.17A11.87,11.87,0,0,1,96.44,33a11.93,11.93,0,0,1,3.45,7.2,12,12,0,0,1-3.45,9.85Z"
     id="path22"
     style="fill:#e5b136;fill-opacity:1" />
  <rect
     class="cls-2"
     x="111.59"
     y="20.61"
     width="5.29"
     height="5.29"
     id="rect24"
     style="fill:#e5b136;fill-opacity:1" />
  <path
     class="cls-1"
     d="M270,29.35h-6.47V22.45h-5.32v6.91h-4.85v4.12c.44,0,3.15,0,3.15,0h1.67l0,.83V46.39h0v4.69a2.88,2.88,0,0,0,1.09,2.24,3.83,3.83,0,0,0,.45.34H268v-4a.36.36,0,0,0-.35-.41H264c-.29,0-.44-.14-.44-.41V45.53h0c0-.56,0-1.1,0-1.6V34.6h0V33.44H270Z"
     id="path26"
     style="fill:#666a73;fill-opacity:1" />
</svg>
