<svg width="370" height="66" viewBox="0 0 370 66" fill="none" xmlns="http://www.w3.org/2000/svg">
<path d="M138.775 52.2931H169.747C169.999 52.2931 170.166 52.4511 170.166 52.6881V60.5873C170.166 60.8243 169.999 60.9823 169.747 60.9823H128.703C128.451 60.9823 128.283 60.8243 128.283 60.5873V5.76654C128.283 5.52957 128.451 5.37158 128.703 5.37158H169.747C169.999 5.37158 170.166 5.52957 170.166 5.76654V13.6658C170.166 13.9028 169.999 14.0608 169.747 14.0608H138.775C138.523 14.0608 138.355 14.2187 138.355 14.4557V28.0424C138.355 28.2794 138.523 28.4374 138.775 28.4374H165.55C165.802 28.4374 165.97 28.5954 165.97 28.8323V36.7316C165.97 36.9686 165.802 37.1266 165.55 37.1266H138.775C138.523 37.1266 138.355 37.2845 138.355 37.5215V51.8981C138.355 52.1351 138.523 52.2931 138.775 52.2931Z" fill="#FFF4E1"/>
<path d="M192.023 51.9771L202.179 21.565C202.263 21.2491 202.599 21.0121 202.851 21.0121H212.335C212.671 21.0121 212.839 21.2491 212.755 21.565L198.906 60.5873C198.822 60.8243 198.654 60.9823 198.402 60.9823H184.805C184.553 60.9823 184.385 60.8243 184.301 60.5873L170.368 21.565C170.285 21.2491 170.452 21.0121 170.788 21.0121H180.441C180.692 21.0121 180.944 21.2491 181.028 21.565L191.184 51.9771C191.352 52.3721 191.856 52.3721 192.023 51.9771Z" fill="#FFF4E1"/>
<path d="M278.216 60.9823H268.983C268.731 60.9823 268.563 60.8243 268.563 60.5873V38.7064C268.563 33.9669 266.717 28.9113 260.925 28.9113C255.218 28.9113 253.371 33.1769 253.371 38.7064V60.5873C253.371 60.8243 253.203 60.9823 252.952 60.9823H243.719C243.467 60.9823 243.299 60.8243 243.299 60.5873V38.7064C243.299 33.9669 241.453 28.9113 235.661 28.9113C229.954 28.9113 228.107 33.1769 228.107 38.7064V60.5873C228.107 60.8243 227.939 60.9823 227.688 60.9823H218.455C218.203 60.9823 218.035 60.8243 218.035 60.5873V21.4071C218.035 21.1701 218.203 21.0121 218.455 21.0121H226.429C226.932 21.0121 227.1 21.1701 227.268 21.486L228.107 23.8558C228.275 24.1718 228.611 24.2508 228.863 24.0138C230.625 22.355 235.158 20.2222 239.019 20.2222C243.971 20.2222 247.748 22.118 249.93 24.8827C250.098 25.1197 250.434 25.1197 250.602 24.8827C252.952 22.5129 256.393 20.2222 261.765 20.2222C272.34 20.2222 278.635 25.9096 278.635 38.2324V60.5873C278.635 60.8243 278.468 60.9823 278.216 60.9823Z" fill="#FFF4E1"/>
<path d="M327.312 40.9972C327.312 53.32 319.506 61.7722 306.412 61.7722C293.319 61.7722 285.597 53.32 285.597 40.9972C285.597 28.5954 293.319 20.2222 306.412 20.2222C319.506 20.2222 327.312 28.6744 327.312 40.9972ZM317.24 40.9972C317.24 33.5719 313.547 28.9113 306.412 28.9113C299.362 28.9113 295.669 33.5719 295.669 40.9972C295.669 48.4225 299.362 53.083 306.412 53.083C313.547 53.083 317.24 48.4225 317.24 40.9972Z" fill="#FFF4E1"/>
<path d="M370 48.5805C370 57.0326 362.782 61.7722 351.367 61.7722C338.861 61.7722 332.23 54.9788 332.23 47.8695C332.23 47.6325 332.398 47.4746 332.65 47.4746H342.302C342.554 47.4746 342.722 47.6325 342.722 47.8695C342.722 50.3973 345.324 53.083 351.367 53.083C354.892 53.083 359.928 52.4511 359.928 48.5805C359.928 45.1048 354.808 45.1048 351.367 44.7888C342.722 43.9989 332.985 42.498 332.985 32.545C332.985 25.7516 340.036 20.2222 350.528 20.2222C361.187 20.2222 368.909 24.9617 368.909 34.1248C368.909 34.3618 368.825 34.5198 368.573 34.5198H359.173C358.921 34.5198 358.753 34.3618 358.753 34.1248C358.753 31.913 356.655 28.9113 350.528 28.9113C345.492 28.9113 343.057 30.4912 343.057 32.545C343.057 35.0727 346.667 35.5467 350.528 36.0207C357.914 36.8896 370 37.3635 370 48.5805Z" fill="#FFF4E1"/>
<g clip-path="url(#clip0_6910_2356)">
<path d="M41.5692 2.2112C23.1162 9.25268 21.4263 27.3594 16.0865 35.8092C10.7466 44.2589 -1.55543 49.0203 0.134403 53.3793C1.82424 57.7384 14.1263 53.044 23.8597 55.8606C33.5932 58.6772 46.8415 70.8825 65.2945 63.841C69.7681 62.1284 73.8136 59.4725 77.1513 56.0568C80.4891 52.6411 83.0395 48.5471 84.6262 44.0577C84.7876 43.6931 84.7963 43.2799 84.6506 42.9089C84.5048 42.5379 84.2164 42.2395 83.8489 42.0794C83.4814 41.9193 83.0649 41.9107 82.6909 42.0553C82.317 42.1999 82.0163 42.486 81.8549 42.8506C79.9485 46.6648 77.1256 49.955 73.6351 52.4314C70.1446 54.9077 66.0937 56.4941 61.8394 57.0507C57.5851 57.6073 53.2582 57.117 49.24 55.623C45.2217 54.129 41.6357 51.6773 38.7979 48.4838C37.1559 46.6547 35.7899 44.5991 34.7423 42.3812C34.4043 41.7776 34.1339 41.107 33.8635 40.5035C33.5932 39.8999 33.3904 39.1622 33.1876 38.4916C38.7979 35.9433 45.1517 33.1937 52.4517 30.4442C59.7518 27.6947 66.038 25.4816 71.7835 23.738C75.7039 22.5309 79.2864 21.525 82.4633 20.7202L83.2068 20.5861C83.4398 20.522 83.6887 20.5489 83.9024 20.6611C84.116 20.7733 84.2783 20.9625 84.3559 21.1897C84.4763 21.4469 84.567 21.7169 84.6262 21.9944C85.2871 23.7795 85.7848 25.6199 86.1133 27.4935C86.1443 27.673 86.2181 27.8425 86.3286 27.9878C86.4392 28.1332 86.5832 28.2502 86.7487 28.329C86.9141 28.4078 87.0962 28.4461 87.2797 28.4407C87.4631 28.4354 87.6426 28.3865 87.8031 28.2982C90.4393 26.8899 92.8727 25.4816 95.0356 24.2075C103.147 19.2449 107.608 15.02 106.662 12.6728C105.715 10.3257 99.632 10.1245 90.3041 11.801C87.33 12.3375 84.0179 13.0752 80.503 14.0141L78.678 14.4835C75.6363 15.2882 72.527 16.16 69.2825 17.166C63.1991 19.0437 56.6425 21.3238 49.8832 23.8722C43.1239 26.4205 37.6488 28.7677 32.1061 31.2489C32.079 26.9931 33.1019 22.7953 35.0854 19.0216C37.0689 15.248 39.9529 12.0132 43.4859 9.59924C47.0188 7.18532 51.0934 5.66563 55.3542 5.17273C59.615 4.67982 63.9327 5.22867 67.9307 6.7714C68.2218 6.87024 68.5352 6.88489 68.8345 6.81364C69.1337 6.7424 69.4063 6.58819 69.6205 6.36903C69.7832 6.20237 69.9039 6 69.973 5.77835C70.0421 5.5567 70.0575 5.32202 70.018 5.09336C69.9784 4.8647 69.8851 4.6485 69.7456 4.46233C69.6061 4.27615 69.4243 4.12525 69.2149 4.02187C65.0179 1.74038 60.3692 0.396244 55.5939 0.0834845C50.8186 -0.229275 46.0321 0.496895 41.5692 2.2112Z" fill="#FFF4E1"/>
</g>
<defs>
<clipPath id="clip0_6910_2356">
<rect width="106.798" height="65.9888" fill="white"/>
</clipPath>
</defs>
</svg>
