<svg width="392" height="82" viewBox="0 0 392 82" fill="none" xmlns="http://www.w3.org/2000/svg">
<path d="M16.2783 63.64L31.6383 48.28L46.9983 63.64L62.3583 48.28L77.7183 63.64L93.0783 48.28L62.3583 17.56L46.9983 32.92L31.6383 17.56L0.91825 48.28L16.2783 63.64Z" fill="white"/>
<path d="M114.096 64H121.2V31.04L134.64 64H140.848L154.288 31.04V64H161.392V19.2H152.048L137.968 54.464L123.632 19.2H114.096V64ZM183.164 64.384C191.292 64.384 196.796 59.456 197.948 52.992H191.036C190.076 56.64 187.004 58.752 182.78 58.752C177.34 58.752 173.82 55.104 173.628 49.536V49.088H198.332C198.46 48.192 198.524 47.296 198.524 46.464C198.332 36.864 191.996 30.848 182.524 30.848C172.86 30.848 166.396 37.568 166.396 47.68C166.396 57.728 172.86 64.384 183.164 64.384ZM173.884 44.032C174.396 39.36 178.172 36.416 182.588 36.416C187.388 36.416 190.78 39.168 191.356 44.032H173.884ZM204.95 55.104C204.95 61.056 207.638 64 213.91 64H220.31V57.92H215.446C212.822 57.92 211.926 56.96 211.926 54.4V37.312H219.926V31.232H211.926V22.08H204.95V31.232H199.254V37.312H204.95V55.104ZM253.004 57.984C251.596 57.984 250.892 57.536 250.892 55.872V42.752C250.892 35.008 245.9 30.848 237.196 30.848C228.94 30.848 223.436 34.816 222.732 41.216H229.516C230.028 38.336 232.78 36.416 236.876 36.416C241.42 36.416 244.044 38.656 244.044 42.304V44.288H235.788C226.636 44.288 221.772 48.064 221.772 54.784C221.772 60.864 226.764 64.384 233.932 64.384C239.244 64.384 242.572 62.08 244.748 58.752C244.748 62.016 246.284 64 250.764 64H254.412V57.984H253.004ZM244.044 50.56C243.98 55.616 240.652 59.008 234.892 59.008C231.116 59.008 228.812 57.088 228.812 54.336C228.812 51.008 231.18 49.408 235.468 49.408H244.044V50.56ZM272.696 64H280.056V47.744H290.36C299.704 47.744 305.848 42.112 305.848 33.472C305.848 24.768 299.704 19.2 290.36 19.2H272.696V64ZM289.784 25.6C295.032 25.6 298.36 28.608 298.36 33.472C298.36 38.272 294.968 41.344 289.72 41.344H280.056V25.6H289.784ZM323.45 64.384C333.434 64.384 340.154 57.664 340.154 47.616C340.154 37.632 333.434 30.848 323.45 30.848C313.466 30.848 306.746 37.632 306.746 47.616C306.746 57.664 313.466 64.384 323.45 64.384ZM323.45 58.496C317.626 58.496 313.85 53.952 313.85 47.616C313.85 41.28 317.626 36.736 323.45 36.736C329.274 36.736 333.114 41.28 333.114 47.616C333.114 53.952 329.274 58.496 323.45 58.496ZM359.92 64.384C369.904 64.384 376.624 57.664 376.624 47.616C376.624 37.632 369.904 30.848 359.92 30.848C349.936 30.848 343.216 37.632 343.216 47.616C343.216 57.664 349.936 64.384 359.92 64.384ZM359.92 58.496C354.096 58.496 350.32 53.952 350.32 47.616C350.32 41.28 354.096 36.736 359.92 36.736C365.744 36.736 369.584 41.28 369.584 47.616C369.584 53.952 365.744 58.496 359.92 58.496ZM380.902 64H387.814V19.2H380.902V64Z" fill="white"/>
</svg>
