<svg width="531" height="245" viewBox="0 0 531 245" fill="none" xmlns="http://www.w3.org/2000/svg">
<path d="M110.5 233C171.527 233 221 183.527 221 122.5C221 61.4725 171.527 12 110.5 12C49.4725 12 0 61.4725 0 122.5C0 183.527 49.4725 233 110.5 233Z" fill="#F87171"/>
<path d="M110.504 92.3032C107.651 89.7623 101.995 86.2591 92.1814 86.3051C82.3674 86.351 83.9714 91.3023 83.9714 91.3023C83.9714 91.3023 83.7704 95.3423 90.1804 95.4683C96.5904 95.5933 103.462 95.8423 109.037 97.8853C114.612 99.9283 113.36 94.8393 110.504 92.3032Z" fill="white"/>
<path d="M87.3102 101.531C86.7202 101.879 86.5692 102.858 87.2532 102.982C91.1292 103.673 97.2602 104.93 104.099 103.85C104.747 103.748 104.65 102.883 104.181 102.435C101.755 100.112 95.2392 96.8549 87.3102 101.531Z" fill="white"/>
<path d="M167.952 166.505C167.862 166.381 167.74 166.283 167.597 166.223C167.455 166.163 167.298 166.143 167.145 166.165C166.991 166.187 166.847 166.25 166.728 166.347C166.609 166.444 166.519 166.571 166.47 166.715C162.481 178.32 159.215 175.477 157.706 172.982C157.182 172.1 156.791 171.149 156.545 170.158C152.738 155.333 156.224 141.678 156.224 141.678C158.296 147.988 163.73 149.859 166.514 150.406C166.673 150.438 166.837 150.425 166.988 150.368C167.139 150.312 167.27 150.214 167.367 150.088C167.463 149.961 167.521 149.809 167.532 149.652C167.544 149.494 167.51 149.336 167.433 149.197C156.767 128.739 163.073 120.069 163.073 120.069C164.909 122.066 167.935 122.245 169.841 122.141C170.002 122.132 170.157 122.079 170.288 121.988C170.419 121.897 170.521 121.771 170.582 121.626C170.643 121.48 170.662 121.321 170.635 121.166C170.608 121.011 170.536 120.866 170.429 120.749C162.7 112.398 162.112 109.565 161.811 95.4216C161.646 87.5834 158.832 83.4614 156.216 81.3145C153.223 78.8607 150.834 75.7347 149.527 72.1276C139.099 43.44 119.587 39.6492 101.481 40.7226C79.0034 42.0571 67.0357 58.8934 61.3545 67.2826C55.3447 76.1528 50.6614 89.2685 50.9776 93.2818C51.2938 97.2946 55.078 96.6666 55.078 101.306C55.078 105.946 47.7516 109.804 50.6318 122.847C51.9039 128.594 57.054 132.902 54.7371 146.03C50.5947 169.624 69.0736 198.292 73.6778 202.569C74.2361 203.083 75.2167 202.668 75.1154 201.923C74.3966 196.657 75.4489 189.351 75.4489 189.351C84.707 208.772 110.608 205.17 118.72 203.504C118.892 203.469 119.049 203.383 119.169 203.258C119.289 203.133 119.367 202.974 119.391 202.804C119.416 202.634 119.386 202.461 119.306 202.308C119.226 202.155 119.1 202.03 118.945 201.95C110.754 197.692 108.882 189.042 108.882 189.042C117.033 192.818 122.255 192.185 124.772 191.375C124.925 191.325 125.06 191.234 125.162 191.111C125.264 190.989 125.329 190.841 125.348 190.684C125.368 190.527 125.341 190.368 125.272 190.226C125.203 190.083 125.094 189.963 124.957 189.878C122.502 188.37 118.76 182.142 115.929 176.047C114.767 173.532 114.354 170.747 114.74 168.013C115.125 165.278 116.293 162.707 118.108 160.594C121.42 156.726 125.765 151.327 130.705 145.59C131.738 144.381 133.175 145.561 133.719 146.871C140.936 164.556 150.325 177.887 156.797 181.562C161.49 184.398 166.63 184.908 168.94 183.124C175.308 178.209 170.259 169.73 167.952 166.505ZM89.817 150.046C82.076 150.503 83.84 140.656 78.1537 140.897C72.0624 141.163 73.8878 148.672 69.8022 149.129C65.7167 149.586 66.1934 138.103 69.0612 136.77C73.579 134.677 78.87 134.174 83.106 134.319C88.125 134.488 92.92 134.297 95.17 139.021C97.835 144.594 97.556 149.601 89.817 150.046ZM138.772 79.6778C128.48 85.6639 127.874 88.623 126.4 99.1496C126.074 101.463 125.743 104.171 126.825 105.702C129.268 109.156 133.914 111.714 132.639 117.548C129.601 131.432 121.59 147.71 110.845 152.797C109.551 153.409 108.069 152.171 107.768 150.797C106.57 145.295 103.719 135.291 102.949 132.025C99.122 113.315 80.8881 113.056 80.3768 116.634C80.2261 117.698 84.07 119.1 86.51 119.878C88.75 120.604 88.827 123.732 86.596 124.472C86.011 124.654 85.402 124.75 84.788 124.757C80.2804 124.455 74.5621 124.798 71.9833 124.982C71.1202 125.045 70.2639 124.792 69.5816 124.271C68.8993 123.749 68.4399 122.998 68.293 122.163C67.2852 116.436 69.0662 114.383 71.2201 108.944C72.2921 106.236 73.668 100.777 74.1447 97.9766C74.3917 96.4756 74.2855 94.6716 74.1249 93.3205C73.9299 91.7227 73.8531 90.1132 73.8952 88.5046C74.0483 83.3139 74.5745 79.0758 78.6131 79.0758C85.888 79.0758 101.281 79.0976 103.719 75.5969C106.276 71.9317 92.008 75.4856 76.6765 75.0021C76.3767 74.9923 76.0907 74.876 75.8721 74.6749C75.6534 74.4738 75.5171 74.2017 75.4884 73.9094C75.4884 73.8175 75.4711 73.728 75.4613 73.6362C75.4381 73.3742 75.4705 73.1104 75.5562 72.8612C75.642 72.612 75.7793 72.3828 75.9597 72.1879C76.14 71.993 76.3595 71.8366 76.6044 71.7284C76.8493 71.6203 77.1144 71.5628 77.383 71.5594C85.571 71.4603 91.801 70.9043 93.439 68.5688C95.104 66.1802 86.829 67.2511 77.4497 67.3357C76.2492 67.3357 75.2562 67.3188 75.318 66.1463V66.1077C75.3432 65.6424 75.5424 65.2024 75.8776 64.8716C76.2129 64.5408 76.6608 64.3422 77.136 64.3138C82.654 63.9584 85.006 63.5474 85.238 61.8212C85.47 60.095 84.67 60.2691 78.5686 60.6124C77.2422 60.685 77.6226 59.701 78.376 58.6251C80.2804 55.8811 88.795 47.9658 107.634 48.5436C139.909 49.5494 138.889 71.9221 139.877 77.3569C139.956 77.8078 139.893 78.2718 139.696 78.6866C139.499 79.1015 139.176 79.4473 138.772 79.6778Z" fill="white"/>
<path d="M297.609 161.984C296.484 161.984 294.82 161.469 292.617 160.438C290.414 159.453 288.047 158.305 285.516 156.992C283.031 155.68 280.734 154.508 278.625 153.477C276.562 152.492 275.062 152 274.125 152C271.312 152.844 268.312 153.266 265.125 153.266C259.5 153.266 254.227 151.766 249.305 148.766C244.43 145.719 240.492 141.289 237.492 135.477C234.492 129.617 232.992 122.469 232.992 114.031C232.992 105.594 234.586 98.375 237.773 92.375C241.008 86.375 245.18 81.7812 250.289 78.5938C255.398 75.3594 260.789 73.7422 266.461 73.7422C272.133 73.7422 277.406 75.2656 282.281 78.3125C287.203 81.3125 291.164 85.7422 294.164 91.6016C297.164 97.4141 298.664 104.539 298.664 112.977C298.664 119.867 297.539 126.312 295.289 132.312C293.039 138.312 289.594 143.047 284.953 146.516C288.234 148.531 291.445 150.242 294.586 151.648C297.773 153.008 301.148 153.898 304.711 154.32C304.289 154.93 303.703 155.844 302.953 157.062C302.203 158.328 301.359 159.453 300.422 160.438C299.484 161.469 298.547 161.984 297.609 161.984ZM265.969 144.125C272.391 144.125 277.711 141.5 281.93 136.25C286.195 130.953 288.328 123.641 288.328 114.312C288.328 104.562 286.266 96.8984 282.141 91.3203C278.062 85.7422 272.672 82.9531 265.969 82.9531C259.312 82.9531 253.852 85.6484 249.586 91.0391C245.367 96.3828 243.258 103.625 243.258 112.766C243.258 122.375 245.32 130.016 249.445 135.688C253.617 141.312 259.125 144.125 265.969 144.125ZM315.75 152C315.75 152 315.75 151.062 315.75 149.188C315.75 147.266 315.75 144.828 315.75 141.875C315.75 138.922 315.75 135.852 315.75 132.664C315.75 129.477 315.75 126.617 315.75 124.086C315.75 118.93 315.703 114.031 315.609 109.391C315.562 104.703 315.352 100.977 314.977 98.2109H325.523V126.969C325.523 129.219 325.547 131.961 325.594 135.195C325.688 138.383 325.805 141.523 325.945 144.617C326.133 147.664 326.344 150.125 326.578 152H315.75ZM320.531 88.2266C318.562 88.2266 316.969 87.5234 315.75 86.1172C314.531 84.7109 313.922 83.0469 313.922 81.125C313.922 79.1562 314.531 77.4688 315.75 76.0625C316.969 74.6562 318.562 73.9531 320.531 73.9531C322.5 73.9531 324.117 74.6562 325.383 76.0625C326.695 77.4688 327.352 79.1562 327.352 81.125C327.352 83.0469 326.695 84.7109 325.383 86.1172C324.117 87.5234 322.5 88.2266 320.531 88.2266ZM366.938 152.492C365.25 152.492 363.117 152.469 360.539 152.422C358.008 152.375 355.477 152.305 352.945 152.211C350.414 152.164 348.281 152.117 346.547 152.07C344.859 152.023 344.016 152 344.016 152C344.391 149.891 344.602 146.68 344.648 142.367C344.695 138.055 344.742 133.273 344.789 128.023V99.2656C344.789 94.1094 344.742 89.3047 344.648 84.8516C344.602 80.3984 344.391 77.1172 344.016 75.0078C345.516 74.9141 347.695 74.8438 350.555 74.7969C353.461 74.7031 356.508 74.6328 359.695 74.5859C362.883 74.5391 365.648 74.5156 367.992 74.5156C370.242 74.5156 372.938 74.7734 376.078 75.2891C379.219 75.7578 382.453 76.7188 385.781 78.1719C389.156 79.5781 392.273 81.7109 395.133 84.5703C398.039 87.3828 400.383 91.1094 402.164 95.75C403.992 100.344 404.906 106.086 404.906 112.977C404.906 120.852 403.664 127.344 401.18 132.453C398.742 137.562 395.578 141.594 391.688 144.547C387.844 147.453 383.719 149.516 379.312 150.734C374.953 151.906 370.828 152.492 366.938 152.492ZM366.375 143.844C371.109 143.844 375.633 142.883 379.945 140.961C384.258 138.992 387.773 135.828 390.492 131.469C393.258 127.062 394.641 121.25 394.641 114.031C394.641 106.156 393.352 99.9688 390.773 95.4688C388.242 90.9219 384.844 87.7109 380.578 85.8359C376.359 83.9141 371.719 82.9531 366.656 82.9531C364.922 82.9531 362.836 82.9766 360.398 83.0234C358.008 83.0703 356.133 83.1406 354.773 83.2344V143.352C356.039 143.445 357.656 143.562 359.625 143.703C361.641 143.797 363.891 143.844 366.375 143.844ZM433.383 153.266C428.414 153.266 424.312 151.789 421.078 148.836C417.844 145.883 416.227 142.461 416.227 138.57C416.227 135.898 416.836 133.227 418.055 130.555C419.32 127.883 421.477 125.562 424.523 123.594C427.617 121.625 431.883 120.383 437.32 119.867C438.539 119.727 440.133 119.562 442.102 119.375C444.07 119.188 445.945 119.023 447.727 118.883C449.555 118.695 450.82 118.578 451.523 118.531V114.594C451.523 111.406 450.398 109.109 448.148 107.703C445.945 106.297 442.852 105.594 438.867 105.594C436.102 105.594 433.312 106.156 430.5 107.281C427.734 108.406 424.828 110.047 421.781 112.203C421.781 111.031 421.828 109.32 421.922 107.07C422.016 104.773 422.133 103.062 422.273 101.938C424.992 100.766 427.828 99.6875 430.781 98.7031C433.781 97.6719 437.273 97.1562 441.258 97.1562C447.352 97.1562 452.203 98.5859 455.812 101.445C459.469 104.258 461.297 107.75 461.297 111.922V132.523C461.297 136.32 461.648 139.789 462.352 142.93C463.102 146.023 464.062 149.047 465.234 152H455.742C455.414 151.156 454.992 150.008 454.477 148.555C453.961 147.102 453.516 145.531 453.141 143.844C450 147.172 446.742 149.586 443.367 151.086C439.992 152.539 436.664 153.266 433.383 153.266ZM434.93 144.617C437.648 144.617 440.297 144.055 442.875 142.93C445.5 141.805 448.383 139.133 451.523 134.914V125.914C450.68 125.961 449.367 126.078 447.586 126.266C445.852 126.406 444.07 126.57 442.242 126.758C440.414 126.945 438.938 127.109 437.812 127.25C433.359 127.766 430.219 128.961 428.391 130.836C426.609 132.664 425.719 134.797 425.719 137.234C425.719 139.578 426.539 141.406 428.18 142.719C429.82 143.984 432.07 144.617 434.93 144.617ZM499.828 153.266C492.609 153.266 486.703 150.898 482.109 146.164C477.562 141.383 475.289 134.469 475.289 125.422C475.289 119.375 476.461 114.242 478.805 110.023C481.148 105.805 484.242 102.617 488.086 100.461C491.977 98.2578 496.242 97.1562 500.883 97.1562C508.148 97.1562 514.031 99.5938 518.531 104.469C523.078 109.344 525.352 116.328 525.352 125.422C525.352 131.469 524.18 136.555 521.836 140.68C519.539 144.805 516.445 147.945 512.555 150.102C508.711 152.211 504.469 153.266 499.828 153.266ZM500.32 144.898C504.586 144.898 508.195 143.188 511.148 139.766C514.148 136.297 515.648 131.516 515.648 125.422C515.648 119.234 514.219 114.383 511.359 110.867C508.547 107.352 504.867 105.594 500.32 105.594C496.055 105.594 492.445 107.352 489.492 110.867C486.539 114.383 485.062 119.234 485.062 125.422C485.062 131.516 486.469 136.297 489.281 139.766C492.094 143.188 495.773 144.898 500.32 144.898Z" fill="white"/>
</svg>
