<svg width="2641" height="748" viewBox="0 0 2641 748" fill="none" xmlns="http://www.w3.org/2000/svg">
<path d="M935.992 562.026C922.068 562.026 908.145 569.313 894.222 583.887C856.42 628.325 813.609 650.511 765.918 650.511C697.537 650.511 660.191 618.696 653.685 555.26C655.637 556.17 657.589 557.146 659.475 557.992C684.655 569.248 711.851 574.908 741.064 574.908C770.928 574.908 797.604 568.598 821.156 555.975C844.709 543.353 863.122 526.437 876.395 505.226C889.667 484.016 896.304 460.463 896.304 434.568C896.304 410.69 890.318 388.634 878.411 368.399C866.505 348.165 849.068 332.094 826.166 320.123C803.264 308.216 776.263 302.231 745.098 302.231C707.297 302.231 673.594 312.706 644.121 333.591C614.582 354.476 591.55 382.713 574.959 418.172C570.079 428.648 565.98 439.448 562.532 450.509C562.857 444.588 563.053 438.602 563.053 432.616C563.053 392.798 559.084 361.178 551.146 337.625C543.208 314.072 527.593 302.296 504.366 302.296C491.093 302.296 478.796 307.436 467.541 317.716C456.22 327.996 450.624 340.423 450.624 354.997C450.624 359.616 451.6 369.44 453.617 384.34C455.634 399.239 456.61 413.032 456.61 425.655C456.61 468.141 450.494 505.942 438.197 539.059C425.9 572.241 411.326 598.071 394.41 616.679C377.494 635.287 362.725 644.526 350.167 644.526C341.514 644.526 335.268 641.402 331.234 635.091C327.265 628.78 325.248 618.37 325.248 603.731C325.248 594.427 327.265 573.867 331.234 542.052C333.902 522.143 336.504 499.306 339.172 473.411C341.839 447.516 343.141 421.36 343.141 394.815C343.141 377.573 338.521 363.975 329.217 354.021C319.913 344.066 306.966 339.121 290.44 339.121C274.5 339.121 261.617 344.456 251.663 355.062C241.708 365.667 236.763 379.59 236.763 396.832C236.763 420.385 235.397 446.8 232.729 475.948C229.021 505.552 222.97 532.813 214.382 557.537C204.102 587.075 192 610.237 178.077 627.154C164.153 644.07 150.555 652.528 137.282 652.528C126.677 652.528 118.87 648.364 113.925 640.101C108.98 631.838 106.443 616.744 106.443 594.818C106.443 576.275 108.069 554.544 111.387 529.625C114.706 504.771 116.722 489.026 117.373 482.389C125.311 429.363 129.28 391.236 129.28 368.009C129.28 324.222 112.038 302.361 77.5547 302.361C60.3131 302.361 46.8451 308.021 37.2809 319.277C27.6516 330.598 22.837 346.799 22.837 368.009C22.837 388.569 18.8682 427.346 10.9305 484.406C10.2799 492.344 8.26298 509.13 4.94478 534.635C1.62658 560.204 0 580.569 0 595.794C0 643.55 10.8004 680.831 32.3362 707.701C53.8719 734.572 82.5646 747.975 118.414 747.975C152.247 747.975 184.908 733.531 216.398 704.709C221.604 699.959 226.613 695.014 231.428 689.809C234.941 686.101 240.797 686.036 244.18 689.874L254.2 701.26C276.386 726.505 304.428 739.062 338.261 739.062C370.727 739.062 404.56 724.618 439.759 695.795C474.893 666.972 504.236 628.78 527.789 581.415C537.288 562.286 544.77 542.767 550.43 522.923C550.3 526.632 550.17 530.406 550.17 534.179C550.17 575.95 558.758 612.775 576.065 644.591C593.307 676.406 617.38 701.13 648.22 718.697C679.059 736.264 714.388 745.048 754.142 745.048C838.398 745.048 908.015 709.914 963.058 639.581C972.362 627.674 976.981 615.703 976.981 603.796C976.981 591.89 973.013 581.935 965.075 573.932C956.877 565.995 947.248 562.026 935.992 562.026ZM746.985 394.88C761.559 394.88 773.335 399.174 782.314 407.827C791.293 416.481 795.717 427.737 795.717 441.66C795.717 456.95 789.601 470.158 777.304 481.478C765.007 492.799 748.286 498.395 727.076 498.395C705.084 498.395 684.004 495.076 663.835 488.7C660.191 487.529 658.109 483.691 659.085 479.982C663.705 462.545 670.731 447.06 680.361 433.722C698.838 407.828 721.09 394.88 746.985 394.88Z" fill="white"/>
<path d="M2627.74 564.044C2619.42 556.107 2609.66 552.138 2598.4 552.138C2590.46 552.138 2582.66 554.48 2575.04 559.099C2567.43 563.719 2561.25 570.746 2556.63 579.985C2544.01 601.846 2530.93 619.152 2517.33 631.709C2503.74 644.332 2490.98 650.643 2479.01 650.643C2467.11 650.643 2455.78 645.047 2445.18 633.726C2434.57 622.471 2429.24 609.523 2429.24 594.949C2429.24 590.98 2431.26 586.686 2435.22 582.002C2439.19 577.382 2445.7 572.047 2454.61 566.061C2463.59 560.075 2469.38 556.106 2472.05 554.155C2493.91 538.93 2511.67 522.014 2525.27 503.406C2538.87 484.863 2545.64 460.66 2545.64 430.796C2545.64 400.281 2534.38 373.931 2511.8 351.68C2489.23 329.493 2461.38 318.367 2428.26 318.367C2388.44 318.367 2352.01 333.267 2318.83 363.131C2310.24 370.808 2302.24 379.266 2294.69 388.31C2293 390.392 2289.68 389.091 2289.81 386.358C2291.5 353.892 2294.04 324.223 2297.36 297.417C2297.81 293.904 2300.8 291.301 2304.38 291.171C2348.17 289.87 2387.01 282.518 2420.78 269.115C2458.26 254.216 2487.08 233.656 2507.31 207.436C2527.55 181.215 2537.63 152.197 2537.63 120.382C2537.63 85.8985 2525.86 57.401 2502.3 34.8243C2478.75 12.3126 2448.43 0.991699 2411.28 0.991699C2343.62 0.991699 2288.57 36.6461 2246.15 107.955C2231.84 132.028 2220 161.436 2210.5 195.92C2205.62 195.334 2201.58 194.944 2198.4 194.944C2180.37 194.944 2167.36 201.58 2159.36 214.918C2156.04 220.448 2154.02 226.824 2153.7 233.331C2153.11 244.261 2156.43 254.021 2163.59 262.609C2168.34 268.269 2176.93 274.906 2190.46 279.525C2192.22 280.111 2193.32 281.737 2193.06 283.559C2186.49 332.942 2180.89 404.12 2182.26 460.009C2182.39 465.735 2181.54 471.33 2179.46 476.665C2169.9 501.389 2150.05 527.349 2128.78 540.622C2117.65 547.583 2105.94 552.854 2093.65 556.562C2097.81 536.328 2099.89 515.247 2099.89 493.386C2099.89 454.283 2092.6 420.256 2078.03 391.433C2063.46 362.61 2045.5 340.879 2024.29 326.24C2009.52 316.09 1995.27 309.584 1981.54 306.461C1965.34 301.711 1947.45 299.369 1927.8 299.369C1888.63 299.369 1853.17 311.146 1821.36 334.698C1789.54 358.251 1764.62 389.611 1746.73 428.714C1738.34 446.996 1732.03 465.93 1727.6 485.579C1716.87 509.587 1701.45 527.935 1681.08 540.687C1672.49 546.022 1663.58 550.381 1654.28 553.829C1650.57 555.196 1646.86 552.138 1647.58 548.234C1650.7 530.602 1652.26 512.319 1652.26 493.451C1652.26 454.349 1644.97 420.321 1630.4 391.498C1615.82 362.675 1597.87 340.944 1576.66 326.305C1561.89 316.155 1547.64 309.649 1533.91 306.526C1517.71 301.777 1499.82 299.434 1480.17 299.434C1441 299.434 1405.54 311.211 1373.73 334.763C1335.27 363.196 1306.97 403.014 1288.88 454.153C1286.35 461.375 1284.4 468.792 1282.25 476.145C1279 487.14 1275.09 498.006 1270.67 508.611C1256.29 543.419 1240.61 573.023 1223.5 597.421C1199.62 631.579 1176.39 648.626 1153.88 648.626C1133.32 648.626 1116.6 635.223 1103.65 608.352C1095.58 591.566 1090.05 568.273 1087 538.475C1085.82 526.698 1089.6 514.922 1097.08 505.748C1146.92 444.524 1187.58 383.04 1219.01 321.295C1256.48 247.644 1275.22 181.02 1275.22 121.293C1275.22 86.8094 1265.46 59.0927 1245.88 38.2076C1226.29 17.3224 1201.25 6.8474 1170.8 6.8474C1109.77 6.8474 1062.99 44.3235 1030.52 119.276C997.989 194.228 981.789 310.3 981.789 467.491C981.789 563.654 996.363 633.661 1025.58 677.383C1054.72 721.171 1093.89 743.032 1142.95 743.032C1196.04 743.032 1242.56 711.737 1282.44 649.211C1284.59 645.893 1289.6 646.088 1291.23 649.667C1298.12 664.696 1306.78 678.424 1317.51 690.786C1347.7 725.595 1388.95 743.032 1441.39 743.032C1482.51 743.032 1519.14 731.776 1551.35 709.199C1573.08 693.974 1591.43 675.171 1606.46 652.855C1610.36 647.064 1616.54 643.291 1623.44 642.25C1655.06 637.695 1688.89 625.594 1717.32 604.708C1720.32 602.496 1724.48 604.123 1725.26 607.766C1731.96 639.972 1745.23 667.754 1765.21 690.786C1795.4 725.595 1836.65 743.032 1889.09 743.032C1930.21 743.032 1966.84 731.776 1999.04 709.199C2020.77 693.974 2039.12 675.171 2054.15 652.855C2058.06 647.064 2064.3 643.225 2071.2 642.25C2103.99 637.565 2135.03 625.268 2164.17 605.229C2168.21 602.431 2172.11 599.503 2175.88 596.445C2179.14 593.778 2184.02 596.12 2184.15 600.284C2184.99 632.035 2186.1 658.711 2187.6 680.376C2188.9 700.286 2194.23 715.705 2203.54 726.636C2212.84 737.566 2225.4 743.032 2241.34 743.032C2258.58 743.032 2271.98 736.916 2281.61 724.619C2291.24 712.387 2295.4 695.926 2294.04 675.366C2292.48 650.317 2291.18 627.22 2290.07 605.684C2290.07 603.407 2290 601.195 2290 598.788C2290 560.336 2295.47 526.828 2306.4 498.331C2317.33 469.833 2331.58 448.298 2349.15 433.659C2366.71 419.085 2385.13 411.798 2404.38 411.798C2416.29 411.798 2425.46 414.595 2431.71 420.256C2438.02 425.916 2441.15 433.333 2441.15 442.637C2441.15 450.575 2437.5 459.033 2430.21 468.012C2422.93 476.99 2412.13 486.229 2397.88 495.859C2383.63 505.488 2374.52 511.604 2370.55 514.271C2355.26 524.226 2343.68 534.506 2335.74 545.111C2327.81 555.716 2323.84 568.013 2323.84 581.937C2323.84 611.15 2330.93 638.151 2345.24 663.005C2359.49 687.859 2378.42 707.638 2401.98 722.212C2425.53 736.786 2450.25 744.073 2476.08 744.073C2506.6 744.073 2535.1 733.272 2561.64 711.736C2588.12 690.201 2611.67 659.491 2632.3 619.738C2637.57 610.434 2640.24 601.846 2640.24 593.843C2640.17 581.936 2636.01 571.982 2627.74 564.044ZM1127.01 149.66C1139.57 116.153 1152.19 99.4316 1164.81 99.4316C1176.07 99.4316 1181.73 110.037 1181.73 131.247C1181.73 155.776 1174.57 189.609 1160.32 232.745C1146.07 275.882 1126.29 320.775 1101.11 367.555C1097.01 375.102 1092.85 382.454 1088.62 389.611C1087.97 390.782 1086.15 390.262 1086.15 388.961C1085.76 363.196 1091.74 318.107 1096.1 286.487C1104.11 228.776 1114.39 183.167 1127.01 149.66ZM1522.46 532.164C1500.92 511.604 1490.12 484.408 1490.12 450.575C1490.12 435.35 1492.27 423.249 1496.56 414.27C1500.86 405.291 1506.65 400.867 1514 400.867C1525.91 400.867 1535.73 410.171 1543.34 428.714C1550.96 447.257 1554.8 468.532 1554.8 492.41C1554.8 509.977 1553.43 526.113 1550.89 540.947C1549.98 546.022 1544.26 548.755 1539.9 545.957C1533.72 541.988 1527.92 537.434 1522.46 532.164ZM1450.31 650.578C1425.06 650.578 1405.87 641.469 1392.59 623.251C1379.32 605.034 1372.69 580.635 1372.69 550.121C1372.69 524.226 1377.3 498.526 1386.61 473.022C1393.7 453.438 1403.13 436.586 1414.78 422.468C1417.19 419.54 1421.87 421.947 1421.09 425.591C1417.45 443.093 1415.5 459.423 1415.5 474.518C1415.5 507.049 1423.43 536.197 1439.37 562.092C1454.21 586.165 1475.16 606.66 1503.46 622.275C1506.65 624.032 1507.04 628.326 1504.24 630.668C1488.37 643.876 1470.41 650.578 1450.31 650.578ZM1970.09 532.164C1948.56 511.604 1937.75 484.408 1937.75 450.575C1937.75 435.35 1939.9 423.249 1944.2 414.27C1948.49 405.291 1954.28 400.867 1961.63 400.867C1973.54 400.867 1983.36 410.171 1990.98 428.714C1998.59 447.257 2002.43 468.532 2002.43 492.41C2002.43 509.977 2001.06 526.113 1998.52 540.947C1997.61 546.022 1991.89 548.755 1987.53 545.957C1981.41 541.988 1975.62 537.434 1970.09 532.164ZM1898 650.578C1872.76 650.578 1853.56 641.469 1840.29 623.251C1827.02 605.034 1820.38 580.635 1820.38 550.121C1820.38 524.226 1825 498.526 1834.31 473.022C1841.4 453.438 1850.83 436.586 1862.48 422.468C1864.88 419.54 1869.57 421.947 1868.79 425.591C1865.14 443.093 1863.19 459.423 1863.19 474.518C1863.19 507.049 1871.13 536.197 1887.07 562.092C1901.71 585.905 1926.17 609.328 1951.09 622.47C1954.28 624.162 1954.54 628.521 1951.74 630.799C1935.93 643.941 1918.04 650.578 1898 650.578ZM2404.38 93.4458C2414.99 93.4458 2423.45 96.764 2429.76 103.4C2436.07 110.037 2439.19 119.015 2439.19 130.271C2439.19 142.178 2434.25 154.019 2424.29 165.6C2414.34 177.247 2398.72 187.006 2377.51 194.944C2359.75 201.58 2338.74 205.419 2314.47 206.525C2315.83 201.515 2317.33 196.635 2318.83 191.951C2340.04 126.302 2368.54 93.4458 2404.38 93.4458Z" fill="white"/>
</svg>
